<svg id="Layer_1" data-name="Layer 1" xmlns="http://www.w3.org/2000/svg" viewBox="0 0 258 230"><defs><style>.cls-1{fill:#325100;}.cls-2{fill:none;stroke:#fff;stroke-miterlimit:10;stroke-width:1.06px;}.cls-3{fill:#fff;}.cls-4{fill:#a9e647;}</style></defs><title>w3</title><path class="cls-1" d="M238.818,109.985a13.15,13.15,0,0,0,7.703,11.45,11.6209,11.6209,0,0,1,6.571,10.194l2.99,74.73A11.943,11.943,0,0,1,244.681,218.7L21.9436,229.284A11.73,11.73,0,0,1,9.6007,218.07l-2.99-74.73a11.8278,11.8278,0,0,1,5.7312-10.778A13.3882,13.3882,0,0,0,19.1,120.424a13.14,13.14,0,0,0-7.7013-11.438,11.6194,11.6194,0,0,1-6.57-10.193l-2.99-74.731a11.9436,11.9436,0,0,1,11.4-12.3414L235.975,1.1376a11.7293,11.7293,0,0,1,12.343,11.2133l2.99,74.7309a11.827,11.827,0,0,1-5.731,10.7775A13.3836,13.3836,0,0,0,238.818,109.985Z"/><path class="cls-2" d="M21.7557,224.545a7.02,7.02,0,0,1-7.3778-6.703l-2.99-74.729a7.0793,7.0793,0,0,1,3.3207-6.449,18.1217,18.1217,0,0,0,9.1684-16.466,17.788,17.788,0,0,0-10.4482-15.523,6.9515,6.9515,0,0,1-3.8232-6.1084l-2.99-74.73A7.1481,7.1481,0,0,1,13.43,16.4592L236.163,5.8765a7.0188,7.0188,0,0,1,7.378,6.7025l2.99,74.7305a7.0781,7.0781,0,0,1-3.321,6.4479,18.11,18.11,0,0,0-9.17,16.4546,17.7964,17.7964,0,0,0,10.449,15.534,6.9552,6.9552,0,0,1,3.824,6.11l2.99,74.729a7.1483,7.1483,0,0,1-6.814,7.377Z"/><path class="cls-3" d="M233.622,209.948l-201.7154,9.52a12.0167,12.0167,0,0,1-12.67-11.45l-1.8644-46.409a12.2229,12.2229,0,0,1,11.704-12.601l201.7149-9.52a12.0164,12.0164,0,0,1,12.67,11.451l1.864,46.408A12.2208,12.2208,0,0,1,233.622,209.948Z"/><path class="cls-4" d="M215.975,31.2414a1.3758,1.3758,0,0,1-1.313,1.4213,1.35,1.35,0,0,1-1.422-1.2914,1.3752,1.3752,0,0,1,1.313-1.4214A1.3518,1.3518,0,0,1,215.975,31.2414Z"/><path class="cls-4" d="M227.897,50.5228a1.2039,1.2039,0,0,0,1.149-1.2442,1.1822,1.1822,0,0,0-1.244-1.1306,1.2033,1.2033,0,0,0-1.149,1.2442A1.1822,1.1822,0,0,0,227.897,50.5228Z"/><path class="cls-4" d="M235.908,26.449a1.8931,1.8931,0,0,1-1.807,1.9557,1.8579,1.8579,0,0,1-1.955-1.7771,1.8915,1.8915,0,0,1,1.806-1.9557A1.8593,1.8593,0,0,1,235.908,26.449Z"/><path class="cls-4" d="M232.948,76.2479a1.0323,1.0323,0,0,1-.985,1.0666,1.0136,1.0136,0,0,1-1.066-.9692,1.0324,1.0324,0,0,1,.985-1.0666A1.0136,1.0136,0,0,1,232.948,76.2479Z"/><path class="cls-4" d="M219.985,96.2677a1.204,1.204,0,0,0,1.149-1.2442,1.1822,1.1822,0,0,0-1.244-1.1306,1.2039,1.2039,0,0,0-1.149,1.2442A1.1822,1.1822,0,0,0,219.985,96.2677Z"/><path class="cls-4" d="M222.076,124.508a1.3765,1.3765,0,0,1-1.314,1.422,1.3519,1.3519,0,0,1-1.422-1.292,1.3761,1.3761,0,0,1,1.313-1.421A1.3526,1.3526,0,0,1,222.076,124.508Z"/><path class="cls-4" d="M202.614,22.2626a1.7209,1.7209,0,0,1-1.642,1.7781,1.6883,1.6883,0,0,1-1.777-1.6157,1.7194,1.7194,0,0,1,1.641-1.7781A1.6919,1.6919,0,0,1,202.614,22.2626Z"/><path class="cls-4" d="M25.4967,35.42A1.5476,1.5476,0,0,0,26.9738,33.82a1.52,1.52,0,0,0-1.5993-1.4533,1.5478,1.5478,0,0,0-1.4772,1.5994A1.52,1.52,0,0,0,25.4967,35.42Z"/><path class="cls-4" d="M43.4523,51.71a1.0327,1.0327,0,0,1-.9851,1.0666,1.0143,1.0143,0,0,1-1.0666-.9692,1.0327,1.0327,0,0,1,.9851-1.0666A1.0143,1.0143,0,0,1,43.4523,51.71Z"/><path class="cls-4" d="M28.5091,69.423a2.0643,2.0643,0,0,0,1.97-2.1332,2.0276,2.0276,0,0,0-2.1333-1.9385,2.0643,2.0643,0,0,0-1.97,2.1333A2.0275,2.0275,0,0,0,28.5091,69.423Z"/><path class="cls-4" d="M29.8079,99.0694a1.0328,1.0328,0,0,1-.9851,1.0666,1.0144,1.0144,0,0,1-1.0667-.9692A1.0329,1.0329,0,0,1,28.7413,98.1,1.0143,1.0143,0,0,1,29.8079,99.0694Z"/><path class="cls-4" d="M49.1233,84.2318A1.5476,1.5476,0,0,0,50.6,82.6324a1.52,1.52,0,0,0-1.5993-1.4532,1.5476,1.5476,0,0,0-1.4771,1.5993A1.52,1.52,0,0,0,49.1233,84.2318Z"/><path class="cls-4" d="M45.5813,120.569a1.5471,1.5471,0,0,0,1.4771-1.599,1.5194,1.5194,0,0,0-1.5993-1.453,1.5471,1.5471,0,0,0-1.4772,1.599A1.52,1.52,0,0,0,45.5813,120.569Z"/><path class="cls-4" d="M33.0671,134.769a1.3759,1.3759,0,0,1-1.3136,1.421,1.352,1.352,0,0,1-1.4221-1.292,1.3765,1.3765,0,0,1,1.3135-1.421A1.3514,1.3514,0,0,1,33.0671,134.769Z"/><path class="cls-4" d="M85.5586,67.8654a3.0583,3.0583,0,0,0,1.78-.5035,1.4236,1.4236,0,0,0,.5456-1.2634,1.604,1.604,0,0,0-.25-.8415,1.9736,1.9736,0,0,0-.6061-.5741,3.3545,3.3545,0,0,0-.85-.3893q-.4725-.1731-.9827-.3253-.9414-.2691-1.7089-.5456a6.0026,6.0026,0,0,1-1.3072-.66,2.9866,2.9866,0,0,1-.8565-.9894,3.5906,3.5906,0,0,1-.3564-1.5148,3.4248,3.4248,0,0,1,1.657-3.3262,4.7472,4.7472,0,0,1,1.6568-.6531,10.5281,10.5281,0,0,1,1.714-.23,11.0657,11.0657,0,0,1,1.9015.0724q.9155.1152,1.5988.24l.0975,2.2428a18.0051,18.0051,0,0,0-1.9334-.3615,10.4274,10.4274,0,0,0-1.8056-.0959,3.2886,3.2886,0,0,0-2.0083.5909,1.44,1.44,0,0,0-.5868,1.2071,1.3143,1.3143,0,0,0,.3278.8574,3.0526,3.0526,0,0,0,.7608.5675,4.949,4.949,0,0,0,.9457.3656q.5085.1135.92.2119a11.9,11.9,0,0,1,1.413.4229,4.5392,4.5392,0,0,1,1.2887.68,3.4277,3.4277,0,0,1,.9784,1.12,3.6568,3.6568,0,0,1,.4211,1.667,3.9777,3.9777,0,0,1-.2909,1.7753,3.3017,3.3017,0,0,1-.9508,1.3,4.3509,4.3509,0,0,1-1.4946.82,7.1718,7.1718,0,0,1-1.9419.3362,12.833,12.833,0,0,1-2.0964-.1026,12.5527,12.5527,0,0,1-2.2688-.5019l-.1807-2.3748a6.7649,6.7649,0,0,0,.8852.31q.5288.132,1.1348.2607.6246.1085,1.2475.1782A10.002,10.002,0,0,0,85.5586,67.8654Zm4.9662-7.77A3.17,3.17,0,0,0,91.56,59.837a1.6925,1.6925,0,0,0,.6338-.57A3.0857,3.0857,0,0,0,92.597,58.3q.1488-.5876.2875-1.4071l1.7754-.6q-.1278,1.071-.1892,1.8872t-.1051,1.5929l2.0881-.0907-.1027,1.651-2.0166-.048q-.0268,1.1634-.0227,2.1511.0226.9676.0529,1.6636.0344.7927.0941,1.2744a3.5873,3.5873,0,0,0,.1866.7279.7274.7274,0,0,0,.3051.3355,1.312,1.312,0,0,0,.4867.0563,2.9523,2.9523,0,0,0,.75-.1294,2.7843,2.7843,0,0,0,.607-.2976l-.2027,2.0234a4.369,4.369,0,0,1-.8541.4051,3.07,3.07,0,0,1-.9608.1773,3.008,3.008,0,0,1-1.13-.1446,1.8569,1.8569,0,0,1-.84-.6027,3.421,3.421,0,0,1-.5153-1.1592,8.7808,8.7808,0,0,1-.2319-1.7721q-.0378-.87-.0151-2.13.0421-1.2609.08-2.6185l-1.4114.0613Zm11.0862.7193a1.5139,1.5139,0,0,0-1.35,1.0272,5.8271,5.8271,0,0,0-.37,2.6311,6.6589,6.6589,0,0,0,.4966,2.5159,1.4193,1.4193,0,0,0,1.431.8289,1.5486,1.5486,0,0,0,1.368-1.0473,6.0106,6.0106,0,0,0,.387-2.69,11.1392,11.1392,0,0,0-.138-1.3887,3.2243,3.2243,0,0,0-.335-1.0314,1.47,1.47,0,0,0-.59-.6523A1.576,1.576,0,0,0,101.611,60.8144Zm-4.25,3.8263a6.7082,6.7082,0,0,1,.2346-2.18,4.9377,4.9377,0,0,1,.8373-1.6829,4.0648,4.0648,0,0,1,1.4047-1.107,4.7354,4.7354,0,0,1,1.8793-.45,3.8179,3.8179,0,0,1,3.109,1.124,5.17,5.17,0,0,1,1.255,3.471,6.9745,6.9745,0,0,1-.233,2.2183,5.165,5.165,0,0,1-.854,1.7417,4.1711,4.1711,0,0,1-1.403,1.1458,4.55,4.55,0,0,1-1.84.4479,4.1988,4.1988,0,0,1-1.7555-.2724,3.687,3.687,0,0,1-1.3576-.9289,4.4544,4.4544,0,0,1-.8986-1.5106A6.6666,6.6666,0,0,1,97.3611,64.6407Zm9.6989.0629a9.0792,9.0792,0,0,1,.2-2.5269,5.0412,5.0412,0,0,1,.831-1.8182,3.68,3.68,0,0,1,1.308-1.1222,4.235,4.235,0,0,1,1.705-.4227,3.5029,3.5029,0,0,1,.991.0731,3.8479,3.8479,0,0,0,.894.0581,2.0744,2.0744,0,0,0,.404-.0563q.192-.0471.574-.18l.375,3.7416-1.884.3336a57.9545,57.9545,0,0,0,.008-.717,2.3113,2.3113,0,0,0-.452-1.4913,1.03,1.03,0,0,0-.813-.43,1.4519,1.4519,0,0,0-1.331,1.0264,7.0843,7.0843,0,0,0-.321,2.8614,3.9817,3.9817,0,0,0,.602,2.26,1.7713,1.7713,0,0,0,1.538.63,3.9842,3.9842,0,0,0,1.324-.29q.666-.2808,1.159-.5153l.074,1.7014a3.3653,3.3653,0,0,1-1.455.838,6.58,6.58,0,0,1-1.73.3076,5.8012,5.8012,0,0,1-1.419-.1126,3.0062,3.0062,0,0,1-1.246-.5851,3.4879,3.4879,0,0,1-.909-1.3165A6.5145,6.5145,0,0,1,107.06,64.7036Zm10.985-11.1892q-.0285.6792-.036,1.3963.012.7161.03,1.587.0375.8508.064,1.915.0465,1.0633.106,2.4361l.069,1.6047q.9945-1.2054,1.766-2.1687t1.543-1.9267l2.64.1178q-.4275.4254-.817.81-.3915.3657-.855.8314-.4455.4455-1.002,1.0314-.537.5656-1.256,1.3911a4.2882,4.2882,0,0,1,2.608.739,2.9833,2.9833,0,0,1,1.074,2.4328,9.874,9.874,0,0,1-.027,1.1634q-.03.6405-.04,1.3l-2.464.3588q.0435-.7767.073-1.4366a10.3959,10.3959,0,0,0,.026-1.202,2.7144,2.7144,0,0,0-.476-1.5871,1.8038,1.8038,0,0,0-1.571-.4935,6.099,6.099,0,0,0-1.155.1664q.054,1.2374.1,2.3007.0645,1.0626.15,2.1243l-2.61.1134q-.024-1.0062-.038-1.7611c.004-.5167-.001-1.0589-.012-1.6266s-.027-1.2192-.047-1.9544q-.0285-1.1223-.102-2.8043-.066-1.5081-.156-3.1506-.0915-1.662-.225-3.3995Zm17.893,14.3705q-.411-.5439-.661-.94a3.4491,3.4491,0,0,1-.385-.8355q-.276.3413-.59.6842a5.588,5.588,0,0,1-.71.6119,3.8088,3.8088,0,0,1-.813.4422,2.6391,2.6391,0,0,1-.96.216,2.6829,2.6829,0,0,1-.955-.1329,2,2,0,0,1-.817-.5455,3.0457,3.0457,0,0,1-.609-1.0777,6.0438,6.0438,0,0,1-.288-1.7309q-.012-.2513-.034-.7733-.0045-.5422-.01-1.1231-.006-.6-.03-1.1415-.0045-.5422-.017-.8322a7.3865,7.3865,0,0,0-.149-1.2139,2.7918,2.7918,0,0,0-.333-.9734l2.628-.5791a3.8,3.8,0,0,1,.197.96q.0615.52.078.907c.016.3738.02.7481.01,1.123q.0045.5616-.01,1.1046.003.5229-.014,1.0079c0,.31.006.5809.016.8129a2.3722,2.3722,0,0,0,.454,1.5492,1.3664,1.3664,0,0,0,1.082.3792,2.2382,2.2382,0,0,0,.959-.2354,3.5419,3.5419,0,0,0,.714-.4959q-.0345-.3471-.053-.7725c-.013-.2965-.027-.6316-.044-1.0054-.025-.5929-.049-1.1278-.069-1.6047s-.047-.9213-.078-1.3332c-.017-.4125-.041-.7989-.069-1.1592q-.0255-.5607-.069-1.14l2.61-.1134c0,.31.003.6585.007,1.0457s.002.8006-.005,1.24q.009.6389.02,1.3357.009.6776.037,1.3156.033.754.093,1.2357a3.8091,3.8091,0,0,0,.191.8247,3.0438,3.0438,0,0,0,.338.6439q.2055.2815.532.6548Zm11.419-6.54a10.2165,10.2165,0,0,1-.194,2.6622,5.3659,5.3659,0,0,1-.77,1.9124,3.6271,3.6271,0,0,1-1.246,1.197,3.7922,3.7922,0,0,1-1.666.44,2.6923,2.6923,0,0,1-.817-.0807,3.2547,3.2547,0,0,1-.707-.24q.0285.6573.052,1.218c.017.3738.032.7347.047,1.0827q.0435.5406.084,1.0424.042.5019.085,1.0424l-2.621.3269q.0075-1.182-.022-2.3042-.0105-1.123-.041-2.2646-.03-1.1608-.082-2.34t-.107-2.4748q-.033-.754-.092-1.2164a3.5263,3.5263,0,0,0-.191-.8246,2.5543,2.5543,0,0,0-.338-.6439,7.44,7.44,0,0,0-.533-.6742l2.194-1.6644a9.781,9.781,0,0,1,.642.9407,3.228,3.228,0,0,1,.383.7969q.2955-.3228.631-.6472a5.8648,5.8648,0,0,1,.768-.5952,4.0329,4.0329,0,0,1,.871-.464,2.9481,2.9481,0,0,1,.998-.2176,2.4767,2.4767,0,0,1,.916.1345,1.82,1.82,0,0,1,.84.6027,3.6978,3.6978,0,0,1,.615,1.2324A8.0289,8.0289,0,0,1,147.357,61.3451Zm-5.483,3.9961a1.5137,1.5137,0,0,0,1.433.8676,1.4144,1.4144,0,0,0,1.25-1.081,7.6722,7.6722,0,0,0,.333-3.0556,6.7122,6.7122,0,0,0-.153-1.2719,2.2008,2.2008,0,0,0-.303-.7422.89.89,0,0,0-.441-.3489,1.3487,1.3487,0,0,0-.526-.074,3.063,3.063,0,0,0-1.037.2194,3.8942,3.8942,0,0,0-.813.4614,7.6821,7.6821,0,0,1,.074.81l.045,1.0247Zm9.639-7.8958,1.505-.1429q.0045-.3488-.008-.6388c.004-.2068.014-.4075.032-.6019a10.7526,10.7526,0,0,1,.205-1.9654,2.64,2.64,0,0,1,1.563-1.9274,3.7119,3.7119,0,0,1,1.323-.3093,2.8635,2.8635,0,0,1,.954.1135,3.7867,3.7867,0,0,1,.947.4043l-.138,1.73a4.8053,4.8053,0,0,0-.861-.2144,3.15,3.15,0,0,0-.72-.0656,1.25,1.25,0,0,0-.556.14.858.858,0,0,0-.352.364,2.0368,2.0368,0,0,0-.164.6851,8.2391,8.2391,0,0,0-.012,1.0659l.046,1.044,2.088-.0907-.103,1.651-1.92-.0522.209,4.8142c.016.348.029.6638.042.9473s.03.56.055.8306q.036.3858.053.7725.036.3858.092.79l-2.397.1041q-.072-1.6434-.128-2.9388t-.099-2.2814q-.0435-1.0053-.075-1.74-.0135-.755-.039-1.3349l-1.353.0588Zm10.653.7382a1.5118,1.5118,0,0,0-1.35,1.0272,5.8224,5.8224,0,0,0-.37,2.6311,6.66,6.66,0,0,0,.496,2.5159,1.42,1.42,0,0,0,1.431.8289,1.5509,1.5509,0,0,0,1.369-1.0473,5.9978,5.9978,0,0,0,.386-2.69,11.3412,11.3412,0,0,0-.137-1.3887,3.2488,3.2488,0,0,0-.336-1.0314,1.465,1.465,0,0,0-.59-.6524A1.5726,1.5726,0,0,0,162.166,58.1836ZM157.915,62.01a6.73,6.73,0,0,1,.235-2.18,4.9363,4.9363,0,0,1,.837-1.6829,4.0705,4.0705,0,0,1,1.405-1.107,4.7393,4.7393,0,0,1,1.879-.45,3.8167,3.8167,0,0,1,3.109,1.124,5.1653,5.1653,0,0,1,1.255,3.4709,6.9463,6.9463,0,0,1-.233,2.2184,5.1465,5.1465,0,0,1-.854,1.7417,4.16,4.16,0,0,1-1.403,1.1457,4.55,4.55,0,0,1-1.84.448,4.1952,4.1952,0,0,1-1.755-.2724,3.6909,3.6909,0,0,1-1.358-.9289,4.4485,4.4485,0,0,1-.898-1.5106A6.6693,6.6693,0,0,1,157.915,62.01Zm11.438-5.8432a11.1755,11.1755,0,0,1,.687,1.0937,3.72,3.72,0,0,1,.371.9717,5.945,5.945,0,0,1,.457-.64,5.177,5.177,0,0,1,1.418-1.2432,3.0256,3.0256,0,0,1,.934-.3505l.293,2.7379a8.3964,8.3964,0,0,0-1.752.25,2.0334,2.0334,0,0,0-1.136.5918q.0345.3664.054.8112.018.4254.042.9667.027.6187.077,1.3332.0495.6952.098,1.3517.066.6363.129,1.1954t.116.886l-2.726.1184q.0015-.4068-.002-.949t-.01-1.1231q-.006-.5808-.032-1.18-.0075-.62-.032-1.18-.039-.8894-.102-1.4484a4.7746,4.7746,0,0,0-.197-.9793,3.482,3.482,0,0,0-.343-.76q-.2085-.34-.538-.79ZM82.4146,80.0789q-.4414,2.77-1.0333,5.1974-.5927,2.4084-1.3788,4.8251l-2.3293.3337q-.3237-.7608-.6506-1.5989-.3077-.839-.6161-1.6972-.3093-.8777-.5993-1.7561-.2706-.8793-.4816-1.7224-.2766,1.6586-.7424,3.4221t-.9609,3.296l-2.3294.3337q-.9927-2.34-1.8113-4.6865-.8-2.3672-1.4609-5.0891l2.4841-.34q.3748,1.94.8253,3.8383.469,1.8778,1.0128,3.6945.5012-1.8426.9063-3.6617.4247-1.82.7265-3.7894l2.484-.34q.4715,1.9359,1.038,3.829.5656,1.8738,1.2255,3.6853.385-1.8375.6936-3.6524t.5138-3.78Zm3.7482.07q-.0387.4472-.06.8549-.0016.4068.0008.91.021.4833.03,1.1415.0278.6381.0664,1.5274t.07,1.6047q.031.7155.058,1.3341.0462.6179.0705,1.1785.0429.5406.0874,1.12l-2.61.1134q-.0117-.7161-.0159-1.2584.0151-.543.0084-1.1432-.0075-.6195-.0209-1.3744-.0144-.7741-.0639-1.9149-.0453-1.044-.1041-1.9519-.06-.9273-.1656-2.0267Zm-2.8437-3.0339a1.3008,1.3008,0,0,1,.327-.944,1.3753,1.3753,0,0,1,1.0264-.4514,1.4907,1.4907,0,0,1,.981.2867,1.0656,1.0656,0,0,1,.464.8709,1.1779,1.1779,0,0,1-.3665.9264,1.4553,1.4553,0,0,1-1.0281.4127,1.6217,1.6217,0,0,1-.9793-.248A1.0518,1.0518,0,0,1,83.3191,77.1146ZM89.515,79.77a11.3826,11.3826,0,0,1,.6616.9592,3.8365,3.8365,0,0,1,.3858.8549q.2766-.3221.63-.6666a4.7978,4.7978,0,0,1,.7473-.633,4.58,4.58,0,0,1,.8894-.4841,2.9481,2.9481,0,0,1,.9978-.2177,2.5251,2.5251,0,0,1,.9356.1337,1.976,1.976,0,0,1,.8373.5447,3.0475,3.0475,0,0,1,.6085,1.0777,6.05,6.05,0,0,1,.2883,1.7308q.0118.2708.0151.7936.0226.522.0294,1.1222.0058.5808.01,1.123.0234.5413.0361.8314a9.6775,9.6775,0,0,0,.1311,1.234,3.0467,3.0467,0,0,0,.3513.9533l-2.6673.5808a4.4476,4.4476,0,0,1-.216-.9592q-.042-.5211-.0588-.9078-.0235-.5414-.0285-1.1029.0135-.5817.01-1.1046.0151-.543.0143-1.0079.0177-.4849.0026-.833a2.3715,2.3715,0,0,0-.4548-1.5493,1.3659,1.3659,0,0,0-1.0818-.3791,3.0621,3.0621,0,0,0-1.0365.2193,3.88,3.88,0,0,0-.8129.4615,7.8181,7.8181,0,0,1,.074.81q.0192.4448.0445,1.0248.0386.8893.07,1.6047t.058,1.334q.0462.6178.07,1.1786.0429.54.0874,1.12l-2.61.1134q-.0007-.4648-.0067-1.0457t-.0142-1.22q.01-.659,0-1.3365-.0108-.6969-.0386-1.3349-.0327-.754-.0916-1.2164a3.5493,3.5493,0,0,0-.1908-.8247,2.58,2.58,0,0,0-.3379-.6439,7.5376,7.5376,0,0,0-.5329-.6742Zm7.8254.0474a3.1678,3.1678,0,0,0,1.0348-.258,1.6933,1.6933,0,0,0,.6338-.57,3.0867,3.0867,0,0,0,.4036-.9667q.1488-.5875.2875-1.4072l1.7759-.6q-.129,1.0708-.19,1.8871t-.105,1.593l2.088-.0907-.102,1.6509-2.017-.0479q-.027,1.1634-.023,2.1511.0225.9675.053,1.6636.0345.7926.094,1.2743a3.5967,3.5967,0,0,0,.187.728.7233.7233,0,0,0,.305.3354,1.3092,1.3092,0,0,0,.487.0564,2.9669,2.9669,0,0,0,.75-.13,2.7817,2.7817,0,0,0,.606-.2975l-.202,2.0233a4.3773,4.3773,0,0,1-.854.4052,3.0721,3.0721,0,0,1-.961.1773,3.01,3.01,0,0,1-1.13-.1446,1.855,1.855,0,0,1-.84-.6028,3.42,3.42,0,0,1-.5153-1.1592,8.78,8.78,0,0,1-.2319-1.772q-.0378-.87-.0151-2.13.0421-1.2609.08-2.6185l-1.4114.0613Zm9.4016,4.7441a3.6576,3.6576,0,0,0,.689,2.0428,1.916,1.916,0,0,0,1.553.5136,4.44,4.44,0,0,0,1.44-.295q.6855-.2622,1.122-.4749l.07,1.6047a3.3827,3.3827,0,0,1-1.513.8406,7.4139,7.4139,0,0,1-1.788.31,5.8013,5.8013,0,0,1-1.419-.1127,3.0247,3.0247,0,0,1-1.285-.6027,3.7219,3.7219,0,0,1-.949-1.3341,6.8329,6.8329,0,0,1-.43-2.3058,7.7778,7.7778,0,0,1,.242-2.4706,5.0913,5.0913,0,0,1,.87-1.8,4.0325,4.0325,0,0,1,1.386-1.1062,4.6107,4.6107,0,0,1,1.783-.4262,3.26,3.26,0,0,1,1.62.2783,2.5784,2.5784,0,0,1,1.023.8079,2.8794,2.8794,0,0,1,.533,1.139,5.9207,5.9207,0,0,1,.189,1.2315,6.0385,6.0385,0,0,1-.047,1.1256,3.3436,3.3436,0,0,1-.178.8213Zm1.484-4.19a1.3351,1.3351,0,0,0-1.151.7086,4.3638,4.3638,0,0,0-.395,2.0511l3.19-.1386c-.002-.0515-.005-.116-.008-.1933a1.34,1.34,0,0,0,.01-.2135,4.7249,4.7249,0,0,0-.088-.6935,2.4689,2.4689,0,0,0-.265-.744,1.6225,1.6225,0,0,0-.509-.559A1.139,1.139,0,0,0,108.226,80.3715Zm6.369-1.8069a10.9568,10.9568,0,0,1,.686,1.0936,3.7246,3.7246,0,0,1,.372.9718,5.78,5.78,0,0,1,.456-.64,4.4262,4.4262,0,0,1,.63-.6666,4.4786,4.4786,0,0,1,.788-.5766,3.0326,3.0326,0,0,1,.934-.35l.294,2.7379a8.3964,8.3964,0,0,0-1.752.25,2.04,2.04,0,0,0-1.137.5918q.036.3665.055.8112.018.4253.042.9667.027.6186.077,1.3332.0495.6951.098,1.3517.066.6363.129,1.1953t.116.8861l-2.726.1184q.0015-.4068-.003-.9491c-.002-.3614-.006-.7358-.01-1.123s-.014-.7807-.032-1.18q-.0075-.62-.031-1.18-.039-.8893-.102-1.4483a4.84,4.84,0,0,0-.198-.9794,3.4326,3.4326,0,0,0-.343-.76q-.2085-.34-.538-.79Zm5.401,8.7339a1.41,1.41,0,0,1,.363-1.023,1.5038,1.5038,0,0,1,1.121-.4943,1.6161,1.6161,0,0,1,1.079.3212,1.1375,1.1375,0,0,1,.506.9465,1.3047,1.3047,0,0,1-.401,1.0247,1.6316,1.6316,0,0,1-1.123.4363,1.7414,1.7414,0,0,1-1.078-.2825A1.1275,1.1275,0,0,1,119.996,87.2985Zm-.31-7.1536a1.4094,1.4094,0,0,1,.362-1.0231,1.5057,1.5057,0,0,1,1.121-.4942,1.6183,1.6183,0,0,1,1.08.3212,1.1423,1.1423,0,0,1,.506.9465,1.3117,1.3117,0,0,1-.401,1.0247,1.6336,1.6336,0,0,1-1.124.4362,1.7407,1.7407,0,0,1-1.078-.2824A1.1267,1.1267,0,0,1,119.686,80.1449Zm8.285,3.6691a9.0792,9.0792,0,0,1,.2-2.5269,5.0252,5.0252,0,0,1,.832-1.8182,3.6846,3.6846,0,0,1,1.307-1.1222,4.2357,4.2357,0,0,1,1.706-.4228,3.51,3.51,0,0,1,.991.0732,3.8356,3.8356,0,0,0,.893.058,2.07,2.07,0,0,0,.405-.0563c.127-.0314.319-.0913.573-.18l.376,3.7416-1.884.3337c.007-.1295.008-.2458.004-.3489a3.2057,3.2057,0,0,0,.003-.3682,2.2992,2.2992,0,0,0-.452-1.4912,1.0267,1.0267,0,0,0-.813-.43,1.4507,1.4507,0,0,0-1.33,1.0263,7.0645,7.0645,0,0,0-.322,2.8615,3.99,3.99,0,0,0,.602,2.26,1.7716,1.7716,0,0,0,1.538.63,3.979,3.979,0,0,0,1.324-.29q.666-.2808,1.16-.5152l.074,1.7014a3.3756,3.3756,0,0,1-1.456.838,6.5885,6.5885,0,0,1-1.73.3076,5.7971,5.7971,0,0,1-1.418-.1127,2.9933,2.9933,0,0,1-1.246-.5851,3.4993,3.4993,0,0,1-.91-1.3164A6.5381,6.5381,0,0,1,127.971,83.814Zm10.056-6.2675a11.1755,11.1755,0,0,1,.687,1.0937,3.7225,3.7225,0,0,1,.372.9717,5.78,5.78,0,0,1,.456-.64,4.3717,4.3717,0,0,1,.63-.6666,4.4474,4.4474,0,0,1,.788-.5767,3.0352,3.0352,0,0,1,.934-.35l.293,2.7379a8.3961,8.3961,0,0,0-1.751.2505,2.04,2.04,0,0,0-1.137.5917q.036.3666.055.8112.018.4254.042.9667.027.6187.077,1.3332.0495.6953.097,1.3517.0675.6364.13,1.1954t.116.886l-2.726.1184q.0015-.4068-.003-.949t-.01-1.1231q-.006-.5808-.032-1.18-.0075-.6195-.032-1.18-.0375-.8893-.101-1.4484a4.8371,4.8371,0,0,0-.198-.9793,3.4326,3.4326,0,0,0-.343-.76q-.2085-.34-.538-.79Zm7.31,5.3387a3.6569,3.6569,0,0,0,.689,2.0427,1.916,1.916,0,0,0,1.553.5136,4.44,4.44,0,0,0,1.44-.295q.6855-.2622,1.122-.4749l.07,1.6048a3.3817,3.3817,0,0,1-1.513.8405,7.409,7.409,0,0,1-1.788.31,5.8012,5.8012,0,0,1-1.419-.1126,3.0261,3.0261,0,0,1-1.285-.6028,3.721,3.721,0,0,1-.949-1.3341,6.8329,6.8329,0,0,1-.43-2.3058,7.7784,7.7784,0,0,1,.242-2.4706,5.0921,5.0921,0,0,1,.87-1.8,4.0325,4.0325,0,0,1,1.386-1.1062,4.6107,4.6107,0,0,1,1.783-.4262,3.2613,3.2613,0,0,1,1.62.2783,2.5793,2.5793,0,0,1,1.023.8079,2.88,2.88,0,0,1,.533,1.1391,5.9187,5.9187,0,0,1,.189,1.2315,6.0378,6.0378,0,0,1-.047,1.1255,3.3425,3.3425,0,0,1-.178.8213Zm1.484-4.19a1.3347,1.3347,0,0,0-1.151.7086,4.3636,4.3636,0,0,0-.395,2.051l3.19-.1386c-.002-.0515-.005-.116-.008-.1933a1.34,1.34,0,0,0,.01-.2135,4.7266,4.7266,0,0,0-.088-.6935,2.4689,2.4689,0,0,0-.265-.744,1.6234,1.6234,0,0,0-.509-.559A1.139,1.139,0,0,0,146.821,78.6948Zm7.336,8.4174a2.5414,2.5414,0,0,1-2.009-.7457,3.1527,3.1527,0,0,1-.828-2.1335,3.0462,3.0462,0,0,1,.715-2.2587,2.8909,2.8909,0,0,1,2.129-.9254,4.2093,4.2093,0,0,1,1.129.1059,3.5656,3.5656,0,0,1,1.024.401l-.047-1.0827a1.847,1.847,0,0,0-.403-1.2609,1.61,1.61,0,0,0-1.215-.3153,5.4238,5.4238,0,0,0-1.231.2084,3.7789,3.7789,0,0,0-1.009.3926l-.68-1.83a7.25,7.25,0,0,1,.686-.2622,7.8737,7.8737,0,0,1,.861-.2312q.462-.0974.943-.1571a7.499,7.499,0,0,1,.887-.0967q3.402-.1477,3.547,3.1777c.008.1933.008.4774-.002.8524.004.3743.001.7683-.007,1.1819q.0075.6-.009,1.1239c.002.3485.007.5937.013.7355a1.1452,1.1452,0,0,0,.163.6321.574.574,0,0,0,.511.1715,2.5766,2.5766,0,0,0,.577-.1025l-.229,1.87q-.306.11-.573.18a2.3323,2.3323,0,0,1-.52.0807,1.862,1.862,0,0,1-1.216-.3346,1.7235,1.7235,0,0,1-.629-1.1155,3.0459,3.0459,0,0,1-1.031,1.2457A2.9423,2.9423,0,0,1,154.157,87.1122Zm.85-1.8191a1.39,1.39,0,0,0,1.025-.49,1.5184,1.5184,0,0,0,.396-1.1407,1.2562,1.2562,0,0,0-.388-.9129,1.3085,1.3085,0,0,0-.982-.306,1.3236,1.3236,0,0,0-.989.43,1.4884,1.4884,0,0,0-.321,1.0794,1.599,1.599,0,0,0,.354,1.0112A1.1349,1.1349,0,0,0,155.007,85.2931Zm4.767-8.1877a3.1755,3.1755,0,0,0,1.035-.2581,1.6878,1.6878,0,0,0,.633-.57,3.0776,3.0776,0,0,0,.404-.9667q.1485-.5875.287-1.4071l1.776-.6q-.1275,1.071-.189,1.8872t-.105,1.5929l2.088-.0907-.103,1.651-2.017-.048q-.027,1.1634-.022,2.1511.0225.9676.052,1.6636.0345.7927.095,1.2744a3.6086,3.6086,0,0,0,.186.728.7337.7337,0,0,0,.305.3354,1.3142,1.3142,0,0,0,.487.0563,2.9515,2.9515,0,0,0,.75-.1294,2.7956,2.7956,0,0,0,.607-.2976l-.203,2.0234a4.3764,4.3764,0,0,1-.854.4051,3.0748,3.0748,0,0,1-.961.1774,3.0121,3.0121,0,0,1-1.13-.1447,1.8592,1.8592,0,0,1-.839-.6027,3.4174,3.4174,0,0,1-.516-1.1592,8.8011,8.8011,0,0,1-.231-1.7721q-.039-.87-.016-2.13.042-1.2609.08-2.6185l-1.411.0613Zm9.402,4.7441a3.6492,3.6492,0,0,0,.689,2.0427,1.9141,1.9141,0,0,0,1.552.5137,4.4429,4.4429,0,0,0,1.44-.295q.687-.2623,1.123-.475l.069,1.6048a3.3763,3.3763,0,0,1-1.513.84,7.4093,7.4093,0,0,1-1.788.31,5.8062,5.8062,0,0,1-1.419-.1127,3.0317,3.0317,0,0,1-1.285-.6028,3.7323,3.7323,0,0,1-.949-1.3341,6.8106,6.8106,0,0,1-.429-2.3058,7.7793,7.7793,0,0,1,.241-2.4705,5.0768,5.0768,0,0,1,.871-1.8006,4.021,4.021,0,0,1,1.385-1.1062,4.615,4.615,0,0,1,1.783-.4261,3.2591,3.2591,0,0,1,1.62.2783,2.5643,2.5643,0,0,1,1.023.8078,2.8955,2.8955,0,0,1,.534,1.1391,6.0546,6.0546,0,0,1,.189,1.2315,5.95,5.95,0,0,1-.048,1.1256,3.2971,3.2971,0,0,1-.178.8212Zm1.483-4.19a1.3331,1.3331,0,0,0-1.15.7086,4.362,4.362,0,0,0-.396,2.0511l3.191-.1386c-.003-.0516-.005-.116-.009-.1934a1.2315,1.2315,0,0,0,.01-.2135,4.7266,4.7266,0,0,0-.088-.6935,2.4406,2.4406,0,0,0-.265-.7439,1.62,1.62,0,0,0-.508-.5591A1.1422,1.1422,0,0,0,170.659,77.6591Zm11.047,8.2562a2.5414,2.5414,0,0,1-2.009-.7457,3.1477,3.1477,0,0,1-.828-2.1335,3.0462,3.0462,0,0,1,.715-2.2587,2.8912,2.8912,0,0,1,2.129-.9254,4.2023,4.2023,0,0,1,1.128.1059,3.5605,3.5605,0,0,1,1.025.401l-.047-1.0827a1.847,1.847,0,0,0-.403-1.2609,1.61,1.61,0,0,0-1.215-.3153,5.4187,5.4187,0,0,0-1.231.2085,3.7791,3.7791,0,0,0-1.009.3925l-.68-1.83a7.2205,7.2205,0,0,1,.686-.2623,7.874,7.874,0,0,1,.861-.2311q.46-.0975.943-.1572a7.4835,7.4835,0,0,1,.886-.0966q3.4035-.1479,3.548,3.1776c.008.1933.008.4775-.002.8524q.0045.5615-.007,1.1819.0075.6-.009,1.1239.003.5229.013.7355a1.1372,1.1372,0,0,0,.163.6322.5735.5735,0,0,0,.511.1715,2.5657,2.5657,0,0,0,.576-.1026l-.228,1.87q-.306.11-.574.18a2.312,2.312,0,0,1-.519.0807,1.862,1.862,0,0,1-1.216-.3346,1.7151,1.7151,0,0,1-.629-1.1155,3.0452,3.0452,0,0,1-1.031,1.2457A2.9443,2.9443,0,0,1,181.706,85.9153Zm.85-1.819a1.39,1.39,0,0,0,1.025-.49,1.5183,1.5183,0,0,0,.396-1.1407,1.2562,1.2562,0,0,0-.388-.9129,1.51,1.51,0,0,0-1.971.1244,1.4881,1.4881,0,0,0-.321,1.0793,1.6,1.6,0,0,0,.354,1.0113A1.1356,1.1356,0,0,0,182.556,84.0963ZM88.3575,99.84q-.4415,2.77-1.0333,5.1975-.5927,2.409-1.3787,4.825l-2.3294.334q-.3235-.7605-.6506-1.599-.3077-.8385-.6161-1.697-.3093-.8775-.5993-1.756-.2706-.8805-.4816-1.723-.2766,1.659-.7424,3.422t-.9609,3.296l-2.3293.334q-.9927-2.34-1.8114-4.687-.8-2.367-1.4608-5.089l2.484-.34q.3748,1.94.8253,3.838.4691,1.878,1.0129,3.695.501-1.8435.9063-3.662.4245-1.8195.7264-3.789l2.484-.341q.4714,1.9365,1.038,3.829.5656,1.8735,1.2255,3.686.385-1.8375.6936-3.653t.5138-3.78Zm3.4647,9.9995a2.5379,2.5379,0,0,1-2.0082-.745,3.1543,3.1543,0,0,1-.8287-2.134,3.0487,3.0487,0,0,1,.7154-2.259,2.8935,2.8935,0,0,1,2.1293-.925,4.2091,4.2091,0,0,1,1.1281.106,3.5511,3.5511,0,0,1,1.0247.401l-.047-1.083a1.8462,1.8462,0,0,0-.4035-1.261,1.6059,1.6059,0,0,0-1.2147-.315,5.4355,5.4355,0,0,0-1.2306.208,3.7946,3.7946,0,0,0-1.01.393l-.68-1.83a7.2157,7.2157,0,0,1,.6859-.262,7.921,7.921,0,0,1,.8617-.2315q.4607-.0975.9423-.1572a7.4936,7.4936,0,0,1,.8868-.0966q3.4029-.1479,3.5473,3.1773.0126.291-.0017.853.0051.561-.0067,1.182.0066.6-.0093,1.123.0033.5235.0126.736a1.1461,1.1461,0,0,0,.163.632.5761.5761,0,0,0,.5111.172,2.6233,2.6233,0,0,0,.5767-.103l-.2287,1.87q-.3052.1095-.5733.18a2.3819,2.3819,0,0,1-.52.08,1.8625,1.8625,0,0,1-1.2155-.334,1.7205,1.7205,0,0,1-.63-1.116,3.0458,3.0458,0,0,1-1.0307,1.246A2.9413,2.9413,0,0,1,91.8222,109.839Zm.8508-1.819a1.3892,1.3892,0,0,0,1.0247-.49,1.5206,1.5206,0,0,0,.396-1.141,1.2532,1.2532,0,0,0-.3883-.912,1.5072,1.5072,0,0,0-1.9705.124,1.4816,1.4816,0,0,0-.3211,1.079,1.59,1.59,0,0,0,.3539,1.011A1.1333,1.1333,0,0,0,92.673,108.02Zm8.052-13.7154q-.0285.6792-.037,1.3963.012.7162.031,1.5871.036.8506.063,1.9149.0465,1.0633.106,2.4361.0555,1.2765.101,2.32.045,1.0245.083,1.914c.039.593.07,1.159.093,1.701q.054.792.11,1.622l-2.61.114q-.0243-1.0065-.0386-1.781.0051-.7755-.0117-1.607-.0177-.852-.0445-1.916-.0278-1.083-.0983-2.708-.0714-1.6425-.1621-3.2855-.0917-1.6619-.2252-3.3994Zm4.484-.1948q-.0285.6792-.036,1.3963.012.7161.03,1.587.0375.8508.064,1.915.0465,1.0633.106,2.4359.0555,1.2765.101,2.32.0435,1.0245.083,1.914c.038.593.07,1.16.093,1.701q.054.792.109,1.622l-2.61.114q-.024-1.0065-.038-1.781.0045-.774-.012-1.607-.018-.852-.045-1.916-.027-1.083-.098-2.707-.07-1.644-.162-3.2863-.0915-1.662-.225-3.4Zm4.323,10.35a3.6567,3.6567,0,0,0,.689,2.042,1.9155,1.9155,0,0,0,1.553.514,4.4486,4.4486,0,0,0,1.44-.295q.6855-.2625,1.122-.475l.07,1.605a3.3724,3.3724,0,0,1-1.513.84,7.38,7.38,0,0,1-1.788.31,5.7812,5.7812,0,0,1-1.419-.112,3.037,3.037,0,0,1-1.286-.603,3.74,3.74,0,0,1-.949-1.334,6.8334,6.8334,0,0,1-.429-2.306,7.8044,7.8044,0,0,1,.241-2.47,5.1094,5.1094,0,0,1,.871-1.801,4.0244,4.0244,0,0,1,1.386-1.1062,4.6107,4.6107,0,0,1,1.783-.4261,3.2528,3.2528,0,0,1,1.619.2783,2.5643,2.5643,0,0,1,1.023.8078,2.8946,2.8946,0,0,1,.534,1.1392,6.0946,6.0946,0,0,1,.141,2.357,3.3475,3.3475,0,0,1-.177.821Zm1.484-4.191a1.3347,1.3347,0,0,0-1.151.709,4.3639,4.3639,0,0,0-.395,2.051l3.19-.139c-.002-.051-.005-.116-.008-.193a1.3435,1.3435,0,0,0,.01-.214,4.7346,4.7346,0,0,0-.089-.693,2.4406,2.4406,0,0,0-.264-.744,1.6252,1.6252,0,0,0-.509-.559A1.14,1.14,0,0,0,111.016,100.269Zm4.012-1.2008a3.1731,3.1731,0,0,0,1.035-.258,1.6984,1.6984,0,0,0,.634-.57,3.0786,3.0786,0,0,0,.403-.9667q.1485-.5876.288-1.4072l1.775-.6q-.1275,1.0708-.189,1.8872t-.105,1.5929l2.088-.0907-.103,1.6513-2.016-.048q-.027,1.1625-.023,2.151.0225.9675.053,1.663.0345.7935.094,1.275a3.55,3.55,0,0,0,.187.728.7212.7212,0,0,0,.305.335,1.2947,1.2947,0,0,0,.486.056,2.9467,2.9467,0,0,0,.75-.129,2.7462,2.7462,0,0,0,.607-.298l-.203,2.024a4.343,4.343,0,0,1-.854.405,3.06,3.06,0,0,1-.96.177,2.9957,2.9957,0,0,1-1.13-.144,1.8573,1.8573,0,0,1-.84-.603,3.4159,3.4159,0,0,1-.515-1.159,8.7291,8.7291,0,0,1-.232-1.772q-.0375-.87-.015-2.13.042-1.2615.08-2.619l-1.412.061Zm9.989-.4339,1.505-.1429c.002-.2325,0-.4455-.009-.6388q.006-.31.032-.6019a10.8427,10.8427,0,0,1,.205-1.9654,2.6458,2.6458,0,0,1,1.563-1.9274,3.7119,3.7119,0,0,1,1.323-.3093,2.8635,2.8635,0,0,1,.954.1135,3.7923,3.7923,0,0,1,.948.4043l-.138,1.73a4.8358,4.8358,0,0,0-.862-.2144,3.1372,3.1372,0,0,0-.719-.0656,1.2418,1.2418,0,0,0-.556.14.8524.8524,0,0,0-.352.364,2.0131,2.0131,0,0,0-.164.6851,7.8935,7.8935,0,0,0-.012,1.0659l.045,1.044,2.088-.0907-.102,1.6509-1.92-.0521.209,4.8141q.0225.522.041.947t.056.831c.024.257.041.515.052.772.025.258.055.521.093.791l-2.397.104q-.072-1.644-.128-2.939t-.099-2.281q-.0435-1.0065-.076-1.74-.0135-.756-.039-1.3354l-1.353.0588Zm10.652.7382a1.5116,1.5116,0,0,0-1.35,1.0275,5.82,5.82,0,0,0-.37,2.631,6.6633,6.6633,0,0,0,.497,2.516,1.42,1.42,0,0,0,1.431.829,1.5514,1.5514,0,0,0,1.368-1.048,6.01,6.01,0,0,0,.387-2.69,11.3244,11.3244,0,0,0-.138-1.388,3.2265,3.2265,0,0,0-.335-1.032,1.4712,1.4712,0,0,0-.59-.6522A1.576,1.576,0,0,0,135.669,99.3725Zm-4.25,3.8265a6.7054,6.7054,0,0,1,.234-2.18,4.9553,4.9553,0,0,1,.838-1.6828,4.0669,4.0669,0,0,1,1.404-1.107,4.7376,4.7376,0,0,1,1.879-.45,3.82,3.82,0,0,1,3.11,1.124,5.1692,5.1692,0,0,1,1.255,3.4705,6.9792,6.9792,0,0,1-.233,2.219,5.1917,5.1917,0,0,1-.854,1.742,4.1774,4.1774,0,0,1-1.403,1.145,4.5393,4.5393,0,0,1-1.841.448,4.21,4.21,0,0,1-1.755-.272,3.6887,3.6887,0,0,1-1.357-.929,4.4494,4.4494,0,0,1-.899-1.511A6.6372,6.6372,0,0,1,131.419,103.199Zm11.437-5.8434a11.1636,11.1636,0,0,1,.687,1.0937,3.7225,3.7225,0,0,1,.372.9717,5.78,5.78,0,0,1,.456-.64,4.3763,4.3763,0,0,1,.63-.6666,4.4519,4.4519,0,0,1,.788-.5766,3.0352,3.0352,0,0,1,.934-.35l.293,2.7379a8.3631,8.3631,0,0,0-1.751.2505,2.0416,2.0416,0,0,0-1.137.592q.036.366.055.811c.012.283.026.606.042.967q.027.618.077,1.333.05.6945.097,1.352.0675.636.13,1.195c.042.373.08.668.116.886l-2.726.118q.0015-.4065-.003-.949c-.003-.361-.006-.736-.01-1.123s-.014-.78-.032-1.18q-.0075-.6195-.032-1.18-.0375-.89-.101-1.449a4.8382,4.8382,0,0,0-.198-.979,3.4941,3.4941,0,0,0-.343-.76q-.2085-.34-.538-.79Zm12.929,7.4964a3.0566,3.0566,0,0,0,1.779-.503,1.4239,1.4239,0,0,0,.546-1.264,1.6059,1.6059,0,0,0-.25-.841,1.9635,1.9635,0,0,0-.606-.574,3.3219,3.3219,0,0,0-.85-.39q-.4725-.1725-.982-.325-.942-.2685-1.709-.546a6.0021,6.0021,0,0,1-1.307-.66,2.9849,2.9849,0,0,1-.857-.9895,3.59,3.59,0,0,1-.356-1.5148,3.4225,3.4225,0,0,1,1.657-3.3262,4.742,4.742,0,0,1,1.657-.6531,10.5167,10.5167,0,0,1,1.714-.23,11.0594,11.0594,0,0,1,1.901.0724q.915.1152,1.599.24l.097,2.2427a18.0178,18.0178,0,0,0-1.933-.3615,10.4365,10.4365,0,0,0-1.806-.0959,3.2883,3.2883,0,0,0-2.008.5909,1.4407,1.4407,0,0,0-.587,1.2071,1.316,1.316,0,0,0,.328.8574,3.0464,3.0464,0,0,0,.761.5675,4.948,4.948,0,0,0,.946.3657q.5085.1134.919.2118a11.8739,11.8739,0,0,1,1.413.4229,4.5355,4.5355,0,0,1,1.289.68,3.4305,3.4305,0,0,1,.978,1.12,3.6478,3.6478,0,0,1,.421,1.667,3.9636,3.9636,0,0,1-.291,1.775,3.3012,3.3012,0,0,1-.95,1.3,4.34,4.34,0,0,1-1.495.821,7.1941,7.1941,0,0,1-1.942.336,12.7466,12.7466,0,0,1-2.096-.103,12.4484,12.4484,0,0,1-2.269-.502l-.181-2.374a6.7634,6.7634,0,0,0,.885.31q.53.132,1.135.261c.417.072.832.131,1.248.178A10.0589,10.0589,0,0,0,155.785,104.852Zm11.407-10.5682a2.7351,2.7351,0,0,0-2.338,1.4769,7.41,7.41,0,0,0-.699,3.9819,8.3534,8.3534,0,0,0,.905,3.8734,2.588,2.588,0,0,0,2.494,1.228,2.5037,2.5037,0,0,0,1.318-.425,3.1964,3.1964,0,0,0,.996-1.147,5.63,5.63,0,0,0,.602-1.75,9.4189,9.4189,0,0,0,.152-2.2928,13.6016,13.6016,0,0,0-.248-2.1587,4.4325,4.4325,0,0,0-.572-1.5635,2.4238,2.4238,0,0,0-1.029-.9432A3.1638,3.1638,0,0,0,167.192,94.2838Zm-5.683,5.6319a9.35,9.35,0,0,1,.3-2.8993,6.4836,6.4836,0,0,1,1.121-2.2956,5.6757,5.6757,0,0,1,1.87-1.5534,5.8868,5.8868,0,0,1,2.49-.6313,5.6027,5.6027,0,0,1,2.399.38,4.6982,4.6982,0,0,1,1.837,1.2568,6.0026,6.0026,0,0,1,1.213,2.0587,9.1825,9.1825,0,0,1,.506,2.7286,9.3752,9.3752,0,0,1-.317,2.9577,7.1056,7.1056,0,0,1-1.117,2.373,5.8121,5.8121,0,0,1-1.848,1.611,5.6748,5.6748,0,0,1-2.471.65,5.5625,5.5625,0,0,1-2.419-.399,5.3373,5.3373,0,0,1-1.841-1.353,6.6393,6.6393,0,0,1-1.216-2.136A9.399,9.399,0,0,1,161.509,99.9157Zm21.509,5.7293-7.733.336c-.014-.62-.025-1.161-.032-1.626q.0075-.717-.006-1.472-.015-.774-.038-1.761t-.088-2.4756q-.0645-1.4888-.148-2.9573-.084-1.488-.21-3.0515l2.756-.3134q-.03.6211-.041,1.28.009.6388.024,1.4324.033.7734.056,1.741.042.9666.096,2.204.069,1.5858.12,2.7652t.116,2.222l5.046-.219Z"/><path class="cls-1" d="M88.1782,190.027a13.1368,13.1368,0,0,1-2.6173,8.7,9.8837,9.8837,0,0,1-7.8038,4.222q-5.514.2385-7.6341-1.577a2.1126,2.1126,0,0,1-1.3663.725q-.8145.147-1.6282.315-2.1384-.195-2.5649-1.331a.8587.8587,0,0,1-.2214-.5,12.0552,12.0552,0,0,1,.4015-1.482,7.1455,7.1455,0,0,0,.365-2.323,11.9576,11.9576,0,0,0-1.7878-5.403,3.295,3.295,0,0,1,1.7457-2.716,6.1587,6.1587,0,0,1,3.187-1.203,7.4378,7.4378,0,0,1,3.8609,1.03,6.91,6.91,0,0,1,1.0089,3.817q1.9092,2.0685,2.8615,2.027,2.8346-.123,2.7662-1.695a5.3455,5.3455,0,0,0-2.3145-3.738,33.86,33.86,0,0,0-3.9475-2.513q-1.36-.672-4.0592-2.02a9.5477,9.5477,0,0,1-3.95-4.621,15.5909,15.5909,0,0,1-1.5259-6.013q-.4011-9.234,10.2505-9.697a13.2725,13.2725,0,0,1,3.8244.699,8.91,8.91,0,0,1,3.4863,1.602q5.2511,5.451,5.34,7.489a2.8659,2.8659,0,0,1-1.0389,2.13,23.79,23.79,0,0,1-1.93,1.549,5.81,5.81,0,0,0-1.3807.392,4.7007,4.7007,0,0,1-1.3595.37q-.5757.0255-1.7811-1.675a8.508,8.508,0,0,1-1.2747-2.275,3.7009,3.7009,0,0,0-3.2437-1.634q-1.7717.078-1.7014,1.694.0076.177.0481.597t.05.641a5.5632,5.5632,0,0,0,3.7674,2.965q2.6458.639,5.2916,1.279a7.23,7.23,0,0,1,4.3731,3.115q.957,1.6005,1.6395,3.013A10.1905,10.1905,0,0,1,88.1782,190.027Zm-8.1044-21.591-.4371-.358a1.26,1.26,0,0,0-.4217,1.017l.1713.37A1.2691,1.2691,0,0,0,80.0738,168.436Zm-1.9054-.96a.9176.9176,0,0,0-.2416-.455.8759.8759,0,0,0-.4169.617c-.0475.268-.095.537-.1426.805a2.2325,2.2325,0,0,0,.5643-.291Zm4.6271,7.942a19.1216,19.1216,0,0,1-2.85-.231q.0549-.2685.8473-.925.9849-.819,1.0707-.889l-.4006-.027a3.9947,3.9947,0,0,0-.7481.143,4.5282,4.5282,0,0,1-.7269.121,1.7151,1.7151,0,0,1-.9417-.226,3.7534,3.7534,0,0,1,.9359-.928,3.6861,3.6861,0,0,0,.9581-.929,4.5051,4.5051,0,0,0-3.4913,1.35,20.4906,20.4906,0,0,1,2.252,3.829,3.49,3.49,0,0,0,.5776.019A3.6526,3.6526,0,0,0,82.7955,175.418Zm-6.0616-9.299a3.429,3.429,0,0,0-1.8525-.763,2.9517,2.9517,0,0,0-1.7869-.277,6.3388,6.3388,0,0,1-1.8429-.031q-6.8466,1.74-7.0326,5.12l.1733.414a13.1491,13.1491,0,0,1,1.012-1.73,3.195,3.195,0,0,1,2.4947-1.817,3.14,3.14,0,0,1,1.5357.621,3.2346,3.2346,0,0,0,1.4683.602.7778.7778,0,0,0,.2859-.057q-.0192-.4425-1.1043-1.416a3.6249,3.6249,0,0,1-.1338-.527.7759.7759,0,0,1,.1984-.541q.465-.02,1.214.879.7713.8985,1.1073.973a6.1851,6.1851,0,0,1-.4872-1.51.8574.8574,0,0,1,.3274-.636,1.94,1.94,0,0,1,1.2978,1.275,3.7923,3.7923,0,0,0,.8174,1.451.9474.9474,0,0,0,.1772-.518,4.72,4.72,0,0,1-.2541-1.253l.1367-.428.1107-.005q.5517-.0675.8742.717.2052.6345.41,1.269a1.3683,1.3683,0,0,0,.5161-.888A2.37,2.37,0,0,1,76.7339,166.119Zm-6.6369,4.526a3.8753,3.8753,0,0,0-.6181-1.97,1.9042,1.9042,0,0,0-1.707-.991q-1.1516.05-1.8622,1.567a5.4,5.4,0,0,0-.5334,2.531,2.5631,2.5631,0,0,0,2.2172,2.521,3.4517,3.4517,0,0,0,2.0769-1.221A4.1408,4.1408,0,0,0,70.097,170.645Zm14.0048,13.391q-.1309-3.012-6.3305-3.741a1.6713,1.6713,0,0,0-.9262,1.66,3.5991,3.5991,0,0,0,1.7464,2.92,5.48,5.48,0,0,0,3.3458.919Q84.1739,185.6965,84.1018,184.036Zm-.3053,2.676a12.8637,12.8637,0,0,1-2.1009.668q-.5893-.285-.9725-.424l-.3427.281q.4082.7155,1.9362.648l.7972-.034q.8193-.546.8078-.812Zm.9194,2.778a.5349.5349,0,0,0-.39-.294,1.4035,1.4035,0,0,1-.569.18,2.8435,2.8435,0,0,1-1.01-.267,2.6886,2.6886,0,0,0-.9878-.267l-.4824.131.9859.734a3.2005,3.2005,0,0,1,.8261.12,3.4524,3.4524,0,0,0,.8482.118,1.0283,1.0283,0,0,0,.7222-.231ZM68.6545,176.254a4.7879,4.7879,0,0,1-3.3766-1.118,1.8426,1.8426,0,0,0,2.2145,1.945,1.4988,1.4988,0,0,0,.698-.274Q68.6883,176.519,68.6545,176.254Zm16.3713,16.794q-.2205-.4785-1.8284-.719a3.0015,3.0015,0,0,0,1.5.822Zm.6355-2.224a16.4308,16.4308,0,0,1-2.2963.255,20.7805,20.7805,0,0,1-2.1249-.906,3.14,3.14,0,0,1-1.5983-1.55q-.3042-.8745-.8578-.85l-.4535.286q-.0453-.021-1.2131-3.409l-.2551,1.276a1.3035,1.3035,0,0,1-.6114.226c-.192.009-.3232-.119-.3938-.382a2.8182,2.8182,0,0,1-.0578-.818,6.44,6.44,0,0,1,.0155-.667,1.5341,1.5341,0,0,0-.209-.723q-.1752.0525-.5026.688a1.0162,1.0162,0,0,1-.8376.635q-.6644.0285-.6856-.458a2.09,2.09,0,0,1,.3178-.857,1.8285,1.8285,0,0,0,.3149-.923,11.1228,11.1228,0,0,1-1.891.903.76.76,0,0,1-.3746-.45,9.7136,9.7136,0,0,0,.7164-1.385,7.8674,7.8674,0,0,1-2.63.736,1.0178,1.0178,0,0,1-.3351-.562q.8175-.591,2.0162-1.597a5.23,5.23,0,0,0-1.4442.462,4.5742,4.5742,0,0,1-1.4019.416,2.479,2.479,0,0,1-2.0662-1.086.7747.7747,0,0,1,.69-.451.8812.8812,0,0,0,.6537.238,4.968,4.968,0,0,0,1.4741-.797l-1.8823.082A7.383,7.383,0,0,1,63.9,172.534l-.3543.015q-.0568,1.245-.0636,1.09a49.0067,49.0067,0,0,0,1.341,5.843q.6085,2.259,3.9282,4.112,3.108,1.5735,6.239,3.168a9.904,9.904,0,0,1,4.5434,4.994,2.9354,2.9354,0,0,1,.0712.618q.1251,2.8785-3.1524,3.021a4.1078,4.1078,0,0,1-1.79-.343q-.8829-.4065-1.7215-.813.0085.2.4573.313c.2991.076.4528.209.4612.401q.0076.177-.3351.459-.3427.28-.2889.5a.48.48,0,0,0,.36.118,5.4452,5.4452,0,0,1,1.18-.407,1.8409,1.8409,0,0,1,.3648,1.249q.1782.015.518-.333a1.0773,1.0773,0,0,1,.5614-.357q.3765-.0165.4246.581-.0771-.7515-.0068.865.46-.13.8984-1.281l.1983-.031q.4429-.02.595.928.1732.924.4862.977a5.8739,5.8739,0,0,0,.04-1.621q-.0309-.7095.5421-.8a1.3648,1.3648,0,0,1,.2281.655q.8319,1.2735,1.5184,1.244l-.0058-.133a2.2016,2.2016,0,0,0-.3812-1.115,3.0289,3.0289,0,0,1-.4044-1.136l-.0058-.133a2.6715,2.6715,0,0,1,1.3335.563,2.6937,2.6937,0,0,0,1.2892.565,2.8,2.8,0,0,0-2.1874-1.835,1.0012,1.0012,0,0,1-.0819-.351,1.2156,1.2156,0,0,1,.2562-.744,18.25,18.25,0,0,0,2.7488.968,2.7437,2.7437,0,0,0-2.03-1.265,1.1372,1.1372,0,0,1-.0818-.352q-.0145-.3315.2262-.409a1.1454,1.1454,0,0,1,.5537-.024c.2978.046.4689.068.5131.067.03-.002.0793-.048.1493-.14a.7755.7755,0,0,0-.1752-.458,1.1537,1.1537,0,0,1,.8973-.283q1.2681.078.958.091l.33-.059Q85.7191,191.132,85.6613,190.824ZM71.39,189.669q-.0309-.708-.932-1.024a3.114,3.114,0,0,0-.7318,1.03.8155.8155,0,0,1,.6682,1.08Q71.3952,189.8025,71.39,189.669ZM68.527,188.64a7.867,7.867,0,0,0-2.24.519,4.53,4.53,0,0,0,1.4568.336Q68.2526,189.4725,68.527,188.64Zm1.1611,2.723a5.9481,5.9481,0,0,0-1.3181-.209,2.9942,2.9942,0,0,0-1.55.577,4.3927,4.3927,0,0,1-.9782.465,1.0234,1.0234,0,0,1-.2927-.609,10.8962,10.8962,0,0,1,.3313-1.057q-.6018-.573-.7337-.545l-.0664.003q-.8474.924-.8319,1.278a5.7612,5.7612,0,0,0,.8876,1.027,3.0535,3.0535,0,0,0,1.4038.138A5.4218,5.4218,0,0,0,69.6881,191.363Zm.7017,4.407-.3591-.096-.1877.275.0953.151.3764-.016Zm1.2372,1.921q-.08-.3075-1.0543-.265-.4428.0195-.4053.372l.0029.067a1.5345,1.5345,0,0,0,.4765.245A10.39,10.39,0,0,1,71.627,197.691Zm.4727,1.177q-1.1708.117-1.5665.201a.5789.5789,0,0,0-.4872.532q.1068.417.9041.382Q72.1459,199.9305,72.1,198.868Zm.5584,2.128a1.1965,1.1965,0,0,0-.5854-.197l-.3023.191a.4343.4343,0,0,0,.4082.204A.8937.8937,0,0,0,72.6581,200.996Zm-3.6787-6.541a8.5263,8.5263,0,0,1-3.7146-1.236l-.2965.323a7.2032,7.2032,0,0,1,.8337,3.359,9.0281,9.0281,0,0,1-.6366,3.733q.4621.933,2.0787.863l.7972-.034q-.5208-.2445-1.4933-.668.1157-.4035.9715-.619,1.2075-.2955,1.2729-.321a6.6737,6.6737,0,0,1-2.3348-1.141,1.351,1.351,0,0,1,.63-.316,3.7135,3.7135,0,0,1,.73-.054c.4147.012.6515.016.7106.014a3.7954,3.7954,0,0,0-1.1554-.549,2.0231,2.0231,0,0,1-1.0957-.707q.2253-.4305,2.44-.527l-.0115-.266a1.1055,1.1055,0,0,0-.6884-.015q-.6114-.2835-1.2218-.546-.7722-.4095-.8155-.896a.9329.9329,0,0,1,.5026-.177.441.441,0,0,1,.4342.292c.6233.046.92.071.8906.072Q68.781,194.997,68.9794,194.455Zm.1259-23.656a5.1786,5.1786,0,0,1-.43,2.37,2.9651,2.9651,0,0,1-.6316-.239.8981.8981,0,0,1-.7087.542q-.1867-.2145-.04-.931l-.62.027c-.181-.08-.2741-.18-.2792-.298q-.16-3.6765,1.4347-3.745.4207-.02,1.1207,1.282A8.4222,8.4222,0,0,0,69.1053,170.799Zm13.8979,12.974a2.49,2.49,0,0,1-.1387.894,1.6524,1.6524,0,0,1-1.0273.355,3.8393,3.8393,0,0,1-2.6217-1.106,3.4789,3.4789,0,0,1-1.3922-2.425l.7125-.452a4.2,4.2,0,0,1,.7279-.098,3.9443,3.9443,0,0,1,2.39.872A2.66,2.66,0,0,1,83.0032,183.773ZM68.5373,169.98l-.3168-.141a2.1975,2.1975,0,0,1-1.1227.204l-.2214.01.0058.132a3.0324,3.0324,0,0,0,.1482.859,3.16,3.16,0,0,1,.1887.769l.2888.009a.9028.9028,0,0,0,.6962-.318l-.1733-.414A1.6384,1.6384,0,0,1,68.5373,169.98Zm12.9745,13.17a.9777.9777,0,0,0-1.03-.731l-.6865.029a.77.77,0,0,0,.67.615C80.8221,183.106,81.171,183.136,81.5118,183.15Zm34.65-15.771q.0855,1.971-.933,2.525a7.7279,7.7279,0,0,1-2.711.407,19.4085,19.4085,0,0,0-3.822.898q-3.306,1.008-3.031,7.342a8.1292,8.1292,0,0,0,.84,3.513,10.4988,10.4988,0,0,1-.192,2.205q-.3045,1.677-.35,2.168a27.0411,27.0411,0,0,0,.015,3.904q.159,3.165.17,3.919a.5774.5774,0,0,0-.246.477,13.0614,13.0614,0,0,0,.2,1.522,12.5969,12.5969,0,0,1,.198,1.5,2.8182,2.8182,0,0,1-1.096,2.355,4.1693,4.1693,0,0,1-2.574,1.022,1.5442,1.5442,0,0,1-.939-.181,4.0456,4.0456,0,0,1-2.853-1.829,21.9661,21.9661,0,0,1-.5978-4.056l-.0154-.354.15-.118q-.1039-2.391-.2742-7.332-.1452-4.875-.252-7.333l-.2328-5.359.8-3.03-.3649-.228q-.8443-.03-4.0776.111a6.7346,6.7346,0,0,1-3.4613-.515q-2.3473.102-2.4792-2.932a9.1519,9.1519,0,0,1,.131-1.581,9.1412,9.1412,0,0,0,.132-1.559,3.9522,3.9522,0,0,1,1.0553-1.244l3.1888-.139q6.7764-.294,11.0967-.437l8.818-.272Q115.956,162.64,116.162,167.379Zm-.721.253a1.6487,1.6487,0,0,1-.518-1.198,7.0405,7.0405,0,0,1,.033-.778,5.8706,5.8706,0,0,0,.053-.823l-.134-.527-.112-.017c-.162.007-.282.153-.358.437q-.0735.336-.149.65.033.7755-1.133.471a1.5934,1.5934,0,0,0-.251.366l.881.871a1.5546,1.5546,0,0,0,1.436.87A.4607.4607,0,0,0,115.441,167.632Zm-2.389-3.402a4.0251,4.0251,0,0,0-2.326-.431,14.7268,14.7268,0,0,0-1.633.204,14.6986,14.6986,0,0,1-1.633.204,3.2488,3.2488,0,0,1-1.359-.141,35.2421,35.2421,0,0,1-4.593.511q-1.8825.081-5.6585-.021-3.7541-.1035-5.6142-.022a2.5457,2.5457,0,0,0-1.244.475,3.83,3.83,0,0,0-.2677,2.009,2.9656,2.9656,0,0,1,.7626-1.342.8754.8754,0,0,1,.4525.712q-.0741-.684-.0058.888.2379-.144.4275-.884.1714-.651.6586-.672c.1772-.008.294.128.35.406a5.1325,5.1325,0,0,1-.0058.888q-.0607.6465-.06.668a.6667.6667,0,0,0,.3842.671q.1484-.672.3187-1.345a1.4881,1.4881,0,0,1,.7308-1.052.9207.9207,0,0,1,.2349.811,4.8,4.8,0,0,1-.0943.891q.0327.753.4313.736l.0655-.025q.155-.5175.622-2.534a.8133.8133,0,0,1,.5065.421,1.0571,1.0571,0,0,1,.0712.619,6.0981,6.0981,0,0,0-.0578.712,2.8669,2.8669,0,0,0,.0943.639l.2215-.009a10.7475,10.7475,0,0,1,.518-2.375q.63.195.6519.704a3.0317,3.0317,0,0,1-.1416.827,3.4546,3.4546,0,0,0-.1175.871l.0327.242c-.0237.135.0539.22.233.256a1.4136,1.4136,0,0,0,.4006.027l.62-2.578q.4891.0225.5584.597-.07-.5955-.0039.932a.7524.7524,0,0,0,.3842.671q.3244-.192.5248-1.199a2.1414,2.1414,0,0,1,.5661-1.267q.3207.231.3582,1.094a1.7014,1.7014,0,0,0,.3129,1.074q.4836-.0885.66-1.649a1.6193,1.6193,0,0,1,.666-.494,10.9614,10.9614,0,0,1,.321,1.25q.216.879.659.859a3.8922,3.8922,0,0,1,.418-2.104q.576-.0465.678.792a5.9188,5.9188,0,0,0,.256,1.298q.465-.021.68-1.206.237-1.1865.569-1.2.2655-.012.44.935.201,1.056.61,1.26a7.7593,7.7593,0,0,1,.514-2.463.7058.7058,0,0,1,.635.327,1.7092,1.7092,0,0,1,.075.707q-.057.7125-.056.757a.8274.8274,0,0,0,.223.523,11.6533,11.6533,0,0,1,.736-2.451l.22-.054q.42-.018.494.645.021.486.042.974a.8383.8383,0,0,0,.226.589,18.4154,18.4154,0,0,1,.682-2.159q.576-.0255.706.923c.074.692.269,1.075.582,1.151a4.6169,4.6169,0,0,1,.433-2.304.9332.9332,0,0,1,.502-.178l.268.033a1.6015,1.6015,0,0,1-.214.697,6.03,6.03,0,0,0-.111,1.514,2.0593,2.0593,0,0,0,.989,1.843,3.7189,3.7189,0,0,0-.309-.985,3.5381,3.5381,0,0,1-.265-.987,4.19,4.19,0,0,1,.339-1.39A4.2848,4.2848,0,0,1,113.052,164.23Zm-7.406,19.491a12.3,12.3,0,0,0-.264-2.495,1.6648,1.6648,0,0,0-1.788-1.32,1.2079,1.2079,0,0,0-1.234,1.207q-.024.978-.048,1.977.7125,1.5885.809,1.762a2.1938,2.1938,0,0,0,1.575,1.018A2.2838,2.2838,0,0,0,105.646,183.721Zm-1.526-11.115-.003-.067q.003-.444-.921-1.291a2.1268,2.1268,0,0,1-.888-1.537,1.5529,1.5529,0,0,0-.784-.165q-.7965.0345-2.3963,2.544a7.9462,7.9462,0,0,0-.7589,4.493q.0425.9735.2821,2.916.2609,1.92.3032,2.894.1038,2.391.0883,7.14.0066,4.7475.1095,7.117a4.9372,4.9372,0,0,0,.38,1.603,2.3986,2.3986,0,0,0,.9428,1.268l-.004-.088q-.0375-.354.533-.49a3.2629,3.2629,0,0,0,.832-.258q-1.36-.672-1.447-1.135a.8489.8489,0,0,1,.609-.292l.961.158.549-.113a12.99,12.99,0,0,0-2.063-1.02.5577.5577,0,0,1,.402-.439,1.3909,1.3909,0,0,1,.644-.006,6.1963,6.1963,0,0,0,.646.061.829.829,0,0,0,.567-.224,4.36,4.36,0,0,1-2.423-1.626,2.85,2.85,0,0,1,1.301-.189q1.4235.07,1.357.074a.3723.3723,0,0,0,.402-.439q-1.6785-.348-1.723-.347-1.1235-.3285-1.35-.939a2.5166,2.5166,0,0,1,.613-.182,4.2746,4.2746,0,0,1,.896.183,4.3848,4.3848,0,0,0,1.093.152c.281-.012.416-.137.406-.373a30.6544,30.6544,0,0,1-2.985-1.29.92.92,0,0,1,.201-.475,4.31,4.31,0,0,1,.802.076,5.1966,5.1966,0,0,0,.757.056,1.3069,1.3069,0,0,0,.569-.18q-.654-.26-1.308-.498a1.6428,1.6428,0,0,1-.994-.911,1.77,1.77,0,0,1,.902-.172,7.7765,7.7765,0,0,1,.912.049,1.6933,1.6933,0,0,0,.68-.185,19.6546,19.6546,0,0,0-2.562-1.264q.1155-.4035.843-.502.5535-.0465,1.128-.094-.546-.2865-1.616-.928a.5132.5132,0,0,1-.101-.284c-.006-.148.128-.279.404-.395q.306-.1245.589-.247-.453-.2025-.906-.427-.591-.3075-.6058-.661.2307-.321,1.1378-.36-.0315-.22-.622-.528c-.378-.205-.5716-.397-.5793-.574q-.0135-.31.5373-.4c.265-.027.538-.053.817-.08q-.0165-.399-.694-.658-.654-.26-.6265-.638l-.0049-.111a6.1263,6.1263,0,0,0,1.3284-.568,6.2129,6.2129,0,0,0-.844-.54q-.6586-.3495-.6721-.659t1.1381-.36q-.009-.2205-.563-.707-.5317-.4875-.5451-.798a.3994.3994,0,0,1,.2561-.233,1.5894,1.5894,0,0,1,.376-.016,2.3648,2.3648,0,0,0,.358.051l.262-.078a3.77,3.77,0,0,1-1.21-1.301,1.4033,1.4033,0,0,1,.5687-.18,7.6556,7.6556,0,0,1,1.52.245,2.0278,2.0278,0,0,0-.68-.836,3.2821,3.2821,0,0,1-.653-.726,1.0058,1.0058,0,0,1,.394-.638,5.0065,5.0065,0,0,0,1.7.835.3493.3493,0,0,0,.218-.098,5.6507,5.6507,0,0,0-1.293-2.184,1.38,1.38,0,0,1,.25-.366,2.3873,2.3873,0,0,1,1.054.775q.72.723,1.14.705Zm1.122,10.512a2.3812,2.3812,0,0,1-.388,1.792,2.9267,2.9267,0,0,1-.726.142q-.288.012-.804-1.141a4.61,4.61,0,0,1-.472-1.688,1.6785,1.6785,0,0,1,1.118-1.823l.337.096A4.0526,4.0526,0,0,1,105.242,183.118Zm-.297-.72q-.3765.0165-.799-.519-.4-.5385-.602-.573l-.197.075a10.4649,10.4649,0,0,0,.616,2.414l.306-.102Zm39.603,12.435a5.5333,5.5333,0,0,1-.688,3.07,2.9939,2.9939,0,0,1-2.548,1.597,9.3217,9.3217,0,0,1-1.671-.15,9.9808,9.9808,0,0,0-1.647-.128,15.9138,15.9138,0,0,0-1.59.18q-1.17.14-1.634.182-.9285.063-2.572.045-1.863-.0075-2.594.024a4.3117,4.3117,0,0,0-2.079.668,3.7236,3.7236,0,0,1-1.37.636,47.6308,47.6308,0,0,1-4.887-2.184q-1.2315-1.278-3.481-4.02a4.9387,4.9387,0,0,1,1.049-2.419,6.62,6.62,0,0,0,1.194-2.648q.3735-4.6755.303-6.292-.312-7.197-2.971-10.676a4.4692,4.4692,0,0,1-1.087-2.038,2.0836,2.0836,0,0,1,1.524-2.219,1.9359,1.9359,0,0,0,1.534-1.952,13.8814,13.8814,0,0,0-.202-1.589,14.2332,14.2332,0,0,1-.201-1.566q.006.132.063-1.112a3.5874,3.5874,0,0,1,1.559-.379,11.1225,11.1225,0,0,1,1.311.054,11.1225,11.1225,0,0,0,1.311.054q.753-.033,2.279-.143,1.5255-.1335,2.3-.167.9525-.0405,2.842.032t2.863.031a6.8272,6.8272,0,0,1,.821.009l.06-.158a9.4662,9.4662,0,0,0,1.838-.08q1.458-.1515,1.856-.169a2.5518,2.5518,0,0,1,2.746,1.411q.459,1.356.939,2.711l.025.575a3.599,3.599,0,0,1-1.859,3.165,29.9824,29.9824,0,0,0-3.288-.101q-1.22.03-3.277.164-2.433.1515-3.297.188a14.8083,14.8083,0,0,1-3.446-.161,31.526,31.526,0,0,1-2.475-2.821l-.324.192a27.4919,27.4919,0,0,0,1.797,2.562,5.1274,5.1274,0,0,1,1.207,2.743,3.21,3.21,0,0,1-.113.981,3.8171,3.8171,0,0,1,.177,1.523q-.093,1.425-.088,1.557a4.832,4.832,0,0,0,.075.685,14.7912,14.7912,0,0,0,3.096.287,3.314,3.314,0,0,0,1.59.33,8.9293,8.9293,0,0,0,1.694-.318,8.4611,8.4611,0,0,1,1.716-.34q1.7715-.078,2.022,2.108a2.9252,2.9252,0,0,1,.397,1.492,14.5207,14.5207,0,0,1-.075,2.355,2.6009,2.6009,0,0,0-.362.858q-.396,1.1055-3.673,1.247-.996.0435-3.016.042-1.998-.024-2.972.019l-1.474-1.245-.039.112q.0195.465,1.013,1.376a3.4553,3.4553,0,0,1,1.087,2.549q.024.531-.042,1.577t-.043,1.555q-.006-.1335.154.992a.5065.5065,0,0,0,.316.141q.51-.0225,1.502-.154,1.014-.1545,1.524-.177a4.1778,4.1778,0,0,1,1.47.136l8.968-.39a5.31,5.31,0,0,1,1.8,1.586A3.86,3.86,0,0,1,144.548,194.833Zm-3.971-29.092a7.6283,7.6283,0,0,0-.397-1.979q-.486-1.488-1.084-1.462l-.344.237a3.9149,3.9149,0,0,1,.988,1.821,1.9756,1.9756,0,0,1-.045.49,1.8274,1.8274,0,0,0,.195.391.86.86,0,0,1,.194.391.4261.4261,0,0,1-.119.315.7961.7961,0,0,1,.219.457q-.111.492-.313,1.478a1.9092,1.9092,0,0,0,.522-.245A10.81,10.81,0,0,0,140.577,165.741Zm-1.179.429-.046-1.041q-.222-.0345-.425-.603-.1815-.591-.316-.63a.89.89,0,0,1-.298.28,4.266,4.266,0,0,0,.808,2.782A.8862.8862,0,0,0,139.398,166.17Zm-1.824-3.16q-.0165-.399-.33-.452l-.353.038a4.9756,4.9756,0,0,1-1.18-.082,7.13,7.13,0,0,0-1.18-.104,2.1636,2.1636,0,0,0-1.289.477,4.22,4.22,0,0,1,.205,1.145,6.8457,6.8457,0,0,1-.46,2.682,18.7023,18.7023,0,0,0,1.094-2.399c.033-.253.067-.506.1-.759a.4333.4333,0,0,1,.426-.417,3.9753,3.9753,0,0,1,.128,1.924l.135.571a.55.55,0,0,0,.202.036q.309-.0135.465-1.041.177-1.0275.908-1.06a16.017,16.017,0,0,0,.287,2.517c.059-.003.131.142.218.434.086.277.21.398.371.361a13.451,13.451,0,0,1,.114-1.957A12.3878,12.3878,0,0,0,137.574,163.01Zm-4.715,1.78q-.1155-2.6805-4.412-2.493-1.89.9465-1.854,1.767a2.5092,2.5092,0,0,0,1.472,2.221l.399-.017a3.956,3.956,0,0,0,2.287.544q.543-.2685,1.064-.513a1.586,1.586,0,0,0,.807-.833A.8593.8593,0,0,0,132.859,164.79Zm-6.142,2.13a11.7178,11.7178,0,0,1-1.33-3.558,1.5918,1.5918,0,0,1,.027-.401,4.6935,4.6935,0,0,1-2.477-.314,2.3,2.3,0,0,1-.703.164c-.397.047-.594.114-.59.203a.6526.6526,0,0,0,.218.412q.0315.7305.718.701c.222-.01.355-.171.401-.483a2.6211,2.6211,0,0,1,.884.96l.2-.009-.026-.088a.644.644,0,0,1,.352-.57q.5025.822,1.003,1.643A4.5682,4.5682,0,0,0,126.717,166.92Zm-3.612,3.152q-.081-.306-.902-.848-.5715-.375-1.165-.748a.5267.5267,0,0,1,.362-.371,1.0743,1.0743,0,0,1,.534.044,2.75,2.75,0,0,0,.513.066.4871.4871,0,0,0,.411-.24q-.0165-.3765-.602-.595c-.034-.102-.277-.232-.727-.39q-.654-.237-.661-.392a.696.696,0,0,1,.14-.362,2.3107,2.3107,0,0,0,.77-.144,6.2838,6.2838,0,0,1-1.253-1.255l.244-.52c-.101-.292-.27-.432-.506-.422q-.3105.0135-.264,1.076.135,3.123.101,3.346a3.9813,3.9813,0,0,1,.667,1.058q.3375.6285,1.813.876Zm13.433,10.954a8.3,8.3,0,0,0-1.202-1.102l-.05-1.151q-.027-.6195-.448-.602a2.4239,2.4239,0,0,0-.323,1.234l.031.199.159.104a7.3326,7.3326,0,0,1-.665,1.537.8251.8251,0,0,0,.224.567q.9315-.528,1.183-.362a3.0565,3.0565,0,0,0,.555.021l.288-.013a.2537.2537,0,0,0,.275-.3Zm-13.514-9.242-.011-.243-.587-.241-.213.209a3.0651,3.0651,0,0,0,.548.353Zm-3.424-2.713a.8594.8594,0,0,0-.674-.193q-1.8825.0825-1.826,1.389.03.6855.872.65a3.1145,3.1145,0,0,0,1.266-.477A3.8939,3.8939,0,0,0,119.6,169.071Zm15.038,14.19a5.459,5.459,0,0,1-1.042-2.529l-.067-1.55.15-.117a1.3507,1.3507,0,0,0,.132-.539c-.017-.398-.197-.612-.538-.642q.4.027-.884.083-1.107.048-3.286-.057-2.18-.1275-3.265-.08-.4215.018-1.224.941-.804.9-.787,1.298l.027.11a.3606.3606,0,0,0,.271.099q.2-.0075.73-.564a4.0691,4.0691,0,0,1,.832-.768l.002.044a3.4021,3.4021,0,0,1-.1.781,3.4215,3.4215,0,0,0-.101.737.5475.5475,0,0,0,.333.518,10.12,10.12,0,0,1,1.382-1.902,1.892,1.892,0,0,1,.036.819,7.7113,7.7113,0,0,0-.076.802q.0285.687.457.824.219-.564.438-1.151a1.91,1.91,0,0,1,.734-.986,4.7917,4.7917,0,0,0-.023,1q.0465,1.0845.534,1.064l.242-.055a3.3038,3.3038,0,0,1,1.067-1.977,14.9965,14.9965,0,0,0,.426,2.644l.531-.023a13.0909,13.0909,0,0,1,.892-2.457l1.681,3.965A.6707.6707,0,0,0,134.638,183.261Zm8.927,11.415a1.3371,1.3371,0,0,1-.634.227c-.192.009-.489-.186-.89-.582q-.8115-.786-.88-.849a.24.24,0,0,0-.188.274,1.8964,1.8964,0,0,0,.108.439,1.38,1.38,0,0,1,.131.46.9254.9254,0,0,1-.286.567.8311.8311,0,0,0-.241.588l.002.044a1.2767,1.2767,0,0,1,1.432.781,2.8428,2.8428,0,0,0,.655.282.8886.8886,0,0,0,.064-.58,6.0507,6.0507,0,0,1-.125-.837q-.0135-.288.812-.191a1.7128,1.7128,0,0,0,.046-.49Zm-18.945-5.034a1.58,1.58,0,0,0-.668-.57,3.197,3.197,0,0,1-.777-.521q-1.1895-.3255-1.304-.92a1.5831,1.5831,0,0,1,.785-.3,3.3869,3.3869,0,0,1,.692.081,4.1862,4.1862,0,0,0,.712.058l.461-.109q-.546-.3315-2.417-1.515a.9845.9845,0,0,1,.719-.297,9.165,9.165,0,0,1,1.625.129,9.7129,9.7129,0,0,1-2.3-1.365,7.8412,7.8412,0,0,0,1.641-.537,2.4707,2.4707,0,0,0-.961-.668,7.3778,7.3778,0,0,1-1.116-.661,1.1072,1.1072,0,0,1,.915-.395,2.6939,2.6939,0,0,0-1.253-1.255l-.054-.219q-.0165-.3765.55-.623.459-.153.919-.306-.057-.2865-.801-.542a1.8172,1.8172,0,0,1-.864-.495q.009-.2895.645-.472.657-.2055.718-.32a12.0054,12.0054,0,0,1-1.741-.767.5749.5749,0,0,1,.484-.598c.294-.042.588-.085.882-.127a3.0635,3.0635,0,0,0-.999-.511,3.0772,3.0772,0,0,1-.976-.513.5565.5565,0,0,1-.055-.241q-.0045-.111.655-.251a1.1156,1.1156,0,0,0,.861-.614,14.073,14.073,0,0,1-1.794-.432l-.032-.221q-.012-.288.467-.486a2.8986,2.8986,0,0,0,.716-.386,1.4788,1.4788,0,0,0-1.095-.174,1.1834,1.1834,0,0,1-.293-.609,4.6276,4.6276,0,0,0,.724-.187.3351.3351,0,0,0,.1-.248l-.007-.177-.422-.004a1.6935,1.6935,0,0,0-1.69.939,33.6391,33.6391,0,0,1,2.876,12.055q.243,5.6025-1.593,8.789a3.6835,3.6835,0,0,0-.654,1.803,9.5645,9.5645,0,0,0,1.464,1.512l-.442-.979a.396.396,0,0,1,.303-.169q.2-.009.573.419c.263.27.468.401.616.395l.153-.051a1.9347,1.9347,0,0,0-.606-.684,1.2674,1.2674,0,0,1-.524-.82l.094-.382a16.5986,16.5986,0,0,0,3.155,1.638q-.7155-.6345-2.621-2.637l.286-.057a4.1462,4.1462,0,0,1,2.099.841l.1-.271-.172-.369a13.0385,13.0385,0,0,1-1.966-1.845,3.6389,3.6389,0,0,1,.527-.134,2.7469,2.7469,0,0,1,1.079.33,3.3366,3.3366,0,0,0,.968.313.6786.6786,0,0,0,.562-.335,5.4014,5.4014,0,0,0-.689-.547q-.102-.2835-.961-.668a2.0448,2.0448,0,0,1-1.033-.798,3.01,3.01,0,0,1,.615-.138Q122.6355,189.418,124.62,189.642Zm15.825,7.788q-1.0275-2.7075-1.035-2.884a6.4976,6.4976,0,0,1,.654-1.803,13.196,13.196,0,0,0-3.018-.025q-.9525.042-2.885-.007-1.911-.051-2.863-.009a12.8849,12.8849,0,0,0-3.325.566,2.961,2.961,0,0,0-1.36,2.411.4448.4448,0,0,0,.317.141,4.4887,4.4887,0,0,0,.979-1.462.6173.6173,0,0,1,.244.5c.023.191.046.389.07.596a10.02,10.02,0,0,1,.924-1.727q.5775.042.655.793-.0825-.885.007,1.175l.461.912a7.85,7.85,0,0,0,.576-1.556q.351-1.1025.661-1.116a13.17,13.17,0,0,1,.274,2.717l.427.137a3.8307,3.8307,0,0,0,.741-1.851l-.028-.132q-.0165-.3765.567-.735a2.102,2.102,0,0,1,.477,1.288q.168,1.302.221,1.499a2.2585,2.2585,0,0,0,.341-1.346,3.7471,3.7471,0,0,1,.225-1.451.5876.5876,0,0,1,.22-.054.4989.4989,0,0,1,.528.42,2.509,2.509,0,0,1,.062.907q-.054.8235-.055.779a1.8876,1.8876,0,0,0,.207.679q.477-.264.456-1.75-.012-1.3095.807-1.344l.393,2.911q.642-.027.87-1.413.25-1.386.779-1.476l.176.458a4.5208,4.5208,0,0,0-.114.959Q139.165,197.0855,140.445,197.43Zm-8.8-32.499q.039.8865-1.202.94-2.613.114-2.698-1.857-.0435-.9975,1.418-1.06a3.2724,3.2724,0,0,1,2.122.839A10.6714,10.6714,0,0,0,131.645,164.931Zm-1.376-.517a3.3441,3.3441,0,0,1-.908-.471.6862.6862,0,0,0-.405.373q.3585.0735,1.052.22Zm41.285,5.683q.2835,6.555-2.275,10.46-2.9565,4.455-9.246,4.729a29.9679,29.9679,0,0,1-4.135-.198q-.0345,1.266-.039,1.155a26.5107,26.5107,0,0,0,1.15,5.031l.008.177a2.7711,2.7711,0,0,0,.645,1.57,3.4007,3.4007,0,0,1,.674,1.213q.027.6195-.887,1.037-.708.03-1.117,1.357-.408,1.305-1.225,1.407-.42.063-1.76.343a11.8047,11.8047,0,0,1-1.764.254,4.0968,4.0968,0,0,1-2.057-.354q-1.773-.966-2.144-9.514-.087-2.016-.106-5.01-.021-3.0165-.042-3.503a54.7528,54.7528,0,0,0-.816-8.063,4.1747,4.1747,0,0,0-1.486-2.554,2.1824,2.1824,0,0,1-1.045-1.574,12.2877,12.2877,0,0,1,.051-2.398q.306-1.6335,2.665-3a8.6254,8.6254,0,0,1,3.936-1.325,5.816,5.816,0,0,1,2.015.401,6.182,6.182,0,0,0,1.991.379,9.2617,9.2617,0,0,0,2.371-.569,8.9088,8.9088,0,0,1,2.393-.592,12.9933,12.9933,0,0,1,8.021,2.314Q171.374,165.979,171.554,170.097Zm-1.625.914q-.174-4.008-2.13-4.611-.573.114-1.121.248-.747.189-.796.568l-.357-.029a4.9369,4.9369,0,0,0-2.415,1.081.99.99,0,0,1-.487-.489,1.769,1.769,0,0,0,.745-1.231.5191.5191,0,0,0-.078-.263l-.112-.017a1.9975,1.9975,0,0,0-1.084.58,2.15,2.15,0,0,1-1.062.578.6526.6526,0,0,1-.218-.412,3.5844,3.5844,0,0,1,.415-1.172,4.4247,4.4247,0,0,0-.747-2.385,2.3007,2.3007,0,0,0-2.11-1.085,5.7447,5.7447,0,0,0-1.71.474,5.97,5.97,0,0,1-1.711.451,2.74,2.74,0,0,1-.692-.103,2.8718,2.8718,0,0,0-.67-.104q-.7755.0345-.737.92a4.9564,4.9564,0,0,0,.273,1.186,4.5534,4.5534,0,0,1,.297,1.207q.054,1.24.517,1.176-.1095-2.502.251-2.895.6315.2385.797,1.496a1.9823,1.9823,0,0,0,.102-1.225.69.69,0,0,1,.457-.219q.2655-.012.829,1.206a3.9048,3.9048,0,0,1,.14-1.869q.465-.021.881.871a7.1109,7.1109,0,0,0,.676,1.257q-.051.3585-.143-1.768a1.821,1.821,0,0,1,.224-.964,2.66,2.66,0,0,1,1.083,1.95l.368.294q.066-.5355.153-1.071.1245-.7155.501-.732a1.4135,1.4135,0,0,1,.466,1.023,6.6708,6.6708,0,0,1-.585,2.377,1.0927,1.0927,0,0,0-.473.841,5.0723,5.0723,0,0,1,3.881,5.068,5.87,5.87,0,0,1-1.651,4.398,15.7344,15.7344,0,0,1-4.654,1.134q-.4425.02-.887.016a20.0162,20.0162,0,0,0-.617,3.666l.067.529.421-.018a14.0021,14.0021,0,0,1,.188-2.826l.254-.277.317.141q.3915.849,1.304,2.451a.2764.2764,0,0,0,.042-.069q.02-.045-.05-1.661a1.0376,1.0376,0,0,1,.212-.742l.379.05.323.297q.07,1.5945.62,2.014l-.077-1.772a1.8228,1.8228,0,0,1,.124-.737q.4425-.0195.986,1.244.5415,1.24.94,1.224a.5261.5261,0,0,0,.137-.428q-.0735-.174-.659-1.901.0735-.336.557-.446.888,1.0485.913,1.092a2.235,2.235,0,0,0,1.097.751,6.4875,6.4875,0,0,0-.766-2.319c.133-.346.317-.524.554-.534a3.8739,3.8739,0,0,1,1.017.444,3.0734,3.0734,0,0,0,1.216.413l.088-.026a7.823,7.823,0,0,1-1.232-1.81l.052-.335q.7785.054,2.246.124a2.2232,2.2232,0,0,0-.94-.691,2.23,2.23,0,0,1-.94-.692l-.033-.264a.3909.3909,0,0,1,.422-.485,3.3922,3.3922,0,0,1,.759.1,3.64,3.64,0,0,0,.825.098l.396-.084.092-.426a3.019,3.019,0,0,1-2.738-1.744q-.048-.087-1.402-3.179a5.05,5.05,0,0,1,1.797-2.03l.207.168a4.3561,4.3561,0,0,0-.379,1.991,3.6983,3.6983,0,0,0,.87,2.669,3.9554,3.9554,0,0,0,2.663.528q.444-.0195.914-.927A2.91,2.91,0,0,0,169.929,171.011Zm-7.651,2.107a3.0341,3.0341,0,0,0-1.108-2.503,2.0576,2.0576,0,0,0-2.141-1.282,8.2412,8.2412,0,0,0-1.474.285,8.7409,8.7409,0,0,1-1.519.266,2.326,2.326,0,0,1-.893-.116l-.412.217a32.0786,32.0786,0,0,1,.918,4.265,4.5308,4.5308,0,0,1-.031.822,1.9249,1.9249,0,0,1,.015.864,5.0891,5.0891,0,0,0-.097.826.8229.8229,0,0,0,.452.712l.753-.033a17.6687,17.6687,0,0,0,4.147-.557,4.9268,4.9268,0,0,0,1.33-1.566A8.6432,8.6432,0,0,0,162.278,173.118Zm-11.888-9.09a1.0411,1.0411,0,0,0-.386-.715,4.2616,4.2616,0,0,0-1.119-.218,4.413,4.413,0,0,0-2.782,1.319,3.3355,3.3355,0,0,0-1.28,2.718l.011.266a4.9124,4.9124,0,0,0,1.318.209,6.0021,6.0021,0,0,0,3.332-1.454,3.8382,3.8382,0,0,1,.465-1.041A2.5053,2.5053,0,0,0,150.39,164.028Zm2.244,11.817a6.7728,6.7728,0,0,0-1.689-.57,3.3561,3.3561,0,0,1-1.888-1.072,1.0684,1.0684,0,0,1,.652-.317,3.2049,3.2049,0,0,1,.778.033q.579.042.756.034.531-.0225.519-.311a.3019.3019,0,0,0-.074-.174q-2.3535-.0315-2.969-.914a2.8557,2.8557,0,0,1,1.288-.5,5.7359,5.7359,0,0,0,1.404-.349,2.7754,2.7754,0,0,0-1.584-.198q-1.263.033-1.589-.33l-.005-.111q-.0465-.552.878-.726.945-.1965,1.023-.466a4.9722,4.9722,0,0,1-1.711.452l-.588-.241c-.076-.056-.119-.194-.129-.416a.5192.5192,0,0,1,.418-.595l.84-.081c.295-.027.436-.174.425-.44l-.319-.186q-2.2815.1005-2.608,1.267.321.7185,1.069,2.128a48.32,48.32,0,0,1,.732,7.135q.0915,2.103.142,6.339.0495,4.2135.141,6.317a29.5906,29.5906,0,0,0,.294,3.693q.5025,2.3745,2.163,2.302a4.004,4.004,0,0,0,.724-.187q-1.5945-.4635-1.618-.995c-.012-.28.129-.419.425-.417a3.1362,3.1362,0,0,0,1.119.217.5491.5491,0,0,0,.285-.079,6.7171,6.7171,0,0,1-1.983-1.223.862.862,0,0,1-.084-.395l.014-.178.302-.213a7.6872,7.6872,0,0,0,1.204.147.8251.8251,0,0,0,.567-.224,18.5771,18.5771,0,0,1-2.247-1.167q.0795-.7365,1.862-.547l.505-.133q-2.466-1.0905-2.499-1.844l.017-.134a.9568.9568,0,0,1,.678-.229,3.4241,3.4241,0,0,1,.826.12,3.447,3.447,0,0,0,.848.118,2.1654,2.1654,0,0,0,.249-.388,9.3536,9.3536,0,0,1-2.669-1.171c-.019-.457.126-.693.436-.706a2.8519,2.8519,0,0,1,.759.122,2.9442,2.9442,0,0,0,.76.122l.414-.173-.002-.044q-.0135-.31-1.432-.781a3.6354,3.6354,0,0,1-1.199-1.058,12.7162,12.7162,0,0,1,2.914-.326l-.008-.199-2.837-1.452q.1965-.585,1.149-.627a7.1571,7.1571,0,0,1,.844.03q.624.0615.757.056-.54-.177-2.238-.946a1.2144,1.2144,0,0,1-.182-.613,2.49,2.49,0,0,1,1.19-.185q1.0455.0435,1.2.037l.265-.034-.011-.244a6.3326,6.3326,0,0,1-3.155-1.637,1.3445,1.3445,0,0,1,.679-.207,4.0234,4.0234,0,0,1,.982.134,4.7675,4.7675,0,0,0,1.003.112.935.935,0,0,0,.677-.251,6.0961,6.0961,0,0,0-1.488-.557,4.5,4.5,0,0,1-1.492-.623,1.0109,1.0109,0,0,1,.9-.749q-.264.0555,1.264-.01a3.01,3.01,0,0,0,.615-.138,2.3293,2.3293,0,0,0-1.681-.393q-.363-.183-.726-.368a.9565.9565,0,0,1-.471-.623,1.77,1.77,0,0,1,1.165-.25q1.3575.075,1.224.08A1.76,1.76,0,0,0,152.634,175.845Zm16.575-5.579a2.8424,2.8424,0,0,1-.254,1.298l.007.155a.7719.7719,0,0,1-.581.935,2.6137,2.6137,0,0,1-1.634-1.349,4.2013,4.2013,0,0,1-.664-2.013,1.65,1.65,0,0,1,.773-1.608,2.8681,2.8681,0,0,1,.022-.512,3.1254,3.1254,0,0,1,.611-.248l.425.092A7.3787,7.3787,0,0,1,169.209,170.266Zm-20.004-5.942-.121.804a3.2245,3.2245,0,0,1-2.682,1.58l-.332.015-.322-.252-.011-.266q.5835-.336,1.192-.651a1.0826,1.0826,0,0,0,.536-.933,1.3529,1.3529,0,0,0-.109-.461,1.919,1.919,0,0,1,1.093-.38c-.103.004.09.033.581.085Zm19.626,6.935a3.9385,3.9385,0,0,1-.75-1.432,3.1378,3.1378,0,0,0-.772-1.431l-.261.122a.3408.3408,0,0,0-.086.071.0611.0611,0,0,0-.02.045l-.012.244a.573.573,0,0,0,.313.564.51.51,0,0,1,.075.196c.006.133-.093.248-.295.346a.4765.4765,0,0,0-.316.391,4.3587,4.3587,0,0,1,.891.604,1.6337,1.6337,0,0,0,.861.407ZM198.133,181.7q.006.1335-.435,3.258a29.3675,29.3675,0,0,0-.148,5.287,10.6984,10.6984,0,0,0,.328,1.916,10.6364,10.6364,0,0,1,.325,1.872,2.3756,2.3756,0,0,1-1.402,2.457,8.9209,8.9209,0,0,1-3.083.533,12.4249,12.4249,0,0,1-4.24-.57,3.3257,3.3257,0,0,1-.824-2.116q-.1155-2.658.008-7.988.144-5.3535.029-8.01a.5844.5844,0,0,0-.223-.035.972.972,0,0,0-.712.475q-.3135.435-.585.824a10.2,10.2,0,0,1-2.517-.734,11.0763,11.0763,0,0,1-2.317-1.231q-.3435-.2505-.41-1.779,1.4985-2.283,2.997-4.567a15.5926,15.5926,0,0,0,1.91-4.033,19.2147,19.2147,0,0,0,.481-5.789q1.305-2.142,6.198-2.355a2.8779,2.8779,0,0,1,2.098.796,13.8787,13.8787,0,0,1,1.497,1.755,48.0618,48.0618,0,0,1-.161,4.976q-.2115,3.315-.139,4.976a42.4842,42.4842,0,0,0,.662,5.03A42.3839,42.3839,0,0,1,198.133,181.7Zm-2.169-19.807c-.009-.192-.228-.486-.66-.881a9.0259,9.0259,0,0,1-.882-.894,6.6689,6.6689,0,0,0-1.78-.122q-.42.018-2.226.341-1.1235,1.2015-1.103,1.667a1.352,1.352,0,0,0,.581,1.129q.5895.285,1.179.592a11.3338,11.3338,0,0,1,1.156.038c.533.022.933.026,1.199.015a3.4676,3.4676,0,0,0,1.664-.494A1.522,1.522,0,0,0,195.964,161.893Zm-3.91,3.964a5.8248,5.8248,0,0,0-.074-.663,8.6011,8.6011,0,0,1-3.52-1.356l-.301.213a12.3126,12.3126,0,0,1-1.224,5.534A32.4605,32.4605,0,0,1,184.376,174a10.8115,10.8115,0,0,0-1.388,2.279q.0135.288.637.86a6.4865,6.4865,0,0,1,.858.872.5654.5654,0,0,0,.337.096l.088-.026a2.7106,2.7106,0,0,0-.975-1l-.028-.132a.5921.5921,0,0,1,.2-.497q.519.2,1.597.508a12.83,12.83,0,0,0-.916-1.691.725.725,0,0,1,.239-.632q.41.249.821.519a1.5764,1.5764,0,0,0,.856.296l.175-.052.013-.222q-.0135-.31-.634-.794-.597-.4845-.614-.861a.9529.9529,0,0,1,.515-.399q.4935.111,1.478.313a6.5621,6.5621,0,0,1-.82-1.518l.016-.133a.2593.2593,0,0,1,.216-.143q.177-.0075,1.056.819a1.0893,1.0893,0,0,0,.423.026.25.25,0,0,0,.141-.316l-.434-.292a8.1612,8.1612,0,0,1-.599-1.017.9.9,0,0,1,.179-.474,1.3322,1.3322,0,0,1,.77.366,2.7194,2.7194,0,0,0,.732.501l-.005-.111c.009-.133-.134-.364-.429-.691a3.1583,3.1583,0,0,1-.568-.818l.075-.314a9.5371,9.5371,0,0,0,1.735.612.6333.6333,0,0,0,.285-.079q-.555-.5085-1.862-2.004l.394-.129a5.305,5.305,0,0,1,1.396.472,4.5386,4.5386,0,0,1,.779.055c.28-.012.415-.151.403-.417a6.7793,6.7793,0,0,0-1.442-1.024q-1.0485-.642-1.065-1.019a.6941.6941,0,0,1,.055-.268l2.581.686A1.7,1.7,0,0,0,192.054,165.857Zm2.992,11.163a1.8473,1.8473,0,0,0-.826-.12q-.7095.0315-1.719,1.295a3.4712,3.4712,0,0,0-.98,1.951.6667.6667,0,0,0,.435.314,5.5093,5.5093,0,0,1,2.499-2.727Q195.0655,177.4855,195.046,177.02Zm1.528,5.058q-.1125-2.613-1.685-2.544-.9525.0405-2.215,1.627a7.0754,7.0754,0,0,1-.075.824,6.1028,6.1028,0,0,0,.334,1.561q1.3215,1.317,1.853,1.295.687-.03,1.798-1.521A11.65,11.65,0,0,0,196.574,182.078Zm-.459-6.991a1.3558,1.3558,0,0,0-1.22-.523,5.4224,5.4224,0,0,0-1.188.251,6.098,6.098,0,0,1-1.21.23,1.4664,1.4664,0,0,1-1.103-.374,3.5787,3.5787,0,0,1,1.205-.341,3.8176,3.8176,0,0,0,1.161-.338l.035-.224c-.008-.192-.221-.316-.637-.371-.403-.072-.63-.202-.683-.392q.3135-.435,1.864-.503l.184-.363-.122-.261a3.0793,3.0793,0,0,0-1.205-.147q-1.15.05-2.27,1.873-.759,1.431-1.495,2.883a33.8462,33.8462,0,0,0,.1,3.812q.2295,3.783.231,3.806.054,1.24-.056,3.818-.0885,2.556-.032,3.84l.136,3.145a2.8648,2.8648,0,0,0,1.659.904,6.2527,6.2527,0,0,0,1.897.25c.266-.011.394-.113.386-.305l-.028-.132a24.3257,24.3257,0,0,1-2.541-.777,2.9593,2.9593,0,0,1,1.559-.378q1.329-.0585,1.659-.117a.2518.2518,0,0,0,.142-.316q-.966-.27-1.931-.516a3.8042,3.8042,0,0,1-1.683-.947,1.668,1.668,0,0,1,.921-.262,5.4964,5.4964,0,0,1,1.069.109,5.505,5.505,0,0,0,1.07.109q.576-.0255.556-.468a.4263.4263,0,0,0-.167-.281l-.376.038a2.6537,2.6537,0,0,1-1.572-.442q-.708-.4785-1.395-.96a1.7834,1.7834,0,0,1,.919-.306q-.156.0075,1.938.182.654-.273.64-.582a.503.503,0,0,0-.101-.284,2.0789,2.0789,0,0,1-.573.091,5.1541,5.1541,0,0,1-2.402-1.16,3.1946,3.1946,0,0,1,1.882-.082c.249-.055.491-.117.724-.187q.46-.13.424-.462l-.028-.132a5.2456,5.2456,0,0,1-3.088-1.108,9.5211,9.5211,0,0,1,2.099-.202q1.041-.045,1.025-.422l-.007-.155a1.7372,1.7372,0,0,0-.895-.161,4.9262,4.9262,0,0,1-1.001-.067,2.7138,2.7138,0,0,0-.735-.589q-.7095-.48-.748-.855a2.4331,2.4331,0,0,0,.673-.34l.032-.29q-.012-.288-.516-.643a1.2914,1.2914,0,0,1-.534-1.064q-.0075-.177.065-1.046a4.1674,4.1674,0,0,0,.001-.998,4.4794,4.4794,0,0,1,1.589-2.754,4.7867,4.7867,0,0,1,2.985-1.261A.7092.7092,0,0,0,196.115,175.087Zm-1.912-12.874a.466.466,0,0,1-.297.324l-1.051-.198q-.1095.0255-2.079.667.9045-.6165.906-1.105l-.33-.451a2.0127,2.0127,0,0,1,.74.189,2.34,2.34,0,0,0,.784.166.7534.7534,0,0,0,.666-.495A3.5848,3.5848,0,0,0,194.203,162.213Zm-2.327,13.857.031.199c.011.265-.22.379-.695.34a.6616.6616,0,0,1-.241.077c-.221.01-.339-.148-.353-.472a.47.47,0,0,1,.204-.409A1.3481,1.3481,0,0,1,191.876,176.07Zm3.796,5.67a8.4313,8.4313,0,0,1-.098,1.314,1.454,1.454,0,0,1-.732,1.03q-.465.0195-1.088-1.04.024-2.5305,1.064-2.575Q195.151,180.454,195.672,181.74Zm-.752.566a.7609.7609,0,0,0-.289-.52q-.4155.1065-.392.66a4.6768,4.6768,0,0,0,.263.965l.395-.106a2.9753,2.9753,0,0,0,.04-.623Z"/><path class="cls-1" d="M149.2643,101.9032a11.1969,11.1969,0,0,0,3.5981,8.17c2.9676,2.4639,7.1869,2.5621,11.041,2.4088q7.2424-.2882,14.4428-1.1933c3.9532-.4971,8.3333-1.3991,10.6-4.6756,2.3832-3.4442,1.3516-8.4439-1.4595-11.5488s-6.9739-4.63-11.081-5.4509a44.2681,44.2681,0,0,0-18.7477.3411c-2.1781.5124-5.9591,1.01-7.1929,2.996C149.1971,94.9927,149.1586,99.576,149.2643,101.9032Z"/><path class="cls-4" d="M153.5576,107.7373l-.8066-13.4658,2.5371-.1524.8066,13.4659Zm.2559-11.0762-.1465-2.4443,8.1045-.4854.1465,2.4444Zm.333,5.5567L154,99.7734l7.085-.4248.1464,2.4453Zm.3271,5.4638-.1465-2.4443,8.1045-.4853.1465,2.4443Z"/><path class="cls-4" d="M162.751,96.126l-.1465-2.4453,9.8721-.5909.1464,2.4444Zm4.3271,10.8008-.7412-12.3633,2.5381-.1524.7412,12.3633Z"/><path class="cls-4" d="M174.7646,106.4658,173.958,93.001l2.5371-.1524.8067,13.4659Zm.8487-5.5244-.1465-2.4453,7.8447-.47.1465,2.4443Zm6.5234,5.083L181.33,92.56l2.5371-.1524.8066,13.4649Z"/></svg>