<svg id="Layer_1" data-name="Layer 1" xmlns="http://www.w3.org/2000/svg" viewBox="0 0 265 237"><defs><style>.cls-1{fill:#325100;}.cls-2{fill:none;stroke:#fff;stroke-miterlimit:10;stroke-width:1.06px;}.cls-3{fill:#fff;}.cls-4{fill:#a9e647;}</style></defs><title>w2</title><path class="cls-1" d="M242.207,126.606a13.406,13.406,0,0,0,6.465,12.301,11.8386,11.8386,0,0,1,5.47,10.916l-4.864,74.439a11.6757,11.6757,0,0,1-12.641,10.823L13.8426,218.051a11.9936,11.9936,0,0,1-11.1081-12.64l4.8638-74.438a11.5328,11.5328,0,0,1,6.8348-9.975,13.0516,13.0516,0,0,0,7.9994-11.195,13.3975,13.3975,0,0,0-6.4649-12.2893,11.8379,11.8379,0,0,1-5.47-10.9147l4.8639-74.44A11.6766,11.6766,0,0,1,28.0029,1.3359L250.796,18.37A11.9921,11.9921,0,0,1,261.904,31.01L257.04,105.449a11.53,11.53,0,0,1-6.834,9.974A13.0472,13.0472,0,0,0,242.207,126.606Z"/><path class="cls-2" d="M14.1536,213.33a7.1765,7.1765,0,0,1-6.64-7.555l4.8639-74.437a6.9034,6.9034,0,0,1,3.9815-5.982,17.6645,17.6645,0,0,0,10.8523-15.188,18.1326,18.1326,0,0,0-8.77-16.6757,7.0813,7.0813,0,0,1-3.1642-6.5268L20.141,12.5271a6.9881,6.9881,0,0,1,7.5561-6.47L250.485,23.0914a7.1774,7.1774,0,0,1,6.64,7.5548l-4.864,74.4388a6.902,6.902,0,0,1-3.982,5.98,17.6524,17.6524,0,0,0-10.852,15.176,18.1438,18.1438,0,0,0,8.769,16.688,7.0832,7.0832,0,0,1,3.166,6.528l-4.864,74.437a6.9889,6.9889,0,0,1-7.556,6.47Z"/><path class="cls-3" d="M225.867,224.967,24.3223,209.692A12.242,12.242,0,0,1,12.93,196.823l3.0284-46.1A11.9486,11.9486,0,0,1,28.92,139.7L230.465,154.975a12.2407,12.2407,0,0,1,11.392,12.869l-3.028,46.1A11.948,11.948,0,0,1,225.867,224.967Z"/><path class="cls-4" d="M228.311,44.6823a1.3468,1.3468,0,0,1-1.457,1.2474,1.381,1.381,0,0,1-1.279-1.4564,1.3452,1.3452,0,0,1,1.456-1.2475A1.3825,1.3825,0,0,1,228.311,44.6823Z"/><path class="cls-4" d="M237.974,65.1769a1.1784,1.1784,0,0,0,1.275-1.0917,1.2091,1.2091,0,0,0-1.12-1.2745,1.1767,1.1767,0,0,0-1.274,1.0916A1.2083,1.2083,0,0,0,237.974,65.1769Z"/><path class="cls-4" d="M248.66,42.19a1.8506,1.8506,0,0,1-2.003,1.716,1.9,1.9,0,0,1-1.76-2.0034,1.8506,1.8506,0,0,1,2.003-1.7159A1.9,1.9,0,0,1,248.66,42.19Z"/><path class="cls-4" d="M240.063,91.3217a1.0108,1.0108,0,0,1-1.093.9358,1.037,1.037,0,0,1-.96-1.0926,1.01,1.01,0,0,1,1.093-.9359A1.0379,1.0379,0,0,1,240.063,91.3217Z"/><path class="cls-4" d="M224.918,109.727a1.1762,1.1762,0,0,0,1.274-1.091,1.2081,1.2081,0,0,0-1.119-1.275,1.1772,1.1772,0,0,0-1.275,1.092A1.2086,1.2086,0,0,0,224.918,109.727Z"/><path class="cls-4" d="M223.778,138.039a1.3449,1.3449,0,0,1-1.456,1.247,1.3824,1.3824,0,0,1-1.28-1.456,1.3466,1.3466,0,0,1,1.457-1.248A1.3819,1.3819,0,0,1,223.778,138.039Z"/><path class="cls-4" d="M216.057,34.247a1.6823,1.6823,0,0,1-1.821,1.56,1.7267,1.7267,0,0,1-1.6-1.8214,1.6836,1.6836,0,0,1,1.821-1.56A1.729,1.729,0,0,1,216.057,34.247Z"/><path class="cls-4" d="M38.6023,27.1818a1.5138,1.5138,0,0,0,1.6384-1.4032A1.5542,1.5542,0,0,0,38.8013,24.14a1.5137,1.5137,0,0,0-1.6383,1.4033A1.554,1.554,0,0,0,38.6023,27.1818Z"/><path class="cls-4" d="M54.58,45.4193a1.01,1.01,0,0,1-1.0927.9359,1.0371,1.0371,0,0,1-.96-1.0926,1.01,1.01,0,0,1,1.0926-.9359A1.0371,1.0371,0,0,1,54.58,45.4193Z"/><path class="cls-4" d="M37.7374,61.3065a2.0191,2.0191,0,0,0,2.1853-1.8717,2.073,2.073,0,0,0-1.92-2.1853,2.0192,2.0192,0,0,0-2.1853,1.8718A2.0728,2.0728,0,0,0,37.7374,61.3065Z"/><path class="cls-4" d="M35.6444,90.9222a1.01,1.01,0,0,1-1.0926.9359,1.0372,1.0372,0,0,1-.96-1.0927,1.01,1.01,0,0,1,1.0926-.9358A1.0371,1.0371,0,0,1,35.6444,90.9222Z"/><path class="cls-4" d="M56.5319,78.3615A1.5137,1.5137,0,0,0,58.17,76.9583,1.5542,1.5542,0,0,0,56.7308,75.32a1.5137,1.5137,0,0,0-1.6383,1.4033A1.5541,1.5541,0,0,0,56.5319,78.3615Z"/><path class="cls-4" d="M48.8854,114.061a1.5134,1.5134,0,0,0,1.6383-1.403,1.5539,1.5539,0,0,0-1.4394-1.638,1.5133,1.5133,0,0,0-1.6383,1.403A1.5532,1.5532,0,0,0,48.8854,114.061Z"/><path class="cls-4" d="M34.8274,126.764a1.3459,1.3459,0,0,1-1.4564,1.248,1.3824,1.3824,0,0,1-1.28-1.457,1.3457,1.3457,0,0,1,1.4564-1.247A1.3814,1.3814,0,0,1,34.8274,126.764Z"/><path class="cls-4" d="M69.4163,60.6456l-4.7875-.3376q-.1253,1.776-.2219,3.1466-.076,1.3527-.1273,2.63l-2.7219-.192q.0847-.9252.153-1.6188.0889-.7116.1614-1.4631.0738-.7707.1625-1.7539t.1936-2.47q.1047-1.4865.1958-3.0515.0922-1.5843.1447-3.1521l8.2043.5787L70.64,54.8536l-5.56-.3921q-.0957.808-.1652,1.7926t-.1606,2.2779l4.7875.3376ZM74.4275,57.1q-.0891.44-.1564.8426-.0479.404-.1026.9046-.0341.4826-.1,1.1376-.045.6369-.1076,1.525t-.113,1.6023q-.05.7142-.0939,1.332-.0243.619-.0638,1.1789-.0187.5419-.04,1.1224l-2.6061-.1838q.07-.713.1271-1.2521.0766-.5378.1382-1.1349.0628-.6163.1353-1.3678.0738-.7708.1541-1.91.0735-1.0425.1182-1.9511.046-.9281.0657-2.0324Zm-2.4807-3.3372a1.3014,1.3014,0,0,1,.4322-.9008A1.375,1.375,0,0,1,73.45,52.53a1.49,1.49,0,0,1,.9421.3963,1.0653,1.0653,0,0,1,.362.9179,1.1777,1.1777,0,0,1-.4693.8788,1.4551,1.4551,0,0,1-1.0683.2932,1.62,1.62,0,0,1-.9448-.3576A1.0518,1.0518,0,0,1,71.9468,53.7624Zm7.3444-1.5579q-.1055.6715-.1945,1.3831-.07.7129-.15,1.58-.06.8494-.1541,1.91-.075,1.0617-.1716,2.4324-.09,1.2741-.1634,2.3165-.0722,1.0231-.1347,1.9111-.0433.8893-.1006,1.7-.0364.7928-.0757,1.6243L75.54,66.8783q.09-1.0025.1639-1.7733.093-.77.1709-1.5982.0792-.8479.1734-1.9084.0955-1.08.21-2.7013.1157-1.6409.2121-3.2831.0978-1.6615.1624-3.403Zm4.4778.3158q-.1056.6716-.1946,1.3831-.07.713-.15,1.58-.06.8494-.1541,1.91-.0748,1.0617-.1716,2.4324-.09,1.2741-.1633,2.3165-.0721,1.0231-.1348,1.9111-.0433.8893-.1,1.7-.0366.7927-.0758,1.6243l-2.6061-.1838q.09-1.0024.1639-1.7733.093-.77.1709-1.5982.0792-.848.1734-1.9084.0955-1.08.21-2.7013.1158-1.6408.2121-3.2831.0978-1.6616.1624-3.403Zm12.9761,5.9205q-.7014,1.9681-1.4485,3.7585-.7263,1.7724-1.5232,3.4428-.7776,1.6719-1.6282,3.28-.8313,1.61-1.74,3.2141l-2.68.0438q.8358-1.1244,1.5339-2.22t1.2983-2.1783a38.2274,38.2274,0,0,1-1.71-4.6409,50.1221,50.1221,0,0,1-1.1725-5.1074l2.5066-.056q.1416,1.0188.2984,2.0968.1581,1.0588.341,2.0417.2022.9843.4318,1.8541a9.3813,9.3813,0,0,0,.5556,1.4749,36.48,36.48,0,0,0,1.3384-3.5723q.5472-1.7075,1.0917-3.3763Zm4.5659,1.9128a1.513,1.513,0,0,0-1.4575.8672,5.8245,5.8245,0,0,0-.6664,2.5721,6.6592,6.6592,0,0,0,.2077,2.5561,1.4193,1.4193,0,0,0,1.3272.986,1.55,1.55,0,0,0,1.479-.8851,6.0046,6.0046,0,0,0,.69-2.6286,11.2544,11.2544,0,0,0,.02-1.3954,3.2122,3.2122,0,0,0-.216-1.0628,1.4582,1.4582,0,0,0-.512-.7152A1.5752,1.5752,0,0,0,101.311,60.3536Zm-4.6569,3.3189a6.7068,6.7068,0,0,1,.4807-2.139,4.94,4.94,0,0,1,1.023-1.5769,4.0662,4.0662,0,0,1,1.5214-.94,4.7371,4.7371,0,0,1,1.9178-.2334,3.8153,3.8153,0,0,1,2.961,1.47,5.1663,5.1663,0,0,1,.853,3.591,6.9479,6.9479,0,0,1-.483,2.1776,5.1524,5.1524,0,0,1-1.047,1.6334,4.1553,4.1553,0,0,1-1.524.979,4.5467,4.5467,0,0,1-1.879.2361,4.1984,4.1984,0,0,1-1.7128-.47,3.6856,3.6856,0,0,1-1.2433-1.0771,4.4538,4.4538,0,0,1-.7212-1.6029A6.6674,6.6674,0,0,1,96.6541,63.6725Zm16.3249,6.079q-.3465-.5871-.55-1.0088a3.525,3.525,0,0,1-.288-.8739q-.312.3078-.664.6128a5.5826,5.5826,0,0,1-.774.5274,3.8163,3.8163,0,0,1-.859.3468,2.63,2.63,0,0,1-.977.1057,2.6809,2.6809,0,0,1-.934-.24,1.9974,1.9974,0,0,1-.75-.6349,3.0432,3.0432,0,0,1-.483-1.14,6.0531,6.0531,0,0,1-.089-1.7524c.011-.1673.03-.4247.054-.7722q.057-.5391.118-1.1169.0615-.5971.099-1.1376c.039-.36.064-.6357.078-.8288a7.4168,7.4168,0,0,0-.011-1.2229,2.7718,2.7718,0,0,0-.22-1.005l2.678-.2768a3.7906,3.7906,0,0,1,.086.9761q.0015.5239-.025.91-.04.56-.118,1.1169-.0585.5585-.136,1.0963-.0555.52-.128,1c-.035.308-.06.5778-.077.8094a2.3773,2.3773,0,0,0,.276,1.5909,1.365,1.365,0,0,0,1.032.5,2.234,2.234,0,0,0,.979-.125,3.5733,3.5733,0,0,0,.766-.4115q.0045-.3489.035-.7736.0315-.444.071-1.0038.063-.888.113-1.6023t.075-1.3333q.0435-.6178.062-1.16.039-.56.061-1.14l2.606.1838q-.0525.462-.112,1.04t-.145,1.2314q-.0645.6357-.133,1.3293-.066.6743-.112,1.3114-.0525.7529-.048,1.2382a3.822,3.822,0,0,0,.096.8409,3.08,3.08,0,0,0,.262.6782q.1725.3032.455.711Zm5.628-9.8853a11.1919,11.1919,0,0,1,.558,1.1646,3.6961,3.6961,0,0,1,.259,1.0077,5.8833,5.8833,0,0,1,.526-.5837,4.3943,4.3943,0,0,1,.701-.5908,4.4487,4.4487,0,0,1,.849-.4833,3.0361,3.0361,0,0,1,.968-.2422l-.02,2.7535a8.4041,8.4041,0,0,0-1.769.05,2.04,2.04,0,0,0-1.196.4589q-.006.3681-.038.8121c-.02.2831-.042.6049-.068.9652q-.0435.6179-.075,1.3334-.0285.6963-.056,1.354-.006.64-.007,1.2023t.014.8935l-2.722-.192q.048-.4039.106-.9432t.117-1.1169q.06-.5778.102-1.1762.063-.6163.103-1.1762.063-.888.063-1.4506a4.7137,4.7137,0,0,0-.085-.9954,3.4679,3.4679,0,0,0-.254-.7939q-.168-.3612-.445-.8462ZM140.411,61.52q-.753,2.7016-1.617,5.0464-.8625,2.3254-1.918,4.6373l-2.352.0669q-.2355-.7926-.465-1.6624-.21-.8685-.419-1.7562-.2085-.9071-.396-1.8128-.1695-.9043-.283-1.766-.4635,1.6164-1.126,3.3157t-1.329,3.1655l-2.353.0669q-.72-2.4371-1.267-4.8619-.5265-2.4428-.873-5.2221l2.506-.056q.153,1.97.384,3.9072.2535,1.919.587,3.7856.708-1.7738,1.316-3.535.6285-1.76,1.153-3.6824l2.506-.0561q.249,1.977.597,3.9222.348,1.9258.799,3.8006.591-1.7818,1.104-3.55t.939-3.6974Zm2.306,10.3285a2.54,2.54,0,0,1-1.91-.969,3.15,3.15,0,0,1-.581-2.2138,3.0488,3.0488,0,0,1,.967-2.1629,2.8934,2.8934,0,0,1,2.221-.6776,4.2144,4.2144,0,0,1,1.109.2334,3.5545,3.5545,0,0,1,.972.5148l.076-1.081a1.8461,1.8461,0,0,0-.257-1.2986,1.61,1.61,0,0,0-1.171-.4512,5.4264,5.4264,0,0,0-1.247.0673,3.7784,3.7784,0,0,0-1.047.2753l-.468-1.8954q.2985-.0954.711-.1826a7.8961,7.8961,0,0,1,.883-.1318q.468-.0446.954-.0491a7.487,7.487,0,0,1,.892.0047q3.3975.24,3.163,3.56-.02.29-.098.8466c-.04.3723-.086.7635-.141,1.1735q-.0615.5971-.137,1.1156c-.038.3466-.061.5906-.071.7322a1.1453,1.1453,0,0,0,.09.6466.5744.5744,0,0,0,.488.2284,2.5739,2.5739,0,0,0,.585-.0364l-.44,1.8315q-.315.0747-.59.1136a2.3152,2.3152,0,0,1-.525.0211,1.8621,1.8621,0,0,1-1.17-.4705,1.7172,1.7172,0,0,1-.498-1.18,3.0468,3.0468,0,0,1-1.166,1.1206A2.9453,2.9453,0,0,1,142.717,71.8489Zm1.052-1.7107a1.39,1.39,0,0,0,1.074-.37,1.522,1.522,0,0,0,.523-1.0883,1.2575,1.2575,0,0,0-.282-.9511,1.3078,1.3078,0,0,0-.941-.4156,1.3233,1.3233,0,0,0-1.031.3153,1.4824,1.4824,0,0,0-.442,1.0359,1.5979,1.5979,0,0,0,.237,1.0449A1.1355,1.1355,0,0,0,143.769,70.1382Zm9.558-12.7122q-.1065.6715-.195,1.3831-.069.7128-.15,1.58-.06.8494-.154,1.91-.075,1.0617-.172,2.4323-.09,1.2741-.163,2.3166-.072,1.0231-.135,1.9111-.0435.8894-.1,1.7-.0375.7927-.076,1.6242L149.576,72.1q.09-1.0024.164-1.7732.093-.7695.17-1.5982.0795-.8481.174-1.9084.096-1.08.21-2.7013.1155-1.6409.212-3.2831.0975-1.6615.162-3.403Zm4.477.3158q-.105.6716-.194,1.3831-.0705.7128-.15,1.58-.06.8494-.155,1.91-.0735,1.0617-.171,2.4323-.09,1.2741-.163,2.3166-.0735,1.0232-.135,1.9111-.0435.8894-.101,1.7-.036.7929-.075,1.6243l-2.607-.1838q.09-1.0024.164-1.7732.093-.77.171-1.5982.0795-.8481.174-1.9084.0945-1.08.21-2.7013.1155-1.6409.212-3.2831.0975-1.6615.162-3.403Zm3.12,10.7738a3.655,3.655,0,0,0,.452,2.1078,1.918,1.918,0,0,0,1.485.6867,4.4448,4.4448,0,0,0,1.464-.13q.711-.1827,1.169-.3444l-.113,1.6023a3.38,3.38,0,0,1-1.599.6633,7.4206,7.4206,0,0,1-1.812.105,5.8047,5.8047,0,0,1-1.397-.2731,3.0258,3.0258,0,0,1-1.208-.7449,3.7294,3.7294,0,0,1-.792-1.4332,6.8305,6.8305,0,0,1-.164-2.34,7.7721,7.7721,0,0,1,.52-2.4271,5.09,5.09,0,0,1,1.07-1.69,4.0163,4.0163,0,0,1,1.502-.9417,4.6141,4.6141,0,0,1,1.82-.2209,3.2613,3.2613,0,0,1,1.578.4605,2.5651,2.5651,0,0,1,.924.9188,2.889,2.889,0,0,1,.401,1.1923,6.1085,6.1085,0,0,1-.127,2.3579,3.356,3.356,0,0,1-.27.7958Zm1.95-3.9948a1.3345,1.3345,0,0,0-1.224.5733,4.3687,4.3687,0,0,0-.626,1.993l3.186.2246c.003-.0515.008-.1158.013-.193a1.2879,1.2879,0,0,0,.035-.211,4.8827,4.8827,0,0,0-.009-.6991,2.4488,2.4488,0,0,0-.179-.7692,1.618,1.618,0,0,0-.442-.6131A1.1379,1.1379,0,0,0,162.874,64.5208Zm4.123-.7374a3.1709,3.1709,0,0,0,1.057-.1389,1.69,1.69,0,0,0,.694-.4942,3.0741,3.0741,0,0,0,.511-.9146q.2145-.5669.446-1.3654l1.832-.3946q-.249,1.0494-.403,1.8535T170.849,63.9l2.085.147-.29,1.6286-1.998-.2767q-.159,1.1527-.267,2.1346-.087.9639-.136,1.6588-.0555.7915-.051,1.2769a3.5837,3.5837,0,0,0,.102.7444.7324.7324,0,0,0,.265.3679,1.3142,1.3142,0,0,0,.478.1113,2.9513,2.9513,0,0,0,.759-.0435,2.7871,2.7871,0,0,0,.637-.2267l-.431,1.9873a4.3778,4.3778,0,0,1-.895.3055,3.0678,3.0678,0,0,1-.974.0671,3.0036,3.0036,0,0,1-1.106-.2721,1.8544,1.8544,0,0,1-.766-.6942,3.4353,3.4353,0,0,1-.381-1.21,8.819,8.819,0,0,1-.029-1.7869q.0615-.8688.227-2.1181.186-1.2479.377-2.5924l-1.409-.0994Zm24.194,1.3183q-.753,2.7018-1.617,5.0465-.8625,2.3254-1.917,4.6373l-2.353.0669q-.234-.7926-.464-1.6624-.2115-.8685-.42-1.7563-.207-.9071-.396-1.8127-.168-.9043-.283-1.766-.462,1.6164-1.126,3.3156t-1.329,3.1656l-2.352.0669q-.72-2.437-1.267-4.8619-.5265-2.4428-.874-5.2221l2.507-.056q.1515,1.97.384,3.9071.252,1.9191.587,3.7857.7065-1.7738,1.316-3.535.6285-1.76,1.152-3.6825l2.507-.056q.2475,1.977.596,3.9222.3495,1.9258.799,3.8006.591-1.782,1.104-3.55t.94-3.6974Zm3.716.4949q-.0885.44-.156.8426-.048.4041-.103.9046c-.022.3217-.056.7009-.099,1.1376q-.045.6371-.108,1.525t-.113,1.6023q-.05.7143-.094,1.332-.024.619-.064,1.1789c-.012.3613-.026.7354-.04,1.1224l-2.606-.1838q.069-.7128.127-1.252.0765-.5379.138-1.1349.063-.6163.136-1.3679.0735-.7708.154-1.91.0735-1.0424.118-1.9511.0465-.9279.066-2.0324Zm-2.48-3.3372a1.2976,1.2976,0,0,1,.432-.9007,1.3733,1.3733,0,0,1,1.071-.3319,1.4908,1.4908,0,0,1,.942.3962,1.0659,1.0659,0,0,1,.362.918,1.1777,1.1777,0,0,1-.469.8787,1.4566,1.4566,0,0,1-1.069.2933,1.6179,1.6179,0,0,1-.944-.3577A1.05,1.05,0,0,1,192.427,62.2594Zm3.452,3.561a3.1734,3.1734,0,0,0,1.058-.1389,1.6962,1.6962,0,0,0,.694-.4942,3.0741,3.0741,0,0,0,.511-.9146q.2145-.5669.445-1.3654l1.832-.3946q-.2475,1.0494-.402,1.8535t-.285,1.5707l2.085.147-.29,1.6286-1.998-.2767q-.159,1.1527-.267,2.1346-.087.9639-.136,1.6588-.057.7915-.052,1.2769a3.5742,3.5742,0,0,0,.103.7444.7267.7267,0,0,0,.265.3679,1.3085,1.3085,0,0,0,.477.1113,2.9564,2.9564,0,0,0,.76-.0435,2.7871,2.7871,0,0,0,.637-.2267l-.431,1.9873a4.3778,4.3778,0,0,1-.895.3055,3.0742,3.0742,0,0,1-.975.0671,3.0137,3.0137,0,0,1-1.106-.2721,1.86,1.86,0,0,1-.766-.6942,3.4356,3.4356,0,0,1-.38-1.21,8.819,8.819,0,0,1-.029-1.7869q.0615-.8688.227-2.1181.1845-1.2478.377-2.5924l-1.409-.0994Zm10.161-4.6768q-.1035.633-.189,1.3059-.066.6551-.141,1.4451-.0555.7916-.142,1.7361-.066.9459-.151,2.1428a7.2166,7.2166,0,0,1,.679-.5535,4.9027,4.9027,0,0,1,.772-.4888,4.1416,4.1416,0,0,1,.875-.3069,2.8082,2.8082,0,0,1,.938-.0891,2.53,2.53,0,0,1,.914.2391,1.9772,1.9772,0,0,1,.77.6363,3.043,3.043,0,0,1,.482,1.14,6.0492,6.0492,0,0,1,.09,1.7524q-.0195.27-.075.79-.0375.5212-.098,1.1183-.06.5778-.118,1.117c-.025.36-.045.637-.058.83a9.5457,9.5457,0,0,0-.01,1.2409,3.0573,3.0573,0,0,0,.24.987l-2.716.274a4.4445,4.4445,0,0,1-.105-.9774q.0165-.5226.044-.9087.039-.54.097-1.099.0795-.5764.136-1.0963.0765-.5377.129-1,.072-.48.097-.8274a2.3773,2.3773,0,0,0-.276-1.5909,1.3666,1.3666,0,0,0-1.032-.5,2.64,2.64,0,0,0-1.037.1209,3.1479,3.1479,0,0,0-.822.3881q-.081,1.139-.147,2.0849-.0675.9459-.127,1.7953-.039.8315-.094,1.6036-.0345.7736-.07,1.5471l-2.606-.1838q.09-1.0024.164-1.7733.093-.7694.171-1.5981.078-.8481.173-1.9085.096-1.08.21-2.7012.1155-1.6408.212-3.2831.0975-1.6616.162-3.403ZM50.43,83.1782a3.0589,3.0589,0,0,0,1.8252-.2981,1.4236,1.4236,0,0,0,.6856-1.1933,1.6044,1.6044,0,0,0-.1524-.8644,1.9729,1.9729,0,0,0-.537-.6392,3.35,3.35,0,0,0-.8-.4833q-.45-.2257-.9393-.4348-.9049-.3743-1.636-.7362a6,6,0,0,1-1.2237-.8042,2.9866,2.9866,0,0,1-.7386-1.08,3.59,3.59,0,0,1-.182-1.5454,3.4252,3.4252,0,0,1,2.024-3.1166,4.7488,4.7488,0,0,1,1.72-.4606,10.5228,10.5228,0,0,1,1.7289-.0333,11.06,11.06,0,0,1,1.881.2879q.8964.2184,1.5612.4205l-.158,2.2393a18.0023,18.0023,0,0,0-1.88-.5788,10.44,10.44,0,0,0-1.7831-.3,3.2885,3.2885,0,0,0-2.0623.359,1.4392,1.4392,0,0,0-.72,1.1326,1.3147,1.3147,0,0,0,.2283.8892,3.0521,3.0521,0,0,0,.6914.65,4.9492,4.9492,0,0,0,.898.4708q.4923.1705.89.3149a11.9047,11.9047,0,0,1,1.3559.5807,4.5357,4.5357,0,0,1,1.203.822A3.4267,3.4267,0,0,1,55.155,80a3.6566,3.6566,0,0,1,.2291,1.704,3.9776,3.9776,0,0,1-.4907,1.7309,3.3031,3.3031,0,0,1-1.0923,1.1839,4.3514,4.3514,0,0,1-1.5782.6454,7.1732,7.1732,0,0,1-1.9674.1134,12.8352,12.8352,0,0,1-2.0713-.34,12.5418,12.5418,0,0,1-2.1971-.7563l.09-2.38a6.7556,6.7556,0,0,0,.8441.4087q.51.1912,1.0979.3878.6083.1788,1.2192.3188A10.0005,10.0005,0,0,0,50.43,83.1782Zm12.5337-9.2043a2.7346,2.7346,0,0,0-2.49,1.2018,7.4029,7.4029,0,0,0-1.1464,3.8768,8.3546,8.3546,0,0,0,.4585,3.9513,2.59,2.59,0,0,0,2.3384,1.5035,2.5055,2.5055,0,0,0,1.3579-.2728,3.19,3.19,0,0,0,1.12-1.0269,5.6518,5.6518,0,0,0,.7969-1.67,9.4424,9.4424,0,0,0,.4116-2.26,13.5588,13.5588,0,0,0-.002-2.173,4.4209,4.4209,0,0,0-.39-1.6184,2.4233,2.4233,0,0,0-.9151-1.0539A3.1679,3.1679,0,0,0,62.9637,73.9739Zm-6.2856,4.95a9.3255,9.3255,0,0,1,.6275-2.8464A6.4824,6.4824,0,0,1,58.68,73.924a5.6779,5.6779,0,0,1,2.034-1.331,5.89,5.89,0,0,1,2.5463-.3442,5.6047,5.6047,0,0,1,2.34.65,4.7044,4.7044,0,0,1,1.6821,1.4573,5.9974,5.9974,0,0,1,.9712,2.1831,9.185,9.185,0,0,1,.1928,2.7685,9.3717,9.3717,0,0,1-.651,2.9029,7.111,7.111,0,0,1-1.38,2.2308,5.8118,5.8118,0,0,1-2.0187,1.39,5.668,5.668,0,0,1-2.5284.3649,5.5479,5.5479,0,0,1-2.3584-.6708,5.3286,5.3286,0,0,1-1.6752-1.5538,6.6171,6.6171,0,0,1-.9658-2.26A9.3774,9.3774,0,0,1,56.6781,78.9239Zm20.7191,8.135-7.7217-.5446q.0846-.9252.1529-1.6188.0889-.7116.1614-1.4631.0738-.7707.1625-1.7539t.1936-2.47q.1048-1.4863.189-2.9549.0855-1.4878.1379-3.0555l2.7741.0016q-.1014.6136-.1864,1.2673-.0642.6357-.1393,1.4258-.0544.7722-.1418,1.736-.0681.9652-.1553,2.2007-.1116,1.5829-.1946,2.7606t-.1373,2.2213l5.0384.3554Zm7.9-14.3811q-.1056.6715-.1946,1.3831-.07.7129-.15,1.58-.06.8495-.1541,1.91-.0748,1.0617-.1716,2.4324-.09,1.2739-.1633,2.3165-.0723,1.0231-.1348,1.9111-.0433.8893-.1,1.7-.0366.7927-.0758,1.6243l-2.6061-.1838q.09-1.0026.1639-1.7733.093-.77.1709-1.5982.0792-.8481.1734-1.9084.0956-1.08.21-2.7013.1157-1.6409.2121-3.2831.0978-1.6615.1624-3.403Zm4.1294,5.5293q-.0893.44-.1564.8426-.048.4041-.1026.9046-.0341.4825-.1,1.1376-.0448.6371-.1075,1.525t-.113,1.6023q-.05.7143-.094,1.332Q88.73,86.17,88.69,86.73q-.0189.5419-.04,1.1224l-2.6061-.1838q.07-.7128.1271-1.252.0768-.5379.1383-1.1349.0628-.6163.1352-1.3679.0738-.7708.1541-1.91.0737-1.0423.1182-1.9511.0461-.9279.0658-2.0324ZM86.9463,74.87a1.3,1.3,0,0,1,.4321-.9007,1.3746,1.3746,0,0,1,1.0711-.3319,1.49,1.49,0,0,1,.942.3962,1.066,1.066,0,0,1,.3621.918,1.1778,1.1778,0,0,1-.4694.8787,1.4548,1.4548,0,0,1-1.0683.2933,1.6217,1.6217,0,0,1-.9448-.3577A1.0517,1.0517,0,0,1,86.9463,74.87Zm7.3444-1.5579q-.1056.6715-.1945,1.3831-.07.713-.15,1.58-.06.8493-.1541,1.91-.0748,1.0617-.1715,2.4323l-.113,1.6023q1.1241-1.0848,2-1.9542L97.26,78.5267l2.6091.4169q-.4727.3739-.9039.7122-.43.3189-.9438.7289-.4933.392-1.1119.911-.5979.501-1.4066,1.2394A4.2881,4.2881,0,0,1,98.01,83.5656a2.9842,2.9842,0,0,1,.791,2.539,10.0839,10.0839,0,0,1-.1589,1.1528q-.1029.633-.1877,1.2866l-2.4887.0767q.1317-.7666.2359-1.419a10.3469,10.3469,0,0,0,.1616-1.1914,2.71,2.71,0,0,0-.2924-1.6309,1.8035,1.8035,0,0,0-1.5049-.6687,6.1072,6.1072,0,0,0-1.1664.0341q-.0871,1.2356-.162,2.2972-.0557,1.0632-.0919,2.1276L90.54,87.9858q.09-1.0024.1625-1.754.0932-.7694.1723-1.6174t.1761-1.9471q.0984-1.1182.2168-2.7977.1062-1.5058.2026-3.148.0978-1.6615.1624-3.403Zm8.1533,11.1289a3.6545,3.6545,0,0,0,.452,2.1077,1.9155,1.9155,0,0,0,1.484.6867,4.4535,4.4535,0,0,0,1.465-.1295q.711-.1827,1.169-.3444l-.113,1.6023a3.3892,3.3892,0,0,1-1.599.6632,7.4159,7.4159,0,0,1-1.812.1051,5.8048,5.8048,0,0,1-1.397-.2732,3.0256,3.0256,0,0,1-1.208-.7448,3.73,3.73,0,0,1-.792-1.4332,6.832,6.832,0,0,1-.1645-2.34,7.7779,7.7779,0,0,1,.52-2.4272,5.0756,5.0756,0,0,1,1.07-1.69,4.0189,4.0189,0,0,1,1.502-.9417,4.6118,4.6118,0,0,1,1.82-.2208,3.2537,3.2537,0,0,1,1.577.46,2.56,2.56,0,0,1,.925.9188,2.8885,2.8885,0,0,1,.401,1.1923,6.0816,6.0816,0,0,1-.128,2.3579,3.3611,3.3611,0,0,1-.269.7958Zm1.95-3.9948a1.3345,1.3345,0,0,0-1.224.5733,4.3678,4.3678,0,0,0-.626,1.9929l3.185.2247c.004-.0515.009-.1159.014-.1931a1.2756,1.2756,0,0,0,.034-.211,4.6055,4.6055,0,0,0-.009-.699,2.4479,2.4479,0,0,0-.178-.7692,1.63,1.63,0,0,0-.442-.6132A1.14,1.14,0,0,0,104.394,80.4461Zm10.037,9.4575a2.54,2.54,0,0,1-1.911-.969,3.15,3.15,0,0,1-.581-2.2138,3.0488,3.0488,0,0,1,.967-2.1629,2.8934,2.8934,0,0,1,2.221-.6776,4.2144,4.2144,0,0,1,1.109.2334,3.5545,3.5545,0,0,1,.972.5148l.076-1.081a1.8461,1.8461,0,0,0-.257-1.2986,1.61,1.61,0,0,0-1.171-.4512,5.4264,5.4264,0,0,0-1.247.0673,3.7784,3.7784,0,0,0-1.047.2753l-.468-1.8954q.2985-.0954.711-.1826a7.8961,7.8961,0,0,1,.883-.1318q.468-.0445.954-.0491a7.487,7.487,0,0,1,.892.0047q3.3975.24,3.163,3.56-.02.29-.098.8466-.0585.5585-.141,1.1735-.0615.5971-.137,1.1156-.0555.52-.071.7322a1.1453,1.1453,0,0,0,.09.6466.5744.5744,0,0,0,.488.2284,2.5709,2.5709,0,0,0,.585-.0364l-.44,1.8315q-.315.0747-.59.1136a2.3152,2.3152,0,0,1-.525.0211,1.8621,1.8621,0,0,1-1.17-.47,1.7172,1.7172,0,0,1-.498-1.18,3.0468,3.0468,0,0,1-1.166,1.1206A2.9436,2.9436,0,0,1,114.431,89.9036Zm1.051-1.7107a1.39,1.39,0,0,0,1.074-.37,1.522,1.522,0,0,0,.523-1.0883,1.2575,1.2575,0,0,0-.282-.9511,1.3078,1.3078,0,0,0-.941-.4156,1.3233,1.3233,0,0,0-1.031.3153,1.4816,1.4816,0,0,0-.441,1.0359,1.5977,1.5977,0,0,0,.236,1.0449A1.1355,1.1355,0,0,0,115.482,88.1929Zm12.497.61a1.1343,1.1343,0,0,0,.787-.1579.7773.7773,0,0,0,.274-.5821.8765.8765,0,0,0-.067-.4315.761.761,0,0,0-.248-.3279,1.9269,1.9269,0,0,0-.446-.2836q-.28-.1556-.675-.3386-.45-.2064-.918-.4528a3.67,3.67,0,0,1-.812-.6,2.4665,2.4665,0,0,1-.538-.8916,3.2514,3.2514,0,0,1-.139-1.329,2.7943,2.7943,0,0,1,.452-1.4619,2.67,2.67,0,0,1,.951-.8254,3.1753,3.1753,0,0,1,1.148-.3264,5.84,5.84,0,0,1,1.109-.0382,8.4144,8.4144,0,0,1,1.209.1822,5.1085,5.1085,0,0,1,1.081.3479l-.144,2.0463a5.5044,5.5044,0,0,0-.681-.2421q-.36-.1224-.704-.2048a6.4889,6.4889,0,0,0-.651-.1235,4.2163,4.2163,0,0,0-.499-.074q-1.236-.0872-1.295.7623a.9888.9888,0,0,0,.476.9454,10.5469,10.5469,0,0,0,1.291.6731,6.4408,6.4408,0,0,1,.879.4693,2.419,2.419,0,0,1,.694.6116,2.1516,2.1516,0,0,1,.444.8655,3.42,3.42,0,0,1,.107,1.23,2.6424,2.6424,0,0,1-.962,2.0856,3.1852,3.1852,0,0,1-2.152.5272,6.7779,6.7779,0,0,1-1.511-.3006,7.418,7.418,0,0,1-1.599-.7141l.077-2.1869a4.0519,4.0519,0,0,0,.612.3925q.375.1816.81.3481.435.1471.854.2736A4.6751,4.6751,0,0,0,127.979,88.8026Zm8.853,6.91q.078-.5571.139-1.1349.078-.5764.125-1.2328.066-.6549.14-1.4258.072-.7515.137-1.6781a6.0464,6.0464,0,0,1-1.259.8036,2.9523,2.9523,0,0,1-1.514.2813,3.1252,3.1252,0,0,1-1.011-.2459,2.0185,2.0185,0,0,1-.843-.7,3.7082,3.7082,0,0,1-.548-1.3,7.3669,7.3669,0,0,1-.089-2.0433,9.9457,9.9457,0,0,1,.494-2.6036,5.6278,5.6278,0,0,1,1.041-1.8279,3.6693,3.6693,0,0,1,1.449-1.023,4.09,4.09,0,0,1,1.804-.2608,2.3123,2.3123,0,0,1,1.118.37,2.9656,2.9656,0,0,1,.868.8954l.835-.8335,1.023.0721a8.6834,8.6834,0,0,0-.265,1.01q-.099.5749-.217,1.42-.096.8274-.198,1.9843-.081,1.1583-.196,2.78-.1155,1.6409-.212,3.2831-.0975,1.6615-.162,3.403Zm-.724-6.5114a2.1361,2.1361,0,0,0,.722-.0655,2.79,2.79,0,0,0,.641-.2846l.052-.7336q.108-1.5251.189-2.6833.0825-1.1583.134-2.1634a1.3849,1.3849,0,0,0-1.122-.6029,1.45,1.45,0,0,0-1.385.9305,7.9916,7.9916,0,0,0-.658,2.9995,5.7086,5.7086,0,0,0,.026,1.2822,1.9765,1.9765,0,0,0,.275.7761,1.0648,1.0648,0,0,0,.477.4021A2.0729,2.0729,0,0,0,136.108,89.2014Zm12.137,3.087q-.3465-.5871-.55-1.0088a3.4816,3.4816,0,0,1-.287-.8739q-.3135.3076-.664.6128a5.6726,5.6726,0,0,1-.775.5274,3.8163,3.8163,0,0,1-.859.3468,2.63,2.63,0,0,1-.977.1057,2.6831,2.6831,0,0,1-.934-.24,1.9974,1.9974,0,0,1-.75-.6349,3.043,3.043,0,0,1-.483-1.14,6.0879,6.0879,0,0,1-.089-1.7523c.011-.1673.03-.4247.054-.7722q.057-.5392.118-1.117.0615-.597.099-1.1375.0585-.5392.078-.8288a7.418,7.418,0,0,0-.011-1.223,2.7712,2.7712,0,0,0-.22-1.0049l2.678-.2768a3.79,3.79,0,0,1,.086.9761q.0015.5239-.025.91-.0405.56-.118,1.117-.0585.5584-.135,1.0962-.057.52-.129,1c-.035.308-.06.5778-.077.8094a2.3773,2.3773,0,0,0,.276,1.5909,1.3667,1.3667,0,0,0,1.032.5,2.2355,2.2355,0,0,0,.979-.125,3.5692,3.5692,0,0,0,.766-.4116q.0045-.3487.035-.7735.0315-.444.071-1.0038.063-.888.113-1.6023c.034-.4762.058-.9206.075-1.3334q.0435-.6177.062-1.16.039-.56.061-1.14l2.606.1838q-.0525.462-.112,1.04t-.145,1.2314q-.0645.6357-.133,1.3293-.066.6743-.112,1.3113-.0525.7529-.048,1.2382a3.823,3.823,0,0,0,.096.841,3.0776,3.0776,0,0,0,.262.6781q.1725.3033.455.7111Zm6.762-9.4561q-.09.44-.157.8425c-.031.2694-.066.5709-.102.9046q-.0345.4827-.1,1.1376-.045.6371-.107,1.5251t-.113,1.6022q-.051.7143-.094,1.332-.024.6192-.064,1.179-.02.5418-.04,1.1224l-2.606-.1838q.069-.7129.127-1.2521.0765-.5377.138-1.1349.063-.6163.135-1.3679.0735-.7709.154-1.91.0735-1.0423.118-1.9511.0465-.9279.066-2.0324Zm-2.481-3.3373a1.3059,1.3059,0,0,1,.432-.9007,1.3765,1.3765,0,0,1,1.071-.3319,1.4858,1.4858,0,0,1,.942.3963,1.0663,1.0663,0,0,1,.363.9179,1.1784,1.1784,0,0,1-.47.8787,1.4536,1.4536,0,0,1-1.068.2933,1.6228,1.6228,0,0,1-.945-.3576A1.0527,1.0527,0,0,1,152.526,79.495Zm5.863,3.2265a11.1919,11.1919,0,0,1,.558,1.1646,3.6956,3.6956,0,0,1,.258,1.0077,5.9142,5.9142,0,0,1,.527-.5837,4.4,4.4,0,0,1,.701-.5908,4.4594,4.4594,0,0,1,.849-.4833,3.03,3.03,0,0,1,.967-.2422l-.019,2.7535a8.4017,8.4017,0,0,0-1.769.05,2.0335,2.0335,0,0,0-1.196.4588c-.005.2454-.017.5161-.038.8121q-.03.4248-.068.9653-.0435.6177-.075,1.3333-.03.6963-.057,1.3541-.006.64-.007,1.2023t.015.8934l-2.722-.1919q.048-.4041.105-.9432t.118-1.117q.06-.5777.102-1.1762.063-.6163.102-1.1762.063-.888.064-1.4505a4.85,4.85,0,0,0-.085-.9954,3.4214,3.4214,0,0,0-.255-.794q-.168-.3611-.444-.8462Zm6.626.4674a10.797,10.797,0,0,1,.558,1.1646,3.6971,3.6971,0,0,1,.259,1.0077,6.0114,6.0114,0,0,1,.526-.5837,5.2093,5.2093,0,0,1,1.551-1.0741,3.0236,3.0236,0,0,1,.967-.2422l-.019,2.7535a8.4,8.4,0,0,0-1.769.05,2.04,2.04,0,0,0-1.197.4589q-.006.3681-.038.8121-.0285.4246-.068.9652-.0435.6179-.074,1.3334-.03.6963-.057,1.354-.006.64-.007,1.2024t.014.8934l-2.721-.192c.031-.2693.067-.5837.105-.9432s.077-.7317.117-1.1169.075-.7772.103-1.1762q.063-.6163.102-1.1762.063-.888.064-1.4506a4.85,4.85,0,0,0-.085-.9954,3.4688,3.4688,0,0,0-.255-.7939q-.168-.3612-.444-.8462Zm6.657,6.1344a3.655,3.655,0,0,0,.452,2.1078,1.9179,1.9179,0,0,0,1.485.6866,4.4446,4.4446,0,0,0,1.464-.1295q.711-.1827,1.169-.3444l-.113,1.6023a3.38,3.38,0,0,1-1.599.6633,7.4206,7.4206,0,0,1-1.812.105,5.8047,5.8047,0,0,1-1.397-.2731,3.0258,3.0258,0,0,1-1.208-.7449,3.7294,3.7294,0,0,1-.792-1.4332,6.8058,6.8058,0,0,1-.164-2.34,7.7721,7.7721,0,0,1,.52-2.4271,5.09,5.09,0,0,1,1.07-1.69,4.0163,4.0163,0,0,1,1.502-.9417,4.6141,4.6141,0,0,1,1.82-.2209,3.2537,3.2537,0,0,1,1.577.4605,2.56,2.56,0,0,1,.925.9188,2.889,2.889,0,0,1,.401,1.1923,5.9821,5.9821,0,0,1,.048,1.245,6.0428,6.0428,0,0,1-.175,1.1129,3.356,3.356,0,0,1-.27.7958Zm1.95-3.9948a1.3345,1.3345,0,0,0-1.224.5733,4.3687,4.3687,0,0,0-.626,1.993l3.186.2246c.003-.0515.008-.1158.013-.193a1.2879,1.2879,0,0,0,.035-.211,4.8827,4.8827,0,0,0-.009-.6991,2.4488,2.4488,0,0,0-.179-.7692,1.6191,1.6191,0,0,0-.442-.6132A1.1384,1.1384,0,0,0,173.622,85.3285Zm8.014-5.8563q-.105.6715-.194,1.3831-.07.713-.15,1.58-.06.8493-.155,1.91-.0735,1.0619-.171,2.4324-.09,1.2741-.163,2.3165-.0735,1.0232-.135,1.9112-.0435.8893-.101,1.7-.036.7929-.076,1.6243l-2.606-.1838q.09-1.0024.164-1.7733.093-.7693.171-1.5982.0795-.848.174-1.9084.0945-1.08.209-2.7012.117-1.6409.213-3.2831.0975-1.6615.162-3.4031Zm4.291,5.6959,1.511.029c.029-.2307.051-.4426.064-.6357q.042-.3075.1-.5943a8.0571,8.0571,0,0,1,.426-1.6384,3.3335,3.3335,0,0,1,.843-1.221,3.2648,3.2648,0,0,1,1.352-.7389,5.7269,5.7269,0,0,1,1.97-.152,5.1979,5.1979,0,0,1,1.281.2649,4.5507,4.5507,0,0,1,1.274.6524l-.379,1.797a5.6742,5.6742,0,0,0-1.238-.6111,3.97,3.97,0,0,0-1.088-.2514,2.2355,2.2355,0,0,0-.979.125,1.6384,1.6384,0,0,0-.672.457,2.2152,2.2152,0,0,0-.438.7063,3.2164,3.2164,0,0,0-.178.88l-.074,1.0424,4.865.3431q-.09.44-.157.8426c-.031.2693-.066.5709-.102.9046q-.0345.4825-.1,1.1376-.045.6371-.107,1.525t-.113,1.6023q-.051.7142-.094,1.332-.024.6191-.064,1.1789-.02.5419-.04,1.1224l-2.606-.1838q.069-.713.127-1.2521.0765-.5378.138-1.1349.063-.6163.135-1.3678.0735-.7708.154-1.91.042-.5985.081-1.139.039-.56.059-1.121l-2.283-.3551-.338,4.7875q-.0375.5212-.067.946t-.039.8314q-.0075.3874-.035.7735c-.005.2583-.005.5235.002.7956l-2.394-.1688q.1155-1.6409.207-2.9343t.161-2.2779q.0705-1.0038.122-1.7374c.049-.501.086-.9446.114-1.3306l-1.352-.0953Zm13.478-4.4427q-.105.6716-.194,1.3831-.0705.7129-.15,1.58-.06.8493-.154,1.91-.075,1.0618-.172,2.4324-.09,1.2741-.163,2.3165-.072,1.0232-.135,1.9112-.0435.8894-.101,1.7-.036.7929-.075,1.6243l-2.607-.1838q.0915-1.0024.164-1.7733.093-.7694.171-1.5982.0795-.8479.174-1.9084.0945-1.08.21-2.7012.1155-1.6408.212-3.2831.0975-1.6616.162-3.4031Zm4.478.3158q-.105.6715-.194,1.3831-.0705.713-.151,1.58-.06.8493-.154,1.91-.075,1.0619-.171,2.4324-.09,1.2741-.164,2.3165-.072,1.0231-.134,1.9112-.0435.8894-.101,1.7-.036.7929-.076,1.6243l-2.606-.1838q.09-1.0025.164-1.7733.093-.7694.171-1.5982.0795-.848.173-1.9084.096-1.08.21-2.7012.1155-1.6409.212-3.2831.099-1.6615.163-3.4031Zm3.712,13.3765a1.1329,1.1329,0,0,0,.787-.1579.7706.7706,0,0,0,.274-.5821.8543.8543,0,0,0-.067-.4315.76.76,0,0,0-.248-.3279,1.93,1.93,0,0,0-.446-.2837q-.279-.1556-.674-.3385-.4515-.2065-.919-.4528a3.6646,3.6646,0,0,1-.811-.6,2.4682,2.4682,0,0,1-.539-.8916,3.2516,3.2516,0,0,1-.139-1.329,2.8027,2.8027,0,0,1,.453-1.4619,2.6587,2.6587,0,0,1,.95-.8254,3.1753,3.1753,0,0,1,1.148-.3264,5.8427,5.8427,0,0,1,1.109-.0383,8.43,8.43,0,0,1,1.209.1823,5.1134,5.1134,0,0,1,1.082.3479l-.145,2.0463a5.4467,5.4467,0,0,0-.681-.2421c-.24-.0816-.475-.15-.703-.2048a6.4608,6.4608,0,0,0-.651-.1235,4.2282,4.2282,0,0,0-.5-.074q-1.2345-.0871-1.295.7622a.99.99,0,0,0,.477.9455,10.4607,10.4607,0,0,0,1.291.673,6.4992,6.4992,0,0,1,.878.4694,2.423,2.423,0,0,1,.695.6116,2.15,2.15,0,0,1,.443.8655,3.3976,3.3976,0,0,1,.107,1.23,2.6393,2.6393,0,0,1-.962,2.0856,3.1842,3.1842,0,0,1-2.152.5272,6.7892,6.7892,0,0,1-1.511-.3006,7.4665,7.4665,0,0,1-1.599-.7141l.077-2.1869a4.0242,4.0242,0,0,0,.613.3924q.375.1817.809.3481c.291.0981.575.1893.854.2737A4.6751,4.6751,0,0,0,207.595,94.4177Zm10.056,2.7657a2.5366,2.5366,0,0,1-1.91-.969,3.1555,3.1555,0,0,1-.582-2.2138,3.05,3.05,0,0,1,.968-2.1629,2.8911,2.8911,0,0,1,2.22-.6776,4.2061,4.2061,0,0,1,1.109.2334,3.5752,3.5752,0,0,1,.973.5148l.076-1.081a1.84,1.84,0,0,0-.258-1.2986,1.6058,1.6058,0,0,0-1.171-.4512,5.4179,5.4179,0,0,0-1.246.0673,3.7961,3.7961,0,0,0-1.048.2753l-.467-1.8954a7.2264,7.2264,0,0,1,.711-.1826,7.9124,7.9124,0,0,1,.882-.1318q.47-.0446.954-.0491a7.4853,7.4853,0,0,1,.892.0047q3.3975.24,3.164,3.56-.021.29-.099.8466-.0585.5584-.141,1.1735-.0615.5971-.137,1.1156-.0555.52-.071.7322a1.1527,1.1527,0,0,0,.091.6466.5731.5731,0,0,0,.488.2284,2.5655,2.5655,0,0,0,.584-.0364l-.439,1.8315c-.211.05-.407.0877-.59.1136a2.3152,2.3152,0,0,1-.525.0211,1.86,1.86,0,0,1-1.17-.4705,1.718,1.718,0,0,1-.499-1.18,3.0442,3.0442,0,0,1-1.165,1.1206A2.949,2.949,0,0,1,217.651,97.1834Zm1.052-1.7107a1.39,1.39,0,0,0,1.074-.3705,1.522,1.522,0,0,0,.523-1.0883,1.2575,1.2575,0,0,0-.282-.9511,1.51,1.51,0,0,0-1.972-.1,1.4822,1.4822,0,0,0-.442,1.0359,1.5919,1.5919,0,0,0,.237,1.0449A1.1338,1.1338,0,0,0,218.703,95.4727ZM54.1463,90.5305q-.1029.6328-.1891,1.3058-.0657.6551-.1407,1.4452-.0559.7914-.1419,1.736-.0667.9459-.1511,2.1428a7.1434,7.1434,0,0,1,.6792-.5535,4.9028,4.9028,0,0,1,.7717-.4888,4.14,4.14,0,0,1,.8753-.3069,2.8067,2.8067,0,0,1,.9375-.0891,2.5278,2.5278,0,0,1,.9144.2391,1.9762,1.9762,0,0,1,.77.6363,3.0477,3.0477,0,0,1,.4822,1.14,6.0525,6.0525,0,0,1,.09,1.7523q-.0191.27-.0751.79-.0368.52-.0983,1.118-.06.5775-.1175,1.117-.0381.54-.0586.83a9.6907,9.6907,0,0,0-.01,1.241,3.0434,3.0434,0,0,0,.2408.987l-2.716.274a4.4459,4.4459,0,0,1-.1057-.977q.0175-.5235.0447-.909c.0254-.36.0578-.727.0969-1.099q.08-.576.1356-1.096.0766-.5385.1287-1,.0726-.48.0971-.8274a2.3712,2.3712,0,0,0-.2758-1.5909,1.3661,1.3661,0,0,0-1.0318-.5,2.6418,2.6418,0,0,0-1.0367.1209,3.1518,3.1518,0,0,0-.8228.3882q-.08,1.1389-.1471,2.0848t-.1266,1.795q-.0391.8325-.0937,1.604-.0351.774-.07,1.547l-2.6061-.184q.09-1.002.1639-1.773.093-.7695.1709-1.598.0792-.849.1734-1.9086.0955-1.08.21-2.7013.1158-1.6409.2122-3.2831.0977-1.6615.1624-3.403Zm10.68,7.3493a1.5124,1.5124,0,0,0-1.458.8672,5.8229,5.8229,0,0,0-.6664,2.572,6.6564,6.6564,0,0,0,.2078,2.556,1.4187,1.4187,0,0,0,1.3273.986,1.5491,1.5491,0,0,0,1.4786-.885,6.01,6.01,0,0,0,.69-2.629,11.2943,11.2943,0,0,0,.0208-1.3949,3.2327,3.2327,0,0,0-.216-1.0629,1.4657,1.4657,0,0,0-.5122-.7151A1.5738,1.5738,0,0,0,64.8259,97.88Zm-4.6573,3.3192a6.7081,6.7081,0,0,1,.4806-2.1393,4.9371,4.9371,0,0,1,1.0231-1.5769,4.0638,4.0638,0,0,1,1.5213-.94,4.7361,4.7361,0,0,1,1.9177-.2334,3.8178,3.8178,0,0,1,2.9616,1.47,5.1673,5.1673,0,0,1,.8526,3.591,6.9526,6.9526,0,0,1-.4834,2.178,5.17,5.17,0,0,1-1.0464,1.633,4.1754,4.1754,0,0,1-1.5241.979,4.5583,4.5583,0,0,1-1.8791.236,4.1926,4.1926,0,0,1-1.7129-.47,3.6892,3.6892,0,0,1-1.2432-1.077,4.4574,4.4574,0,0,1-.7212-1.603A6.6593,6.6593,0,0,1,60.1686,101.199Zm13.5091-9.2911q-.1056.6717-.1946,1.3831-.07.713-.15,1.58-.06.8493-.1541,1.91-.075,1.0617-.1716,2.4323-.09,1.2744-.1634,2.3166-.0722,1.023-.1347,1.911-.0434.8895-.1005,1.7-.0366.7935-.0758,1.625l-2.6061-.184q.09-1.0035.1639-1.774.093-.77.1709-1.598.0792-.8475.1734-1.908.0956-1.08.21-2.7014.1157-1.6409.2121-3.2831.0978-1.6615.1624-3.403Zm4.4777.3158q-.1056.6717-.1946,1.3831-.07.7129-.15,1.58-.06.8493-.1541,1.91-.0748,1.0617-.1716,2.4323-.09,1.2747-.1633,2.3168-.0722,1.023-.1348,1.911-.0434.8895-.1005,1.7-.0366.7935-.0758,1.624l-2.6061-.183q.09-1.0035.1639-1.774.093-.7695.1709-1.598.0792-.8475.1734-1.908.0956-1.08.21-2.7016.1158-1.6408.2122-3.2831.0977-1.6616.1624-3.403Zm5.25,6.9665a1.5125,1.5125,0,0,0-1.458.8668,5.8258,5.8258,0,0,0-.6664,2.572,6.6622,6.6622,0,0,0,.2077,2.557,1.42,1.42,0,0,0,1.3273.986,1.5517,1.5517,0,0,0,1.4787-.886,6.0029,6.0029,0,0,0,.69-2.628,11.3337,11.3337,0,0,0,.0208-1.396A3.2316,3.2316,0,0,0,84.79,100.2a1.4647,1.4647,0,0,0-.5122-.7156A1.5742,1.5742,0,0,0,83.4057,99.19Zm-4.6574,3.3188a6.7062,6.7062,0,0,1,.4807-2.139,4.9374,4.9374,0,0,1,1.023-1.5769,4.0646,4.0646,0,0,1,1.5214-.94,4.7342,4.7342,0,0,1,1.9177-.2333,3.8175,3.8175,0,0,1,2.9616,1.47,5.1675,5.1675,0,0,1,.8525,3.5906,6.9526,6.9526,0,0,1-.4834,2.178,5.1549,5.1549,0,0,1-1.0464,1.633,4.1481,4.1481,0,0,1-1.5241.979,4.5416,4.5416,0,0,1-1.8791.236,4.1921,4.1921,0,0,1-1.7128-.47,3.6886,3.6886,0,0,1-1.2433-1.077,4.45,4.45,0,0,1-.7212-1.603A6.6624,6.6624,0,0,1,78.7483,102.509Zm24.0647-3.5409q-.753,2.7014-1.617,5.0469-.8625,2.325-1.9177,4.637l-2.3522.067q-.2351-.7935-.4647-1.663-.21-.8685-.4194-1.756-.2076-.9075-.396-1.813-.1689-.9045-.2828-1.766-.4632,1.617-1.1263,3.316t-1.3291,3.166l-2.3521.066q-.7206-2.436-1.2674-4.861-.5261-2.4435-.8733-5.2226l2.5066-.056q.1521,1.97.3841,3.9076.2526,1.9185.5866,3.785.7071-1.773,1.3163-3.535.6287-1.76,1.1522-3.6822l2.5066-.0561q.2485,1.977.5964,3.9223.3492,1.926.7989,3.801.5913-1.782,1.104-3.55t.94-3.6979Zm3.312.6215a3.1648,3.1648,0,0,0,1.057-.1388,1.6938,1.6938,0,0,0,.695-.4942,3.0956,3.0956,0,0,0,.51-.9146q.2145-.5668.446-1.3654l1.832-.3946q-.249,1.0494-.402,1.8534-.1545.804-.286,1.5707l2.085.1471-.289,1.6288-1.998-.277q-.159,1.1535-.267,2.135-.0885.963-.137,1.659-.0555.7905-.051,1.276a3.5788,3.5788,0,0,0,.103.745.7226.7226,0,0,0,.265.368,1.33,1.33,0,0,0,.477.111,2.9679,2.9679,0,0,0,.76-.043,2.7743,2.7743,0,0,0,.636-.227l-.431,1.987a4.3926,4.3926,0,0,1-.894.306,3.0856,3.0856,0,0,1-.975.067,3.0166,3.0166,0,0,1-1.106-.272,1.8577,1.8577,0,0,1-.766-.695,3.4075,3.4075,0,0,1-.38-1.21,8.747,8.747,0,0,1-.029-1.787q.06-.8685.227-2.118.1845-1.248.376-2.592l-1.409-.1Zm8.678.1077a10.7526,10.7526,0,0,1,.558,1.1647,3.701,3.701,0,0,1,.259,1.008,5.8729,5.8729,0,0,1,.526-.584,5.2089,5.2089,0,0,1,1.55-1.074,3.0258,3.0258,0,0,1,.968-.2424l-.019,2.7534a8.4127,8.4127,0,0,0-1.769.05,2.0417,2.0417,0,0,0-1.197.459q-.006.3675-.038.812c-.02.283-.042.605-.068.965q-.0435.618-.074,1.333-.03.6975-.057,1.355-.006.639-.007,1.202t.014.893l-2.722-.192q.048-.4035.106-.943t.117-1.117q.06-.5775.103-1.176.063-.6165.102-1.176.063-.888.064-1.451a4.8475,4.8475,0,0,0-.085-.995,3.5176,3.5176,0,0,0-.255-.794q-.168-.3615-.445-.846Zm6.657,6.1347a3.6521,3.6521,0,0,0,.452,2.107,1.915,1.915,0,0,0,1.485.687,4.4743,4.4743,0,0,0,1.464-.129q.711-.183,1.169-.345l-.113,1.602a3.3809,3.3809,0,0,1-1.599.664,7.4008,7.4008,0,0,1-1.812.105,5.8484,5.8484,0,0,1-1.397-.273,3.0327,3.0327,0,0,1-1.208-.745,3.7323,3.7323,0,0,1-.792-1.433,6.81,6.81,0,0,1-.164-2.34,7.7645,7.7645,0,0,1,.52-2.427,5.0684,5.0684,0,0,1,1.07-1.69,4.0146,4.0146,0,0,1,1.502-.942,4.6119,4.6119,0,0,1,1.82-.221,3.2472,3.2472,0,0,1,1.577.461,2.5538,2.5538,0,0,1,.925.919,2.8843,2.8843,0,0,1,.401,1.192,6.0823,6.0823,0,0,1-.128,2.358,3.3423,3.3423,0,0,1-.269.795Zm1.95-3.995a1.3364,1.3364,0,0,0-1.224.573,4.37,4.37,0,0,0-.626,1.993l3.186.225c.003-.052.008-.116.013-.193a1.294,1.294,0,0,0,.034-.211,4.7283,4.7283,0,0,0-.008-.699,2.47,2.47,0,0,0-.179-.769,1.6311,1.6311,0,0,0-.442-.614A1.1412,1.1412,0,0,0,123.41,101.837Zm6.656,4.602a3.6431,3.6431,0,0,0,.453,2.107,1.9128,1.9128,0,0,0,1.484.687,4.4693,4.4693,0,0,0,1.464-.129q.711-.183,1.169-.345l-.113,1.602a3.3724,3.3724,0,0,1-1.599.664,7.3981,7.3981,0,0,1-1.812.105,5.858,5.858,0,0,1-1.397-.273,3.0327,3.0327,0,0,1-1.208-.745,3.7181,3.7181,0,0,1-.791-1.433,6.8316,6.8316,0,0,1-.165-2.34,7.7928,7.7928,0,0,1,.52-2.427,5.0842,5.0842,0,0,1,1.07-1.69,4.0224,4.0224,0,0,1,1.502-.942,4.6141,4.6141,0,0,1,1.82-.221,3.2547,3.2547,0,0,1,1.578.461,2.564,2.564,0,0,1,.924.918,2.8935,2.8935,0,0,1,.401,1.193,6.1092,6.1092,0,0,1-.127,2.358,3.2946,3.2946,0,0,1-.27.795Zm1.95-3.995a1.3343,1.3343,0,0,0-1.224.573,4.3591,4.3591,0,0,0-.625,1.993l3.185.225c.003-.052.008-.116.013-.193a1.3036,1.3036,0,0,0,.035-.211,4.881,4.881,0,0,0-.009-.699,2.455,2.455,0,0,0-.179-.77,1.6139,1.6139,0,0,0-.442-.613A1.1391,1.1391,0,0,0,132.016,102.444Zm22.049.139q-.753,2.7015-1.617,5.046-.8625,2.325-1.918,4.637l-2.352.067q-.2355-.792-.465-1.662-.21-.8685-.419-1.756-.2085-.9075-.396-1.813-.1695-.9045-.283-1.766-.4635,1.617-1.126,3.316t-1.329,3.165l-2.353.067q-.72-2.4375-1.267-4.862-.5265-2.442-.873-5.222l2.506-.056q.153,1.97.384,3.907.2535,1.92.587,3.786.7065-1.7745,1.316-3.535.6285-1.76,1.152-3.683l2.507-.056q.249,1.977.596,3.922.35,1.926.799,3.801.5925-1.782,1.104-3.55.513-1.7685.94-3.697Zm3.716.495q-.09.4395-.157.842c-.031.27-.066.571-.102.905-.023.321-.056.701-.1,1.137q-.045.6375-.107,1.525t-.113,1.603q-.051.714-.094,1.332-.024.618-.064,1.179-.02.5415-.04,1.122l-2.606-.184q.069-.7125.127-1.252.0765-.537.138-1.135.063-.6165.135-1.368.0735-.771.154-1.909.0735-1.0425.118-1.952.0465-.927.066-2.032ZM155.3,99.74a1.3059,1.3059,0,0,1,.432-.9007,1.3765,1.3765,0,0,1,1.071-.3319,1.4863,1.4863,0,0,1,.942.3963,1.0629,1.0629,0,0,1,.362.9179,1.1765,1.1765,0,0,1-.469.8791,1.4562,1.4562,0,0,1-1.068.293,1.6218,1.6218,0,0,1-.945-.358A1.0514,1.0514,0,0,1,155.3,99.74Zm3.453,3.5607a3.1412,3.1412,0,0,0,1.057-.139,1.6926,1.6926,0,0,0,.695-.494,3.0931,3.0931,0,0,0,.51-.914q.2145-.567.446-1.366l1.832-.3944q-.249,1.0491-.402,1.8534t-.286,1.571l2.085.147-.289,1.628-1.999-.276q-.159,1.152-.267,2.134-.087.9645-.136,1.659-.0555.792-.051,1.277a3.5576,3.5576,0,0,0,.103.744.7183.7183,0,0,0,.265.368,1.3077,1.3077,0,0,0,.477.112,2.96,2.96,0,0,0,.759-.044,2.7369,2.7369,0,0,0,.637-.227l-.431,1.988a4.4056,4.4056,0,0,1-.894.305,3.0565,3.0565,0,0,1-.975.067,2.9918,2.9918,0,0,1-1.106-.272,1.8485,1.8485,0,0,1-.766-.694,3.4141,3.4141,0,0,1-.38-1.21,8.7392,8.7392,0,0,1-.03-1.787q.0615-.8685.227-2.118.186-1.248.377-2.593l-1.409-.099Zm10.16-4.6764q-.102.633-.189,1.3059-.066.6548-.141,1.4455-.0555.7905-.141,1.736-.0675.945-.152,2.142a7.1949,7.1949,0,0,1,.68-.553,4.8524,4.8524,0,0,1,.771-.489,4.1615,4.1615,0,0,1,.876-.307,2.7971,2.7971,0,0,1,.937-.089,2.55,2.55,0,0,1,.915.239,1.9763,1.9763,0,0,1,.769.637,3.0362,3.0362,0,0,1,.483,1.139,6.0235,6.0235,0,0,1,.089,1.753q-.018.27-.075.79-.036.5205-.098,1.118-.06.5775-.117,1.117c-.026.36-.045.637-.059.83a9.7289,9.7289,0,0,0-.01,1.241,3.0253,3.0253,0,0,0,.241.987l-2.716.274a4.4394,4.4394,0,0,1-.106-.977q.018-.5235.045-.909c.025-.36.058-.727.097-1.099q.0795-.576.135-1.096.0765-.5385.129-1c.048-.32.081-.596.097-.827a2.3643,2.3643,0,0,0-.276-1.591,1.3665,1.3665,0,0,0-1.031-.5,2.6454,2.6454,0,0,0-1.037.121,3.1512,3.1512,0,0,0-.823.388q-.081,1.14-.147,2.085-.066.9465-.127,1.795-.039.8325-.093,1.604-.036.774-.071,1.547l-2.606-.184q.09-1.002.164-1.773.093-.77.171-1.598.0795-.8475.173-1.909.096-1.0785.21-2.701.117-1.641.213-3.283.0975-1.662.162-3.4029Zm12.122,5.86a11.245,11.245,0,0,1,.548,1.028,3.8018,3.8018,0,0,1,.286.893q.312-.288.702-.591a4.8737,4.8737,0,0,1,.814-.544,4.5829,4.5829,0,0,1,.939-.38,2.9626,2.9626,0,0,1,1.016-.103,2.55,2.55,0,0,1,.914.239,1.9791,1.9791,0,0,1,.77.637,3.0341,3.0341,0,0,1,.482,1.14,6.0454,6.0454,0,0,1,.09,1.752c-.013.18-.038.444-.075.79q-.0375.522-.098,1.118-.06.579-.118,1.117c-.025.361-.045.637-.058.83a9.5485,9.5485,0,0,0-.01,1.241,3.052,3.052,0,0,0,.24.987l-2.716.274a4.4408,4.4408,0,0,1-.105-.977q.0165-.522.044-.909.039-.54.097-1.099.0795-.576.136-1.096c.051-.358.094-.692.129-1,.048-.32.08-.595.097-.827a2.3776,2.3776,0,0,0-.276-1.591,1.367,1.367,0,0,0-1.032-.5,3.0765,3.0765,0,0,0-1.055.101,3.8926,3.8926,0,0,0-.86.366,7.62,7.62,0,0,1-.018.813q-.0315.444-.072,1.023-.063.888-.113,1.603t-.094,1.332q-.024.618-.064,1.179-.0195.5415-.04,1.122l-2.606-.184c.034-.308.072-.654.112-1.039s.081-.79.124-1.214q.0855-.654.152-1.328.0675-.693.113-1.33.054-.753.047-1.219a3.5337,3.5337,0,0,0-.096-.841,2.5782,2.5782,0,0,0-.262-.678,7.4612,7.4612,0,0,0-.453-.731Zm14.477,11.187q-.3465-.588-.55-1.009a3.5284,3.5284,0,0,1-.288-.874q-.312.3075-.664.613a5.6161,5.6161,0,0,1-.774.527,3.8168,3.8168,0,0,1-.859.347,2.64,2.64,0,0,1-.977.106,2.6817,2.6817,0,0,1-.934-.241,2.0072,2.0072,0,0,1-.751-.635,3.05,3.05,0,0,1-.482-1.14,6.0454,6.0454,0,0,1-.09-1.752c.012-.167.03-.425.055-.772q.057-.54.117-1.117.0615-.597.1-1.138.057-.5385.078-.828a7.4169,7.4169,0,0,0-.011-1.223,2.7888,2.7888,0,0,0-.22-1.005l2.677-.277a3.7884,3.7884,0,0,1,.087.976c.001.349-.007.653-.026.91q-.039.5595-.117,1.117-.0585.558-.136,1.096-.0555.5205-.128,1-.0525.462-.077.809a2.3762,2.3762,0,0,0,.276,1.591,1.3637,1.3637,0,0,0,1.032.5,2.2488,2.2488,0,0,0,.979-.125,3.5793,3.5793,0,0,0,.766-.412q.0045-.348.035-.773c.021-.296.044-.631.071-1.004q.063-.888.113-1.602.05-.7155.074-1.334.0435-.618.063-1.159.039-.561.061-1.141l2.606.184q-.0525.462-.112,1.04t-.145,1.231q-.0645.636-.133,1.33-.066.6735-.112,1.311-.0525.753-.048,1.238a3.8208,3.8208,0,0,0,.096.841,3.0806,3.0806,0,0,0,.262.678q.1725.303.455.711Zm3.218-9.551a3.1732,3.1732,0,0,0,1.058-.139,1.6985,1.6985,0,0,0,.694-.494,3.1,3.1,0,0,0,.511-.915q.2145-.567.445-1.365l1.832-.395q-.2475,1.05-.402,1.854t-.285,1.57l2.084.147-.289,1.629-1.998-.277q-.159,1.1535-.267,2.135-.087.963-.136,1.659-.057.7905-.052,1.276a3.5788,3.5788,0,0,0,.103.745.7283.7283,0,0,0,.265.368,1.33,1.33,0,0,0,.477.111,2.9653,2.9653,0,0,0,.76-.043,2.801,2.801,0,0,0,.637-.227l-.431,1.987a4.34,4.34,0,0,1-.895.306,3.0856,3.0856,0,0,1-.975.067,3.0217,3.0217,0,0,1-1.106-.272,1.8682,1.8682,0,0,1-.766-.694,3.42,3.42,0,0,1-.38-1.211,8.8193,8.8193,0,0,1-.029-1.787q.0615-.8685.227-2.118.1845-1.248.377-2.592l-1.41-.1Zm9.395,8.384a1.1334,1.1334,0,0,0,.787-.158.7749.7749,0,0,0,.274-.582.867.867,0,0,0-.067-.432.7624.7624,0,0,0-.248-.328,1.9436,1.9436,0,0,0-.446-.283c-.187-.104-.411-.217-.674-.339-.301-.138-.607-.288-.919-.453a3.65,3.65,0,0,1-.811-.6,2.4649,2.4649,0,0,1-.539-.892,3.25,3.25,0,0,1-.139-1.329,2.8031,2.8031,0,0,1,.452-1.462,2.6637,2.6637,0,0,1,.951-.825,3.2,3.2,0,0,1,1.148-.327,5.9,5.9,0,0,1,1.109-.038,8.4084,8.4084,0,0,1,1.209.183,5.1157,5.1157,0,0,1,1.081.347l-.144,2.047a5.2912,5.2912,0,0,0-.681-.242q-.36-.123-.704-.205t-.651-.124a4.2587,4.2587,0,0,0-.499-.074q-1.2345-.087-1.295.763a.99.99,0,0,0,.476.945,10.5824,10.5824,0,0,0,1.292.673,6.5887,6.5887,0,0,1,.878.469,2.4293,2.4293,0,0,1,.694.612,2.1386,2.1386,0,0,1,.444.866,3.392,3.392,0,0,1,.107,1.229,2.6429,2.6429,0,0,1-.962,2.086,3.1847,3.1847,0,0,1-2.152.527,6.8431,6.8431,0,0,1-1.511-.3,7.4509,7.4509,0,0,1-1.599-.715l.077-2.186a4.1087,4.1087,0,0,0,.612.392q.375.1815.81.348c.291.098.575.189.854.274A4.779,4.779,0,0,0,208.125,114.505Zm8.135-11.785q-.162,1.1925-.337,2.576t-.349,2.75q-.1545,1.3665-.304,2.656-.129,1.2705-.199,2.275l-1.988-.14q.1575-2.24.232-4.679.096-2.457.171-5.439Zm-3.895,12.86a1.4081,1.4081,0,0,1,.476-.975,1.5067,1.5067,0,0,1,1.171-.364,1.6153,1.6153,0,0,1,1.036.442,1.1414,1.1414,0,0,1,.395.997,1.3082,1.3082,0,0,1-.515.973,1.6367,1.6367,0,0,1-1.166.306,1.7465,1.7465,0,0,1-1.039-.403A1.129,1.129,0,0,1,212.365,115.58Z"/><path class="cls-1" d="M80.4519,187.71a13.1354,13.1354,0,0,1-3.5884,8.346,9.8821,9.8821,0,0,1-8.2329,3.308q-5.5056-.3885-7.4057-2.433a2.117,2.117,0,0,1-1.44.565q-.8259.0525-1.6534.128-2.1024-.438-2.3972-1.614a.8581.8581,0,0,1-.1631-.522,12.0476,12.0476,0,0,1,.5672-1.427,7.15,7.15,0,0,0,.6266-2.267,11.9582,11.9582,0,0,0-1.1626-5.57,3.2955,3.2955,0,0,1,2.0428-2.501,6.1629,6.1629,0,0,1,3.3031-.833,7.4313,7.4313,0,0,1,3.7189,1.462,6.9093,6.9093,0,0,1,.5688,3.907q1.6619,2.2725,2.6126,2.339,2.83.1995,2.9409-1.37a5.3436,5.3436,0,0,0-1.8749-3.976,33.6345,33.6345,0,0,0-3.6365-2.946q-1.2753-.822-3.8035-2.468a9.55,9.55,0,0,1-3.4-5.039,15.5973,15.5973,0,0,1-.8331-6.148q.65-9.219,11.2857-8.47a13.2843,13.2843,0,0,1,3.72,1.129,8.8991,8.8991,0,0,1,3.2819,1.987q4.5978,6.0135,4.4544,8.047a2.8668,2.8668,0,0,1-1.2743,1.999,23.6689,23.6689,0,0,1-2.0929,1.319,5.8339,5.8339,0,0,0-1.4163.233,4.7018,4.7018,0,0,1-1.3927.213q-.575-.0405-1.5794-1.866a8.51,8.51,0,0,1-1.0081-2.405,3.7,3.7,0,0,0-3.0371-1.992q-1.7689-.1245-1.8827,1.49-.0126.177-.02.598c-.005.281-.0128.496-.0231.643a5.5613,5.5613,0,0,0,3.4063,3.373l5.1121,1.872a7.2317,7.2317,0,0,1,3.9908,3.592q.7691,1.6995,1.2868,3.18A10.1872,10.1872,0,0,1,80.4519,187.71Zm-5.5995-22.372-.3936-.405a1.2585,1.2585,0,0,0-.5345.962l.1282.387A1.27,1.27,0,0,0,74.8524,165.338Zm-1.7841-1.17a.9153.9153,0,0,0-.1883-.48.8766.8766,0,0,0-.4844.566q-.1164.3915-.233.783a2.2681,2.2681,0,0,0,.5936-.224Zm3.6951,8.416a19.2112,19.2112,0,0,1-2.8052-.554q.085-.261.9468-.822,1.0718-.702,1.1648-.762l-.3949-.072a3.8866,3.8866,0,0,0-.7595.057,4.4451,4.4451,0,0,1-.7359.037,1.7062,1.7062,0,0,1-.91-.331,3.7247,3.7247,0,0,1,1.0353-.815,3.6987,3.6987,0,0,0,1.0573-.815,4.5037,4.5037,0,0,0-3.6219.945,20.498,20.498,0,0,1,1.8024,4.06,3.5543,3.5543,0,0,0,.5718.085A3.6567,3.6567,0,0,0,76.7634,172.584Zm-4.9661-9.928a3.4256,3.4256,0,0,0-1.7539-.968A2.9478,2.9478,0,0,0,68.3,161.21a6.3353,6.3353,0,0,1-1.8274-.24q-7,.95-7.5687,4.288l.1252.431a13.165,13.165,0,0,1,1.2019-1.604,3.1964,3.1964,0,0,1,2.685-1.522,3.146,3.146,0,0,1,1.4552.792,3.2336,3.2336,0,0,0,1.39.764.7583.7583,0,0,0,.2906-.024q.0311-.4425-.9363-1.532a3.633,3.633,0,0,1-.0732-.539.7774.7774,0,0,1,.2586-.515q.4643.033,1.1064,1.011.6641.981.9895,1.092a6.1714,6.1714,0,0,1-.3125-1.555.858.858,0,0,1,.3975-.594,1.94,1.94,0,0,1,1.1446,1.414,3.7921,3.7921,0,0,0,.6473,1.534.9459.9459,0,0,0,.2349-.494,4.7283,4.7283,0,0,1-.11-1.274l.1844-.41.11.008q.5559-.0045.7872.811.1317.654.2633,1.308a1.368,1.368,0,0,0,.6136-.824A2.3779,2.3779,0,0,1,71.7973,162.656Zm-7.1081,3.743a3.8751,3.8751,0,0,0-.39-2.027,1.9035,1.9035,0,0,0-1.5834-1.179,2.2551,2.2551,0,0,0-2.0282,1.346,5.3964,5.3964,0,0,0-.8174,2.453,2.5645,2.5645,0,0,0,1.9165,2.758,3.4516,3.4516,0,0,0,2.2022-.978A4.1418,4.1418,0,0,0,64.6892,166.399Zm12.3932,14.895q.2119-3.006-5.8646-4.435a1.67,1.67,0,0,0-1.1088,1.544,3.5977,3.5977,0,0,0,1.4035,3.099,5.4751,5.4751,0,0,0,3.22,1.293Q76.9654,182.9525,77.0824,181.294Zm-.6073,2.624a12.7438,12.7438,0,0,1-2.1632.425q-.553-.3495-.918-.531l-.3725.24q.3245.756,1.85.864l.796.056q.876-.4485.8948-.714Zm.598,2.864a.5367.5367,0,0,0-.3541-.336,1.4081,1.4081,0,0,1-.5858.115,2.87,2.87,0,0,1-.9731-.38,2.6643,2.6643,0,0,0-.9511-.378l-.4942.076.8962.841a3.1606,3.1606,0,0,1,.8072.212,3.3627,3.3627,0,0,0,.8292.214,1.0333,1.0333,0,0,0,.7437-.147ZM62.619,171.808a4.7847,4.7847,0,0,1-3.2278-1.494q-.1434,2.034,1.9792,2.184a1.5071,1.5071,0,0,0,.7247-.193Q62.6224,172.0755,62.619,171.808Zm14.3578,18.545q-.1647-.5-1.7349-.922.9548.9555,1.397.987Zm.884-2.137a16.6726,16.6726,0,0,1-2.31-.008,20.8374,20.8374,0,0,1-2.0083-1.141,3.1447,3.1447,0,0,1-1.4118-1.722q-.203-.903-.7557-.942l-.4831.232q-.0426-.024-.818-3.524l-.3985,1.239a1.3033,1.3033,0,0,1-.6331.155c-.1916-.013-.3076-.155-.3478-.424a2.8211,2.8211,0,0,1,.0356-.82,6.29,6.29,0,0,1,.091-.66,1.5275,1.5275,0,0,0-.1254-.742q-.18.0315-.5775.625a1.016,1.016,0,0,1-.9044.537c-.4422-.032-.6519-.209-.629-.534a2.0954,2.0954,0,0,1,.413-.815,1.83,1.83,0,0,0,.4177-.881,11.0546,11.0546,0,0,1-1.9813.682.7589.7589,0,0,1-.3211-.489,9.762,9.762,0,0,0,.869-1.294,7.8928,7.8928,0,0,1-2.6969.432,1.0184,1.0184,0,0,1-.269-.597q.8792-.4935,2.1844-1.357a5.2181,5.2181,0,0,0-1.4874.295,4.5919,4.5919,0,0,1-1.44.254,2.4819,2.4819,0,0,1-1.9295-1.314.7741.7741,0,0,1,.7372-.37.874.874,0,0,0,.6225.31,4.9374,4.9374,0,0,0,1.555-.623l-1.8794-.133a7.3826,7.3826,0,0,1-3.0606-7.015l-.3537-.025q-.198,1.23-.187,1.076a48.9647,48.9647,0,0,0,.6686,5.957q.348,2.3145,3.4358,4.531,2.9091,1.917,5.8388,3.856a9.9076,9.9076,0,0,1,3.9467,5.478,2.9406,2.9406,0,0,1,.0006.623q-.2028,2.874-3.4752,2.643a4.0892,4.0892,0,0,1-1.7392-.545q-.8312-.5025-1.6181-1.002-.014.198.4189.362c.2885.11.4261.26.4126.452q-.0126.177-.385.417t-.3439.465a.48.48,0,0,0,.3444.157,5.506,5.506,0,0,1,1.219-.269,1.8381,1.8381,0,0,1,.2207,1.282q.1752.0345.5524-.272a1.0759,1.0759,0,0,1,.5983-.292q.3759.027.3559.626.0088-.756-.105.859.4721-.078,1.0381-1.171l.2005-.008q.4422.03.4857.989.0672.939.3721,1.026a5.867,5.867,0,0,0,.2244-1.606q.05-.708.6294-.733a1.3659,1.3659,0,0,1,.1523.677q.6817,1.359,1.3673,1.408l.0093-.133a2.2019,2.2019,0,0,0-.2521-1.151,3.0251,3.0251,0,0,1-.2727-1.175l.0094-.132a2.6566,2.6566,0,0,1,1.2608.711,2.7017,2.7017,0,0,0,1.2167.708A2.8,2.8,0,0,0,72.6,191.289a1.0048,1.0048,0,0,1-.0413-.359,1.2149,1.2149,0,0,1,.3389-.709,18.3487,18.3487,0,0,0,2.6211,1.274,2.7464,2.7464,0,0,0-1.8728-1.488,1.1382,1.1382,0,0,1-.0413-.358q.0233-.3315.2712-.381a1.1325,1.1325,0,0,1,.5528.039,4.9007,4.9007,0,0,0,.5023.124c.0295.002.0842-.038.1642-.122a.7794.7794,0,0,0-.1221-.475,1.1558,1.1558,0,0,1,.9237-.179q1.251.222.9414.2l.3348-.021Q77.8832,188.528,77.8608,188.216Zm-14.0483-2.769q.05-.7065-.81-1.123a3.1089,3.1089,0,0,0-.8441.94.8155.8155,0,0,1,.5412,1.149A4.681,4.681,0,0,0,63.8125,185.447Zm-2.727-1.348a7.9343,7.9343,0,0,0-2.285.261,4.5273,4.5273,0,0,0,1.4092.5Q60.7182,184.896,61.0855,184.099Zm.8443,2.838a5.9692,5.9692,0,0,0-1.2859-.358,2.9908,2.9908,0,0,0-1.6057.398,4.39,4.39,0,0,1-1.0246.35,1.0222,1.0222,0,0,1-.2217-.638,10.9384,10.9384,0,0,1,.4492-1.013q-.5328-.6375-.667-.624l-.0663-.005q-.9468.822-.9718,1.176a5.7331,5.7331,0,0,0,.7654,1.12,3.0466,3.0466,0,0,0,1.3789.298A5.4321,5.4321,0,0,0,61.93,186.937Zm.1966,4.458-.3459-.136-.2177.251.0775.161.3759.027Zm1.011,2.049q-.0444-.315-1.0174-.383-.4422-.0315-.445.324l-.0047.066a1.5285,1.5285,0,0,0,.4456.298A10.4253,10.4253,0,0,1,63.1374,193.444Zm.3359,1.223q-1.1765-.0165-1.5792.022a.579.579,0,0,0-.5444.473q.0588.426.8548.482Q63.3985,195.728,63.4733,194.667Zm.3131,2.178a1.1843,1.1843,0,0,0-.5593-.262l-.322.155a.4337.4337,0,0,0,.3824.249A.8968.8968,0,0,0,63.7864,196.845Zm-2.912-6.916a8.5593,8.5593,0,0,1-3.55-1.651l-.3314.288a7.1977,7.1977,0,0,1,.4469,3.431,9.0283,9.0283,0,0,1-1.0564,3.637q.3529.98,1.9671,1.094l.796.056q-.49-.3015-1.4079-.832.1608-.39,1.0356-.505,1.2332-.1575,1.3011-.175a6.6659,6.6659,0,0,1-2.19-1.399,1.3438,1.3438,0,0,1,.6615-.242,3.7656,3.7656,0,0,1,.7312.029q.6161.0885.7045.094a3.8309,3.8309,0,0,0-1.0856-.676,2.0225,2.0225,0,0,1-1.0083-.827q.2728-.402,2.4839-.247l.0188-.265a1.1092,1.1092,0,0,0-.6824-.093q-.5751-.351-1.1518-.681-.7206-.495-.7084-.983a.9289.9289,0,0,1,.5194-.119.4418.4418,0,0,1,.3983.339q.9209.1755.8766.173Q60.6158,190.444,60.8744,189.929Zm2.8121-23.49a5.1834,5.1834,0,0,1-.696,2.307,3.0851,3.0851,0,0,1-.6-.309.898.898,0,0,1-.7655.457q-.1613-.234.0655-.929l-.6191-.043c-.1707-.101-.2518-.211-.2435-.329q.2587-3.6705,1.8508-3.558.42.03.9678,1.402A8.361,8.361,0,0,0,63.6865,166.439Zm12.3343,14.47a2.4874,2.4874,0,0,1-.2393.871,1.6479,1.6479,0,0,1-1.0611.237,3.8447,3.8447,0,0,1-2.479-1.397,3.4787,3.4787,0,0,1-1.1078-2.567l.7593-.369a4.3257,4.3257,0,0,1,.7343-.015,3.9494,3.9494,0,0,1,2.2751,1.139A2.66,2.66,0,0,1,76.0208,180.909ZM63.2151,165.562l-.2987-.177a2.1984,2.1984,0,0,1-1.1386.075l-.2211-.015-.0093.133a3.0383,3.0383,0,0,0,.05.87,3.1463,3.1463,0,0,1,.1.784l.2859.043a.9017.9017,0,0,0,.7278-.238l-.1251-.431A1.6362,1.6362,0,0,1,63.2151,165.562ZM74.61,180.12a.9779.9779,0,0,0-.94-.844l-.6855-.048a.767.767,0,0,0,.596.686Q74.1043,180.04,74.61,180.12Zm36.2172-11.734q-.138,1.968-1.214,2.404a7.745,7.745,0,0,1-2.74.095,19.4218,19.4218,0,0,0-3.898.459q-3.4.6255-3.8459,6.95a8.1124,8.1124,0,0,0,.4359,3.586,10.52,10.52,0,0,1-.4418,2.169q-.4929,1.632-.5935,2.113a27.04,27.04,0,0,0-.4292,3.881q-.2008,3.1635-.276,3.914a.5737.5737,0,0,0-.2981.445,12.9576,12.9576,0,0,0,.0251,1.535,12.4568,12.4568,0,0,1,.0266,1.513,2.8207,2.8207,0,0,1-1.3562,2.216,4.17,4.17,0,0,1-2.673.722,1.5391,1.5391,0,0,1-.9131-.287,4.0452,4.0452,0,0,1-2.6266-2.14,21.977,21.977,0,0,1-.1332-4.098l.025-.354.1626-.1q.1683-2.388.56-7.315.4095-4.86.5825-7.314l.3774-5.351,1.1392-2.92-.3366-.268q-.8356-.1245-4.0638-.353a6.7253,6.7253,0,0,1-3.38-.905q-2.3437-.165-2.13-3.195a9.166,9.166,0,0,1,.31-1.555,9.14,9.14,0,0,0,.3082-1.534,3.9617,3.9617,0,0,1,1.19-1.116l3.184.224q6.7659.4785,11.0745.826l8.7918.731Q111.1605,163.655,110.827,168.386Zm-.745.17a1.6492,1.6492,0,0,1-.379-1.249,7.24,7.24,0,0,1,.121-.769,5.6744,5.6744,0,0,0,.146-.812l-.073-.538-.109-.03c-.162-.012-.297.12-.405.393q-.1125.3255-.222.629-.0555.774-1.18.339a1.6153,1.6153,0,0,0-.29.335l.776.966a1.5539,1.5539,0,0,0,1.328,1.027A.4571.4571,0,0,0,110.082,168.556Zm-1.987-3.651a4.0249,4.0249,0,0,0-2.262-.693,14.8369,14.8369,0,0,0-1.646.017,14.6267,14.6267,0,0,1-1.645.018,3.2858,3.2858,0,0,1-1.335-.294,35.2245,35.2245,0,0,1-4.6207-.015q-1.88-.1335-5.62-.663-3.7181-.53-5.5754-.66a2.5443,2.5443,0,0,0-1.29.331,3.8289,3.8289,0,0,0-.4941,1.965,2.9729,2.9729,0,0,1,.91-1.247.878.878,0,0,1,.3686.76q.0042-.6885-.1066.881.2526-.1155.5252-.83.2442-.627.7306-.592.2654.018.3021.443a5.1276,5.1276,0,0,1-.1066.881q-.1337.636-.1353.657a.6684.6684,0,0,0,.3055.711q.2237-.651.4694-1.3a1.49,1.49,0,0,1,.8456-.963.92.92,0,0,1,.1413.832,4.7637,4.7637,0,0,1-.195.875q-.0529.753.345.78l.0679-.017q.2127-.4965.9058-2.447a.8114.8114,0,0,1,.4553.476,1.0528,1.0528,0,0,1,.0006.622,6.14,6.14,0,0,0-.1384.702,2.8677,2.8677,0,0,0,.0211.646l.2211.015a10.7578,10.7578,0,0,1,.7844-2.3.7754.7754,0,0,1,.5677.774,3.0392,3.0392,0,0,1-.2346.805,3.4409,3.4409,0,0,0-.2156.852l.005.244c-.0389.131.0286.225.2023.281a1.4985,1.4985,0,0,0,.3949.073l.909-2.492c.3222.053.4846.271.487.657q-.0021-.6-.11.925a.7536.7536,0,0,0,.3054.711q.3443-.1545.6576-1.132A2.14,2.14,0,0,1,94,165q.2924.2655.2316,1.127a1.699,1.699,0,0,0,.1889,1.102q.4911-.0315.8435-1.562a1.6188,1.6188,0,0,1,.7182-.416,11.265,11.265,0,0,1,.1764,1.279q.1146.897.5568.928a3.89,3.89,0,0,1,.6551-2.043c.3843.013.5788.3.5835.864a5.87,5.87,0,0,0,.107,1.318q.4644.033.8123-1.12.37-1.152.7018-1.128.2652.018.3309.978.08,1.0725.4626,1.322a7.7968,7.7968,0,0,1,.79-2.389.7089.7089,0,0,1,.595.398,1.7159,1.7159,0,0,1-.006.71c-.092.468-.14.716-.142.746a.828.828,0,0,0,.162.545,11.5979,11.5979,0,0,1,1.01-2.351l.224-.029c.28.02.42.252.418.696q-.0345.4875-.069.973a.8424.8424,0,0,0,.157.611,18.6781,18.6781,0,0,1,.924-2.068q.5745.04.596.998-.0075,1.044.448,1.209a4.6182,4.6182,0,0,1,.691-2.24.94.94,0,0,1,.52-.119l.262.063a1.5893,1.5893,0,0,1-.292.668,6.0177,6.0177,0,0,0-.282,1.491,2.0589,2.0589,0,0,0,.774,1.944,3.7708,3.7708,0,0,0-.196-1.014,3.548,3.548,0,0,1-.151-1.011,4.1933,4.1933,0,0,1,.495-1.342A4.26,4.26,0,0,1,108.095,164.905Zm-9.5725,18.524a12.3055,12.3055,0,0,0,.0215-2.51,1.6645,1.6645,0,0,0-1.6264-1.514,1.2085,1.2085,0,0,0-1.3636,1.059q-.1349.969-.2714,1.959.5274,1.659.6033,1.842a2.2,2.2,0,0,0,1.4493,1.191A2.2831,2.2831,0,0,0,98.5225,183.429Zm-.2532-11.217.0046-.067q.0534-.441-.7687-1.387a2.1275,2.1275,0,0,1-.7074-1.628,1.55,1.55,0,0,0-.76-.253q-.7959-.057-2.67,2.256a7.9411,7.9411,0,0,0-1.2642,4.377q-.0687.972-.0511,2.929.0413,1.9365-.0274,2.909-.1685,2.388-.7232,7.105-.5328,4.7175-.7,7.083a4.9384,4.9384,0,0,0,.1957,1.636,2.4,2.4,0,0,0,.7925,1.367l.0062-.088q.0028-.3555.5855-.426a3.3679,3.3679,0,0,0,.8558-.162q-1.2751-.822-1.3088-1.292a.8553.8553,0,0,1,.6379-.222l.9367.266.559-.049a12.9454,12.9454,0,0,0-1.9341-1.247.5568.5568,0,0,1,.45-.391,1.3864,1.3864,0,0,1,.64.067,6.1487,6.1487,0,0,0,.635.134.8281.8281,0,0,0,.5889-.158,4.3611,4.3611,0,0,1-2.2222-1.89,2.8364,2.8364,0,0,1,1.3139-.041q1.4058.2325,1.34.228a.3725.3725,0,0,0,.45-.391q-1.6287-.537-1.6729-.54-1.0791-.453-1.2344-1.087a2.5683,2.5683,0,0,1,.63-.111,4.365,4.365,0,0,1,.8689.284,4.4292,4.4292,0,0,0,1.0694.275q.42.03.445-.324a30.7217,30.7217,0,0,1-2.8188-1.621.9186.9186,0,0,1,.2538-.449,4.3321,4.3321,0,0,1,.7882.167,5.231,5.231,0,0,0,.7456.141,1.2867,1.2867,0,0,0,.5858-.114q-.621-.333-1.2435-.643a1.6485,1.6485,0,0,1-.8837-1.018,1.7744,1.7744,0,0,1,.9159-.069,7.4,7.4,0,0,1,.9.153,1.7133,1.7133,0,0,0,.6964-.107,19.536,19.536,0,0,0-2.4019-1.547q.1608-.3885.8951-.403.5544.0165,1.1308.035-.5088-.3465-1.5-1.106a.5065.5065,0,0,1-.0682-.293c.01-.148.1593-.263.4466-.347q.3174-.0885.6126-.179-.4266-.252-.8517-.526-.5514-.3735-.5265-.726.2651-.2925,1.1716-.229c-.0044-.148-.19-.347-.558-.595q-.5294-.37-.5107-.636.0219-.309.5793-.337.4.006.8212.014c.0187-.265-.1863-.51-.615-.732q-.6208-.333-.55-.706l.0078-.11a6.1467,6.1467,0,0,0,1.3846-.414,6.153,6.153,0,0,0-.7775-.632q-.6147-.4215-.5929-.731c.0146-.206.4051-.283,1.1716-.228q.0156-.222-.4792-.768a1.3933,1.3933,0,0,1-.4508-.854.3978.3978,0,0,1,.2809-.202,1.5612,1.5612,0,0,1,.3759.027,2.4586,2.4586,0,0,0,.3491.091l.27-.048a3.7633,3.7633,0,0,1-1.0547-1.43,1.4215,1.4215,0,0,1,.5858-.114,7.671,7.671,0,0,1,1.4817.416,2.0234,2.0234,0,0,0-.58-.908,3.28,3.28,0,0,1-.5661-.795,1.0064,1.0064,0,0,1,.4638-.59,5.0127,5.0127,0,0,0,1.5944,1.024.3547.3547,0,0,0,.2273-.073,5.6553,5.6553,0,0,0-1.0364-2.317,1.394,1.394,0,0,1,.29-.336q.3492.0915.9594.89.6326.801,1.0526.83Zm-.079,10.571a2.3806,2.3806,0,0,1-.5891,1.736,2.91,2.91,0,0,1-.7374.059q-.2875-.02-.6691-1.225a4.6124,4.6124,0,0,1-.278-1.73,1.68,1.68,0,0,1,1.3188-1.685l.3238.134A4.0586,4.0586,0,0,1,98.19,182.783Zm-.2139-.748q-.3757-.027-.7349-.608-.3369-.579-.5327-.637l-.2037.052a10.4718,10.4718,0,0,0,.337,2.468l.3158-.066Zm37.9346,16.852a5.5231,5.5231,0,0,1-1.032,2.972,2.9945,2.9945,0,0,1-2.713,1.297,9.353,9.353,0,0,1-1.643-.338,9.8931,9.8931,0,0,0-1.622-.314,15.6844,15.6844,0,0,0-1.6-.002q-1.179.006-1.644-.005-.93-.0435-2.56-.247-1.851-.22-2.581-.271a4.3009,4.3009,0,0,0-2.141.427,3.718,3.718,0,0,1-1.434.476,47.483,47.483,0,0,1-4.607-2.725q-1.0785-1.4085-3.002-4.389a4.9515,4.9515,0,0,1,1.317-2.285,6.5947,6.5947,0,0,0,1.487-2.494,62.9653,62.9653,0,0,0,1.016-6.217q.507-7.1865-1.739-10.945a4.4547,4.4547,0,0,1-.848-2.148,2.0813,2.0813,0,0,1,1.765-2.031q1.65-.3945,1.747-1.766a14.0179,14.0179,0,0,0-.021-1.601,14.4412,14.4412,0,0,1-.022-1.579q-.009.132.189-1.098a3.6141,3.6141,0,0,1,1.592-.199,11.1057,11.1057,0,0,1,1.296.203,11.0656,11.0656,0,0,0,1.297.202q.7515.054,2.281.117,1.53.0405,2.304.096.951.066,2.819.354,1.869.2865,2.842.356a6.7655,6.7655,0,0,1,.815.102l.077-.15a9.4878,9.4878,0,0,0,1.835.129q1.4655.015,1.864.043a2.5516,2.5516,0,0,1,2.567,1.714q.3015,1.3995.625,2.799l-.04.575a3.601,3.601,0,0,1-2.207,2.933,30.003,30.003,0,0,0-3.255-.474q-1.215-.108-3.274-.208-2.436-.1275-3.298-.188a14.8293,14.8293,0,0,1-3.405-.552,31.2563,31.2563,0,0,1-2.138-3.084l-.344.154a27.2885,27.2885,0,0,0,1.494,2.75,5.1067,5.1067,0,0,1,.887,2.862,3.208,3.208,0,0,1-.223.962,3.8069,3.8069,0,0,1,.003,1.533q-.255,1.4055-.264,1.537a4.8271,4.8271,0,0,0-.004.689,14.8108,14.8108,0,0,0,3.044.637,3.3178,3.3178,0,0,0,1.541.508,8.8872,8.8872,0,0,0,1.72-.123,8.396,8.396,0,0,1,1.744-.143q1.7685.1245,1.769,2.324a2.9211,2.9211,0,0,1,.225,1.527,14.56,14.56,0,0,1-.342,2.331,2.6044,2.6044,0,0,0-.457.813q-.519,1.0515-3.791.821-.9945-.0705-3.001-.301-1.9815-.25-2.955-.319l-1.323-1.404-.052.107q-.033.465.851,1.482a3.46,3.46,0,0,1,.79,2.656q-.0375.531-.221,1.562t-.22,1.54a9.8189,9.8189,0,0,1,.041,1.003.5072.5072,0,0,0,.298.176q.5085.036,1.51.018,1.0245-.039,1.534-.003a4.1843,4.1843,0,0,1,1.445.302l8.955.631a5.321,5.321,0,0,1,1.607,1.78A3.8613,3.8613,0,0,1,135.911,198.887Zm-.641-29.354a7.6515,7.6515,0,0,0-.169-2.012q-.3135-1.533-.911-1.576l-.369.197a3.9211,3.9211,0,0,1,.775,1.921,2,2,0,0,1-.101.482,1.893,1.893,0,0,0,.149.41.85.85,0,0,1,.149.411.4251.4251,0,0,1-.154.3.7986.7986,0,0,1,.166.478q-.1665.477-.479,1.433a1.869,1.869,0,0,0,.546-.184A10.7283,10.7283,0,0,0,135.27,169.533Zm-1.22.291.073-1.039q-.2175-.06-.354-.647-.1125-.6075-.243-.662a.8756.8756,0,0,1-.328.244,4.2677,4.2677,0,0,0,.488,2.856A.8908.8908,0,0,0,134.05,169.824Zm-1.453-3.346c.019-.266-.074-.428-.277-.487l-.355-.002a4.9308,4.9308,0,0,1-1.163-.216,7.2418,7.2418,0,0,0-1.161-.237,2.1631,2.1631,0,0,0-1.334.328,4.268,4.268,0,0,1,.074,1.161,6.8469,6.8469,0,0,1-.762,2.612,18.801,18.801,0,0,0,1.359-2.259c.062-.248.124-.495.186-.743a.4317.4317,0,0,1,.47-.366,3.9615,3.9615,0,0,1-.091,1.926l.07.583a.5312.5312,0,0,0,.196.058q.309.0225.58-.981.2925-1.002,1.022-.95a16.181,16.181,0,0,0-.001,2.533q.0885.006.168.456c.054.286.163.419.328.401a13.4061,13.4061,0,0,1,.336-1.932A12.5192,12.5192,0,0,0,132.597,166.478Zm-4.887,1.233q.189-2.676-4.101-2.978-1.9845.726-2.042,1.544a2.5111,2.5111,0,0,0,1.211,2.375l.398.028a3.9424,3.9424,0,0,0,2.21.8q.57-.204,1.116-.388a1.5946,1.5946,0,0,0,.896-.737A.8535.8535,0,0,0,127.71,167.711Zm-6.344,1.419a11.7651,11.7651,0,0,1-.918-3.687,1.6734,1.6734,0,0,1,.073-.395,4.6988,4.6988,0,0,1-2.425-.593,2.3176,2.3176,0,0,1-.717.083q-.6.0015-.609.134a.6488.6488,0,0,0,.169.435q-.051.729.634.778.3315.0225.453-.435a2.6166,2.6166,0,0,1,.77,1.054l.199.014-.016-.09a.6441.6441,0,0,1,.415-.526l.81,1.746A4.5465,4.5465,0,0,0,121.366,169.13Zm-3.947,2.721q-.045-.3135-.8-.945-.525-.4365-1.072-.876a.5264.5264,0,0,1,.401-.327,1.0761,1.0761,0,0,1,.526.104,2.7065,2.7065,0,0,0,.503.124.4858.4858,0,0,0,.435-.191q.027-.3765-.531-.66-.033-.1575-.678-.47-.6225-.3105-.611-.465a.6908.6908,0,0,1,.179-.343,2.3324,2.3324,0,0,0,.782-.056,6.26,6.26,0,0,1-1.102-1.389l.301-.49c-.068-.301-.219-.46-.455-.476q-.309-.0225-.385,1.039-.219,3.1185-.279,3.336a3.9892,3.9892,0,0,1,.542,1.127q.2655.663,1.702,1.075Zm12.102,12.409a8.2872,8.2872,0,0,0-1.069-1.231l.081-1.15q.0435-.6195-.376-.649a2.4209,2.4209,0,0,0-.462,1.19l.008.2.147.122a7.3927,7.3927,0,0,1-.836,1.452.8336.8336,0,0,0,.159.589q.9855-.42,1.216-.226a3.1446,3.1446,0,0,0,.549.084l.288.02a.2546.2546,0,0,0,.307-.267Zm-12.377-10.717.017-.243-.556-.306-.235.183a3.0437,3.0437,0,0,0,.504.413Zm-3.093-3.085a.861.861,0,0,0-.648-.268q-1.8795-.132-1.972,1.172-.048.6855.792.745a3.0922,3.0922,0,0,0,1.312-.33A3.89,3.89,0,0,0,114.051,170.458Zm13.328,15.806a5.456,5.456,0,0,1-.747-2.63l.109-1.548.162-.1a1.3674,1.3674,0,0,0,.193-.52q.042-.597-.462-.699.3945.072-.888-.018-1.1055-.078-3.258-.43-2.151-.3735-3.235-.45-.42-.03-1.322.795-.9015.804-.93,1.202l.015.112a.3593.3593,0,0,0,.257.129q.2.0135.789-.478a4.1546,4.1546,0,0,1,.914-.669l-.003.045a3.35,3.35,0,0,1-.187.764,3.3492,3.3492,0,0,0-.184.72.5467.5467,0,0,0,.272.553,10.1094,10.1094,0,0,1,1.589-1.732,1.8847,1.8847,0,0,1-.058.818c-.105.437-.16.7-.167.788q-.048.6855.361.87.282-.5355.566-1.094a1.919,1.919,0,0,1,.841-.896,4.8475,4.8475,0,0,0-.136.991q-.0765,1.083.41,1.117l.246-.027a3.3033,3.3033,0,0,1,1.285-1.842,15.0794,15.0794,0,0,0,.123,2.675l.53.037a13.1622,13.1622,0,0,1,1.165-2.34l1.22,4.131A.668.668,0,0,0,127.379,186.264Zm7.573,12.355a1.3213,1.3213,0,0,1-.655.154q-.288-.02-.819-.68-.7155-.8715-.778-.943a.24.24,0,0,0-.217.251,1.8018,1.8018,0,0,0,.057.448,1.3955,1.3955,0,0,1,.078.473.927.927,0,0,1-.349.53.8363.8363,0,0,0-.306.557l-.003.044q1.128.0795,1.334.938a2.81,2.81,0,0,0,.619.355.8862.8862,0,0,0,.129-.569,6.2737,6.2737,0,0,1-.029-.846q.021-.288.829-.097a1.6954,1.6954,0,0,0,.101-.482Zm-18.25-7.153a1.5842,1.5842,0,0,0-.599-.642,3.1907,3.1907,0,0,1-.713-.606q-1.1445-.459-1.191-1.062a1.5835,1.5835,0,0,1,.814-.209,3.3222,3.3222,0,0,1,.678.159,4.0439,4.0439,0,0,0,.701.138l.471-.055q-.5055-.3915-2.23-1.78a.993.993,0,0,1,.748-.214,9.28,9.28,0,0,1,1.6.313,9.6879,9.6879,0,0,1-2.13-1.617,7.7933,7.7933,0,0,0,1.691-.347,2.4588,2.4588,0,0,0-.879-.773,7.3474,7.3474,0,0,1-1.033-.784,1.1037,1.1037,0,0,1,.953-.288,2.69,2.69,0,0,0-1.102-1.389l-.028-.224c.017-.251.223-.436.617-.557.316-.066.631-.133.947-.2q-.024-.29-.733-.629-.708-.3615-.803-.59c.028-.19.26-.322.694-.395a1.7276,1.7276,0,0,0,.75-.236,11.9826,11.9826,0,0,1-1.643-.961q.0315-.441.549-.539.4455-.012.891-.026a3.0984,3.0984,0,0,0-.934-.621,3.1168,3.1168,0,0,1-.912-.62.56.56,0,0,1-.027-.246c.005-.074.232-.132.679-.175a1.1167,1.1167,0,0,0,.925-.512,14.1656,14.1656,0,0,1-1.733-.633l-.006-.223q.02-.288.519-.43a2.9251,2.9251,0,0,0,.754-.302,1.4769,1.4769,0,0,0-1.068-.298,1.1842,1.1842,0,0,1-.221-.638,4.6285,4.6285,0,0,0,.74-.103.3391.3391,0,0,0,.128-.235l.013-.177-.419-.052a1.691,1.691,0,0,0-1.785.741,33.6345,33.6345,0,0,1,1.487,12.304q-.3945,5.5935-2.581,8.551a3.6833,3.6833,0,0,0-.854,1.717,9.5986,9.5986,0,0,0,1.282,1.668l-.327-1.023a.3977.3977,0,0,1,.32-.133c.133.009.307.17.522.481.23.298.42.452.567.463l.158-.034a1.9592,1.9592,0,0,0-.525-.748,1.2652,1.2652,0,0,1-.427-.874l.137-.368a16.6838,16.6838,0,0,0,2.948,1.985q-.6375-.711-2.305-2.918l.291-.024a4.1572,4.1572,0,0,1,1.991,1.074l.129-.258-.128-.386a13.0564,13.0564,0,0,1-1.744-2.057,3.6133,3.6133,0,0,1,.538-.073,2.7679,2.7679,0,0,1,1.035.451,3.3991,3.3991,0,0,0,.926.421.6806.6806,0,0,0,.597-.269,5.4283,5.4283,0,0,0-.623-.622c-.046-.196-.338-.453-.879-.773a2.05,2.05,0,0,1-.936-.91,3.057,3.057,0,0,1,.627-.067Q114.7555,191.0175,116.702,191.466Zm14.838,9.535q-.714-2.8065-.701-2.983a6.4877,6.4877,0,0,1,.855-1.717,13.2488,13.2488,0,0,0-2.997-.367q-.95-.0675-2.865-.335-1.8915-.267-2.843-.334a12.9166,12.9166,0,0,0-3.368.184,2.9624,2.9624,0,0,0-1.625,2.241.4458.4458,0,0,0,.299.177,4.49,4.49,0,0,0,1.139-1.342.6188.6188,0,0,1,.185.524q.0015.2895.002.6a10.0632,10.0632,0,0,1,1.114-1.61q.57.1065.561.862.018-.888-.127,1.169l.355.958a7.9368,7.9368,0,0,0,.749-1.48q.474-1.056.784-1.034a13.2369,13.2369,0,0,1-.037,2.731l.409.184a3.8318,3.8318,0,0,0,.946-1.755l-.013-.135q.027-.375.647-.665a2.0941,2.0941,0,0,1,.328,1.334q.0195,1.3125.049,1.515a2.2563,2.2563,0,0,0,.491-1.299,3.7613,3.7613,0,0,1,.389-1.417.6069.6069,0,0,1,.225-.029.5.5,0,0,1,.477.478,2.529,2.529,0,0,1-.042.909q-.1455.8115-.143.767a1.87,1.87,0,0,0,.129.698q.5025-.2085.652-1.687.1365-1.302.954-1.244l.06,2.938q.6405.045,1.025-1.306.4065-1.3485.942-1.378l.122.475a4.4731,4.4731,0,0,0-.222.94Q130.307,200.5135,131.54,201.001Zm-5.052-33.288q-.063.885-1.301.797-2.6085-.183-2.47-2.152.07-.9945,1.53-.892a3.271,3.271,0,0,1,2.012,1.076A10.57,10.57,0,0,0,126.488,167.713Zm-1.308-.67a3.34,3.34,0,0,1-.849-.571.6883.6883,0,0,0-.445.324q.348.114,1.021.339Zm40.371,10.336q-.46,6.5445-3.447,10.134-3.444,4.09-9.724,3.647a29.635,29.635,0,0,1-4.086-.666q-.177,1.254-.169,1.144a26.4756,26.4756,0,0,0,.571,5.129l-.012.177a2.7672,2.7672,0,0,0,.462,1.632,3.3985,3.3985,0,0,1,.532,1.282q-.0435.6195-.999.93-.708-.051-1.264,1.221-.555,1.251-1.377,1.259-.423.0135-1.788.14a11.6954,11.6954,0,0,1-1.781.052,4.09,4.09,0,0,1-2.003-.585q-1.6515-1.161-1.05-9.696.1425-2.0115.463-4.989.3225-3,.357-3.486a54.7358,54.7358,0,0,0,.105-8.103,4.1677,4.1677,0,0,0-1.187-2.706,2.1833,2.1833,0,0,1-.859-1.683,12.3153,12.3153,0,0,1,.323-2.377q.49-1.587,2.989-2.678a8.6318,8.6318,0,0,1,4.061-.869,5.8507,5.8507,0,0,1,1.956.627,6.1692,6.1692,0,0,0,1.935.603,9.2381,9.2381,0,0,0,2.421-.296,8.9011,8.9011,0,0,1,2.444-.316,13,13,0,0,1,7.707,3.21Q165.842,173.266,165.551,177.379Zm-1.717.723q.282-4.002-1.593-4.823-.582.048-1.142.12c-.508.067-.794.225-.855.472l-.351-.069a4.9486,4.9486,0,0,0-2.523.8.9849.9849,0,0,1-.428-.541q.8415-.6075.88-1.138a.5112.5112,0,0,0-.048-.27l-.109-.03a2.0128,2.0128,0,0,0-1.143.453,2.1455,2.1455,0,0,1-1.121.454.6515.6515,0,0,1-.169-.434,3.5432,3.5432,0,0,1,.545-1.117,4.4259,4.4259,0,0,0-.471-2.455,2.3,2.3,0,0,0-1.974-1.317,5.7159,5.7159,0,0,0-1.752.276,5.9861,5.9861,0,0,1-1.751.254,2.8144,2.8144,0,0,1-.677-.181,2.798,2.798,0,0,0-.654-.179q-.7725-.0555-.836.83a4.9912,4.9912,0,0,0,.137,1.209,4.5919,4.5919,0,0,1,.158,1.233q-.0885,1.239.38,1.227.1755-2.4975.578-2.848.6015.309.622,1.577a1.9961,1.9961,0,0,0,.241-1.205.6923.6923,0,0,1,.478-.166q.2655.018.687,1.293.117-1.659.352-1.842.4635.033.776.966a7.0923,7.0923,0,0,0,.529,1.326q-.0915.35.058-1.774a1.8214,1.8214,0,0,1,.333-.932,2.6628,2.6628,0,0,1,.854,2.06l.332.335q.126-.525.274-1.047.2055-.6975.581-.67a1.41,1.41,0,0,1,.346,1.068,6.662,6.662,0,0,1-.85,2.296,1.0918,1.0918,0,0,0-.566.782,5.072,5.072,0,0,1,3.28,5.476,5.8749,5.8749,0,0,1-2.139,4.182,15.7414,15.7414,0,0,1-4.754.598c-.294-.021-.589-.049-.882-.085a20.0044,20.0044,0,0,0-1.03,3.572l.007.534.42.029a13.9918,13.9918,0,0,1,.507-2.786l.285-.247.298.177q.2925.888,1.018,2.583a.27.27,0,0,0,.049-.063q.0255-.0435.139-1.657a1.0423,1.0423,0,0,1,.295-.713l.371.093.288.332a2.7172,2.7172,0,0,0,.387,2.071l.124-1.769a1.8073,1.8073,0,0,1,.207-.718q.4425.03.838,1.347.3975,1.296.795,1.323a.5244.5244,0,0,0,.185-.409q-.054-.1815-.439-1.964c.074-.217.276-.344.604-.38q.7635,1.143.783,1.189a2.2363,2.2363,0,0,0,1.005.871,6.4675,6.4675,0,0,0-.498-2.391q.2565-.4935.611-.468a3.9178,3.9178,0,0,1,.961.557,3.0385,3.0385,0,0,0,1.161.548l.09-.016a7.8611,7.8611,0,0,1-1.019-1.938l.09-.327q.768.1425,2.217.379a2.2158,2.2158,0,0,0-.855-.794,2.2158,2.2158,0,0,1-.855-.794l-.003-.267a.3906.3906,0,0,1,.475-.433,3.4083,3.4083,0,0,1,.742.186,3.6512,3.6512,0,0,0,.809.19l.403-.038.14-.412a3.0212,3.0212,0,0,1-2.523-2.045q-.0375-.0915-1.032-3.317a5.064,5.064,0,0,1,2.016-1.813l.187.191a4.3549,4.3549,0,0,0-.603,1.935,3.6951,3.6951,0,0,0,.561,2.751,3.9606,3.9606,0,0,0,2.586.826q.4425.0315,1.014-.817A2.9047,2.9047,0,0,0,163.834,178.102Zm-7.842,1.225a3.0307,3.0307,0,0,0-.815-2.613,2.0609,2.0609,0,0,0-1.982-1.518,8.394,8.394,0,0,0-1.497.117,8.8609,8.8609,0,0,1-1.54.092,2.3139,2.3139,0,0,1-.873-.218l-.434.17a32.0448,32.0448,0,0,1,.427,4.341,4.4992,4.4992,0,0,1-.124.813,1.9364,1.9364,0,0,1-.083.861,5.07,5.07,0,0,0-.191.809.8262.8262,0,0,0,.369.759l.752.053a17.6476,17.6476,0,0,0,4.183-.083,4.924,4.924,0,0,0,1.499-1.405A8.6364,8.6364,0,0,0,155.992,179.327Zm-10.778-10.382a1.04,1.04,0,0,0-.302-.755,4.2867,4.2867,0,0,0-1.087-.343,4.4136,4.4136,0,0,0-2.914.995,3.3356,3.3356,0,0,0-1.581,2.555l-.018.265a4.9261,4.9261,0,0,0,1.286.357,5.9938,5.9938,0,0,0,3.475-1.066,3.8143,3.8143,0,0,1,.58-.981A2.4947,2.4947,0,0,0,145.214,168.945Zm.887,11.995a6.7672,6.7672,0,0,0-1.613-.758,3.3515,3.3515,0,0,1-1.754-1.279,1.0666,1.0666,0,0,1,.684-.241,3.2065,3.2065,0,0,1,.769.121q.57.1065.747.12c.354.024.538-.059.551-.251a.2964.2964,0,0,0-.054-.181q-2.334-.2985-2.845-1.245a2.8368,2.8368,0,0,1,1.336-.35,5.7288,5.7288,0,0,0,1.435-.188,2.7785,2.7785,0,0,0-1.551-.376q-1.2585-.111-1.542-.509l.008-.11q.0165-.555.955-.622.9615-.087,1.068-.347a4.9609,4.9609,0,0,1-1.751.255l-.556-.306c-.069-.064-.096-.207-.081-.428a.5192.5192,0,0,1,.483-.544l.843.015c.296.006.453-.123.472-.389l-.295-.221q-2.2785-.1605-2.735.963.237.75.82,2.236a48.1152,48.1152,0,0,1-.083,7.171q-.1485,2.1-.579,6.314-.429,4.1925-.577,6.293a29.7041,29.7041,0,0,0-.128,3.702q.23,2.415,1.888,2.533a4.044,4.044,0,0,0,.741-.104q-1.533-.64-1.495-1.172.0285-.42.47-.367a3.13,3.13,0,0,0,1.087.344.5577.5577,0,0,0,.292-.046,6.7387,6.7387,0,0,1-1.832-1.441.8646.8646,0,0,1-.038-.402l.035-.176.323-.177a7.6011,7.6011,0,0,0,1.18.283.8284.8284,0,0,0,.589-.158,18.4111,18.4111,0,0,1-2.1-1.415q.162-.7215,1.912-.332l.516-.074q-2.325-1.365-2.272-2.116l.031-.131a.9557.9557,0,0,1,.7-.151,3.4629,3.4629,0,0,1,.807.213,3.449,3.449,0,0,0,.829.214,2.1824,2.1824,0,0,0,.292-.357,9.3844,9.3844,0,0,1-2.519-1.467q.048-.6855.513-.653a2.9514,2.9514,0,0,1,.741.208,2.8975,2.8975,0,0,0,.741.208l.431-.125.003-.044q.021-.31-1.334-.939a3.623,3.623,0,0,1-1.072-1.186,12.6144,12.6144,0,0,1,2.933.006l.014-.199-2.653-1.764q.261-.5595,1.212-.493a7.3338,7.3338,0,0,1,.836.126c.408.088.657.135.745.141q-.516-.2355-2.115-1.193a1.2123,1.2123,0,0,1-.112-.63,2.49,2.49,0,0,1,1.204-.049q1.032.162,1.188.173l.266-.003.018-.244a6.3183,6.3183,0,0,1-2.949-1.985,1.3612,1.3612,0,0,1,.698-.129,4.0543,4.0543,0,0,1,.96.246,4.904,4.904,0,0,0,.984.225.9345.9345,0,0,0,.701-.173,6.0772,6.0772,0,0,0-1.415-.722,4.5146,4.5146,0,0,1-1.411-.788,1.0087,1.0087,0,0,1,.978-.642q-.2685.0255,1.258.133a3.0553,3.0553,0,0,0,.626-.067,2.327,2.327,0,0,0-1.625-.582c-.227-.149-.453-.298-.68-.447a.965.965,0,0,1-.397-.673,1.7653,1.7653,0,0,1,1.186-.116q1.34.228,1.207.218A1.7423,1.7423,0,0,0,146.101,180.94Zm17.102-3.66a2.8506,2.8506,0,0,1-.4,1.261l-.011.154a.77.77,0,0,1-.683.863,2.6084,2.6084,0,0,1-1.47-1.526,4.1951,4.1951,0,0,1-.431-2.074,1.6508,1.6508,0,0,1,.95-1.511,2.8788,2.8788,0,0,1,.081-.505,3.1629,3.1629,0,0,1,.634-.178l.413.14A7.3984,7.3984,0,0,1,163.203,177.28Zm-19.2-8.176-.211.785a3.2256,3.2256,0,0,1-2.845,1.266l-.331-.023-.291-.287.019-.266q.618-.267,1.258-.511a1.0819,1.0819,0,0,0,.639-.866,1.39,1.39,0,0,0-.056-.471,1.9232,1.9232,0,0,1,1.129-.253c-.103-.008.086.043.567.151Zm18.711,9.119a3.9332,3.9332,0,0,1-.582-1.507,3.1321,3.1321,0,0,0-.605-1.51l-.273.092a.3484.3484,0,0,0-.093.06.0632.0632,0,0,0-.025.043l-.04.242a.5737.5737,0,0,0,.247.595.5125.5125,0,0,1,.053.203q-.015.2-.333.31a.4782.4782,0,0,0-.359.353,4.3346,4.3346,0,0,1,.818.702,1.6222,1.6222,0,0,0,.809.501Zm34.497,25.787q-.195,2.7645-1.215,3.359-.7425.459-3.64.254a55.319,55.319,0,0,1-6.741-.831,11.9474,11.9474,0,0,1-1.439-.39,8.2271,8.2271,0,0,0-1.402-.277,10.2244,10.2244,0,0,0-5.56,1.008,6.3225,6.3225,0,0,1-2.184-3.376,10.2468,10.2468,0,0,1-.694-4.026,4.0937,4.0937,0,0,1,1.234-2.691,32.3862,32.3862,0,0,0,9.212-5.217,13.1639,13.1639,0,0,0,4.63-9.25,12.69,12.69,0,0,0-.276-3.642q-1.251-1.7985-2.158-1.863l-.537.051a5.0288,5.0288,0,0,0-1.835,3.337q-.225,1.94-.453,3.901a3.3809,3.3809,0,0,1-2.409.764,19.3054,19.3054,0,0,1-2.355-.633q-.0945-.252-.8-.634-.705-.405-.792-.745a15.1957,15.1957,0,0,1-.105-4.185,12.22,12.22,0,0,1,2.518-7.022,7.46,7.46,0,0,1,6.69-2.861q4.842.3405,6.964,2.713,1.34,1.4715,3.327,6.701a13.3562,13.3562,0,0,1,1.011,5.515q-.4695,6.6555-8.587,14.949a2.3678,2.3678,0,0,0,1.644.627,12.9036,12.9036,0,0,0,1.401-.012,11.2666,11.2666,0,0,1,1.425-.033,2.9994,2.9994,0,0,1,2.397,1.614A4.8012,4.8012,0,0,1,197.211,204.01Zm-2.244-29.623a1.0013,1.0013,0,0,0-.299-.176l-.132.301A.736.736,0,0,0,194.967,174.387Zm-1.142-1.769-.572-.085-.162.1.258.751q-.603.669-1.207,1.359a2.156,2.156,0,0,1-1.544.78,1.3387,1.3387,0,0,1-.328-.067.5741.5741,0,0,0-.554.605q-.045.642.252.84a4.9585,4.9585,0,0,0,2.392-1.475,3.706,3.706,0,0,0,1.456-2.364Zm-3.118.735a.3814.3814,0,0,0-.111-.318.8324.8324,0,0,0-.624.333,1.09,1.09,0,0,0-.334.643l.163.212a3.159,3.159,0,0,0,.512-.009A4.2094,4.2094,0,0,0,190.707,173.353Zm6.223,9.439a5.0271,5.0271,0,0,0-.214-2.015q-.2415-.039-.426-.897a1.9425,1.9425,0,0,0-.394-1.028q-1.18-.261-.872-.239-2.034-.1425-2.226,2.576a7.1044,7.1044,0,0,0,.285,2.576q.5055,1.6575,1.611,1.736Q196.728,185.6435,196.93,182.792Zm-1.948,5.24a2.8083,2.8083,0,0,0-.011-.468,13.0152,13.0152,0,0,1-1.154-.659,4.6083,4.6083,0,0,1-.907-.997,8.9257,8.9257,0,0,0-.836-1.059.9289.9289,0,0,0-.068.329,3.435,3.435,0,0,0,.978,2.513,2.4368,2.4368,0,0,0,1.119.212q-.045-.003.672.225Zm-3.056-16.526-.195-.391a14.0268,14.0268,0,0,0-4.26-1.034,7.5234,7.5234,0,0,0-6.451,2.3,10.7141,10.7141,0,0,0-2.446,6.65,17.68,17.68,0,0,0-.076,3.283q.3015,1.065,2.272,1.805-.063-.36-.717-.851t-.638-.734a.3765.3765,0,0,1,.243-.294,1.0063,1.0063,0,0,0,.63-.111q-.8625-.9945-.827-1.502a.4134.4134,0,0,1,.107-.26l1.6.313q-.5355-.5925-1.071-1.186a1.8524,1.8524,0,0,1-.595-1.331l.029-.109a.5816.5816,0,0,1,.338-.065,2.6614,2.6614,0,0,1,.932.332,2.8711,2.8711,0,0,0,.977.336l.156-.012q-.9255-1.065-1.089-1.254a3.8214,3.8214,0,0,1-.739-1.497l.409-.126a2.0618,2.0618,0,0,1,.621.332,1.9361,1.9361,0,0,0,.821.325l.245-.005a4.658,4.658,0,0,1-1.116-2.767.8247.8247,0,0,1,.337-.043,2.987,2.987,0,0,1,1.782,1.192l.117-.081a9.9761,9.9761,0,0,1-.686-2.248,1.3208,1.3208,0,0,1,.483-.232,6.6952,6.6952,0,0,1,.876.817c.386.397.668.603.845.615l.066.005a2.6674,2.6674,0,0,0-.16-.878,2.9257,2.9257,0,0,1-.138-.877l.008-.11a.66.66,0,0,1,.361-.086q.354.0255.791.767.3135.5775.609,1.132a5.3131,5.3131,0,0,1,.39-1.439q.43-1.059.806-1.032.22.015.358.914a3.6,3.6,0,0,1,.056,1.093l.251.217.968-2.065a8.0483,8.0483,0,0,0,1.213-.181.7555.7555,0,0,1,.694.56Zm2.02,17.986a4.2978,4.2978,0,0,1-1.847-1.219,2.7808,2.7808,0,0,1-.475-1.145,1.7878,1.7878,0,0,0-.32-.822,1.4422,1.4422,0,0,0-.383,1.017,2.1579,2.1579,0,0,0,.905,1.664,3.158,3.158,0,0,0,1.781.903q.354.0255.352-.264Zm2.001,13.851a2.1815,2.1815,0,0,1-.538-.882,1.94,1.94,0,0,0-.582-.885l-.044.308a6.6016,6.6016,0,0,0,.087,1.606,7.2861,7.2861,0,0,1,.151,1.633,3.5712,3.5712,0,0,1-.05.396Q195.5785,205.4065,195.947,203.343Zm-5.081-12.402q-.288-.642-.818-1.946.1125-1.5915-.182-1.835a9.2161,9.2161,0,0,1,.808-2.632,9.0234,9.0234,0,0,0,.816-2.431q.051-.729-.634-.778a1.632,1.632,0,0,1-.328-1.023l.063-.262a.82.82,0,0,0,.379-.329q.027-.3765-.663-1.002.0405-.264.774-.568a11.4225,11.4225,0,0,1-1.39-.142,1.2893,1.2893,0,0,0,.277.797,1.2067,1.2067,0,0,1,.278.775,1.6652,1.6652,0,0,1-.149.545,5.6982,5.6982,0,0,1,.196,1.947,13.0461,13.0461,0,0,1-.621,2.823q-.6345,2.0655-.775,2.789a17.8756,17.8756,0,0,0-2.419,3.741q-1.2075,1.047-3.704,3.049a20.7383,20.7383,0,0,1-3.825,1.93,11.6978,11.6978,0,0,0-3.526,2.107,17.836,17.836,0,0,0,.362,3.692,4.5458,4.5458,0,0,0,.316-1.644,1.2266,1.2266,0,0,1,.277-.781q.3135.6.812,1.724a4.756,4.756,0,0,0,.091-.66q.0315-.4425-.045-2.203c.135-.227.283-.336.445-.324a.4452.4452,0,0,1,.196.058,3.1787,3.1787,0,0,1,.396,1.317,2.0429,2.0429,0,0,0,.619,1.31,1.8322,1.8322,0,0,0,.075-.439,10.0883,10.0883,0,0,0-.023-1.246q-.03-.825-.001-1.244c.014-.207.213-.296.597-.269q.1725.7.347,1.38a1.609,1.609,0,0,0,.858,1.06,7.1018,7.1018,0,0,0-.086-1.295,8.4,8.4,0,0,1-.061-1.337q.0885-1.2615.662-1.198a3.8892,3.8892,0,0,1,.525,1.37,1.8528,1.8528,0,0,0,.758,1.231l.17-.21.03-.42a3.6776,3.6776,0,0,0-.172-1.034,3.9967,3.9967,0,0,1-.146-1.077,1.6436,1.6436,0,0,1,.284-.869q.28.108.635,1.067.378.96.769,1.076a7.7744,7.7744,0,0,1-.365-2.07q-.01.1545.129-.568.4575.12.994,1.025a3.2732,3.2732,0,0,0,.963,1.157l.009-.133a2.7064,2.7064,0,0,0-.269-1.219,3.2105,3.2105,0,0,1-.294-1.198,1.48,1.48,0,0,1,.199-.608q.5265.1035,1.345,1.717l.354.025.066-.307a2.2633,2.2633,0,0,1-.468-1.233q-.066-.648-.129-1.32a.3526.3526,0,0,1,.225-.05q.045.003,1.673,1.495l-.903-2.952q.0645-.285.307-.267l.132.031q.363.5145.727,1.029.53.6825.883.707a.6642.6642,0,0,0,.247-.027,3.8845,3.8845,0,0,1-1.069-3.12l.14-.723a3.0437,3.0437,0,0,1,.928,1.021A3.0739,3.0739,0,0,0,190.866,190.941Zm3.448,10.354-.244-.328q-.9285-.066-2.819-.355-1.8675-.309-2.818-.376a7.5589,7.5589,0,0,0-3.553.283q-1.0155.528-1.754,2.809l.221.016a4.7171,4.7171,0,0,1,1.927-2.109l-.003.356a2.8544,2.8544,0,0,1-.22.917,3.5472,3.5472,0,0,0-.24.872q.0105-.132.048.581a2.4187,2.4187,0,0,0,.746-1.125,3.8468,3.8468,0,0,1,.849-1.318,4.6261,4.6261,0,0,1,.092,2.473.4872.4872,0,0,0,.398.34,4.7083,4.7083,0,0,1,1.047-2.237,11.8774,11.8774,0,0,0,.17,2.634,4.3705,4.3705,0,0,0,.659-1.154,3.0591,3.0591,0,0,1,.866-1.25,6.8212,6.8212,0,0,1,.011,2.045c.002-.029.023.194.064.671l.309.022q.588-1.4025.692-1.618a3.8915,3.8915,0,0,1,.987-1.397l-.098.771-.056.796c-.022.31-.029.62-.022.932a1.2192,1.2192,0,0,0,.435.453,11.6046,11.6046,0,0,1,.305-1.801,1.9818,1.9818,0,0,1,1.031-1.394,3.31,3.31,0,0,1-.027,1.332q-.222,1.251-.229,1.361-.0675.951.49,1.235-.006-1.1565.03-1.687A18.9607,18.9607,0,0,1,194.314,201.295Zm1.753-18.253c-.083-.702-.251-1.062-.501-1.08l-.044-.003-.128,1.813a2.819,2.819,0,0,1-.288,1.247.584.584,0,0,1-.424-.608,3.0759,3.0759,0,0,1,.181-.676,2.6712,2.6712,0,0,0,.206-.719l-.03-.202a1.4808,1.4808,0,0,0-.15-.699,2.9706,2.9706,0,0,0-.453,1.056q-.228.7185-.454.768-.261-2.2845-.263-2.262a4.18,4.18,0,0,1,.597-1.847l.439-.236a1.3623,1.3623,0,0,1,1.053,1.141q.1635.834.303,1.688Z"/><path class="cls-1" d="M67.4226,70.1769a12.7313,12.7313,0,0,1,5.7442,1.7046c2.9067,1.98,3.7972,5.792,4.4613,9.2454.438,2.2779.7658,4.9586-.8489,6.6239-1.3373,1.3791-3.4842,1.48-5.4048,1.44a107.7522,107.7522,0,0,1-19.6081-2.2195c-2.7427-.5687-5.7167-1.4136-7.2813-3.7371-2.365-3.5122-.39-11.0267,3.3839-13.0953C52.6167,67.5361,62.3043,69.5617,67.4226,70.1769Z"/><path class="cls-4" d="M44.7607,82.79l1.3208-13.4249,2.5313.2491L47.2915,83.0386Zm.9136.09.24-2.4375,8.08.7949-.24,2.4375Zm.5361-5.4473.24-2.4375,7.0635.6944-.24,2.4375Zm.545-5.54.24-2.4375,8.08.7949-.24,2.4375Z"/><path class="cls-4" d="M55.665,72.7681l.24-2.4366,9.8428.9688-.24,2.4365ZM58.24,84.1157,59.4531,71.79l2.53.249L60.77,84.3647Z"/><path class="cls-4" d="M65.9043,84.87l1.3208-13.4248,2.53.249L68.4341,85.1187Zm1.7075-5.3222.24-2.4375,7.8208.77-.24,2.4375Zm5.6421,6.0459,1.3208-13.4248,2.53.249L75.7837,85.8413Z"/></svg>