<?xml version="1.0" encoding="utf-8"?>
<!-- Generator: Adobe Illustrator 24.0.1, SVG Export Plug-In . SVG Version: 6.00 Build 0)  -->
<svg version="1.1" id="Layer_1" xmlns="http://www.w3.org/2000/svg" xmlns:xlink="http://www.w3.org/1999/xlink" x="0px" y="0px"
	 viewBox="0 0 260 234" style="enable-background:new 0 0 260 234;" xml:space="preserve">
<style type="text/css">
	.st0{fill:#325100;}
	.st1{fill:none;stroke:#FFFFFF;stroke-width:1.06;stroke-miterlimit:10;}
	.st2{fill:#FFFFFF;}
	.st3{fill:#A9E647;}
</style>
<path class="st0" d="M239.9,123.9c-0.3,5.1,2.4,9.7,6.6,12.2c3.8,2.2,5.8,6.5,5.6,10.8l-3.8,74.6c-0.3,6.5-5.9,11.4-12.5,11
	L13.1,219.1c-6.6-0.4-11.6-6-11.3-12.5L5.6,132c0.2-4.3,2.7-8.3,6.7-10.1c4.4-1.9,7.6-6.2,7.8-11.3c0.3-5.1-2.4-9.7-6.6-12.2
	c-3.8-2.2-5.8-6.5-5.6-10.8l3.8-74.6c0.3-6.5,5.9-11.4,12.5-11L247,15.4c6.6,0.4,11.6,6,11.3,12.5l-3.8,74.6
	c-0.2,4.3-2.7,8.3-6.7,10.1C243.4,114.5,240.2,118.8,239.9,123.9z"/>
<path class="st1" d="M13.3,214.3c-3.9-0.2-6.9-3.6-6.7-7.5l3.8-74.6c0.1-2.7,1.7-5.1,3.9-6.1c6.2-2.7,10.3-8.6,10.6-15.4
	c0.3-6.7-3.1-13.1-9-16.6c-2.1-1.2-3.4-3.8-3.3-6.5l3.8-74.6c0.2-3.9,3.5-6.8,7.5-6.6l222.8,13.5c3.9,0.2,6.9,3.6,6.7,7.5l-3.8,74.6
	c-0.1,2.7-1.7,5.1-3.9,6.1c-6.2,2.7-10.3,8.6-10.6,15.4c-0.3,6.7,3.1,13.1,9,16.6c2.1,1.2,3.4,3.8,3.3,6.5l-3.8,74.6
	c-0.2,3.9-3.5,6.8-7.5,6.6L13.3,214.3z"/>
<path class="st2" d="M225.1,222.6L23.4,210.5c-6.7-0.4-11.9-6.1-11.6-12.7l2.4-46.3c0.3-6.6,6.1-11.7,12.8-11.3l201.7,12.1
	c6.7,0.4,11.9,6.1,11.6,12.7l-2.4,46.3C237.5,218,231.8,223,225.1,222.6z"/>
<path class="st3" d="M224.9,42.3c0,0.7-0.7,1.3-1.4,1.3c-0.8,0-1.3-0.7-1.3-1.4c0-0.7,0.7-1.3,1.4-1.3
	C224.4,40.9,225,41.5,224.9,42.3z"/>
<path class="st3" d="M234.9,62.6c0.7,0,1.2-0.5,1.3-1.1c0-0.7-0.5-1.2-1.1-1.3c-0.7,0-1.2,0.5-1.3,1.1
	C233.7,62,234.2,62.6,234.9,62.6z"/>
<path class="st3" d="M245.2,39.5c-0.1,1-0.9,1.8-2,1.7c-1-0.1-1.8-0.9-1.8-2c0.1-1,0.9-1.8,2-1.7C244.5,37.6,245.3,38.4,245.2,39.5z
	"/>
<path class="st3" d="M237.4,88.7c0,0.6-0.5,1-1.1,1c-0.6,0-1-0.5-1-1.1c0-0.6,0.5-1,1.1-1C237,87.7,237.4,88.2,237.4,88.7z"/>
<path class="st3" d="M222.5,107.4c0.7,0,1.2-0.5,1.3-1.1c0-0.7-0.5-1.2-1.1-1.3c-0.7,0-1.2,0.5-1.3,1.1
	C221.3,106.8,221.8,107.3,222.5,107.4z"/>
<path class="st3" d="M221.8,135.7c0,0.7-0.7,1.3-1.4,1.3c-0.8,0-1.3-0.7-1.3-1.4c0-0.7,0.7-1.3,1.4-1.3
	C221.2,134.3,221.8,134.9,221.8,135.7z"/>
<path class="st3" d="M212.5,32c0,0.9-0.9,1.6-1.8,1.6c-0.9-0.1-1.7-0.9-1.6-1.8c0-0.9,0.9-1.6,1.8-1.6
	C211.8,30.3,212.6,31.1,212.5,32z"/>
<path class="st3" d="M35,27.6c0.8,0.1,1.6-0.6,1.6-1.4c0-0.8-0.6-1.6-1.5-1.6s-1.6,0.6-1.6,1.4C33.5,26.8,34.1,27.5,35,27.6z"/>
<path class="st3" d="M51.2,45.6c0,0.6-0.5,1-1.1,1c-0.6,0-1-0.5-1-1.1c0-0.6,0.5-1,1.1-1C50.8,44.5,51.3,45,51.2,45.6z"/>
<path class="st3" d="M34.6,61.7c1.1,0.1,2.1-0.8,2.2-1.9c0.1-1.1-0.8-2.1-1.9-2.2s-2.1,0.8-2.2,1.9C32.6,60.7,33.5,61.6,34.6,61.7z"
	/>
<path class="st3" d="M33,91.4c0,0.6-0.5,1-1.1,1c-0.6,0-1-0.5-1-1.1c0-0.6,0.5-1,1.1-1C32.6,90.3,33,90.8,33,91.4z"/>
<path class="st3" d="M53.7,78.5c0.8,0.1,1.6-0.6,1.6-1.4c0-0.8-0.6-1.6-1.5-1.6s-1.6,0.6-1.6,1.4C52.2,77.7,52.8,78.4,53.7,78.5z"/>
<path class="st3" d="M46.6,114.3c0.8,0.1,1.6-0.6,1.6-1.4c0-0.8-0.6-1.6-1.5-1.6c-0.8-0.1-1.6,0.6-1.6,1.4
	C45,113.5,45.7,114.2,46.6,114.3z"/>
<path class="st3" d="M32.7,127.2c0,0.7-0.7,1.3-1.4,1.3c-0.8,0-1.3-0.7-1.3-1.4c0-0.7,0.7-1.3,1.4-1.3
	C32.1,125.8,32.7,126.5,32.7,127.2z"/>
<path class="st3" d="M36.4,41.1c0.3,0,0.6-0.1,0.9-0.1c0.3,0,0.7-0.1,1-0.1c0.3,0,0.7,0,1,0c0.3,0,0.7,0,1,0c1,0.1,1.8,0.2,2.4,0.4
	c0.6,0.2,1.1,0.5,1.4,0.9c0.4,0.3,0.6,0.7,0.7,1.1c0.1,0.4,0.2,0.8,0.1,1.2c0,0.3-0.1,0.7-0.2,1c-0.1,0.3-0.3,0.7-0.5,0.9
	c-0.2,0.3-0.5,0.5-0.9,0.7c-0.4,0.2-0.8,0.3-1.3,0.4c0.6,0.1,1.1,0.2,1.5,0.5c0.4,0.2,0.8,0.5,1,0.8c0.3,0.3,0.5,0.7,0.6,1.1
	c0.1,0.4,0.1,0.8,0.1,1.2c0,0.5-0.2,1-0.4,1.5c-0.2,0.5-0.6,0.9-1.1,1.2c-0.5,0.3-1.2,0.6-2,0.8c-0.8,0.2-1.8,0.2-3,0.2
	c-0.2,0-0.5,0-0.8-0.1c-0.3,0-0.6,0-0.9-0.1c-0.3,0-0.6-0.1-0.9-0.1c-0.3,0-0.6-0.1-0.8-0.1c0.1-0.6,0.1-1.2,0.1-1.6
	c0.1-0.5,0.1-1,0.1-1.5c0-0.5,0.1-1.1,0.1-1.8c0.1-0.7,0.1-1.5,0.2-2.5c0.1-0.9,0.1-1.9,0.1-2.9C36.3,43.2,36.4,42.2,36.4,41.1z
	 M38.6,48.4c-0.1,0.9-0.1,1.8-0.1,2.5c0,0.7-0.1,1.4-0.1,2.1c0.2,0.1,0.5,0.2,0.7,0.2c0.3,0.1,0.5,0.1,0.8,0.1c0.8,0,1.5-0.2,2-0.6
	c0.5-0.4,0.8-1.1,0.9-2c0-0.3,0-0.6-0.1-0.9c-0.1-0.3-0.2-0.5-0.4-0.8c-0.2-0.2-0.5-0.4-0.8-0.5c-0.3-0.1-0.7-0.2-1.2-0.2
	C39.7,48.3,39.2,48.3,38.6,48.4z M38.9,42.8c-0.1,0.5-0.1,1.1-0.1,1.8c0,0.6-0.1,1.4-0.1,2.2c0.2,0,0.4,0.1,0.5,0.1
	c0.2,0,0.4,0,0.5,0c1,0.1,1.7-0.1,2.1-0.5c0.4-0.4,0.7-0.9,0.7-1.6c0-0.3,0-0.5-0.1-0.8c-0.1-0.3-0.2-0.5-0.3-0.7
	c-0.2-0.2-0.4-0.4-0.7-0.5c-0.3-0.1-0.6-0.2-1-0.2c-0.3,0-0.5,0-0.8,0C39.5,42.7,39.2,42.8,38.9,42.8z M48.8,50.8
	c0,1,0.2,1.7,0.5,2.1c0.3,0.4,0.8,0.6,1.5,0.7c0.5,0,1,0,1.5-0.2c0.5-0.1,0.9-0.2,1.2-0.4l-0.1,1.6c-0.4,0.4-1,0.6-1.6,0.7
	c-0.6,0.1-1.2,0.2-1.8,0.1c-0.5,0-0.9-0.1-1.4-0.3c-0.5-0.1-0.9-0.4-1.2-0.7c-0.3-0.4-0.6-0.8-0.8-1.4c-0.2-0.6-0.3-1.4-0.2-2.3
	c0.1-0.9,0.2-1.8,0.5-2.4c0.3-0.7,0.6-1.3,1-1.7c0.4-0.4,0.9-0.8,1.5-1c0.6-0.2,1.2-0.3,1.8-0.2c0.7,0,1.2,0.2,1.6,0.4
	c0.4,0.2,0.7,0.5,0.9,0.9c0.2,0.4,0.4,0.8,0.4,1.2c0.1,0.4,0.1,0.8,0.1,1.2c0,0.4-0.1,0.8-0.2,1.1c-0.1,0.3-0.2,0.6-0.3,0.8
	L48.8,50.8z M50.6,46.8c-0.5,0-0.9,0.2-1.2,0.6c-0.3,0.4-0.5,1.1-0.6,2l3.2,0.2c0-0.1,0-0.1,0-0.2c0-0.1,0-0.1,0-0.2
	c0-0.2,0-0.4,0-0.7c0-0.3-0.1-0.5-0.2-0.8c-0.1-0.2-0.3-0.4-0.5-0.6C51.2,46.9,51,46.8,50.6,46.8z M54.9,51.3c0.1-1,0.2-1.8,0.4-2.5
	c0.3-0.7,0.6-1.3,1-1.7c0.4-0.5,0.9-0.8,1.4-1c0.5-0.2,1.1-0.3,1.7-0.3c0.4,0,0.7,0.1,1,0.2c0.3,0.1,0.6,0.1,0.9,0.1
	c0.1,0,0.3,0,0.4,0c0.1,0,0.3-0.1,0.6-0.1l0,3.8l-1.9,0.1c0-0.1,0-0.2,0-0.3c0-0.1,0-0.2,0-0.4c0-0.7-0.1-1.2-0.3-1.5
	c-0.2-0.3-0.5-0.5-0.8-0.5c-0.6,0-1.1,0.3-1.4,0.9c-0.3,0.6-0.5,1.6-0.6,2.8c-0.1,1.1,0.1,1.8,0.4,2.3c0.3,0.5,0.8,0.7,1.5,0.8
	c0.5,0,0.9,0,1.3-0.2c0.5-0.1,0.9-0.3,1.2-0.4l-0.1,1.7c-0.4,0.4-0.9,0.6-1.5,0.7c-0.6,0.1-1.2,0.2-1.8,0.1c-0.5,0-0.9-0.1-1.4-0.3
	c-0.4-0.1-0.8-0.4-1.2-0.7c-0.3-0.3-0.6-0.8-0.8-1.4C54.9,53,54.8,52.2,54.9,51.3z M67.8,47.9c-0.6,0-1.1,0.3-1.4,0.9
	c-0.4,0.6-0.6,1.5-0.6,2.6c-0.1,1.1,0,1.9,0.2,2.6c0.2,0.6,0.7,0.9,1.3,1c0.6,0,1.1-0.3,1.5-0.9c0.4-0.7,0.6-1.5,0.7-2.6
	c0-0.5,0-1,0-1.4c0-0.4-0.1-0.8-0.2-1.1c-0.1-0.3-0.3-0.5-0.5-0.7C68.4,48,68.1,47.9,67.8,47.9z M63.2,51.3c0-0.8,0.2-1.5,0.4-2.1
	c0.3-0.6,0.6-1.2,1-1.6c0.4-0.4,0.9-0.7,1.5-1s1.2-0.3,1.9-0.3c1.3,0.1,2.3,0.5,3,1.4c0.7,0.9,1,2.1,0.9,3.6c0,0.8-0.2,1.5-0.5,2.2
	c-0.3,0.6-0.6,1.2-1,1.6c-0.4,0.4-0.9,0.8-1.5,1c-0.6,0.2-1.2,0.3-1.9,0.3c-0.6,0-1.2-0.2-1.7-0.4c-0.5-0.3-0.9-0.6-1.3-1.1
	c-0.3-0.4-0.6-1-0.7-1.6C63.2,52.7,63.1,52,63.2,51.3z M84.2,57.4c-0.1-0.3-0.1-0.6-0.1-1c0-0.3,0-0.7,0-0.9c0-0.4,0-0.7,0.1-1.1
	c0-0.4,0.1-0.8,0.1-1.1c0-0.4,0.1-0.7,0.1-1c0-0.3,0.1-0.6,0.1-0.8c0-0.8-0.1-1.3-0.3-1.6c-0.2-0.3-0.6-0.5-1-0.5
	c-0.3,0-0.6,0-0.9,0.1c-0.3,0.1-0.5,0.2-0.8,0.3c0,0.3,0,0.5,0,0.8c0,0.2,0,0.4-0.1,0.8c0,0.3,0,0.7-0.1,1.1c0,0.4-0.1,0.8-0.1,1.1
	c0,0.4,0,0.6,0,0.8c0,0.4,0,0.8,0,1.2c0,0.4,0.1,0.7,0.3,1l-2.8,0.3c-0.1-0.3-0.1-0.6-0.1-1c0-0.3,0-0.7,0-0.9c0-0.4,0-0.7,0.1-1.1
	c0-0.4,0.1-0.8,0.1-1.1c0-0.4,0.1-0.7,0.1-1c0-0.3,0.1-0.6,0.1-0.8c0-0.8-0.1-1.3-0.3-1.6c-0.2-0.3-0.6-0.5-1-0.5
	c-0.3,0-0.6,0-0.9,0.1c-0.3,0.1-0.5,0.2-0.8,0.3c0,0.3,0,0.5,0,0.8c0,0.3,0,0.6-0.1,1c0,0.6-0.1,1.1-0.1,1.6c0,0.5-0.1,0.9-0.1,1.3
	c0,0.4,0,0.8,0,1.2c0,0.4,0,0.7,0,1.1l-2.6-0.1c0-0.3,0.1-0.7,0.1-1s0.1-0.8,0.1-1.2c0.1-0.4,0.1-0.9,0.1-1.3c0-0.5,0.1-0.9,0.1-1.3
	c0-0.5,0-0.9,0-1.2c0-0.3,0-0.6-0.1-0.8c-0.1-0.2-0.2-0.5-0.3-0.7c-0.1-0.2-0.3-0.5-0.5-0.7l2.3-1.4c0.2,0.4,0.4,0.7,0.6,1
	c0.1,0.3,0.2,0.6,0.3,0.9c0.2-0.2,0.4-0.4,0.7-0.6c0.2-0.2,0.5-0.4,0.8-0.6c0.3-0.2,0.6-0.3,0.9-0.4c0.3-0.1,0.6-0.1,1-0.1
	c0.5,0,0.9,0.2,1.3,0.5c0.4,0.3,0.7,0.8,0.9,1.5c0.2-0.2,0.4-0.4,0.7-0.6c0.2-0.2,0.5-0.4,0.8-0.6s0.6-0.3,0.9-0.4
	c0.3-0.1,0.6-0.1,1-0.1c0.3,0,0.6,0.1,0.9,0.2c0.3,0.1,0.6,0.3,0.8,0.6c0.2,0.3,0.4,0.7,0.5,1.1S87,50.3,87,51c0,0.2,0,0.4-0.1,0.8
	c0,0.3,0,0.7-0.1,1.1c0,0.4-0.1,0.8-0.1,1.1c0,0.4,0,0.6,0,0.8c0,0.4,0,0.8,0,1.2c0,0.4,0.1,0.7,0.3,1L84.2,57.4z M90.7,53.1
	c0,1,0.2,1.7,0.5,2.1c0.3,0.4,0.8,0.6,1.5,0.7c0.5,0,1,0,1.5-0.2c0.5-0.1,0.9-0.2,1.2-0.4L95.2,57c-0.4,0.4-1,0.6-1.6,0.7
	c-0.6,0.1-1.2,0.2-1.8,0.1c-0.5,0-0.9-0.1-1.4-0.3c-0.5-0.1-0.9-0.4-1.2-0.7c-0.3-0.4-0.6-0.8-0.8-1.4c-0.2-0.6-0.3-1.4-0.2-2.3
	c0.1-0.9,0.2-1.8,0.5-2.4c0.3-0.7,0.6-1.3,1-1.7c0.4-0.4,0.9-0.8,1.5-1c0.6-0.2,1.2-0.3,1.8-0.2c0.7,0,1.2,0.2,1.6,0.4
	c0.4,0.2,0.7,0.5,0.9,0.9c0.2,0.4,0.4,0.8,0.4,1.2c0.1,0.4,0.1,0.8,0.1,1.2c0,0.4-0.1,0.8-0.2,1.1c-0.1,0.3-0.2,0.6-0.3,0.8
	L90.7,53.1z M92.6,49.1c-0.5,0-0.9,0.2-1.2,0.6c-0.3,0.4-0.5,1.1-0.6,2l3.2,0.2c0-0.1,0-0.1,0-0.2c0-0.1,0-0.1,0-0.2
	c0-0.2,0-0.4,0-0.7c0-0.3-0.1-0.5-0.2-0.8c-0.1-0.2-0.3-0.4-0.5-0.6C93.1,49.2,92.9,49.1,92.6,49.1z M102.7,58.4
	c-0.8,0-1.5-0.4-1.9-0.9c-0.5-0.6-0.7-1.3-0.6-2.2c0.1-0.9,0.4-1.7,0.9-2.2c0.6-0.5,1.3-0.8,2.2-0.7c0.4,0,0.7,0.1,1.1,0.2
	c0.4,0.1,0.7,0.3,1,0.5l0.1-1.1c0-0.6-0.1-1-0.3-1.3c-0.2-0.3-0.6-0.4-1.2-0.4c-0.4,0-0.8,0-1.2,0.1c-0.4,0.1-0.8,0.2-1,0.3
	l-0.5-1.9c0.2-0.1,0.4-0.1,0.7-0.2c0.3-0.1,0.6-0.1,0.9-0.1c0.3,0,0.6-0.1,1-0.1c0.3,0,0.6,0,0.9,0c2.3,0.1,3.3,1.3,3.2,3.5
	c0,0.2,0,0.5-0.1,0.8c0,0.4-0.1,0.8-0.1,1.2c0,0.4-0.1,0.8-0.1,1.1c0,0.3-0.1,0.6-0.1,0.7c0,0.3,0,0.5,0.1,0.6
	c0.1,0.1,0.2,0.2,0.5,0.2c0.2,0,0.4,0,0.6,0l-0.4,1.8c-0.2,0.1-0.4,0.1-0.6,0.1c-0.2,0-0.3,0-0.5,0c-0.5,0-0.9-0.2-1.2-0.5
	c-0.3-0.3-0.5-0.7-0.5-1.2c-0.3,0.5-0.7,0.9-1.1,1.1C103.8,58.3,103.3,58.4,102.7,58.4z M103.8,56.7c0.4,0,0.8-0.1,1.1-0.4
	c0.3-0.3,0.5-0.6,0.5-1.1c0-0.4-0.1-0.7-0.3-0.9c-0.2-0.2-0.5-0.4-0.9-0.4c-0.4,0-0.8,0.1-1,0.3s-0.4,0.6-0.4,1c0,0.4,0.1,0.8,0.3,1
	C103.1,56.5,103.4,56.7,103.8,56.7z M113.1,54.6c0.1-1,0.2-1.8,0.4-2.5c0.3-0.7,0.6-1.3,1-1.7c0.4-0.5,0.9-0.8,1.4-1
	c0.5-0.2,1.1-0.3,1.7-0.3c0.4,0,0.7,0.1,1,0.2c0.3,0.1,0.6,0.1,0.9,0.1c0.1,0,0.3,0,0.4,0c0.1,0,0.3-0.1,0.6-0.1l0,3.8l-1.9,0.1
	c0-0.1,0-0.2,0-0.3c0-0.1,0-0.2,0-0.4c0-0.7-0.1-1.2-0.3-1.5c-0.2-0.3-0.5-0.5-0.8-0.5c-0.6,0-1.1,0.3-1.4,0.9
	c-0.3,0.6-0.5,1.6-0.6,2.8c-0.1,1.1,0.1,1.8,0.4,2.3c0.3,0.5,0.8,0.7,1.5,0.8c0.5,0,0.9,0,1.3-0.2c0.5-0.1,0.9-0.3,1.2-0.4l-0.1,1.7
	c-0.4,0.4-0.9,0.6-1.5,0.7c-0.6,0.1-1.2,0.2-1.8,0.1c-0.5,0-0.9-0.1-1.4-0.3c-0.4-0.1-0.8-0.4-1.2-0.7c-0.3-0.3-0.6-0.8-0.8-1.4
	C113.1,56.2,113.1,55.5,113.1,54.6z M123.7,49.3c0.2,0.4,0.4,0.8,0.6,1.2c0.1,0.3,0.2,0.7,0.3,1c0.1-0.2,0.3-0.4,0.5-0.6
	c0.2-0.2,0.4-0.4,0.7-0.6c0.3-0.2,0.5-0.4,0.8-0.5s0.6-0.2,1-0.3l0,2.8c-0.6,0-1.2,0-1.8,0.1c-0.5,0.1-0.9,0.2-1.2,0.5
	c0,0.2,0,0.5,0,0.8c0,0.3,0,0.6-0.1,1c0,0.4,0,0.9-0.1,1.3c0,0.5,0,0.9,0,1.4c0,0.4,0,0.8,0,1.2c0,0.4,0,0.7,0,0.9l-2.7-0.2
	c0-0.3,0.1-0.6,0.1-0.9c0-0.4,0.1-0.7,0.1-1.1c0-0.4,0.1-0.8,0.1-1.2c0-0.4,0.1-0.8,0.1-1.2c0-0.6,0-1.1,0-1.5c0-0.4,0-0.7-0.1-1
	c-0.1-0.3-0.1-0.6-0.3-0.8c-0.1-0.2-0.3-0.5-0.5-0.8L123.7,49.3z M137.1,50.2c-0.4,1.3-0.9,2.6-1.4,3.8c-0.5,1.2-1,2.3-1.5,3.5
	c-0.5,1.1-1,2.2-1.6,3.3c-0.5,1.1-1.1,2.2-1.7,3.2l-2.7,0.1c0.5-0.8,1-1.5,1.5-2.2c0.5-0.7,0.9-1.5,1.3-2.2c-0.7-1.5-1.3-3-1.8-4.6
	c-0.5-1.6-0.9-3.3-1.2-5.1l2.5-0.1c0.1,0.7,0.2,1.4,0.3,2.1c0.1,0.7,0.2,1.4,0.4,2c0.1,0.7,0.3,1.3,0.5,1.8c0.2,0.6,0.4,1.1,0.6,1.5
	c0.5-1.3,1-2.5,1.3-3.6c0.3-1.1,0.7-2.3,1-3.4L137.1,50.2z M146.2,54.8c-0.1,1-0.2,1.9-0.5,2.6c-0.2,0.7-0.6,1.3-1,1.8
	c-0.4,0.5-0.8,0.8-1.4,1.1c-0.5,0.2-1.1,0.3-1.7,0.3c-0.3,0-0.6-0.1-0.8-0.2c-0.2-0.1-0.5-0.2-0.7-0.3c0,0.4,0,0.8-0.1,1.2
	c0,0.4,0,0.7-0.1,1.1c0,0.4,0,0.7,0,1c0,0.3,0,0.7,0,1l-2.6,0.1c0.1-0.8,0.2-1.5,0.2-2.3c0.1-0.7,0.1-1.5,0.2-2.3
	c0.1-0.8,0.1-1.6,0.2-2.3c0-0.8,0.1-1.6,0.1-2.5c0-0.5,0-0.9,0-1.2c0-0.3,0-0.6-0.1-0.8c-0.1-0.2-0.2-0.5-0.3-0.7
	c-0.1-0.2-0.3-0.5-0.5-0.7l2.3-1.4c0.2,0.4,0.4,0.7,0.5,1c0.1,0.3,0.2,0.5,0.3,0.8c0.2-0.2,0.4-0.4,0.7-0.6c0.3-0.2,0.5-0.4,0.8-0.5
	c0.3-0.2,0.6-0.3,0.9-0.4c0.3-0.1,0.7-0.1,1-0.1c0.3,0,0.6,0.1,0.9,0.2c0.3,0.1,0.6,0.4,0.8,0.7c0.2,0.3,0.4,0.8,0.5,1.3
	C146.2,53.3,146.2,54,146.2,54.8z M140.3,58.2c0.3,0.6,0.7,1,1.3,1c0.6,0,1-0.3,1.4-1c0.3-0.7,0.6-1.7,0.6-3c0-0.5,0-1,0-1.3
	c0-0.3-0.1-0.6-0.2-0.8c-0.1-0.2-0.2-0.3-0.4-0.4c-0.2-0.1-0.3-0.1-0.5-0.1c-0.4,0-0.7,0-1.1,0.1c-0.3,0.1-0.6,0.2-0.9,0.4
	c0,0.2,0,0.5,0,0.8c0,0.3,0,0.6-0.1,1L140.3,58.2z M147,51.1c0.4,0,0.8-0.1,1.1-0.2c0.3-0.1,0.5-0.3,0.7-0.5
	c0.2-0.2,0.4-0.5,0.5-0.9c0.1-0.4,0.3-0.8,0.4-1.4l1.8-0.4c-0.2,0.7-0.3,1.3-0.4,1.9c-0.1,0.5-0.2,1.1-0.3,1.6l2.1,0.1l-0.3,1.6
	l-2-0.2c-0.1,0.8-0.2,1.5-0.2,2.1c0,0.6-0.1,1.2-0.1,1.7c0,0.5,0,1,0,1.3c0,0.3,0.1,0.6,0.1,0.7c0.1,0.2,0.2,0.3,0.3,0.4
	c0.1,0.1,0.3,0.1,0.5,0.1c0.3,0,0.5,0,0.8-0.1c0.2-0.1,0.5-0.1,0.6-0.2l-0.4,2c-0.3,0.2-0.6,0.3-0.9,0.3c-0.3,0.1-0.6,0.1-1,0.1
	c-0.4,0-0.8-0.1-1.1-0.3c-0.3-0.1-0.6-0.4-0.8-0.7c-0.2-0.3-0.3-0.7-0.4-1.2c-0.1-0.5-0.1-1.1-0.1-1.8c0-0.6,0.1-1.3,0.2-2.1
	c0.1-0.8,0.2-1.7,0.3-2.6l-1.4-0.1L147,51.1z M158,52.9c-0.6,0-1.1,0.3-1.4,0.9c-0.4,0.6-0.6,1.5-0.6,2.6c-0.1,1.1,0,1.9,0.2,2.6
	c0.2,0.6,0.7,0.9,1.3,1c0.6,0,1.1-0.3,1.5-0.9c0.4-0.7,0.6-1.5,0.7-2.6c0-0.5,0-1,0-1.4c0-0.4-0.1-0.8-0.2-1.1
	c-0.1-0.3-0.3-0.5-0.5-0.7C158.6,53,158.3,52.9,158,52.9z M153.3,56.3c0-0.8,0.2-1.5,0.4-2.1s0.6-1.2,1-1.6c0.4-0.4,0.9-0.7,1.5-1
	c0.6-0.2,1.2-0.3,1.9-0.3c1.3,0.1,2.3,0.5,3,1.4c0.7,0.9,1,2.1,0.9,3.6c0,0.8-0.2,1.5-0.5,2.2c-0.3,0.6-0.6,1.2-1,1.6
	c-0.4,0.4-0.9,0.8-1.5,1c-0.6,0.2-1.2,0.3-1.9,0.3c-0.6,0-1.2-0.2-1.7-0.4c-0.5-0.3-0.9-0.6-1.3-1.1c-0.3-0.4-0.6-1-0.7-1.6
	C153.4,57.7,153.3,57.1,153.3,56.3z M169.5,58c-0.3,0-0.6-0.1-0.8-0.1c-0.2,0-0.5,0-0.7-0.1c-0.2,0-0.5,0-0.7-0.1
	c-0.2,0-0.5,0-0.8-0.1c-0.3,0-0.6,0-0.8,0c-0.2,0-0.5,0-0.7,0c-0.2,0-0.5,0-0.7,0c-0.2,0-0.5,0-0.8,0l0.2-1.8c0.3,0,0.6,0.1,0.8,0.1
	c0.2,0,0.5,0.1,0.7,0.1c0.2,0,0.5,0,0.7,0c0.2,0,0.5,0,0.8,0c0.3,0,0.6,0,0.8,0c0.2,0,0.5,0,0.7,0c0.2,0,0.5,0,0.7,0
	c0.3,0,0.5,0,0.9,0L169.5,58z M174.1,60.3c0.4,0,0.6,0,0.8-0.2c0.2-0.1,0.3-0.3,0.3-0.6c0-0.2,0-0.3-0.1-0.4c0-0.1-0.1-0.2-0.3-0.3
	c-0.1-0.1-0.3-0.2-0.4-0.3c-0.2-0.1-0.4-0.2-0.7-0.3c-0.3-0.1-0.6-0.3-0.9-0.4c-0.3-0.2-0.6-0.4-0.8-0.6c-0.2-0.2-0.4-0.5-0.6-0.9
	c-0.1-0.4-0.2-0.8-0.2-1.3c0-0.6,0.2-1.1,0.4-1.5c0.3-0.4,0.6-0.7,0.9-0.8c0.4-0.2,0.7-0.3,1.1-0.3c0.4-0.1,0.8-0.1,1.1-0.1
	c0.4,0,0.8,0.1,1.2,0.2c0.4,0.1,0.8,0.2,1.1,0.3l-0.1,2c-0.2-0.1-0.4-0.2-0.7-0.2c-0.2-0.1-0.5-0.1-0.7-0.2
	c-0.2-0.1-0.4-0.1-0.7-0.1c-0.2,0-0.4-0.1-0.5-0.1c-0.8,0-1.3,0.2-1.3,0.8c0,0.4,0.1,0.7,0.5,0.9c0.3,0.2,0.8,0.4,1.3,0.7
	c0.3,0.1,0.6,0.3,0.9,0.5c0.3,0.2,0.5,0.4,0.7,0.6c0.2,0.2,0.4,0.5,0.5,0.9c0.1,0.3,0.2,0.8,0.1,1.2c-0.1,1-0.4,1.7-0.9,2.1
	c-0.6,0.4-1.3,0.6-2.1,0.6c-0.5,0-1-0.1-1.5-0.3c-0.5-0.2-1.1-0.4-1.6-0.7l0-2.2c0.2,0.1,0.4,0.3,0.6,0.4c0.3,0.1,0.5,0.2,0.8,0.3
	c0.3,0.1,0.6,0.2,0.9,0.3C173.6,60.3,173.9,60.3,174.1,60.3z M183.1,67.1c0-0.4,0.1-0.8,0.1-1.1c0-0.4,0.1-0.8,0.1-1.2
	c0-0.4,0.1-0.9,0.1-1.4c0-0.5,0.1-1.1,0.1-1.7c-0.4,0.3-0.8,0.6-1.2,0.8c-0.5,0.2-1,0.3-1.5,0.3c-0.3,0-0.7-0.1-1-0.2
	c-0.3-0.1-0.6-0.4-0.9-0.7c-0.2-0.3-0.4-0.8-0.6-1.3c-0.1-0.5-0.2-1.2-0.1-2c0.1-1,0.2-1.9,0.5-2.6c0.3-0.7,0.6-1.4,1-1.8
	c0.4-0.5,0.9-0.8,1.4-1c0.6-0.2,1.2-0.3,1.8-0.3c0.4,0,0.8,0.1,1.1,0.4c0.3,0.2,0.6,0.5,0.9,0.9l0.8-0.8l1,0.1
	c-0.1,0.3-0.2,0.6-0.3,1c-0.1,0.4-0.1,0.9-0.2,1.4c-0.1,0.6-0.1,1.2-0.2,2c0,0.8-0.1,1.7-0.2,2.8c-0.1,1.1-0.1,2.2-0.2,3.3
	c0,1.1-0.1,2.2-0.1,3.4L183.1,67.1z M182.3,60.6c0.3,0,0.5,0,0.7-0.1c0.2-0.1,0.4-0.2,0.6-0.3l0-0.7c0.1-1,0.1-1.9,0.1-2.7
	s0.1-1.5,0.1-2.2c-0.3-0.4-0.6-0.6-1.1-0.6c-0.6,0-1,0.3-1.4,1c-0.3,0.7-0.5,1.7-0.6,3c0,0.5,0,1,0,1.3c0.1,0.3,0.2,0.6,0.3,0.8
	c0.1,0.2,0.3,0.3,0.5,0.4C181.8,60.6,182,60.6,182.3,60.6z M194.4,63.5c-0.2-0.4-0.4-0.7-0.6-1c-0.1-0.3-0.2-0.6-0.3-0.9
	c-0.2,0.2-0.4,0.4-0.7,0.6c-0.2,0.2-0.5,0.4-0.8,0.5c-0.3,0.2-0.6,0.3-0.9,0.4c-0.3,0.1-0.6,0.1-1,0.1c-0.3,0-0.6-0.1-0.9-0.2
	c-0.3-0.1-0.5-0.3-0.8-0.6c-0.2-0.3-0.4-0.7-0.5-1.1c-0.1-0.5-0.2-1.1-0.1-1.8c0-0.2,0-0.4,0-0.8c0-0.4,0.1-0.7,0.1-1.1
	c0-0.4,0.1-0.8,0.1-1.1c0-0.4,0.1-0.6,0.1-0.8c0-0.4,0-0.8,0-1.2c0-0.4-0.1-0.7-0.2-1l2.7-0.3c0.1,0.3,0.1,0.6,0.1,1
	c0,0.3,0,0.7,0,0.9c0,0.4-0.1,0.7-0.1,1.1c0,0.4-0.1,0.7-0.1,1.1c0,0.3-0.1,0.7-0.1,1c0,0.3-0.1,0.6-0.1,0.8c0,0.8,0.1,1.3,0.3,1.6
	c0.2,0.3,0.6,0.5,1,0.5c0.4,0,0.7,0,1-0.1c0.3-0.1,0.5-0.3,0.8-0.4c0-0.2,0-0.5,0-0.8c0-0.3,0-0.6,0.1-1c0-0.6,0.1-1.1,0.1-1.6
	c0-0.5,0-0.9,0.1-1.3c0-0.4,0-0.8,0-1.2c0-0.4,0-0.8,0-1.1l2.6,0.1c0,0.3-0.1,0.7-0.1,1s-0.1,0.8-0.1,1.2c0,0.4-0.1,0.9-0.1,1.3
	c0,0.5-0.1,0.9-0.1,1.3c0,0.5,0,0.9,0,1.2c0,0.3,0,0.6,0.1,0.8c0.1,0.2,0.2,0.5,0.3,0.7c0.1,0.2,0.3,0.4,0.5,0.7L194.4,63.5z
	 M201.1,54c-0.1,0.3-0.1,0.6-0.1,0.8c0,0.3-0.1,0.6-0.1,0.9c0,0.3,0,0.7-0.1,1.1c0,0.4-0.1,0.9-0.1,1.5c0,0.6-0.1,1.1-0.1,1.6
	c0,0.5-0.1,0.9-0.1,1.3c0,0.4,0,0.8,0,1.2c0,0.4,0,0.7,0,1.1l-2.6-0.1c0-0.5,0.1-0.9,0.1-1.3c0-0.4,0.1-0.7,0.1-1.1
	c0-0.4,0.1-0.9,0.1-1.4c0-0.5,0.1-1.2,0.1-1.9c0-0.7,0.1-1.3,0.1-2c0-0.6,0-1.3,0-2L201.1,54z M198.5,50.7c0-0.4,0.2-0.7,0.4-0.9
	c0.3-0.3,0.6-0.4,1.1-0.3c0.4,0,0.7,0.1,0.9,0.4c0.3,0.2,0.4,0.5,0.4,0.9c0,0.4-0.2,0.7-0.5,0.9c-0.3,0.2-0.6,0.3-1.1,0.3
	c-0.4,0-0.7-0.1-0.9-0.3C198.6,51.3,198.5,51,198.5,50.7z M204.4,53.8c0.2,0.4,0.4,0.8,0.6,1.2c0.1,0.3,0.2,0.7,0.3,1
	c0.1-0.2,0.3-0.4,0.5-0.6c0.2-0.2,0.4-0.4,0.7-0.6c0.3-0.2,0.5-0.4,0.8-0.5c0.3-0.1,0.6-0.2,1-0.3l0,2.8c-0.6,0-1.2,0-1.8,0.1
	c-0.5,0.1-0.9,0.2-1.2,0.5c0,0.2,0,0.5,0,0.8c0,0.3,0,0.6-0.1,1c0,0.4,0,0.9-0.1,1.3c0,0.5,0,0.9,0,1.4c0,0.4,0,0.8,0,1.2
	c0,0.4,0,0.7,0,0.9l-2.7-0.2c0-0.3,0.1-0.6,0.1-0.9c0-0.4,0.1-0.7,0.1-1.1c0-0.4,0.1-0.8,0.1-1.2c0-0.4,0.1-0.8,0.1-1.2
	c0-0.6,0-1.1,0-1.5c0-0.4,0-0.7-0.1-1c-0.1-0.3-0.1-0.6-0.3-0.8c-0.1-0.2-0.3-0.5-0.5-0.8L204.4,53.8z M211.1,54.2
	c0.2,0.4,0.4,0.8,0.6,1.2c0.1,0.3,0.2,0.7,0.3,1c0.1-0.2,0.3-0.4,0.5-0.6c0.2-0.2,0.4-0.4,0.7-0.6c0.3-0.2,0.5-0.4,0.8-0.5
	c0.3-0.1,0.6-0.2,1-0.3l0,2.8c-0.6,0-1.2,0-1.8,0.1c-0.5,0.1-0.9,0.2-1.2,0.5c0,0.2,0,0.5,0,0.8c0,0.3,0,0.6-0.1,1
	c0,0.4,0,0.9-0.1,1.3c0,0.5,0,0.9,0,1.4c0,0.4,0,0.8,0,1.2c0,0.4,0,0.7,0,0.9l-2.7-0.2c0-0.3,0.1-0.6,0.1-0.9c0-0.4,0.1-0.7,0.1-1.1
	c0-0.4,0.1-0.8,0.1-1.2c0-0.4,0.1-0.8,0.1-1.2c0-0.6,0-1.1,0-1.5c0-0.4,0-0.7-0.1-1c-0.1-0.3-0.1-0.6-0.3-0.8
	c-0.1-0.2-0.3-0.5-0.5-0.8L211.1,54.2z M217.8,60.2c0,1,0.2,1.7,0.5,2.1c0.3,0.4,0.8,0.6,1.5,0.7c0.5,0,1,0,1.5-0.2
	c0.5-0.1,0.9-0.2,1.2-0.4l-0.1,1.6c-0.4,0.4-1,0.6-1.6,0.7c-0.6,0.1-1.2,0.2-1.8,0.1c-0.5,0-0.9-0.1-1.4-0.3
	c-0.5-0.1-0.9-0.4-1.2-0.7c-0.3-0.4-0.6-0.8-0.8-1.4c-0.2-0.6-0.3-1.4-0.2-2.3c0.1-0.9,0.2-1.8,0.5-2.4c0.3-0.7,0.6-1.3,1-1.7
	c0.4-0.4,0.9-0.8,1.5-1c0.6-0.2,1.2-0.3,1.8-0.2c0.7,0,1.2,0.2,1.6,0.4c0.4,0.2,0.7,0.5,0.9,0.9c0.2,0.4,0.4,0.8,0.4,1.2
	c0.1,0.4,0.1,0.8,0.1,1.2c0,0.4-0.1,0.8-0.2,1.1c-0.1,0.3-0.2,0.6-0.3,0.8L217.8,60.2z M219.7,56.2c-0.5,0-0.9,0.2-1.2,0.6
	c-0.3,0.4-0.5,1.1-0.6,2l3.2,0.2c0-0.1,0-0.1,0-0.2c0-0.1,0-0.1,0-0.2c0-0.2,0-0.4,0-0.7c0-0.3-0.1-0.5-0.2-0.8
	c-0.1-0.2-0.3-0.4-0.4-0.6C220.3,56.3,220,56.2,219.7,56.2z M227.6,50.2c-0.1,0.4-0.1,0.9-0.2,1.4c0,0.5-0.1,1-0.1,1.6
	c0,0.6-0.1,1.2-0.1,1.9c0,0.7-0.1,1.5-0.1,2.4c0,0.9-0.1,1.6-0.1,2.3c0,0.7-0.1,1.3-0.1,1.9c0,0.6,0,1.2-0.1,1.7
	c0,0.5,0,1.1-0.1,1.6l-2.6-0.1c0.1-0.7,0.1-1.3,0.1-1.8c0.1-0.5,0.1-1,0.1-1.6c0-0.6,0.1-1.2,0.1-1.9c0.1-0.7,0.1-1.6,0.2-2.7
	c0.1-1.1,0.1-2.2,0.2-3.3c0-1.1,0.1-2.2,0.1-3.4L227.6,50.2z M228.6,64.1c0-0.4,0.2-0.7,0.5-1c0.3-0.3,0.7-0.4,1.2-0.4
	c0.4,0,0.8,0.2,1,0.4c0.3,0.2,0.4,0.6,0.4,1c0,0.4-0.2,0.7-0.5,1c-0.3,0.2-0.7,0.3-1.2,0.3c-0.4,0-0.8-0.2-1-0.4
	C228.7,64.9,228.6,64.5,228.6,64.1z M229,57c0-0.4,0.2-0.7,0.5-1c0.3-0.3,0.7-0.4,1.2-0.4c0.4,0,0.8,0.2,1,0.4
	c0.3,0.2,0.4,0.6,0.4,1c0,0.4-0.2,0.7-0.5,1c-0.3,0.2-0.7,0.3-1.2,0.3c-0.4,0-0.8-0.2-1-0.4C229.1,57.7,229,57.4,229,57z M45,59.5
	c0,0.3-0.1,0.5-0.1,0.8c0,0.3-0.1,0.6-0.1,0.8c0.6,0.1,1.1,0.1,1.6,0.3c0.5,0.1,0.9,0.2,1.3,0.4l-0.1,2c-0.5-0.2-1.1-0.3-1.6-0.5
	c-0.5-0.1-1-0.2-1.5-0.3c0,0.5-0.1,1-0.1,1.7c0,0.7-0.1,1.5-0.1,2.4c0.5,0.2,1,0.4,1.5,0.6c0.5,0.2,0.9,0.5,1.3,0.8
	c0.4,0.3,0.7,0.7,0.9,1.2c0.2,0.5,0.3,1,0.3,1.7c0,0.6-0.2,1.1-0.4,1.6c-0.2,0.5-0.5,0.8-0.9,1.2c-0.4,0.3-0.8,0.5-1.3,0.7
	c-0.5,0.2-1,0.3-1.6,0.3l-0.1,2.3l-1.7-0.2l0.2-2.3c-0.6-0.1-1.2-0.2-1.8-0.4c-0.6-0.2-1.2-0.4-1.8-0.6l0-2.2
	c0.2,0.1,0.4,0.2,0.7,0.3c0.3,0.1,0.6,0.2,0.9,0.3c0.3,0.1,0.7,0.2,1,0.3c0.4,0.1,0.7,0.1,1.1,0.2l0.2-4.1c-0.6-0.2-1.2-0.5-1.6-0.7
	c-0.5-0.2-0.9-0.5-1.2-0.8c-0.3-0.3-0.6-0.7-0.8-1.1c-0.2-0.4-0.2-0.9-0.2-1.5c0-0.7,0.2-1.2,0.4-1.7c0.3-0.5,0.6-0.8,1-1.1
	c0.4-0.3,0.8-0.5,1.3-0.6c0.5-0.1,0.9-0.2,1.4-0.3l0-1.5L45,59.5z M45.8,71.4c0-0.5-0.1-0.8-0.4-1.1c-0.3-0.3-0.7-0.6-1.2-0.8
	L44,73.1C45.2,73,45.8,72.4,45.8,71.4z M41.4,64.8c0,0.2,0,0.4,0.1,0.6c0.1,0.2,0.2,0.4,0.4,0.5c0.1,0.2,0.3,0.3,0.5,0.4
	c0.2,0.1,0.4,0.2,0.6,0.3l0.2-3.6c-0.6,0.1-1,0.3-1.3,0.6C41.6,64,41.5,64.4,41.4,64.8z M61.4,62.3c-0.1,0.4-0.1,0.8-0.2,1.3
	c0,0.4-0.1,0.9-0.1,1.4c0,0.5-0.1,1.1-0.1,1.7c0,0.6-0.1,1.4-0.1,2.2c0,0.8-0.1,1.5-0.1,2.1c0,0.6-0.1,1.2-0.1,1.7
	c0,0.5,0,1.1-0.1,1.5c0,0.5,0,1,0,1.5l-3.9,0c-0.8-1.8-1.5-3.7-2.2-5.6c-0.7-2-1.3-4-1.8-6.1c0,0.2,0,0.5-0.1,0.9
	c0,0.3,0,0.7-0.1,1.1c0,0.4,0,0.8-0.1,1.2c0,0.4,0,0.8-0.1,1.2c0,0.8-0.1,1.5-0.1,2.1c0,0.6,0,1.2-0.1,1.7c0,0.5,0,1.1,0,1.5
	c0,0.5,0,1,0,1.5l-2.6-0.1c0-0.6,0.1-1.2,0.1-1.6c0.1-0.5,0.1-1,0.1-1.5c0-0.5,0.1-1.1,0.1-1.8c0-0.7,0.1-1.5,0.2-2.5
	c0.1-1,0.1-2,0.1-3c0-1,0.1-2,0.1-3.1l4.3-0.2c0.3,1.7,0.7,3.6,1.3,5.6c0.6,2,1.3,4.3,2.2,6.6c0.1-0.6,0.1-1.4,0.2-2.3
	c0.1-0.9,0.1-2,0.2-3.3c0.1-1,0.1-2,0.1-3c0-1,0-2,0.1-3.1L61.4,62.3z M65.8,71.4c0,0.6,0,1,0.1,1.4c0.1,0.4,0.3,0.7,0.5,1
	c0.2,0.3,0.5,0.5,0.8,0.6c0.3,0.1,0.6,0.2,1,0.2c0.3,0,0.6,0,0.9-0.1c0.3-0.1,0.6-0.3,0.9-0.5c0.3-0.2,0.5-0.6,0.7-0.9
	c0.2-0.4,0.3-0.8,0.3-1.4c0-0.4,0.1-0.8,0.1-1.3c0-0.5,0.1-1.1,0.1-1.8c0.1-0.9,0.1-1.8,0.1-2.7c0-0.9,0.1-1.9,0.1-2.8l2.8,0
	c-0.1,0.4-0.1,0.8-0.2,1.2c0,0.4-0.1,0.8-0.1,1.3c0,0.5-0.1,1-0.1,1.6c0,0.6-0.1,1.3-0.1,2l-0.1,2.5c0,0.8-0.2,1.5-0.6,2.1
	c-0.3,0.6-0.7,1.1-1.2,1.5c-0.5,0.4-1.1,0.7-1.7,0.9c-0.7,0.2-1.3,0.3-2,0.2c-0.7,0-1.4-0.2-2-0.5c-0.6-0.3-1.1-0.6-1.6-1.1
	c-0.4-0.5-0.8-1-1-1.6c-0.2-0.6-0.3-1.4-0.3-2.1c0-0.4,0.1-0.8,0.1-1.3c0-0.5,0.1-1,0.1-1.7c0.1-0.9,0.1-1.8,0.1-2.7
	c0-0.9,0.1-1.9,0.1-2.8l2.8,0c-0.1,0.4-0.1,0.8-0.2,1.2c0,0.4-0.1,0.8-0.1,1.3c0,0.5-0.1,1-0.1,1.6c0,0.6-0.1,1.3-0.1,2L65.8,71.4z
	 M85.4,65.6l-3.8-0.2c-0.1,0.6-0.1,1.3-0.2,2c0,0.7-0.1,1.6-0.2,2.7c0,0.8-0.1,1.5-0.1,2.1c0,0.6-0.1,1.2-0.1,1.7
	c0,0.5,0,1.1-0.1,1.5c0,0.5,0,1,0,1.5l-2.7-0.2c0-0.6,0.1-1.2,0.1-1.6c0.1-0.5,0.1-1,0.1-1.5c0-0.5,0.1-1.1,0.1-1.8
	c0-0.7,0.1-1.5,0.2-2.5c0-0.7,0.1-1.4,0.1-2.1c0-0.7,0.1-1.4,0.1-2.2L75.2,65l0.1-1.9l10.2,0.6L85.4,65.6z M95.2,65.3
	c-0.4,0.5-0.9,1.1-1.4,2c-0.5,0.8-1.1,1.7-1.7,2.6c-0.6,0.9-1.2,1.9-1.8,2.9c-0.6,1-1.1,1.9-1.6,2.7l6,0.3L94.3,78
	c-0.2,0-0.5-0.1-1.1-0.2c-0.5-0.1-1.1-0.1-1.8-0.2c-0.7-0.1-1.4-0.1-2.2-0.2s-1.5-0.1-2.1-0.1l-2-0.1L85,75.9c0.4-0.6,0.9-1.2,1.5-2
	c0.5-0.8,1.1-1.6,1.7-2.5c0.6-0.9,1.2-1.8,1.8-2.7c0.6-0.9,1.2-1.9,1.7-2.8l-5.4-0.3l-0.1-2.2c0.2,0,0.7,0.1,1.2,0.1
	c0.6,0.1,1.2,0.1,2,0.2c0.7,0.1,1.5,0.1,2.2,0.2c0.8,0.1,1.4,0.1,2,0.1l1.4,0.1L95.2,65.3z M102.8,68.5c-0.1,0.3-0.1,0.6-0.1,0.8
	c0,0.3-0.1,0.6-0.1,0.9c0,0.3,0,0.7-0.1,1.1c0,0.4-0.1,0.9-0.1,1.5s-0.1,1.1-0.1,1.6c0,0.5-0.1,0.9-0.1,1.3c0,0.4,0,0.8,0,1.2
	c0,0.4,0,0.7,0,1.1L99.6,78c0-0.5,0.1-0.9,0.1-1.3c0-0.4,0.1-0.7,0.1-1.1c0-0.4,0.1-0.9,0.1-1.4c0-0.5,0.1-1.2,0.1-1.9
	c0-0.7,0.1-1.3,0.1-2c0-0.6,0-1.3,0-2L102.8,68.5z M100.3,65.2c0-0.4,0.2-0.7,0.4-0.9c0.3-0.3,0.6-0.4,1.1-0.3
	c0.4,0,0.7,0.1,0.9,0.4c0.3,0.2,0.4,0.5,0.4,0.9c0,0.4-0.2,0.7-0.5,0.9c-0.3,0.2-0.6,0.3-1.1,0.3c-0.4,0-0.7-0.1-0.9-0.3
	C100.4,65.9,100.3,65.6,100.3,65.2z M107,76.6c0.4,0,0.6,0,0.8-0.2c0.2-0.1,0.3-0.3,0.3-0.6c0-0.2,0-0.3-0.1-0.4
	c0-0.1-0.1-0.2-0.3-0.3c-0.1-0.1-0.3-0.2-0.5-0.3c-0.2-0.1-0.4-0.2-0.7-0.3c-0.3-0.1-0.6-0.3-0.9-0.4c-0.3-0.2-0.6-0.4-0.8-0.6
	c-0.2-0.2-0.4-0.5-0.6-0.9c-0.1-0.4-0.2-0.8-0.2-1.3c0-0.6,0.2-1.1,0.4-1.5c0.3-0.4,0.6-0.7,0.9-0.8c0.4-0.2,0.7-0.3,1.1-0.3
	c0.4-0.1,0.8-0.1,1.1-0.1c0.4,0,0.8,0.1,1.2,0.2c0.4,0.1,0.8,0.2,1.1,0.3l-0.1,2c-0.2-0.1-0.4-0.2-0.7-0.2c-0.2-0.1-0.5-0.1-0.7-0.2
	c-0.2-0.1-0.4-0.1-0.7-0.1c-0.2,0-0.4-0.1-0.5-0.1c-0.8,0-1.3,0.2-1.3,0.8c0,0.4,0.1,0.7,0.5,0.9c0.3,0.2,0.8,0.4,1.3,0.7
	c0.3,0.1,0.6,0.3,0.9,0.5c0.3,0.2,0.5,0.4,0.7,0.6c0.2,0.2,0.4,0.5,0.5,0.9c0.1,0.3,0.2,0.8,0.1,1.2c-0.1,1-0.4,1.7-0.9,2.1
	c-0.6,0.4-1.3,0.6-2.1,0.6c-0.5,0-1-0.1-1.5-0.3c-0.5-0.2-1.1-0.4-1.6-0.7l0-2.2c0.2,0.1,0.4,0.3,0.6,0.4c0.3,0.1,0.5,0.2,0.8,0.3
	c0.3,0.1,0.6,0.2,0.9,0.3C106.5,76.6,106.8,76.6,107,76.6z M117.1,79.2c-0.8,0-1.5-0.4-1.9-0.9c-0.5-0.6-0.7-1.3-0.6-2.2
	c0.1-0.9,0.4-1.7,0.9-2.2c0.6-0.5,1.3-0.8,2.2-0.7c0.4,0,0.7,0.1,1.1,0.2c0.4,0.1,0.7,0.3,1,0.5l0.1-1.1c0-0.6-0.1-1-0.3-1.3
	c-0.2-0.3-0.6-0.4-1.2-0.4c-0.4,0-0.8,0-1.2,0.1c-0.4,0.1-0.8,0.2-1,0.3l-0.5-1.9c0.2-0.1,0.4-0.1,0.7-0.2c0.3-0.1,0.6-0.1,0.9-0.1
	c0.3,0,0.6-0.1,1-0.1c0.3,0,0.6,0,0.9,0c2.3,0.1,3.3,1.3,3.2,3.5c0,0.2,0,0.5-0.1,0.8c0,0.4-0.1,0.8-0.1,1.2c0,0.4-0.1,0.8-0.1,1.1
	c0,0.3-0.1,0.6-0.1,0.7c0,0.3,0,0.5,0.1,0.6c0.1,0.1,0.2,0.2,0.5,0.2c0.2,0,0.4,0,0.6,0l-0.4,1.8c-0.2,0.1-0.4,0.1-0.6,0.1
	c-0.2,0-0.3,0-0.5,0c-0.5,0-0.9-0.2-1.2-0.5c-0.3-0.3-0.5-0.7-0.5-1.2c-0.3,0.5-0.7,0.9-1.1,1.1C118.2,79.2,117.7,79.3,117.1,79.2z
	 M118.2,77.5c0.4,0,0.8-0.1,1.1-0.4c0.3-0.3,0.5-0.6,0.5-1.1c0-0.4-0.1-0.7-0.3-0.9c-0.2-0.2-0.5-0.4-0.9-0.4c-0.4,0-0.8,0.1-1,0.3
	c-0.3,0.2-0.4,0.6-0.4,1c0,0.4,0.1,0.8,0.3,1C117.5,77.4,117.8,77.5,118.2,77.5z M127.5,64.7c-0.1,0.4-0.1,0.9-0.2,1.4
	c0,0.5-0.1,1-0.1,1.6c0,0.6-0.1,1.2-0.1,1.9c0,0.7-0.1,1.5-0.1,2.4c0,0.9-0.1,1.6-0.1,2.3c0,0.7-0.1,1.3-0.1,1.9
	c0,0.6,0,1.2-0.1,1.7c0,0.5,0,1.1-0.1,1.6l-2.6-0.1c0.1-0.7,0.1-1.3,0.1-1.8c0.1-0.5,0.1-1,0.1-1.6c0-0.6,0.1-1.2,0.1-1.9
	c0.1-0.7,0.1-1.6,0.2-2.7c0.1-1.1,0.1-2.2,0.2-3.3c0-1.1,0.1-2.2,0.1-3.4L127.5,64.7z M130.6,69.7c0.2,0.4,0.4,0.8,0.6,1.2
	c0.1,0.3,0.2,0.7,0.3,1c0.1-0.2,0.3-0.4,0.5-0.6c0.2-0.2,0.4-0.4,0.7-0.6c0.3-0.2,0.5-0.4,0.8-0.5c0.3-0.1,0.6-0.2,1-0.3l0,2.8
	c-0.6,0-1.2,0-1.8,0.1c-0.5,0.1-0.9,0.2-1.2,0.5c0,0.2,0,0.5,0,0.8c0,0.3,0,0.6-0.1,1c0,0.4,0,0.9-0.1,1.3c0,0.5,0,0.9,0,1.4
	c0,0.4,0,0.8,0,1.2c0,0.4,0,0.7,0,0.9l-2.7-0.2c0-0.3,0.1-0.6,0.1-0.9c0-0.4,0.1-0.7,0.1-1.1c0-0.4,0.1-0.8,0.1-1.2
	c0-0.4,0.1-0.8,0.1-1.2c0-0.6,0-1.1,0-1.5c0-0.4,0-0.7-0.1-1c-0.1-0.3-0.2-0.6-0.3-0.8c-0.1-0.2-0.3-0.5-0.5-0.8L130.6,69.7z
	 M137.3,75.8c0,1,0.2,1.7,0.5,2.1c0.3,0.4,0.8,0.6,1.5,0.7c0.5,0,1,0,1.5-0.2c0.5-0.1,0.9-0.2,1.2-0.4l-0.1,1.6
	c-0.4,0.4-1,0.6-1.6,0.7c-0.6,0.1-1.2,0.2-1.8,0.1c-0.5,0-0.9-0.1-1.4-0.3c-0.5-0.1-0.9-0.4-1.2-0.7c-0.3-0.4-0.6-0.8-0.8-1.4
	c-0.2-0.6-0.3-1.4-0.2-2.3c0.1-0.9,0.2-1.8,0.5-2.4c0.3-0.7,0.6-1.3,1-1.7c0.4-0.4,0.9-0.8,1.5-1c0.6-0.2,1.2-0.3,1.8-0.2
	c0.7,0,1.2,0.2,1.6,0.4c0.4,0.2,0.7,0.5,0.9,0.9c0.2,0.4,0.4,0.8,0.4,1.2c0.1,0.4,0.1,0.8,0.1,1.2c0,0.4-0.1,0.8-0.2,1.1
	c-0.1,0.3-0.2,0.6-0.3,0.8L137.3,75.8z M139.2,71.7c-0.5,0-0.9,0.2-1.2,0.6c-0.3,0.4-0.5,1.1-0.6,2l3.2,0.2c0-0.1,0-0.1,0-0.2
	c0-0.1,0-0.1,0-0.2c0-0.2,0-0.4,0-0.7c0-0.3-0.1-0.5-0.2-0.8c-0.1-0.2-0.3-0.4-0.5-0.6C139.8,71.8,139.6,71.8,139.2,71.7z
	 M145.7,80.8c-0.8,0-1.5-0.4-1.9-0.9c-0.5-0.6-0.7-1.3-0.6-2.2c0.1-0.9,0.4-1.7,0.9-2.2c0.6-0.5,1.3-0.8,2.2-0.7
	c0.4,0,0.7,0.1,1.1,0.2c0.4,0.1,0.7,0.3,1,0.5l0.1-1.1c0-0.6-0.1-1-0.3-1.3c-0.2-0.3-0.6-0.4-1.2-0.4c-0.4,0-0.8,0-1.2,0.1
	c-0.4,0.1-0.8,0.2-1,0.3l-0.5-1.9c0.2-0.1,0.4-0.1,0.7-0.2c0.3-0.1,0.6-0.1,0.9-0.1c0.3,0,0.6-0.1,1-0.1c0.3,0,0.6,0,0.9,0
	c2.3,0.1,3.3,1.3,3.2,3.5c0,0.2,0,0.5-0.1,0.8c0,0.4-0.1,0.8-0.1,1.2c0,0.4-0.1,0.8-0.1,1.1c0,0.3-0.1,0.6-0.1,0.7
	c0,0.3,0,0.5,0.1,0.6c0.1,0.1,0.2,0.2,0.5,0.2c0.2,0,0.4,0,0.6,0l-0.4,1.8c-0.2,0.1-0.4,0.1-0.6,0.1c-0.2,0-0.3,0-0.5,0
	c-0.5,0-0.9-0.2-1.2-0.5c-0.3-0.3-0.5-0.7-0.5-1.2c-0.3,0.5-0.7,0.9-1.1,1.1C146.8,80.8,146.3,80.9,145.7,80.8z M146.7,79.1
	c0.4,0,0.8-0.1,1.1-0.4c0.3-0.3,0.5-0.6,0.5-1.1c0-0.4-0.1-0.7-0.3-0.9c-0.2-0.2-0.5-0.4-0.9-0.4c-0.4,0-0.8,0.1-1,0.3
	c-0.3,0.2-0.4,0.6-0.4,1c0,0.4,0.1,0.8,0.3,1C146.1,78.9,146.4,79.1,146.7,79.1z M159.3,81.6c-0.3-0.4-0.6-0.7-0.8-0.9
	c-0.2-0.3-0.4-0.5-0.5-0.8c-0.2,0.2-0.4,0.4-0.7,0.5c-0.2,0.2-0.5,0.3-0.7,0.5c-0.3,0.1-0.5,0.2-0.8,0.3c-0.3,0.1-0.6,0.1-0.9,0.1
	c-0.3,0-0.7-0.1-1-0.2c-0.3-0.1-0.6-0.4-0.9-0.7c-0.2-0.3-0.4-0.8-0.6-1.3c-0.1-0.5-0.2-1.2-0.1-2c0.1-1,0.2-1.9,0.5-2.6
	c0.3-0.7,0.6-1.4,1-1.8c0.4-0.5,0.9-0.8,1.4-1c0.6-0.2,1.2-0.3,1.8-0.3c0.4,0,0.8,0.1,1.1,0.4c0-1,0.1-2,0.1-2.8
	c0-0.8,0.1-1.6,0.1-2.3l2.6-0.1c-0.2,1.6-0.3,3.2-0.4,5c-0.1,1.7-0.2,3.5-0.3,5.2c0,0.5,0,0.9,0,1.2c0,0.3,0,0.6,0.1,0.8
	c0.1,0.2,0.2,0.5,0.3,0.7c0.1,0.2,0.3,0.4,0.5,0.7L159.3,81.6z M156.4,79.2c0.3,0,0.5,0,0.8-0.1c0.2-0.1,0.5-0.2,0.7-0.4
	c0-0.2,0-0.5,0-0.8c0-0.3,0-0.7,0.1-1.1l0.2-3.6c-0.3-0.4-0.7-0.6-1.2-0.6c-0.6,0-1,0.3-1.4,1c-0.3,0.7-0.5,1.7-0.6,3
	c0,0.5,0,1,0,1.3c0.1,0.3,0.2,0.6,0.3,0.8c0.1,0.2,0.3,0.3,0.5,0.4C155.9,79.1,156.1,79.2,156.4,79.2z M170.9,72.1
	c-0.4,1.3-0.9,2.6-1.4,3.8c-0.5,1.2-1,2.3-1.5,3.5c-0.5,1.1-1,2.2-1.6,3.3c-0.5,1.1-1.1,2.2-1.7,3.2l-2.7,0.1c0.5-0.8,1-1.5,1.5-2.2
	c0.5-0.7,0.9-1.5,1.3-2.2c-0.7-1.5-1.3-3-1.8-4.6c-0.5-1.6-0.9-3.3-1.2-5.1l2.5-0.1c0.1,0.7,0.2,1.4,0.3,2.1c0.1,0.7,0.2,1.4,0.4,2
	c0.1,0.7,0.3,1.3,0.5,1.8c0.2,0.6,0.4,1.1,0.6,1.5c0.5-1.3,1-2.5,1.3-3.6c0.3-1.1,0.7-2.3,1-3.4L170.9,72.1z M177.9,72.7
	c-0.1,0.3-0.1,0.6-0.1,0.8c0,0.3-0.1,0.6-0.1,0.9c0,0.3,0,0.7-0.1,1.1c0,0.4-0.1,0.9-0.1,1.5c0,0.6-0.1,1.1-0.1,1.6
	c0,0.5-0.1,0.9-0.1,1.3c0,0.4,0,0.8,0,1.2c0,0.4,0,0.7,0,1.1l-2.6-0.1c0-0.5,0.1-0.9,0.1-1.3c0-0.4,0.1-0.7,0.1-1.1
	c0-0.4,0.1-0.9,0.1-1.4c0-0.5,0.1-1.2,0.1-1.9c0-0.7,0.1-1.3,0.1-2c0-0.6,0-1.3,0-2L177.9,72.7z M175.3,69.4c0-0.4,0.2-0.7,0.4-0.9
	c0.3-0.3,0.6-0.4,1.1-0.3c0.4,0,0.7,0.1,0.9,0.4c0.3,0.2,0.4,0.5,0.4,0.9c0,0.4-0.2,0.7-0.5,0.9c-0.3,0.2-0.6,0.3-1.1,0.3
	c-0.4,0-0.7-0.1-0.9-0.3C175.4,70.1,175.3,69.8,175.3,69.4z M181.2,72.7c0.2,0.4,0.4,0.7,0.6,1c0.1,0.3,0.2,0.6,0.3,0.9
	c0.2-0.2,0.4-0.4,0.7-0.6c0.3-0.2,0.5-0.4,0.8-0.6c0.3-0.2,0.6-0.3,0.9-0.4c0.3-0.1,0.7-0.1,1-0.1c0.3,0,0.6,0.1,0.9,0.2
	c0.3,0.1,0.6,0.3,0.8,0.6c0.2,0.3,0.4,0.7,0.5,1.1c0.1,0.5,0.2,1.1,0.1,1.8c0,0.2,0,0.4-0.1,0.8c0,0.3,0,0.7-0.1,1.1
	c0,0.4-0.1,0.8-0.1,1.1c0,0.4,0,0.6,0,0.8c0,0.4,0,0.8,0,1.2c0,0.4,0.1,0.7,0.3,1l-2.7,0.3c-0.1-0.3-0.1-0.6-0.1-1
	c0-0.3,0-0.7,0-0.9c0-0.4,0-0.7,0.1-1.1c0-0.4,0.1-0.8,0.1-1.1c0-0.4,0.1-0.7,0.1-1c0-0.3,0.1-0.6,0.1-0.8c0-0.8-0.1-1.3-0.3-1.6
	c-0.2-0.3-0.6-0.5-1-0.5c-0.4,0-0.7,0-1.1,0.1c-0.3,0.1-0.6,0.2-0.9,0.4c0,0.2,0,0.5,0,0.8c0,0.3,0,0.6-0.1,1c0,0.6-0.1,1.1-0.1,1.6
	c0,0.5-0.1,0.9-0.1,1.3c0,0.4,0,0.8,0,1.2c0,0.4,0,0.7,0,1.1l-2.6-0.1c0-0.3,0.1-0.7,0.1-1c0-0.4,0.1-0.8,0.1-1.2
	c0.1-0.4,0.1-0.9,0.1-1.3c0-0.5,0.1-0.9,0.1-1.3c0-0.5,0-0.9,0-1.2c0-0.3,0-0.6-0.1-0.8c-0.1-0.2-0.2-0.5-0.3-0.7
	c-0.1-0.2-0.3-0.5-0.5-0.7L181.2,72.7z M201.4,73.8c-0.4,1.3-0.9,2.6-1.4,3.8c-0.5,1.2-1,2.3-1.5,3.5c-0.5,1.1-1,2.2-1.6,3.3
	c-0.5,1.1-1.1,2.2-1.7,3.2l-2.7,0.1c0.5-0.8,1-1.5,1.5-2.2c0.5-0.7,0.9-1.5,1.3-2.2c-0.7-1.5-1.3-3-1.8-4.6
	c-0.5-1.6-0.9-3.3-1.2-5.1l2.5-0.1c0.1,0.7,0.2,1.4,0.3,2.1c0.1,0.7,0.2,1.4,0.4,2c0.1,0.7,0.3,1.3,0.5,1.8c0.2,0.6,0.4,1.1,0.6,1.5
	c0.5-1.3,1-2.5,1.3-3.6c0.3-1.1,0.7-2.3,1-3.4L201.4,73.8z M206,75.6c-0.6,0-1.1,0.3-1.4,0.9c-0.4,0.6-0.6,1.5-0.6,2.6
	c-0.1,1.1,0,1.9,0.2,2.6c0.2,0.6,0.7,0.9,1.3,1c0.6,0,1.1-0.3,1.5-0.9c0.4-0.7,0.6-1.5,0.7-2.6c0-0.5,0-1,0-1.4
	c0-0.4-0.1-0.8-0.2-1.1c-0.1-0.3-0.3-0.5-0.5-0.7C206.7,75.7,206.4,75.6,206,75.6z M201.4,79c0-0.8,0.2-1.5,0.4-2.1
	c0.3-0.6,0.6-1.2,1-1.6c0.4-0.4,0.9-0.7,1.5-1c0.6-0.2,1.2-0.3,1.9-0.3c1.3,0.1,2.3,0.5,3,1.4c0.7,0.9,1,2.1,0.9,3.6
	c0,0.8-0.2,1.5-0.5,2.2c-0.3,0.6-0.6,1.2-1,1.6c-0.4,0.4-0.9,0.8-1.5,1c-0.6,0.2-1.2,0.3-1.9,0.3c-0.6,0-1.2-0.2-1.7-0.4
	c-0.5-0.3-0.9-0.6-1.3-1.1c-0.3-0.4-0.6-1-0.7-1.6C201.4,80.4,201.4,79.8,201.4,79z M217.8,84.8c-0.2-0.4-0.4-0.7-0.6-1
	c-0.1-0.3-0.2-0.6-0.3-0.9c-0.2,0.2-0.4,0.4-0.7,0.6c-0.2,0.2-0.5,0.4-0.8,0.5c-0.3,0.2-0.6,0.3-0.9,0.4c-0.3,0.1-0.6,0.1-1,0.1
	c-0.3,0-0.6-0.1-0.9-0.2c-0.3-0.1-0.5-0.3-0.8-0.6c-0.2-0.3-0.4-0.7-0.5-1.1c-0.1-0.5-0.2-1.1-0.1-1.8c0-0.2,0-0.4,0-0.8
	c0-0.4,0.1-0.7,0.1-1.1c0-0.4,0.1-0.8,0.1-1.1c0-0.4,0.1-0.6,0.1-0.8c0-0.4,0-0.8,0-1.2c0-0.4-0.1-0.7-0.2-1l2.7-0.3
	c0.1,0.3,0.1,0.6,0.1,1c0,0.3,0,0.7,0,0.9c0,0.4-0.1,0.7-0.1,1.1c0,0.4-0.1,0.7-0.1,1.1c0,0.3-0.1,0.7-0.1,1c0,0.3-0.1,0.6-0.1,0.8
	c0,0.8,0.1,1.3,0.3,1.6c0.2,0.3,0.6,0.5,1,0.5c0.4,0,0.7,0,1-0.1c0.3-0.1,0.5-0.3,0.8-0.4c0-0.2,0-0.5,0-0.8c0-0.3,0-0.6,0.1-1
	c0-0.6,0.1-1.1,0.1-1.6c0-0.5,0-0.9,0.1-1.3c0-0.4,0-0.8,0-1.2c0-0.4,0-0.8,0-1.1l2.6,0.1c0,0.3-0.1,0.7-0.1,1
	c0,0.4-0.1,0.8-0.1,1.2c0,0.4-0.1,0.9-0.1,1.3c0,0.5-0.1,0.9-0.1,1.3c0,0.5,0,0.9,0,1.2c0,0.3,0,0.6,0.1,0.8
	c0.1,0.2,0.2,0.5,0.3,0.7c0.1,0.2,0.3,0.4,0.5,0.7L217.8,84.8z M223.3,74.9c0.2,0.4,0.4,0.8,0.6,1.2c0.1,0.3,0.2,0.7,0.3,1
	c0.1-0.2,0.3-0.4,0.5-0.6c0.2-0.2,0.4-0.4,0.7-0.6c0.3-0.2,0.5-0.4,0.8-0.5c0.3-0.1,0.6-0.2,1-0.3l0,2.8c-0.6,0-1.2,0-1.8,0.1
	c-0.5,0.1-0.9,0.2-1.2,0.5c0,0.2,0,0.5,0,0.8c0,0.3,0,0.6-0.1,1c0,0.4,0,0.9-0.1,1.3c0,0.5,0,0.9,0,1.4c0,0.4,0,0.8,0,1.2
	c0,0.4,0,0.7,0,0.9l-2.7-0.2c0-0.3,0.1-0.6,0.1-0.9c0-0.4,0.1-0.7,0.1-1.1c0-0.4,0.1-0.8,0.1-1.2c0-0.4,0.1-0.8,0.1-1.2
	c0-0.6,0-1.1,0-1.5c0-0.4,0-0.7-0.1-1c-0.1-0.3-0.2-0.6-0.3-0.8c-0.1-0.2-0.3-0.5-0.5-0.8L223.3,74.9z M49.9,85.4
	c-0.5,1.8-1,3.5-1.5,5.1c-0.6,1.6-1.2,3.1-1.8,4.7l-2.4,0.1c-0.2-0.5-0.3-1.1-0.5-1.7c-0.1-0.6-0.3-1.2-0.4-1.7
	c-0.1-0.6-0.3-1.2-0.4-1.8c-0.1-0.6-0.2-1.2-0.3-1.8c-0.3,1.1-0.7,2.2-1.1,3.3c-0.4,1.1-0.9,2.2-1.3,3.2l-2.4,0.1
	c-0.5-1.6-1-3.2-1.3-4.8c-0.4-1.6-0.7-3.4-1-5.2l2.5-0.1c0.1,1.3,0.3,2.6,0.4,3.9c0.2,1.3,0.4,2.5,0.6,3.8c0.5-1.2,0.9-2.4,1.3-3.6
	c0.4-1.2,0.8-2.4,1.1-3.7L44,85c0.2,1.3,0.4,2.6,0.7,3.9c0.3,1.3,0.5,2.5,0.9,3.8c0.4-1.2,0.7-2.4,1.1-3.6c0.3-1.2,0.6-2.4,0.9-3.7
	L49.9,85.4z M52.4,95.7c-0.8,0-1.5-0.4-1.9-0.9c-0.5-0.6-0.7-1.3-0.6-2.2c0.1-0.9,0.4-1.7,0.9-2.2c0.6-0.5,1.3-0.8,2.2-0.7
	c0.4,0,0.7,0.1,1.1,0.2c0.4,0.1,0.7,0.3,1,0.5l0.1-1.1c0-0.6-0.1-1-0.3-1.3c-0.2-0.3-0.6-0.4-1.2-0.4c-0.4,0-0.8,0-1.2,0.1
	c-0.4,0.1-0.8,0.2-1,0.3L50.9,86c0.2-0.1,0.4-0.1,0.7-0.2c0.3-0.1,0.6-0.1,0.9-0.1c0.3,0,0.6-0.1,1-0.1c0.3,0,0.6,0,0.9,0
	c2.3,0.1,3.3,1.3,3.2,3.5c0,0.2,0,0.5-0.1,0.8c0,0.4-0.1,0.8-0.1,1.2c0,0.4-0.1,0.8-0.1,1.1c0,0.3-0.1,0.6-0.1,0.7
	c0,0.3,0,0.5,0.1,0.6c0.1,0.1,0.2,0.2,0.5,0.2c0.2,0,0.4,0,0.6,0l-0.4,1.8c-0.2,0.1-0.4,0.1-0.6,0.1c-0.2,0-0.3,0-0.5,0
	c-0.5,0-0.9-0.2-1.2-0.5c-0.3-0.3-0.5-0.7-0.5-1.2c-0.3,0.5-0.7,0.9-1.1,1.1C53.5,95.6,53,95.7,52.4,95.7z M53.4,93.9
	c0.4,0,0.8-0.1,1.1-0.4c0.3-0.3,0.5-0.6,0.5-1.1c0-0.4-0.1-0.7-0.3-0.9c-0.2-0.2-0.5-0.4-0.9-0.4c-0.4,0-0.8,0.1-1,0.3
	c-0.3,0.2-0.4,0.6-0.4,1c0,0.4,0.1,0.8,0.3,1C52.7,93.8,53,93.9,53.4,93.9z M62.8,81.1c-0.1,0.4-0.1,0.9-0.2,1.4
	c0,0.5-0.1,1-0.1,1.6c0,0.6-0.1,1.2-0.1,1.9c0,0.7-0.1,1.5-0.1,2.4c0,0.9-0.1,1.6-0.1,2.3c0,0.7-0.1,1.3-0.1,1.9
	c0,0.6,0,1.2-0.1,1.7c0,0.5,0,1.1-0.1,1.6l-2.6-0.1c0.1-0.7,0.1-1.3,0.1-1.8c0.1-0.5,0.1-1,0.1-1.6c0-0.6,0.1-1.2,0.1-1.9
	c0.1-0.7,0.1-1.6,0.2-2.7c0.1-1.1,0.1-2.2,0.2-3.3c0-1.1,0.1-2.2,0.1-3.4L62.8,81.1z M67.3,81.3c-0.1,0.4-0.1,0.9-0.2,1.4
	c0,0.5-0.1,1-0.1,1.6c0,0.6-0.1,1.2-0.1,1.9c0,0.7-0.1,1.5-0.1,2.4c0,0.9-0.1,1.6-0.1,2.3c0,0.7-0.1,1.3-0.1,1.9
	c0,0.6,0,1.2-0.1,1.7c0,0.5,0,1.1-0.1,1.6l-2.6-0.1c0.1-0.7,0.1-1.3,0.1-1.8c0.1-0.5,0.1-1,0.1-1.6c0-0.6,0.1-1.2,0.1-1.9
	c0.1-0.7,0.1-1.6,0.2-2.7c0.1-1.1,0.1-2.2,0.2-3.3c0-1.1,0.1-2.2,0.1-3.4L67.3,81.3z M70.5,92.1c0,1,0.2,1.7,0.5,2.1
	c0.3,0.4,0.8,0.6,1.5,0.7c0.5,0,1,0,1.5-0.2c0.5-0.1,0.9-0.2,1.2-0.4l-0.1,1.6c-0.4,0.4-1,0.6-1.6,0.7c-0.6,0.1-1.2,0.2-1.8,0.1
	c-0.5,0-0.9-0.1-1.4-0.3c-0.5-0.1-0.9-0.4-1.2-0.7c-0.3-0.4-0.6-0.8-0.8-1.4C68,93.7,68,93,68,92c0.1-0.9,0.2-1.8,0.5-2.4
	c0.3-0.7,0.6-1.3,1-1.7c0.4-0.4,0.9-0.8,1.5-1c0.6-0.2,1.2-0.3,1.8-0.2c0.7,0,1.2,0.2,1.6,0.4c0.4,0.2,0.7,0.5,0.9,0.9
	c0.2,0.4,0.4,0.8,0.4,1.2c0.1,0.4,0.1,0.8,0.1,1.2c0,0.4-0.1,0.8-0.2,1.1c-0.1,0.3-0.2,0.6-0.3,0.8L70.5,92.1z M72.4,88
	c-0.5,0-0.9,0.2-1.2,0.6c-0.3,0.4-0.5,1.1-0.6,2l3.2,0.2c0-0.1,0-0.1,0-0.2c0-0.1,0-0.1,0-0.2c0-0.2,0-0.4,0-0.7
	c0-0.3-0.1-0.5-0.2-0.8c-0.1-0.2-0.3-0.4-0.5-0.6C73,88.2,72.8,88.1,72.4,88z M76.5,87.2c0.4,0,0.8-0.1,1.1-0.2
	c0.3-0.1,0.5-0.3,0.7-0.5c0.2-0.2,0.4-0.5,0.5-0.9c0.1-0.4,0.3-0.8,0.4-1.4l1.8-0.4c-0.2,0.7-0.3,1.3-0.4,1.9
	c-0.1,0.5-0.2,1.1-0.3,1.6l2.1,0.1l-0.3,1.6l-2-0.2c-0.1,0.8-0.2,1.5-0.2,2.1c0,0.6-0.1,1.2-0.1,1.7c0,0.5,0,1,0,1.3
	c0,0.3,0.1,0.6,0.1,0.7c0.1,0.2,0.2,0.3,0.3,0.4c0.1,0.1,0.3,0.1,0.5,0.1c0.3,0,0.5,0,0.8-0.1c0.2-0.1,0.5-0.1,0.6-0.2l-0.4,2
	c-0.3,0.2-0.6,0.3-0.9,0.3c-0.3,0.1-0.6,0.1-1,0.1c-0.4,0-0.8-0.1-1.1-0.3c-0.3-0.1-0.6-0.4-0.8-0.7c-0.2-0.3-0.3-0.7-0.4-1.2
	c-0.1-0.5-0.1-1.1-0.1-1.8c0-0.6,0.1-1.3,0.2-2.1c0.1-0.8,0.2-1.7,0.3-2.6l-1.4-0.1L76.5,87.2z M93.1,93.8c-0.3,0-0.6-0.1-0.8-0.1
	c-0.2,0-0.5,0-0.7-0.1c-0.2,0-0.5,0-0.7-0.1c-0.2,0-0.5,0-0.8-0.1c-0.3,0-0.6,0-0.8,0c-0.2,0-0.5,0-0.7,0c-0.2,0-0.5,0-0.7,0
	c-0.2,0-0.5,0-0.8,0l0.2-1.8c0.3,0,0.6,0.1,0.8,0.1c0.2,0,0.5,0.1,0.7,0.1c0.2,0,0.5,0,0.7,0c0.2,0,0.5,0,0.8,0c0.3,0,0.6,0,0.8,0
	c0.2,0,0.5,0,0.7,0c0.2,0,0.5,0,0.7,0c0.3,0,0.5,0,0.9,0L93.1,93.8z M100.8,93.8c0,1,0.2,1.7,0.5,2.1c0.3,0.4,0.8,0.6,1.5,0.7
	c0.5,0,1,0,1.5-0.2c0.5-0.1,0.9-0.2,1.2-0.4l-0.1,1.6c-0.4,0.4-1,0.6-1.6,0.7c-0.6,0.1-1.2,0.2-1.8,0.1c-0.5,0-0.9-0.1-1.4-0.3
	c-0.5-0.1-0.9-0.4-1.2-0.7c-0.3-0.4-0.6-0.8-0.8-1.4c-0.2-0.6-0.3-1.4-0.2-2.3c0.1-0.9,0.2-1.8,0.5-2.4c0.3-0.7,0.6-1.3,1-1.7
	c0.4-0.4,0.9-0.8,1.5-1c0.6-0.2,1.2-0.3,1.8-0.2c0.7,0,1.2,0.2,1.6,0.4c0.4,0.2,0.7,0.5,0.9,0.9c0.2,0.4,0.4,0.8,0.4,1.2
	c0.1,0.4,0.1,0.8,0.1,1.2c0,0.4-0.1,0.8-0.2,1.1c-0.1,0.3-0.2,0.6-0.3,0.8L100.8,93.8z M102.7,89.7c-0.5,0-0.9,0.2-1.2,0.6
	c-0.3,0.4-0.5,1.1-0.6,2l3.2,0.2c0-0.1,0-0.1,0-0.2c0-0.1,0-0.1,0-0.2c0-0.2,0-0.4,0-0.7c0-0.3-0.1-0.5-0.2-0.8
	c-0.1-0.2-0.3-0.4-0.4-0.6C103.3,89.8,103,89.7,102.7,89.7z M109.2,88.7c0.2,0.4,0.4,0.7,0.6,1c0.1,0.3,0.2,0.6,0.3,0.9
	c0.2-0.2,0.4-0.4,0.7-0.6c0.3-0.2,0.5-0.4,0.8-0.6c0.3-0.2,0.6-0.3,0.9-0.4c0.3-0.1,0.7-0.1,1-0.1c0.3,0,0.6,0.1,0.9,0.2
	c0.3,0.1,0.6,0.3,0.8,0.6c0.2,0.3,0.4,0.7,0.5,1.1c0.1,0.5,0.2,1.1,0.1,1.8c0,0.2,0,0.4-0.1,0.8c0,0.3,0,0.7-0.1,1.1
	c0,0.4-0.1,0.8-0.1,1.1c0,0.4,0,0.6,0,0.8c0,0.4,0,0.8,0,1.2c0,0.4,0.1,0.7,0.3,1l-2.7,0.3c-0.1-0.3-0.1-0.6-0.1-1
	c0-0.3,0-0.7,0-0.9c0-0.4,0-0.7,0.1-1.1c0-0.4,0.1-0.8,0.1-1.1c0-0.4,0.1-0.7,0.1-1c0-0.3,0.1-0.6,0.1-0.8c0-0.8-0.1-1.3-0.3-1.6
	c-0.2-0.3-0.6-0.5-1-0.5c-0.4,0-0.7,0-1.1,0.1c-0.3,0.1-0.6,0.2-0.9,0.4c0,0.2,0,0.5,0,0.8c0,0.3,0,0.6-0.1,1c0,0.6-0.1,1.1-0.1,1.6
	c0,0.5-0.1,0.9-0.1,1.3c0,0.4,0,0.8,0,1.2c0,0.4,0,0.7,0,1.1l-2.6-0.1c0-0.3,0.1-0.7,0.1-1c0-0.4,0.1-0.8,0.1-1.2
	c0.1-0.4,0.1-0.9,0.1-1.3c0-0.5,0.1-0.9,0.1-1.3c0-0.5,0-0.9,0-1.2c0-0.3,0-0.6-0.1-0.8c-0.1-0.2-0.2-0.5-0.3-0.7
	c-0.1-0.2-0.3-0.5-0.5-0.7L109.2,88.7z M117.7,93.4c0-0.7,0.1-1.3,0.1-2c0-0.6,0-1.3,0-2l2.6,0.1c-0.1,0.6-0.2,1.2-0.2,1.8
	c0,0.6-0.1,1.1-0.1,1.5c0,0.3,0,0.7-0.1,1.3c0,0.6-0.1,1.2-0.1,1.8c0,0.6-0.1,1.3-0.1,2c0,0.7-0.1,1.2-0.2,1.7
	c-0.1,0.8-0.2,1.5-0.4,1.9c-0.1,0.4-0.3,0.8-0.5,1.1c-0.3,0.4-0.7,0.6-1.1,0.7c-0.4,0.1-0.8,0.2-1.2,0.2c-0.3,0-0.6-0.1-1-0.2
	c-0.4-0.1-0.6-0.2-0.9-0.3l0.7-2c0.1,0.1,0.3,0.2,0.5,0.2c0.2,0.1,0.4,0.1,0.5,0.1c0.3,0,0.6-0.1,0.8-0.4c0.2-0.3,0.3-0.9,0.3-1.7
	L117.7,93.4z M118,86.2c0-0.4,0.2-0.7,0.4-0.9c0.3-0.3,0.6-0.4,1.1-0.3c0.4,0,0.7,0.1,0.9,0.4c0.3,0.2,0.4,0.5,0.4,0.9
	c0,0.4-0.2,0.7-0.5,0.9c-0.3,0.2-0.6,0.3-1.1,0.3c-0.4,0-0.7-0.1-0.9-0.3C118.1,86.9,118,86.6,118,86.2z M126.1,91.2
	c-0.6,0-1.1,0.3-1.4,0.9c-0.4,0.6-0.6,1.5-0.6,2.6c-0.1,1.1,0,1.9,0.2,2.6c0.2,0.6,0.7,0.9,1.3,1c0.6,0,1.1-0.3,1.5-0.9
	c0.4-0.7,0.6-1.5,0.7-2.6c0-0.5,0-1,0-1.4c0-0.4-0.1-0.8-0.2-1.1c-0.1-0.3-0.3-0.5-0.5-0.7C126.8,91.3,126.5,91.2,126.1,91.2z
	 M121.5,94.6c0-0.8,0.2-1.5,0.4-2.1c0.3-0.6,0.6-1.2,1-1.6c0.4-0.4,0.9-0.7,1.5-1c0.6-0.2,1.2-0.3,1.9-0.3c1.3,0.1,2.3,0.5,3,1.4
	c0.7,0.9,1,2.1,0.9,3.6c0,0.8-0.2,1.5-0.5,2.2c-0.3,0.6-0.6,1.2-1,1.6c-0.4,0.4-0.9,0.8-1.5,1c-0.6,0.2-1.2,0.3-1.9,0.3
	c-0.6,0-1.2-0.2-1.7-0.4c-0.5-0.3-0.9-0.6-1.3-1.1c-0.3-0.4-0.6-1-0.7-1.6C121.5,96,121.5,95.3,121.5,94.6z M140,90.4
	c-0.4,1.3-0.9,2.6-1.4,3.8c-0.5,1.2-1,2.3-1.5,3.5c-0.5,1.1-1,2.2-1.6,3.3c-0.5,1.1-1.1,2.2-1.7,3.2l-2.7,0.1c0.5-0.8,1-1.5,1.5-2.2
	c0.5-0.7,0.9-1.5,1.3-2.2c-0.7-1.5-1.3-3-1.8-4.6c-0.5-1.6-0.9-3.3-1.2-5.1l2.5-0.1c0.1,0.7,0.2,1.4,0.3,2.1c0.1,0.7,0.2,1.4,0.4,2
	c0.1,0.7,0.3,1.3,0.5,1.8c0.2,0.6,0.4,1.1,0.6,1.5c0.5-1.3,1-2.5,1.3-3.6c0.3-1.1,0.7-2.3,1-3.4L140,90.4z M146.1,96.3
	c0,1,0.2,1.7,0.5,2.1c0.3,0.4,0.8,0.6,1.5,0.7c0.5,0,1,0,1.5-0.2c0.5-0.1,0.9-0.2,1.2-0.4l-0.1,1.6c-0.4,0.3-1,0.6-1.6,0.7
	c-0.6,0.1-1.2,0.2-1.8,0.1c-0.5,0-0.9-0.1-1.4-0.3c-0.5-0.1-0.9-0.4-1.2-0.7c-0.3-0.4-0.6-0.8-0.8-1.4c-0.2-0.6-0.3-1.4-0.2-2.3
	c0.1-0.9,0.2-1.8,0.5-2.4c0.3-0.7,0.6-1.3,1-1.7c0.4-0.4,0.9-0.8,1.5-1c0.6-0.2,1.2-0.3,1.8-0.2c0.7,0,1.2,0.2,1.6,0.4
	c0.4,0.2,0.7,0.5,0.9,0.9c0.2,0.4,0.4,0.8,0.4,1.2c0.1,0.4,0.1,0.8,0.1,1.2c0,0.4-0.1,0.8-0.2,1.1c-0.1,0.3-0.2,0.6-0.3,0.8
	L146.1,96.3z M147.9,92.2c-0.5,0-0.9,0.2-1.2,0.6c-0.3,0.4-0.5,1.1-0.6,2l3.2,0.2c0-0.1,0-0.1,0-0.2c0-0.1,0-0.1,0-0.2
	c0-0.2,0-0.4,0-0.7c0-0.3-0.1-0.5-0.2-0.8c-0.1-0.2-0.3-0.4-0.5-0.6C148.5,92.4,148.3,92.3,147.9,92.2z M161.2,91.6
	c-0.6,1.8-1.2,3.5-1.9,5.1c-0.7,1.6-1.4,3.1-2.2,4.6l-2.4,0.1c-0.6-1.6-1.1-3.2-1.6-4.9c-0.5-1.6-0.9-3.4-1.2-5.2l2.5-0.1
	c0.2,1.3,0.4,2.7,0.7,4c0.3,1.3,0.6,2.6,0.9,3.8c0.5-1.2,1-2.4,1.4-3.6c0.4-1.2,0.8-2.5,1.2-3.8L161.2,91.6z M163.7,97.3
	c0,1,0.2,1.7,0.5,2.1c0.3,0.4,0.8,0.6,1.5,0.7c0.5,0,1,0,1.5-0.2c0.5-0.1,0.9-0.2,1.2-0.4l-0.1,1.6c-0.4,0.3-1,0.6-1.6,0.7
	c-0.6,0.1-1.2,0.2-1.8,0.1c-0.5,0-0.9-0.1-1.4-0.3c-0.5-0.1-0.9-0.4-1.2-0.7c-0.3-0.4-0.6-0.8-0.8-1.4c-0.2-0.6-0.3-1.4-0.2-2.3
	c0.1-0.9,0.2-1.8,0.5-2.4c0.3-0.7,0.6-1.3,1-1.7c0.4-0.4,0.9-0.8,1.5-1c0.6-0.2,1.2-0.3,1.8-0.2c0.7,0,1.2,0.2,1.6,0.4
	c0.4,0.2,0.7,0.5,0.9,0.9c0.2,0.4,0.4,0.8,0.4,1.2c0.1,0.4,0.1,0.8,0.1,1.2c0,0.4-0.1,0.8-0.2,1.1c-0.1,0.3-0.2,0.6-0.3,0.8
	L163.7,97.3z M165.6,93.2c-0.5,0-0.9,0.2-1.2,0.6c-0.3,0.4-0.5,1.1-0.6,2L167,96c0-0.1,0-0.1,0-0.2c0-0.1,0-0.1,0-0.2
	c0-0.2,0-0.4,0-0.7c0-0.3-0.1-0.5-0.2-0.8c-0.1-0.2-0.3-0.4-0.5-0.6C166.2,93.3,165.9,93.2,165.6,93.2z M172.1,92.1
	c0.2,0.4,0.4,0.8,0.6,1.2c0.1,0.3,0.2,0.7,0.3,1c0.1-0.2,0.3-0.4,0.5-0.6c0.2-0.2,0.4-0.4,0.7-0.6c0.3-0.2,0.5-0.4,0.8-0.5
	c0.3-0.1,0.6-0.2,1-0.3l0,2.8c-0.6,0-1.2,0-1.8,0.1c-0.5,0.1-0.9,0.2-1.2,0.5c0,0.2,0,0.5,0,0.8c0,0.3,0,0.6-0.1,1
	c0,0.4,0,0.9-0.1,1.3c0,0.5,0,0.9,0,1.4c0,0.4,0,0.8,0,1.2c0,0.4,0,0.7,0,0.9l-2.7-0.2c0-0.3,0.1-0.6,0.1-0.9c0-0.4,0.1-0.7,0.1-1.1
	c0-0.4,0.1-0.8,0.1-1.2c0-0.4,0.1-0.8,0.1-1.2c0-0.6,0-1.1,0-1.5c0-0.4,0-0.7-0.1-1c-0.1-0.3-0.2-0.6-0.3-0.8
	c-0.1-0.2-0.3-0.5-0.5-0.8L172.1,92.1z M185.4,92.9c-0.4,1.3-0.9,2.6-1.4,3.8c-0.5,1.2-1,2.3-1.5,3.5c-0.5,1.1-1,2.2-1.6,3.3
	c-0.5,1.1-1.1,2.2-1.7,3.2l-2.7,0.1c0.5-0.8,1-1.5,1.5-2.2c0.5-0.7,0.9-1.5,1.3-2.2c-0.7-1.5-1.3-3-1.8-4.6
	c-0.5-1.6-0.9-3.3-1.2-5.1l2.5-0.1c0.1,0.7,0.2,1.4,0.3,2.1c0.1,0.7,0.2,1.4,0.4,2c0.1,0.7,0.3,1.3,0.5,1.8c0.2,0.6,0.4,1.1,0.6,1.5
	c0.5-1.3,1-2.5,1.3-3.6c0.3-1.1,0.7-2.3,1-3.4L185.4,92.9z M192.7,88.3c-0.1,0.4-0.1,0.8-0.2,1.3c0,0.4-0.1,0.9-0.1,1.4
	c0,0.5-0.1,1.1-0.1,1.7c0,0.6-0.1,1.3-0.1,2.1c0.4-0.4,0.9-0.7,1.4-1c0.5-0.3,1.1-0.4,1.8-0.4c0.3,0,0.6,0.1,0.9,0.2
	c0.3,0.1,0.6,0.4,0.8,0.7c0.2,0.3,0.4,0.8,0.5,1.3c0.1,0.5,0.1,1.2,0.1,2c-0.1,1-0.2,1.9-0.5,2.6c-0.2,0.7-0.6,1.3-1,1.8
	c-0.4,0.5-0.8,0.8-1.4,1.1c-0.5,0.2-1.1,0.3-1.7,0.3c-0.6,0-1-0.2-1.4-0.4c-0.4-0.3-0.7-0.6-1-1l-0.8,1l-1-0.1
	c0.2-0.6,0.3-1.5,0.4-2.8c0.1-1.3,0.2-3,0.4-5.2c0.1-1.1,0.1-2.2,0.2-3.3c0-1.1,0.1-2.2,0.1-3.4L192.7,88.3z M194,95.6
	c-0.4,0-0.7,0-1,0.1c-0.3,0.1-0.6,0.2-0.8,0.3c-0.1,1.1-0.1,2-0.2,2.8c0,0.8-0.1,1.6-0.1,2.3c0.3,0.6,0.7,0.9,1.3,0.9
	c0.6,0,1-0.3,1.4-1c0.3-0.7,0.6-1.7,0.6-3c0-0.5,0-1,0-1.3c0-0.3-0.1-0.6-0.2-0.8c-0.1-0.2-0.2-0.3-0.4-0.4
	C194.4,95.7,194.2,95.6,194,95.6z M202,94.1c-0.1,0.3-0.1,0.6-0.1,0.8c0,0.3-0.1,0.6-0.1,0.9c0,0.3,0,0.7-0.1,1.1
	c0,0.4-0.1,0.9-0.1,1.5c0,0.6-0.1,1.1-0.1,1.6c0,0.5-0.1,0.9-0.1,1.3c0,0.4,0,0.8,0,1.2c0,0.4,0,0.7,0,1.1l-2.6-0.1
	c0-0.5,0.1-0.9,0.1-1.3c0-0.4,0.1-0.7,0.1-1.1c0-0.4,0.1-0.9,0.1-1.4c0-0.5,0.1-1.2,0.1-1.9c0-0.7,0.1-1.3,0.1-2c0-0.6,0-1.3,0-2
	L202,94.1z M199.5,90.8c0-0.4,0.2-0.7,0.4-0.9c0.3-0.3,0.6-0.4,1.1-0.3c0.4,0,0.7,0.1,0.9,0.4c0.3,0.2,0.4,0.5,0.4,0.9
	c0,0.4-0.2,0.7-0.5,0.9c-0.3,0.2-0.6,0.3-1.1,0.3c-0.4,0-0.7-0.1-0.9-0.3C199.6,91.4,199.5,91.2,199.5,90.8z M203,94.3
	c0.4,0,0.8-0.1,1.1-0.2c0.3-0.1,0.5-0.3,0.7-0.5c0.2-0.2,0.4-0.5,0.5-0.9c0.1-0.4,0.3-0.8,0.4-1.4l1.8-0.4c-0.2,0.7-0.3,1.3-0.4,1.9
	c-0.1,0.5-0.2,1.1-0.3,1.6l2.1,0.1l-0.3,1.6l-2-0.2c-0.1,0.8-0.2,1.5-0.2,2.1c0,0.6-0.1,1.2-0.1,1.7c0,0.5,0,1,0,1.3
	c0,0.3,0.1,0.6,0.1,0.7c0.1,0.2,0.2,0.3,0.3,0.4c0.1,0.1,0.3,0.1,0.5,0.1c0.3,0,0.5,0,0.8-0.1c0.2-0.1,0.5-0.1,0.6-0.2l-0.4,2
	c-0.3,0.2-0.6,0.3-0.9,0.3c-0.3,0.1-0.6,0.1-1,0.1c-0.4,0-0.8-0.1-1.1-0.3c-0.3-0.1-0.6-0.4-0.8-0.7c-0.2-0.3-0.3-0.7-0.4-1.2
	c-0.1-0.5-0.1-1.1-0.1-1.8c0-0.6,0.1-1.3,0.2-2.1c0.1-0.8,0.2-1.7,0.3-2.6l-1.4-0.1L203,94.3z M217.7,96.3c-0.6,0-1.1,0.3-1.4,0.9
	c-0.4,0.6-0.6,1.5-0.6,2.6c-0.1,1.1,0,1.9,0.2,2.6c0.2,0.6,0.7,0.9,1.3,1c0.6,0,1.1-0.3,1.5-0.9c0.4-0.7,0.6-1.5,0.7-2.6
	c0-0.5,0-1,0-1.4c0-0.4-0.1-0.8-0.2-1.1c-0.1-0.3-0.3-0.5-0.5-0.7C218.3,96.4,218,96.3,217.7,96.3z M213.1,99.7
	c0-0.8,0.2-1.5,0.4-2.1c0.3-0.6,0.6-1.2,1-1.6c0.4-0.4,0.9-0.7,1.5-1c0.6-0.2,1.2-0.3,1.9-0.3c1.3,0.1,2.3,0.5,3,1.4
	c0.7,0.9,1,2.1,0.9,3.6c0,0.8-0.2,1.5-0.5,2.2c-0.3,0.6-0.6,1.2-1,1.6c-0.4,0.4-0.9,0.8-1.5,1c-0.6,0.2-1.2,0.3-1.9,0.3
	c-0.6,0-1.2-0.2-1.7-0.4c-0.5-0.3-0.9-0.6-1.3-1.1c-0.3-0.4-0.6-1-0.7-1.6C213.1,101.1,213,100.4,213.1,99.7z M222.5,95.4l1.5,0
	c0-0.2,0-0.4,0.1-0.6c0-0.2,0.1-0.4,0.1-0.6c0.1-0.8,0.2-1.5,0.4-1.9c0.2-0.5,0.4-0.8,0.6-1.1c0.3-0.3,0.7-0.5,1.1-0.7
	c0.4-0.1,0.9-0.2,1.3-0.2c0.3,0,0.6,0.1,0.9,0.2c0.3,0.1,0.6,0.3,0.9,0.5l-0.3,1.7c-0.3-0.1-0.6-0.2-0.8-0.3
	c-0.3-0.1-0.5-0.1-0.7-0.1c-0.2,0-0.4,0-0.6,0.1c-0.1,0.1-0.3,0.2-0.4,0.3c-0.1,0.2-0.2,0.4-0.2,0.7c-0.1,0.3-0.1,0.6-0.1,1.1
	l-0.1,1l2.1,0.1l-0.3,1.6l-1.9-0.2l-0.3,4.8c0,0.3,0,0.7-0.1,0.9c0,0.3,0,0.6,0,0.8c0,0.3,0,0.5,0,0.8c0,0.3,0,0.5,0,0.8l-2.4-0.1
	c0.1-1.1,0.1-2.1,0.2-2.9c0-0.9,0.1-1.6,0.1-2.3c0-0.7,0.1-1.2,0.1-1.7c0-0.5,0.1-0.9,0.1-1.3l-1.4-0.1L222.5,95.4z M116.2,110.1
	c-0.5,1.8-1,3.5-1.5,5.1c-0.6,1.6-1.2,3.1-1.8,4.7l-2.4,0.1c-0.2-0.5-0.3-1.1-0.5-1.7c-0.1-0.6-0.3-1.2-0.4-1.8
	c-0.1-0.6-0.3-1.2-0.4-1.8c-0.1-0.6-0.2-1.2-0.3-1.8c-0.3,1.1-0.7,2.2-1.1,3.3c-0.4,1.1-0.9,2.2-1.3,3.2l-2.4,0.1
	c-0.5-1.6-1-3.2-1.3-4.8c-0.4-1.6-0.7-3.4-1-5.2l2.5-0.1c0.1,1.3,0.3,2.6,0.4,3.9c0.2,1.3,0.4,2.5,0.6,3.8c0.5-1.2,0.9-2.4,1.3-3.6
	c0.4-1.2,0.8-2.4,1.1-3.7l2.5-0.1c0.2,1.3,0.4,2.6,0.7,3.9c0.3,1.3,0.5,2.5,0.9,3.8c0.4-1.2,0.7-2.4,1.1-3.6
	c0.3-1.2,0.6-2.4,0.9-3.7L116.2,110.1z M118.9,115.8c0,1,0.2,1.7,0.5,2.1c0.3,0.4,0.8,0.6,1.5,0.7c0.5,0,1,0,1.5-0.2
	c0.5-0.1,0.9-0.2,1.2-0.4l-0.1,1.6c-0.4,0.4-1,0.6-1.6,0.7c-0.6,0.1-1.2,0.2-1.8,0.1c-0.5,0-0.9-0.1-1.4-0.3
	c-0.5-0.1-0.9-0.4-1.2-0.7c-0.3-0.4-0.6-0.8-0.8-1.4c-0.2-0.6-0.3-1.4-0.2-2.3c0.1-0.9,0.2-1.8,0.5-2.4c0.3-0.7,0.6-1.3,1-1.7
	c0.4-0.4,0.9-0.8,1.5-1c0.6-0.2,1.2-0.3,1.8-0.2c0.7,0,1.2,0.2,1.6,0.4c0.4,0.2,0.7,0.5,0.9,0.9c0.2,0.4,0.4,0.8,0.4,1.2
	c0.1,0.4,0.1,0.8,0.1,1.2c0,0.4-0.1,0.8-0.2,1.1c-0.1,0.3-0.2,0.6-0.3,0.8L118.9,115.8z M120.8,111.8c-0.5,0-0.9,0.2-1.2,0.6
	c-0.3,0.4-0.5,1.1-0.6,2l3.2,0.2c0-0.1,0-0.1,0-0.2c0-0.1,0-0.1,0-0.2c0-0.2,0-0.4,0-0.7c0-0.3-0.1-0.5-0.2-0.8
	c-0.1-0.2-0.3-0.4-0.5-0.6C121.4,111.9,121.1,111.8,120.8,111.8z M127.3,120.9c-0.8,0-1.5-0.4-1.9-0.9c-0.5-0.6-0.7-1.3-0.6-2.2
	c0.1-0.9,0.4-1.7,0.9-2.2c0.6-0.5,1.3-0.8,2.2-0.7c0.4,0,0.7,0.1,1.1,0.2c0.4,0.1,0.7,0.3,1,0.5l0.1-1.1c0-0.6-0.1-1-0.3-1.3
	c-0.2-0.3-0.6-0.4-1.2-0.4c-0.4,0-0.8,0-1.2,0.1c-0.4,0.1-0.8,0.2-1,0.3l-0.5-1.9c0.2-0.1,0.4-0.1,0.7-0.2c0.3-0.1,0.6-0.1,0.9-0.1
	c0.3,0,0.6-0.1,1-0.1c0.3,0,0.6,0,0.9,0c2.3,0.1,3.3,1.3,3.2,3.5c0,0.2,0,0.5-0.1,0.8c0,0.4-0.1,0.8-0.1,1.2c0,0.4-0.1,0.8-0.1,1.1
	c0,0.3-0.1,0.6-0.1,0.7c0,0.3,0,0.5,0.1,0.6c0.1,0.1,0.2,0.2,0.5,0.2c0.2,0,0.4,0,0.6,0l-0.4,1.8c-0.2,0.1-0.4,0.1-0.6,0.1
	c-0.2,0-0.3,0-0.5,0c-0.5,0-0.9-0.2-1.2-0.5c-0.3-0.3-0.5-0.7-0.5-1.2c-0.3,0.5-0.7,0.9-1.1,1.1
	C128.4,120.8,127.8,120.9,127.3,120.9z M128.3,119.1c0.4,0,0.8-0.1,1.1-0.4c0.3-0.3,0.5-0.6,0.5-1.1c0-0.4-0.1-0.7-0.3-0.9
	c-0.2-0.2-0.5-0.4-0.9-0.4c-0.4,0-0.8,0.1-1,0.3c-0.3,0.2-0.4,0.6-0.4,1c0,0.4,0.1,0.8,0.3,1C127.6,119,127.9,119.1,128.3,119.1z
	 M137.7,106.3c-0.1,0.4-0.1,0.9-0.2,1.4c0,0.5-0.1,1-0.1,1.6c0,0.6-0.1,1.2-0.1,1.9c0,0.7-0.1,1.5-0.1,2.4c0,0.8-0.1,1.6-0.1,2.3
	c0,0.7-0.1,1.3-0.1,1.9c0,0.6,0,1.2-0.1,1.7c0,0.5,0,1.1-0.1,1.6l-2.6-0.1c0.1-0.7,0.1-1.3,0.1-1.8c0.1-0.5,0.1-1,0.1-1.6
	c0-0.6,0.1-1.2,0.1-1.9c0.1-0.7,0.1-1.6,0.2-2.7c0.1-1.1,0.1-2.2,0.2-3.3c0-1.1,0.1-2.2,0.1-3.4L137.7,106.3z M138.3,111.7
	c0.4,0,0.8-0.1,1.1-0.2c0.3-0.1,0.5-0.3,0.7-0.5c0.2-0.2,0.4-0.5,0.5-0.9c0.1-0.4,0.3-0.8,0.4-1.4l1.8-0.4c-0.2,0.7-0.3,1.3-0.4,1.9
	c-0.1,0.5-0.2,1.1-0.3,1.6l2.1,0.1l-0.3,1.6l-2-0.2c-0.1,0.8-0.2,1.5-0.2,2.1c0,0.6-0.1,1.2-0.1,1.7c0,0.5,0,1,0,1.3
	c0,0.3,0.1,0.6,0.1,0.7c0.1,0.2,0.2,0.3,0.3,0.4c0.1,0.1,0.3,0.1,0.5,0.1c0.3,0,0.5,0,0.8-0.1c0.2-0.1,0.5-0.1,0.6-0.2l-0.4,2
	c-0.3,0.2-0.6,0.3-0.9,0.3c-0.3,0.1-0.6,0.1-1,0.1c-0.4,0-0.8-0.1-1.1-0.3c-0.3-0.1-0.6-0.4-0.8-0.7c-0.2-0.3-0.3-0.7-0.4-1.2
	c-0.1-0.5-0.1-1.1-0.1-1.8c0-0.6,0.1-1.3,0.2-2.1c0.1-0.8,0.2-1.7,0.3-2.6l-1.4-0.1L138.3,111.7z M148.4,106.9
	c-0.1,0.4-0.1,0.9-0.2,1.3c0,0.4-0.1,0.9-0.1,1.4c0,0.5-0.1,1.1-0.1,1.7c0,0.6-0.1,1.3-0.1,2.1c0.2-0.2,0.4-0.4,0.7-0.6
	c0.2-0.2,0.5-0.4,0.8-0.5c0.3-0.1,0.6-0.2,0.9-0.3c0.3-0.1,0.6-0.1,0.9-0.1c0.3,0,0.6,0.1,0.9,0.2c0.3,0.1,0.6,0.3,0.8,0.6
	c0.2,0.3,0.4,0.7,0.5,1.1c0.1,0.5,0.2,1.1,0.1,1.8c0,0.2,0,0.4-0.1,0.8c0,0.3,0,0.7-0.1,1.1c0,0.4-0.1,0.8-0.1,1.1
	c0,0.4,0,0.6,0,0.8c0,0.4,0,0.8,0,1.2c0,0.4,0.1,0.7,0.3,1l-2.7,0.3c-0.1-0.3-0.1-0.6-0.1-1c0-0.3,0-0.7,0-0.9c0-0.4,0-0.7,0.1-1.1
	c0-0.4,0.1-0.8,0.1-1.1c0-0.4,0.1-0.7,0.1-1c0-0.3,0.1-0.6,0.1-0.8c0-0.8-0.1-1.3-0.3-1.6c-0.2-0.3-0.6-0.5-1-0.5
	c-0.4,0-0.7,0-1,0.1c-0.3,0.1-0.6,0.2-0.8,0.4c0,0.8-0.1,1.5-0.1,2.1c0,0.6-0.1,1.2-0.1,1.8c0,0.6,0,1.1-0.1,1.6c0,0.5,0,1,0,1.5
	l-2.6-0.1c0.1-0.7,0.1-1.3,0.1-1.8c0.1-0.5,0.1-1,0.1-1.6c0-0.6,0.1-1.2,0.1-1.9c0.1-0.7,0.1-1.6,0.2-2.7c0.1-1.1,0.1-2.2,0.2-3.3
	c0-1.1,0.1-2.2,0.1-3.4L148.4,106.9z M158.4,108.2c-0.1,0.8-0.2,1.7-0.3,2.6c-0.1,0.9-0.2,1.8-0.3,2.8c-0.1,0.9-0.2,1.8-0.3,2.7
	c-0.1,0.8-0.1,1.6-0.2,2.3l-2-0.1c0.1-1.5,0.1-3.1,0.2-4.7c0-1.6,0.1-3.5,0.1-5.4L158.4,108.2z M154.7,121.1c0-0.4,0.2-0.7,0.5-1
	c0.3-0.3,0.7-0.4,1.2-0.4c0.4,0,0.8,0.2,1,0.4c0.3,0.2,0.4,0.6,0.4,1c0,0.4-0.2,0.7-0.5,1c-0.3,0.2-0.7,0.3-1.2,0.3
	c-0.4,0-0.8-0.2-1-0.4C154.8,121.9,154.7,121.5,154.7,121.1z"/>
<path class="st0" d="M78.4,187.4c-0.2,3.3-1.3,6.1-3.5,8.4c-2.3,2.5-5,3.6-8.2,3.4c-3.7-0.2-6.2-1-7.4-2.3c-0.3,0.3-0.8,0.5-1.4,0.6
	c-0.5,0-1.1,0.1-1.7,0.2c-1.4-0.3-2.2-0.8-2.4-1.6c-0.1-0.2-0.2-0.4-0.2-0.5c0-0.1,0.2-0.6,0.5-1.4c0.4-0.9,0.6-1.6,0.6-2.3
	c0.1-1.7-0.3-3.5-1.2-5.6c0.1-1,0.7-1.8,2-2.5c1.2-0.6,2.3-0.9,3.3-0.9c1.2,0.1,2.5,0.5,3.7,1.4c0.5,0.8,0.7,2.1,0.6,3.9
	c1.1,1.5,2,2.3,2.6,2.3c1.9,0.1,2.9-0.4,2.9-1.4c0.1-1.3-0.6-2.6-1.9-3.9c-0.6-0.6-1.9-1.6-3.7-2.9c-0.9-0.5-2.1-1.3-3.8-2.4
	c-1.5-1-2.7-2.7-3.5-5c-0.7-2.1-1-4.1-0.9-6.1c0.3-6.2,4.1-9,11.2-8.6c0.8,0,2.1,0.4,3.7,1.1c1.8,0.7,2.9,1.4,3.3,1.9
	c3.1,4,4.6,6.6,4.6,8c0,0.7-0.5,1.4-1.2,2c-0.2,0.2-0.9,0.7-2.1,1.4c-0.3,0-0.8,0.1-1.4,0.3c-0.6,0.2-1.1,0.3-1.4,0.2
	c-0.4,0-0.9-0.6-1.6-1.8c-0.6-1.1-1-1.9-1-2.4c-0.7-1.2-1.8-1.9-3.1-1.9c-1.2-0.1-1.8,0.4-1.9,1.5c0,0.1,0,0.3,0,0.6
	c0,0.3,0,0.5,0,0.6c0.5,1.4,1.6,2.6,3.5,3.3c1.7,0.6,3.4,1.2,5.1,1.8c2,0.8,3.3,2,4,3.5c0.5,1.1,1,2.2,1.3,3.2
	C78.3,184.4,78.5,185.7,78.4,187.4z M72.5,165.1l-0.4-0.4c-0.3,0.2-0.5,0.6-0.5,1l0.1,0.4C72.1,166,72.3,165.6,72.5,165.1z
	 M70.7,164c0-0.2-0.1-0.4-0.2-0.5c-0.2,0.1-0.4,0.3-0.5,0.6c-0.1,0.3-0.1,0.5-0.2,0.8c0.1,0,0.3-0.1,0.6-0.2L70.7,164z M74.5,172.4
	c-0.5,0-1.5-0.2-2.8-0.5c0.1-0.2,0.4-0.5,0.9-0.8c0.7-0.5,1.1-0.7,1.2-0.8l-0.4-0.1c-0.2,0-0.4,0-0.8,0.1c-0.3,0-0.6,0.1-0.7,0
	c-0.3,0-0.6-0.1-0.9-0.3c0.1-0.2,0.5-0.5,1-0.8c0.6-0.4,0.9-0.6,1-0.8c-1.7-0.1-2.9,0.2-3.6,1c1,1.7,1.6,3.1,1.9,4
	c0.2,0,0.4,0.1,0.6,0.1C72.8,173.5,73.6,173.1,74.5,172.4z M69.4,162.5c-0.7-0.6-1.3-0.9-1.8-0.9c-0.4-0.3-1-0.4-1.8-0.5
	c-0.9,0-1.5-0.1-1.8-0.2c-4.7,0.7-7.2,2.2-7.5,4.4l0.1,0.4c0,0,0.3-0.5,1.2-1.6c0.8-1.1,1.7-1.6,2.7-1.6c0.3,0,0.8,0.3,1.5,0.8
	c0.6,0.5,1.1,0.7,1.4,0.7c0.1,0,0.2,0,0.3,0c0-0.3-0.3-0.8-1-1.5c-0.1-0.3-0.1-0.5-0.1-0.5c0-0.2,0.1-0.4,0.3-0.5
	c0.3,0,0.7,0.3,1.1,1c0.5,0.6,0.8,1,1,1.1c-0.2-0.8-0.3-1.3-0.3-1.6c0-0.2,0.1-0.4,0.4-0.6c0.5,0.2,0.9,0.6,1.2,1.4
	c0.3,0.9,0.5,1.4,0.7,1.5c0.1-0.1,0.2-0.3,0.2-0.5c-0.1-0.5-0.1-0.9-0.1-1.3l0.2-0.4l0.1,0c0.4,0,0.6,0.3,0.8,0.8
	c0.1,0.4,0.2,0.9,0.3,1.3c0.3-0.1,0.5-0.4,0.6-0.8C69.1,162.9,69.3,162.6,69.4,162.5z M62.3,166.4c0-0.7-0.1-1.4-0.4-2
	c-0.4-0.7-0.9-1.1-1.6-1.2c-0.8,0-1.4,0.4-2,1.4c-0.5,0.8-0.7,1.6-0.8,2.5c-0.1,1.3,0.6,2.2,2,2.7c1.1-0.2,1.8-0.5,2.2-1
	C62,168.3,62.3,167.5,62.3,166.4z M74.9,181.1c0.1-2-1.9-3.5-5.9-4.3c-0.7,0.3-1,0.8-1.1,1.6c-0.1,1.2,0.4,2.2,1.4,3.1
	c0.9,0.8,2,1.2,3.2,1.2C74.1,182.7,74.9,182.2,74.9,181.1z M74.4,183.7c-0.5,0.2-1.2,0.3-2.2,0.5c-0.4-0.2-0.7-0.4-0.9-0.5l-0.4,0.2
	c0.2,0.5,0.8,0.8,1.9,0.8l0.8,0c0.6-0.3,0.9-0.6,0.9-0.7L74.4,183.7z M75,186.5c-0.1-0.2-0.2-0.3-0.4-0.3c-0.2,0.1-0.4,0.1-0.6,0.1
	c-0.2,0-0.5-0.1-1-0.4c-0.4-0.2-0.7-0.4-1-0.4l-0.5,0.1l0.9,0.8c0.2,0,0.5,0.1,0.8,0.2c0.4,0.1,0.6,0.2,0.8,0.2c0.4,0,0.6,0,0.7-0.2
	L75,186.5z M60.3,171.8c-1.3-0.1-2.4-0.6-3.2-1.4c-0.1,1.4,0.6,2.1,2,2.2c0.2,0,0.4-0.1,0.7-0.2C60.2,172.1,60.3,172,60.3,171.8z
	 M75,190.1c-0.1-0.3-0.7-0.6-1.7-0.9c0.6,0.6,1.1,0.9,1.4,1L75,190.1z M75.8,188c-0.7,0.1-1.5,0.1-2.3,0c-1-0.5-1.6-0.9-2-1.1
	c-0.8-0.5-1.3-1.1-1.4-1.7c-0.1-0.6-0.4-0.9-0.8-0.9l-0.5,0.2c0,0-0.3-1.2-0.9-3.5l-0.4,1.2c-0.2,0.1-0.5,0.2-0.6,0.2
	c-0.2,0-0.3-0.1-0.4-0.4c0-0.2,0-0.5,0-0.8c0.1-0.5,0.1-0.8,0.1-0.7c0-0.3,0-0.5-0.1-0.7c-0.1,0-0.3,0.2-0.6,0.6
	c-0.3,0.4-0.6,0.6-0.9,0.6c-0.4,0-0.7-0.2-0.6-0.5c0-0.2,0.1-0.4,0.4-0.8c0.3-0.4,0.4-0.7,0.4-0.9c-0.5,0.2-1.1,0.5-2,0.7
	c-0.2-0.1-0.3-0.3-0.3-0.5c0.3-0.3,0.6-0.8,0.8-1.3c-0.5,0.2-1.4,0.4-2.7,0.5c-0.2-0.2-0.3-0.4-0.3-0.6c0.6-0.3,1.3-0.8,2.2-1.4
	c-0.3,0-0.8,0.1-1.5,0.3c-0.6,0.2-1.1,0.3-1.4,0.3c-0.8,0-1.4-0.5-1.9-1.3c0.2-0.3,0.4-0.4,0.7-0.4c0.2,0.2,0.4,0.3,0.6,0.3
	c0.2,0,0.7-0.2,1.5-0.6l-1.9-0.1c-2.3-1.6-3.3-3.9-3.2-7l-0.4,0c-0.1,0.8-0.2,1.2-0.2,1.1c0,0.6,0.2,2.6,0.8,5.9
	c0.3,1.5,1.4,3,3.5,4.5c2,1.2,3.9,2.5,5.9,3.8c2.2,1.6,3.5,3.5,4,5.4c0,0.1,0,0.3,0,0.6c-0.1,1.9-1.3,2.8-3.4,2.7
	c-0.6,0-1.2-0.2-1.7-0.5c-0.6-0.3-1.1-0.7-1.6-1c0,0.1,0.1,0.3,0.4,0.4c0.3,0.1,0.4,0.3,0.4,0.4c0,0.1-0.1,0.3-0.4,0.4
	c-0.2,0.2-0.4,0.3-0.3,0.5c0.1,0.1,0.2,0.1,0.3,0.2c-0.1,0,0.3-0.1,1.2-0.3c0.2,0.2,0.3,0.6,0.2,1.3c0.1,0,0.3-0.1,0.5-0.3
	c0.3-0.2,0.5-0.3,0.6-0.3c0.3,0,0.4,0.2,0.4,0.6c0-0.5,0-0.2-0.1,0.9c0.3-0.1,0.7-0.5,1-1.2l0.2,0c0.3,0,0.5,0.3,0.5,1
	c0.1,0.6,0.2,1,0.4,1c0.1-0.1,0.1-0.7,0.2-1.6c0-0.5,0.2-0.7,0.6-0.7c0.1,0.2,0.2,0.5,0.2,0.7c0.5,0.9,0.9,1.4,1.4,1.4l0-0.1
	c0-0.3,0-0.6-0.3-1.1c-0.2-0.5-0.3-0.9-0.3-1.2l0-0.1c0.3,0,0.7,0.2,1.3,0.7c0.6,0.4,1,0.7,1.2,0.7c-0.4-1.1-1.1-1.8-2-2
	c0-0.1-0.1-0.2,0-0.4c0-0.2,0.1-0.5,0.3-0.7c0.6,0.4,1.5,0.8,2.6,1.2c-0.3-0.7-1-1.2-1.9-1.5c0-0.1-0.1-0.3,0-0.4
	c0-0.2,0.1-0.3,0.3-0.4c0.1,0,0.3,0,0.6,0c0.3,0.1,0.5,0.1,0.5,0.1c0,0,0.1,0,0.2-0.1c0-0.1,0-0.3-0.1-0.5c0.2-0.2,0.5-0.2,0.9-0.2
	c0.8,0.1,1.2,0.2,0.9,0.2l0.3,0C75.6,188.4,75.8,188.2,75.8,188z M61.7,185.4c0-0.5-0.2-0.8-0.8-1.1c-0.3,0.2-0.6,0.5-0.8,1
	c0.5,0.2,0.7,0.6,0.6,1.1C61.4,185.8,61.7,185.5,61.7,185.4z M59,184.1c-0.6,0-1.4,0.1-2.3,0.3c0.6,0.3,1.1,0.5,1.4,0.5
	C58.5,184.9,58.7,184.6,59,184.1z M59.9,186.9c-0.6-0.2-1.1-0.3-1.3-0.3c-0.5,0-1,0.1-1.6,0.4c-0.2,0.1-0.6,0.3-1,0.4
	c-0.2-0.2-0.2-0.4-0.2-0.6c0,0,0.1-0.4,0.4-1c-0.4-0.4-0.6-0.6-0.7-0.6l-0.1,0c-0.6,0.6-0.9,1-1,1.2c0.4,0.7,0.7,1,0.8,1.1
	c0.2,0.1,0.7,0.2,1.4,0.3C57.9,187.7,58.9,187.5,59.9,186.9z M60.1,191.4l-0.3-0.1l-0.2,0.3l0.1,0.2l0.4,0L60.1,191.4z M61.2,193.4
	c0-0.2-0.4-0.3-1-0.4c-0.3,0-0.4,0.1-0.4,0.3l0,0.1c0.1,0.1,0.3,0.2,0.5,0.3C60.3,193.7,60.6,193.6,61.2,193.4z M61.5,194.6
	c-0.8,0-1.3,0-1.6,0c-0.3,0-0.4,0.2-0.5,0.5c0,0.3,0.3,0.4,0.9,0.5C61.1,195.7,61.5,195.3,61.5,194.6z M61.9,196.8
	c-0.2-0.2-0.4-0.2-0.6-0.3l-0.3,0.2c0.1,0.2,0.2,0.2,0.4,0.2C61.5,197,61.7,196.9,61.9,196.8z M58.9,189.9c-0.8,0-2-0.6-3.6-1.6
	l-0.3,0.3c0.4,0.9,0.6,2,0.5,3.4c-0.1,1.3-0.4,2.5-1,3.7c0.2,0.6,0.9,1,2,1.1l0.8,0c-0.3-0.2-0.8-0.5-1.4-0.8c0.1-0.3,0.4-0.4,1-0.5
	c0.8-0.1,1.3-0.2,1.3-0.2c-0.6-0.2-1.4-0.7-2.2-1.4c0.2-0.1,0.4-0.2,0.7-0.3c0.2,0,0.4,0,0.7,0c0.4,0.1,0.6,0.1,0.7,0.1
	c-0.2-0.2-0.5-0.4-1.1-0.7c-0.5-0.2-0.8-0.5-1-0.8c0.2-0.3,1-0.4,2.5-0.3l0-0.3c-0.2-0.1-0.5-0.1-0.7-0.1c-0.4-0.2-0.8-0.4-1.2-0.7
	c-0.5-0.3-0.7-0.6-0.7-1c0.2-0.1,0.3-0.1,0.5-0.1c0.2,0,0.3,0.1,0.4,0.3c0.6,0.1,0.9,0.2,0.9,0.2C58.3,190.4,58.7,190.3,58.9,189.9z
	 M61.3,166.4c0,0.9-0.3,1.6-0.7,2.3c-0.2-0.1-0.4-0.2-0.6-0.3c-0.2,0.3-0.4,0.4-0.8,0.5c-0.1-0.2-0.1-0.5,0.1-0.9l-0.6,0
	c-0.2-0.1-0.3-0.2-0.2-0.3c0.1-2.4,0.7-3.6,1.8-3.6c0.3,0,0.6,0.5,1,1.4C61.3,166.2,61.3,166.5,61.3,166.4z M73.9,180.7
	c0,0.3-0.1,0.6-0.2,0.9c-0.3,0.2-0.6,0.3-1.1,0.3c-0.8,0-1.7-0.5-2.5-1.4c-0.8-0.9-1.2-1.7-1.1-2.6l0.8-0.4c0.3,0,0.5,0,0.7,0
	c0.7,0,1.5,0.4,2.3,1.1S73.9,180,73.9,180.7z M60.8,165.5l-0.3-0.2c-0.1,0.1-0.5,0.1-1.1,0.1l-0.2,0l0,0.1c0,0.2,0,0.5,0.1,0.9
	c0.1,0.4,0.1,0.6,0.1,0.8l0.3,0c0.3,0,0.5-0.1,0.7-0.2l-0.1-0.4C60.2,166.2,60.4,165.9,60.8,165.5z M72.4,179.9
	c-0.1-0.5-0.5-0.8-1-0.8l-0.7,0c0.1,0.4,0.3,0.6,0.6,0.7C71.8,179.8,72.1,179.9,72.4,179.9z M108.5,167.7c-0.1,1.3-0.5,2.1-1.2,2.4
	c-0.4,0.2-1.3,0.2-2.7,0.1c-0.7,0-2,0.1-3.9,0.5c-2.3,0.5-3.5,2.8-3.7,7c-0.1,1.4,0.1,2.6,0.5,3.6c0,0.6-0.2,1.3-0.4,2.2
	c-0.3,1.1-0.5,1.8-0.6,2.1c-0.2,1-0.3,2.3-0.4,3.9c-0.1,2.1-0.2,3.4-0.2,3.9c-0.2,0.1-0.3,0.3-0.3,0.4c0,0.3,0,0.9,0,1.5
	c0.1,0.7,0.1,1.2,0,1.5c-0.1,0.9-0.5,1.7-1.3,2.2c-0.8,0.6-1.7,0.8-2.7,0.8c-0.4,0-0.7-0.1-0.9-0.3c-1.2-0.3-2.1-1-2.7-2.1
	c-0.2-1.5-0.3-2.9-0.2-4.1l0-0.4l0.2-0.1c0.1-1.6,0.2-4,0.5-7.3c0.2-3.2,0.4-5.7,0.5-7.3l0.3-5.4l1.1-2.9l-0.3-0.3
	c-0.6-0.1-1.9-0.2-4.1-0.3c-1.6-0.1-2.7-0.4-3.4-0.9c-1.6-0.1-2.3-1.1-2.2-3.2c0-0.4,0.1-0.9,0.3-1.6c0.2-0.7,0.3-1.2,0.3-1.5
	c0.2-0.3,0.6-0.7,1.2-1.1l3.2,0.2c4.5,0.3,8.2,0.5,11.1,0.7l8.8,0.6C107.6,162.8,108.7,164.5,108.5,167.7z M107.7,167.8
	c-0.3-0.3-0.4-0.7-0.4-1.2c0-0.2,0-0.4,0.1-0.8c0.1-0.4,0.1-0.6,0.1-0.8l-0.1-0.5l-0.1,0c-0.2,0-0.3,0.1-0.4,0.4
	c-0.1,0.2-0.1,0.4-0.2,0.6c0,0.5-0.4,0.6-1.2,0.4c-0.1,0.1-0.2,0.2-0.3,0.3l0.8,1c0.2,0.6,0.7,0.9,1.3,1
	C107.6,168.1,107.7,168,107.7,167.8z M105.7,164.2c-0.5-0.4-1.2-0.6-2.3-0.7c-0.4,0-0.9,0-1.6,0c-0.7,0-1.3,0.1-1.6,0
	c-0.6,0-1.1-0.1-1.3-0.3c-1.6,0.1-3.1,0.1-4.6,0.1c-1.3-0.1-3.1-0.3-5.6-0.6c-2.5-0.3-4.3-0.5-5.6-0.6c-0.4,0-0.8,0.1-1.3,0.4
	c-0.3,0.3-0.4,1-0.5,2c0.1-0.4,0.4-0.9,0.9-1.3c0.2,0.2,0.4,0.4,0.4,0.8c0-0.5,0-0.2-0.1,0.9c0.2-0.1,0.3-0.4,0.5-0.8
	c0.2-0.4,0.4-0.6,0.7-0.6c0.2,0,0.3,0.2,0.3,0.4c0,0.2,0,0.5-0.1,0.9c-0.1,0.4-0.1,0.6-0.1,0.7c0,0.4,0.1,0.6,0.3,0.7
	c0.1-0.4,0.3-0.9,0.5-1.3c0.2-0.5,0.5-0.9,0.8-1c0.2,0.2,0.2,0.4,0.2,0.8c-0.1,0.7-0.2,1-0.2,0.9c0,0.5,0.1,0.8,0.4,0.8l0.1,0
	c0.1-0.3,0.4-1.2,0.9-2.5c0.3,0.1,0.4,0.3,0.5,0.5c0.1,0.2,0.1,0.4,0,0.6c-0.1,0.4-0.1,0.6-0.1,0.7c0,0.2,0,0.5,0,0.6l0.2,0
	c0.1-0.6,0.4-1.4,0.8-2.3c0.4,0.2,0.6,0.4,0.6,0.8c0,0.2-0.1,0.4-0.2,0.8c-0.1,0.4-0.2,0.6-0.2,0.9l0,0.2c0,0.1,0,0.2,0.2,0.3
	c0.1,0,0.2,0.1,0.4,0.1l0.9-2.5c0.3,0,0.5,0.3,0.5,0.6c0-0.4,0-0.1-0.1,0.9c0,0.3,0.1,0.5,0.3,0.7c0.2-0.1,0.4-0.5,0.6-1.1
	c0.2-0.7,0.4-1.1,0.7-1.2c0.2,0.2,0.3,0.5,0.2,1.1c0,0.6,0.1,0.9,0.2,1.1c0.3,0,0.6-0.6,0.8-1.6c0.2-0.2,0.4-0.3,0.7-0.4
	c0,0,0.1,0.5,0.2,1.3c0.1,0.6,0.3,0.9,0.6,0.9c0-0.8,0.3-1.5,0.6-2.1c0.4,0,0.6,0.3,0.6,0.9c0,0.8,0.1,1.2,0.1,1.3
	c0.3,0,0.6-0.4,0.8-1.1c0.2-0.8,0.5-1.2,0.7-1.1c0.2,0,0.3,0.3,0.3,1c0.1,0.7,0.2,1.2,0.5,1.3c0-0.5,0.3-1.3,0.8-2.4
	c0.3,0,0.5,0.2,0.6,0.4c0,0.2,0.1,0.4,0,0.7c-0.1,0.5-0.1,0.7-0.1,0.7c0,0.2,0,0.4,0.2,0.5c0.2-0.6,0.5-1.4,1-2.4l0.2,0
	c0.3,0,0.4,0.2,0.4,0.7c0,0.3,0,0.6-0.1,1c0,0.3,0.1,0.5,0.2,0.6c0.2-0.6,0.5-1.3,0.9-2.1c0.4,0,0.6,0.4,0.6,1
	c0,0.7,0.2,1.1,0.5,1.2c0-0.9,0.3-1.6,0.7-2.3c0.2-0.1,0.3-0.1,0.5-0.1l0.3,0.1c0,0.2-0.1,0.5-0.3,0.7c-0.1,0.5-0.2,0.9-0.3,1.5
	c0,0.9,0.2,1.5,0.8,1.9c0-0.2-0.1-0.6-0.2-1c-0.1-0.5-0.2-0.8-0.2-1c0-0.3,0.2-0.7,0.5-1.4C105.2,164.8,105.5,164.4,105.7,164.2z
	 M96.4,182.9c0.1-1.3,0.1-2.1,0-2.5c-0.2-0.9-0.7-1.4-1.6-1.5c-0.7,0-1.2,0.3-1.3,1.1c-0.1,0.6-0.2,1.3-0.2,2
	c0.4,1.1,0.6,1.7,0.6,1.8c0.3,0.6,0.8,1,1.5,1.2C96,184.5,96.4,183.9,96.4,182.9z M96,171.7L96,171.7c0-0.4-0.2-0.8-0.8-1.4
	c-0.6-0.6-0.8-1.2-0.7-1.6c-0.2-0.1-0.5-0.2-0.8-0.2c-0.5,0-1.4,0.7-2.6,2.3c-0.7,0.9-1.1,2.3-1.2,4.4c0,0.6,0,1.6,0,2.9
	c0,1.3,0.1,2.3,0,2.9c-0.1,1.6-0.3,4-0.6,7.1c-0.3,3.1-0.5,5.5-0.6,7.1c0,0.5,0,1,0.2,1.6c0.2,0.7,0.5,1.1,0.8,1.4l0-0.1
	c0-0.2,0.2-0.4,0.6-0.4c0.5-0.1,0.8-0.1,0.9-0.2c-0.9-0.5-1.3-1-1.3-1.3c0.2-0.2,0.4-0.2,0.6-0.2l0.9,0.3l0.6-0.1
	c-0.5-0.4-1.2-0.8-2-1.2c0.1-0.2,0.2-0.4,0.4-0.4c0.2,0,0.4,0,0.6,0.1c0.4,0.1,0.6,0.1,0.6,0.1c0.2,0,0.4,0,0.6-0.2
	c-1.2-0.5-1.9-1.2-2.2-1.9c0.3-0.1,0.8-0.1,1.3-0.1c0.9,0.1,1.4,0.2,1.3,0.2c0.3,0,0.4-0.1,0.4-0.4c-1.1-0.3-1.7-0.5-1.7-0.5
	c-0.7-0.3-1.1-0.6-1.3-1.1c0.3-0.1,0.5-0.1,0.6-0.1c0.1,0,0.4,0.1,0.9,0.3c0.5,0.2,0.8,0.2,1.1,0.3c0.3,0,0.4-0.1,0.4-0.3
	c-0.7-0.3-1.7-0.9-2.8-1.6c0.1-0.2,0.1-0.4,0.2-0.5c0.2,0,0.4,0.1,0.8,0.2c0.4,0.1,0.6,0.1,0.7,0.1c0.2,0,0.4,0,0.6-0.1
	c-0.4-0.2-0.8-0.4-1.3-0.6c-0.5-0.3-0.8-0.6-0.9-1c0.3-0.1,0.6-0.1,0.9-0.1c0.7,0.1,1,0.1,0.9,0.1c0.2,0,0.5,0,0.7-0.1
	c-0.8-0.6-1.6-1.1-2.4-1.5c0.1-0.3,0.4-0.4,0.9-0.4c0.4,0,0.7,0,1.1,0c-0.3-0.2-0.8-0.6-1.5-1.1c-0.1-0.1-0.1-0.2-0.1-0.3
	c0-0.1,0.2-0.3,0.4-0.4c0.2-0.1,0.4-0.1,0.6-0.2c-0.3-0.2-0.6-0.3-0.9-0.5c-0.4-0.2-0.6-0.5-0.5-0.7c0.2-0.2,0.6-0.3,1.2-0.2
	c0-0.1-0.2-0.3-0.6-0.6c-0.4-0.2-0.5-0.5-0.5-0.6c0-0.2,0.2-0.3,0.6-0.3c0.3,0,0.5,0,0.8,0c0-0.3-0.2-0.5-0.6-0.7
	c-0.4-0.2-0.6-0.4-0.6-0.7l0-0.1c0.4-0.1,0.8-0.2,1.4-0.4c0-0.1-0.3-0.3-0.8-0.6c-0.4-0.3-0.6-0.5-0.6-0.7c0-0.2,0.4-0.3,1.2-0.2
	c0-0.1-0.2-0.4-0.5-0.8c-0.3-0.4-0.5-0.6-0.5-0.8c0.1-0.1,0.2-0.2,0.3-0.2c0.1,0,0.2,0,0.4,0c0.2,0.1,0.3,0.1,0.4,0.1l0.3-0.1
	c-0.4-0.3-0.7-0.7-1.1-1.4c0.2-0.1,0.4-0.1,0.6-0.1c0.2,0,0.7,0.1,1.5,0.4c0-0.2-0.2-0.5-0.6-0.9c-0.4-0.4-0.6-0.7-0.6-0.8
	c0.1-0.3,0.2-0.5,0.5-0.6c0.9,0.7,1.4,1,1.6,1c0.1,0,0.1,0,0.2-0.1c-0.1-0.6-0.4-1.4-1.1-2.3c0.1-0.1,0.2-0.2,0.3-0.3
	c0.2,0.1,0.6,0.3,1,0.9C95.3,171.4,95.6,171.7,96,171.7L96,171.7z M96.1,182.2c-0.1,0.9-0.2,1.5-0.6,1.7c-0.3,0.1-0.5,0.1-0.7,0.1
	c-0.2,0-0.4-0.4-0.7-1.2c-0.2-0.7-0.3-1.2-0.3-1.7c0.1-0.9,0.5-1.5,1.3-1.7l0.3,0.1C95.9,180.2,96.1,181.1,96.1,182.2z M95.8,181.5
	c-0.3,0-0.5-0.2-0.7-0.6c-0.2-0.4-0.4-0.6-0.5-0.6l-0.2,0.1c0,1,0.2,1.8,0.4,2.5l0.3-0.1L95.8,181.5z M134,197.8
	c-0.1,1.2-0.4,2.2-1,3c-0.7,1-1.6,1.4-2.7,1.3c-0.4,0-0.9-0.1-1.6-0.3c-0.7-0.2-1.3-0.3-1.6-0.3c-0.4,0-0.9,0-1.6,0
	c-0.8,0-1.3,0-1.6,0c-0.6,0-1.5-0.1-2.6-0.2c-1.2-0.1-2.1-0.2-2.6-0.2c-0.7,0-1.4,0.1-2.1,0.5c-0.7,0.3-1.2,0.5-1.4,0.5
	c-0.2,0-1.7-0.9-4.6-2.7c-0.7-0.9-1.8-2.4-3.1-4.3c0-0.5,0.5-1.3,1.3-2.3c0.9-1.1,1.3-1.9,1.4-2.5c0.6-3.1,0.9-5.2,0.9-6.2
	c0.3-4.8-0.4-8.4-1.9-10.9c-0.6-1-0.9-1.7-0.9-2.1c0.1-1.1,0.6-1.8,1.7-2.1c1.1-0.3,1.7-0.9,1.7-1.8c0-0.4,0-0.9,0-1.6
	c0-0.7-0.1-1.2,0-1.6c0,0.1,0.1-0.3,0.2-1.1c0.4-0.2,1-0.3,1.6-0.2c0.3,0,0.7,0.1,1.3,0.2c0.6,0.1,1,0.2,1.3,0.2
	c0.5,0,1.3,0.1,2.3,0.1c1,0,1.8,0,2.3,0.1c0.6,0,1.6,0.1,2.8,0.3c1.2,0.2,2.2,0.3,2.8,0.3c0.3,0,0.6,0,0.8,0.1l0.1-0.2
	c0.5,0.1,1.1,0.1,1.8,0.1c1,0,1.6,0,1.9,0c1.4,0.1,2.3,0.6,2.6,1.7c0.2,0.9,0.4,1.9,0.7,2.8l0,0.6c-0.1,1.2-0.8,2.2-2.2,3
	c-1-0.2-2.1-0.3-3.3-0.4c-0.8-0.1-1.9-0.1-3.3-0.2c-1.6-0.1-2.7-0.1-3.3-0.1c-1.5-0.1-2.6-0.2-3.4-0.5c-0.4-0.4-1.1-1.4-2.2-3.1
	l-0.3,0.2c0.1,0.4,0.7,1.3,1.5,2.7c0.7,1.1,1,2,0.9,2.8c0,0.3-0.1,0.6-0.2,1c0.1,0.4,0.1,0.9,0,1.5c-0.2,0.9-0.2,1.5-0.2,1.5
	c0,0.3,0,0.5,0,0.7c0.5,0.2,1.5,0.4,3.1,0.6c0.5,0.3,1,0.5,1.5,0.5c0.4,0,1,0,1.7-0.1c0.8-0.1,1.4-0.2,1.7-0.2
	c1.2,0.1,1.8,0.8,1.8,2.3c0.2,0.4,0.3,0.9,0.2,1.5c0,0.8-0.1,1.6-0.3,2.3c-0.1,0-0.2,0.3-0.4,0.8c-0.3,0.7-1.6,1-3.8,0.9
	c-0.7,0-1.7-0.1-3-0.3c-1.3-0.1-2.3-0.2-3-0.3l-1.3-1.4l-0.1,0.1c0,0.3,0.3,0.8,0.9,1.5c0.6,0.7,0.9,1.6,0.8,2.6
	c0,0.4-0.1,0.9-0.2,1.6c-0.1,0.7-0.2,1.2-0.2,1.5c0-0.1,0,0.2,0.1,1c0.1,0.1,0.2,0.2,0.3,0.2c0.3,0,0.8,0,1.5,0c0.7,0,1.2,0,1.5,0
	c0.6,0,1.1,0.1,1.4,0.3l9,0.5c0.5,0.3,1,0.8,1.6,1.8C133.8,196.6,134,197.3,134,197.8z M132.9,168.4c0-0.6,0-1.2-0.2-2
	c-0.2-1-0.5-1.5-0.9-1.6l-0.4,0.2c0.6,0.9,0.8,1.5,0.8,1.9c0,0.1,0,0.3-0.1,0.5c0,0.1,0.1,0.2,0.2,0.4c0.1,0.2,0.2,0.3,0.2,0.4
	c0,0.1-0.1,0.2-0.2,0.3c0.1,0.1,0.2,0.3,0.2,0.5c-0.1,0.3-0.3,0.8-0.5,1.4c0.3-0.1,0.4-0.1,0.5-0.2
	C132.8,169.4,132.9,168.8,132.9,168.4z M131.7,168.7l0.1-1c-0.1,0-0.3-0.3-0.4-0.6c-0.1-0.4-0.2-0.6-0.3-0.7
	c-0.1,0.1-0.2,0.2-0.3,0.2c-0.1,1.4,0.1,2.3,0.5,2.8C131.6,169.4,131.7,169.1,131.7,168.7z M130.2,165.4c0-0.3-0.1-0.4-0.3-0.5
	l-0.4,0c-0.3,0-0.7-0.1-1.2-0.2c-0.5-0.1-0.9-0.2-1.2-0.2c-0.5,0-0.9,0.1-1.3,0.3c0.1,0.4,0.1,0.8,0.1,1.2c0,0.9-0.3,1.7-0.7,2.6
	c0.2-0.3,0.7-1.1,1.3-2.3c0.1-0.2,0.1-0.5,0.2-0.7c0.1-0.3,0.2-0.4,0.5-0.4c0.1,0.4,0.1,1.1-0.1,1.9l0.1,0.6c0.1,0,0.1,0.1,0.2,0.1
	c0.2,0,0.4-0.3,0.6-1c0.2-0.7,0.5-1,1-1c-0.1,0.9,0,1.8,0,2.5c0.1,0,0.1,0.2,0.2,0.5c0.1,0.3,0.2,0.4,0.3,0.4c0-0.5,0.1-1.1,0.3-1.9
	C130.1,166.5,130.2,165.8,130.2,165.4z M125.4,166.7c0.1-1.8-1.3-2.8-4.1-2.9c-1.3,0.5-2,1-2,1.6c-0.1,1,0.4,1.8,1.2,2.4l0.4,0
	c0.6,0.5,1.4,0.7,2.2,0.8c0.4-0.1,0.7-0.3,1.1-0.4c0.5-0.2,0.8-0.4,0.9-0.8C125.2,167.2,125.3,167,125.4,166.7z M119,168.2
	c-0.7-1.8-1-3.1-1-3.7c0-0.1,0-0.3,0.1-0.4c-1.3-0.1-2.1-0.3-2.4-0.6c-0.1,0-0.3,0.1-0.7,0.1c-0.4,0-0.6,0.1-0.6,0.1
	c0,0.1,0.1,0.3,0.2,0.4c0,0.5,0.2,0.7,0.6,0.8c0.2,0,0.4-0.1,0.4-0.4c0.2,0.1,0.5,0.5,0.8,1l0.2,0l0-0.1c0-0.2,0.1-0.4,0.4-0.5
	c0.3,0.6,0.6,1.2,0.8,1.7C118.2,167.4,118.6,167.9,119,168.2z M115.1,171c0-0.2-0.3-0.5-0.8-0.9c-0.4-0.3-0.7-0.6-1.1-0.9
	c0.1-0.2,0.2-0.3,0.4-0.3c0.1,0,0.3,0,0.5,0.1c0.2,0.1,0.4,0.1,0.5,0.1c0.2,0,0.3-0.1,0.4-0.2c0-0.3-0.2-0.5-0.5-0.7
	c0-0.1-0.3-0.3-0.7-0.5c-0.4-0.2-0.6-0.4-0.6-0.5c0-0.1,0.1-0.2,0.2-0.3c0.3,0,0.6,0,0.8-0.1c-0.5-0.5-0.9-0.9-1.1-1.4l0.3-0.5
	c-0.1-0.3-0.2-0.5-0.5-0.5c-0.2,0-0.3,0.3-0.4,1c-0.1,2.1-0.2,3.2-0.2,3.3c0.1,0.1,0.3,0.5,0.6,1.1c0.2,0.4,0.8,0.8,1.7,1.1
	L115.1,171z M127.4,183.2c-0.2-0.3-0.6-0.7-1.1-1.2l0.1-1.2c0-0.4-0.1-0.6-0.4-0.6c-0.3,0.4-0.4,0.8-0.4,1.2l0,0.2l0.1,0.1
	c-0.1,0.3-0.4,0.8-0.8,1.5c0,0.2,0,0.4,0.2,0.6c0.7-0.3,1.1-0.4,1.2-0.2c0.2,0,0.3,0.1,0.6,0.1l0.3,0c0.2,0,0.3-0.1,0.3-0.3
	L127.4,183.2z M114.9,172.7l0-0.2l-0.6-0.3l-0.2,0.2c0.1,0.1,0.3,0.3,0.5,0.4L114.9,172.7z M111.7,169.7c-0.1-0.2-0.3-0.2-0.7-0.3
	c-1.3-0.1-1.9,0.3-2,1.2c0,0.5,0.2,0.7,0.8,0.7c0.3,0,0.7-0.1,1.3-0.3C111.5,170.5,111.7,170.1,111.7,169.7z M125.3,185.3
	c-0.6-1.1-0.8-2-0.8-2.6l0.1-1.5l0.2-0.1c0.1-0.2,0.2-0.4,0.2-0.5c0-0.4-0.1-0.6-0.5-0.7c0.3,0,0,0-0.9,0c-0.7,0-1.8-0.2-3.3-0.4
	c-1.4-0.2-2.5-0.4-3.2-0.4c-0.3,0-0.7,0.3-1.3,0.8c-0.6,0.5-0.9,0.9-0.9,1.2l0,0.1c0.1,0.1,0.2,0.1,0.3,0.1c0.1,0,0.4-0.2,0.8-0.5
	c0.4-0.4,0.7-0.6,0.9-0.7l0,0c0,0.2-0.1,0.4-0.2,0.8c-0.1,0.3-0.2,0.6-0.2,0.7c0,0.3,0.1,0.4,0.3,0.5c0.3-0.4,0.8-1,1.6-1.8
	c0,0.2,0,0.5,0,0.8c-0.1,0.4-0.2,0.7-0.2,0.8c0,0.5,0.1,0.7,0.4,0.9c0.2-0.4,0.4-0.7,0.5-1.1c0.3-0.5,0.6-0.8,0.8-0.9
	c-0.1,0.2-0.1,0.5-0.1,1c0,0.7,0.1,1.1,0.4,1.1l0.2,0c0.2-0.8,0.6-1.4,1.3-1.9c0,0.8,0,1.7,0.2,2.7l0.5,0c0.3-0.9,0.7-1.6,1.1-2.4
	l1.3,4.1C125,185.5,125.2,185.4,125.3,185.3z M133.1,197.5c-0.2,0.1-0.5,0.2-0.7,0.2c-0.2,0-0.5-0.2-0.8-0.7
	c-0.5-0.6-0.8-0.9-0.8-0.9c-0.1,0-0.2,0.1-0.2,0.3c0,0.1,0,0.2,0.1,0.4c0.1,0.2,0.1,0.4,0.1,0.5c0,0.1-0.1,0.3-0.3,0.5
	c-0.2,0.2-0.3,0.4-0.3,0.6l0,0c0.8,0,1.2,0.3,1.3,0.9c0.2,0.1,0.4,0.3,0.6,0.3c0.1-0.1,0.1-0.3,0.1-0.6c0-0.4-0.1-0.7,0-0.8
	c0-0.2,0.3-0.2,0.8-0.1c0.1-0.1,0.1-0.3,0.1-0.5L133.1,197.5z M114.7,190.6c-0.1-0.2-0.3-0.4-0.6-0.6c-0.4-0.3-0.6-0.5-0.7-0.6
	c-0.8-0.3-1.2-0.6-1.2-1c0.3-0.2,0.6-0.2,0.8-0.2c0.1,0,0.4,0.1,0.7,0.1c0.3,0.1,0.5,0.1,0.7,0.1l0.5-0.1c-0.3-0.3-1.1-0.8-2.3-1.7
	c0.2-0.2,0.4-0.2,0.7-0.2c0.4,0,0.9,0.1,1.6,0.3c-0.6-0.3-1.3-0.8-2.2-1.6c0.4,0,1-0.2,1.7-0.4c-0.1-0.2-0.4-0.4-0.9-0.8
	c-0.6-0.4-0.9-0.6-1-0.8c0.4-0.3,0.7-0.4,0.9-0.3c-0.2-0.5-0.5-1-1.1-1.4l0-0.2c0-0.3,0.2-0.4,0.6-0.6c0.3-0.1,0.6-0.1,0.9-0.2
	c0-0.2-0.3-0.4-0.7-0.6c-0.5-0.2-0.7-0.4-0.8-0.6c0-0.2,0.3-0.3,0.7-0.4c0.4-0.1,0.7-0.2,0.7-0.2c-0.5-0.2-1-0.5-1.7-0.9
	c0-0.3,0.2-0.5,0.5-0.5c0.3,0,0.6,0,0.9,0c-0.2-0.2-0.5-0.4-0.9-0.6c-0.4-0.2-0.8-0.4-0.9-0.6c0-0.1,0-0.1,0-0.2
	c0-0.1,0.2-0.1,0.7-0.2c0.5-0.1,0.8-0.2,0.9-0.5c-0.4-0.1-1-0.3-1.7-0.6l0-0.2c0-0.2,0.2-0.3,0.5-0.4c0.4-0.1,0.7-0.2,0.8-0.3
	c-0.2-0.2-0.6-0.3-1.1-0.3c-0.1-0.2-0.2-0.4-0.2-0.6c0.2,0,0.5-0.1,0.7-0.1c0.1-0.1,0.1-0.1,0.1-0.2l0-0.2l-0.4,0
	c-0.8-0.1-1.4,0.2-1.8,0.8c1.3,4.1,1.9,8.2,1.7,12.3c-0.2,3.7-1,6.6-2.5,8.6c-0.5,0.7-0.8,1.3-0.8,1.7c0.2,0.4,0.7,1,1.3,1.6l-0.3-1
	c0.1-0.1,0.2-0.1,0.3-0.1c0.1,0,0.3,0.2,0.5,0.5c0.2,0.3,0.4,0.4,0.6,0.5l0.2,0c0-0.2-0.2-0.4-0.5-0.7c-0.3-0.3-0.5-0.6-0.4-0.9
	l0.1-0.4c0.6,0.6,1.6,1.2,3,1.9c-0.4-0.5-1.2-1.4-2.3-2.9l0.3,0c0.5,0,1.2,0.4,2,1l0.1-0.3l-0.1-0.4c-0.6-0.5-1.2-1.2-1.8-2
	c0.3-0.1,0.5-0.1,0.5-0.1c0.2,0,0.6,0.2,1,0.4c0.5,0.3,0.8,0.4,0.9,0.4c0.2,0,0.4-0.1,0.6-0.3c-0.2-0.2-0.4-0.5-0.6-0.6
	c0-0.2-0.3-0.4-0.9-0.8c-0.5-0.3-0.9-0.6-0.9-0.9c0.3-0.1,0.5-0.1,0.6-0.1C112.7,190.2,113.4,190.4,114.7,190.6z M129.7,200
	c-0.5-1.9-0.8-2.9-0.7-3c0-0.2,0.3-0.8,0.8-1.7c-0.2-0.1-1.2-0.2-3-0.3c-0.6,0-1.6-0.1-2.9-0.3c-1.3-0.2-2.2-0.3-2.8-0.3
	c-1.2-0.1-2.3,0-3.4,0.2c-1,0.7-1.5,1.4-1.6,2.3c0.1,0.1,0.2,0.2,0.3,0.2c0.2-0.1,0.6-0.5,1.1-1.4c0.1,0.1,0.2,0.3,0.2,0.5
	c0,0.2,0,0.4,0,0.6c0.2-0.5,0.6-1,1.1-1.6c0.4,0.1,0.6,0.4,0.6,0.9c0-0.6,0-0.2-0.1,1.2l0.4,1c0.1-0.1,0.4-0.6,0.7-1.5
	c0.3-0.7,0.6-1.1,0.8-1c0.1,0.3,0.1,1.2,0,2.7l0.4,0.2c0.4-0.4,0.7-1,0.9-1.8l0-0.1c0-0.3,0.2-0.5,0.6-0.7c0.2,0.2,0.3,0.7,0.3,1.3
	c0,0.9,0,1.4,0.1,1.5c0.2-0.2,0.4-0.6,0.5-1.3c0.1-0.8,0.2-1.2,0.4-1.4c0.1,0,0.2,0,0.2,0c0.3,0,0.4,0.2,0.5,0.5c0,0.2,0,0.5,0,0.9
	c-0.1,0.5-0.1,0.8-0.1,0.8c0,0.2,0,0.4,0.1,0.7c0.3-0.1,0.5-0.7,0.6-1.7c0.1-0.9,0.4-1.3,0.9-1.3l0.1,2.9c0.4,0,0.8-0.4,1-1.3
	c0.3-0.9,0.6-1.4,0.9-1.4l0.1,0.5c-0.1,0.4-0.2,0.7-0.2,0.9C128.5,198.8,128.9,199.6,129.7,200z M124.1,166.7c0,0.6-0.5,0.9-1.3,0.8
	c-1.7-0.1-2.6-0.8-2.5-2.1c0-0.7,0.5-1,1.5-0.9c0.7,0,1.3,0.4,2,1C124.1,166.4,124.1,166.8,124.1,166.7z M122.8,166.1
	c-0.1,0-0.4-0.2-0.9-0.6c-0.2,0.1-0.4,0.2-0.4,0.3c0.2,0.1,0.6,0.2,1,0.3L122.8,166.1z M163.3,175.8c-0.2,4.4-1.3,7.8-3.3,10.2
	c-2.3,2.8-5.5,4-9.7,3.8c-1-0.1-2.4-0.3-4.1-0.6c-0.1,0.8-0.2,1.2-0.2,1.1c0,0.9,0.2,2.6,0.6,5.1l0,0.2c-0.1,0.4,0.1,1,0.5,1.6
	c0.4,0.7,0.6,1.1,0.6,1.3c0,0.4-0.4,0.7-1,0.9c-0.5,0-0.9,0.4-1.2,1.2c-0.4,0.8-0.8,1.3-1.4,1.3c-0.3,0-0.9,0.1-1.8,0.2
	c-0.7,0.1-1.3,0.1-1.8,0.1c-0.8,0-1.5-0.2-2-0.6c-1.1-0.8-1.5-4-1.2-9.7c0.1-1.3,0.2-3,0.4-5c0.2-2,0.3-3.2,0.3-3.5
	c0.2-3.4,0.2-6.1,0-8.1c-0.1-1.1-0.5-2-1.2-2.7c-0.6-0.6-0.9-1.1-0.9-1.7c0.1-1.2,0.2-1.9,0.3-2.4c0.3-1.1,1.3-2,2.9-2.7
	c1.5-0.7,2.8-1,4-0.9c0.5,0,1.2,0.2,2,0.6c0.8,0.4,1.5,0.5,1.9,0.6c0.5,0,1.4-0.1,2.4-0.3c1.1-0.3,1.9-0.4,2.4-0.4
	c2.9,0.2,5.5,1.2,7.8,3.1C162.3,170.7,163.5,173.1,163.3,175.8z M161.6,176.6c0.1-2.7-0.4-4.3-1.7-4.8c-0.4,0-0.8,0.1-1.1,0.1
	c-0.5,0.1-0.8,0.2-0.8,0.5l-0.4-0.1c-0.6,0-1.5,0.2-2.5,0.8c-0.2-0.1-0.3-0.3-0.4-0.5c0.6-0.4,0.8-0.8,0.9-1.2c0-0.1,0-0.2-0.1-0.3
	l-0.1,0c-0.3,0-0.6,0.1-1.1,0.5c-0.5,0.3-0.9,0.5-1.1,0.5c-0.1-0.2-0.2-0.3-0.2-0.4c0-0.2,0.2-0.6,0.5-1.1c0.1-0.9-0.1-1.7-0.5-2.4
	c-0.4-0.8-1.1-1.2-2-1.3c-0.4,0-1,0.1-1.7,0.3c-0.8,0.2-1.3,0.3-1.7,0.3c-0.1,0-0.4-0.1-0.7-0.2c-0.3-0.1-0.5-0.2-0.7-0.2
	c-0.5,0-0.8,0.3-0.8,0.8c0,0.3,0,0.7,0.2,1.2c0.1,0.5,0.2,1,0.2,1.2c0,0.8,0.1,1.2,0.4,1.2c0.1-1.7,0.3-2.6,0.5-2.9
	c0.4,0.2,0.6,0.7,0.6,1.6c0.2-0.4,0.3-0.8,0.2-1.2c0.2-0.1,0.3-0.2,0.5-0.2c0.2,0,0.4,0.4,0.7,1.3c0.1-1.1,0.2-1.7,0.3-1.8
	c0.3,0,0.6,0.3,0.8,1c0.3,0.8,0.5,1.2,0.5,1.3c-0.1,0.2,0-0.4,0-1.8c0-0.3,0.1-0.7,0.3-0.9c0.5,0.3,0.8,1,0.9,2l0.3,0.3
	c0.1-0.4,0.2-0.7,0.3-1.1c0.1-0.5,0.3-0.7,0.6-0.7c0.3,0.3,0.4,0.7,0.4,1.1c0,0.5-0.3,1.3-0.8,2.3c-0.3,0.2-0.5,0.4-0.6,0.8
	c2.4,1,3.5,2.8,3.4,5.4c-0.1,1.7-0.8,3.1-2.1,4.2c-1.9,0.5-3.5,0.7-4.7,0.7c-0.3,0-0.6,0-0.9-0.1c-0.6,1.9-0.9,3.1-1,3.6l0,0.5
	l0.4,0c0-0.9,0.2-1.8,0.5-2.8l0.3-0.3l0.3,0.2c0.2,0.6,0.6,1.4,1.1,2.6c0,0,0,0,0-0.1c0,0,0.1-0.6,0.1-1.7c0-0.3,0.1-0.5,0.3-0.7
	l0.4,0.1l0.3,0.3c-0.1,1.1,0.1,1.8,0.4,2.1l0.1-1.8c0-0.3,0.1-0.5,0.2-0.7c0.3,0,0.6,0.5,0.9,1.3c0.3,0.9,0.5,1.3,0.8,1.3
	c0.1-0.1,0.2-0.2,0.2-0.4c0-0.1-0.2-0.8-0.5-2c0.1-0.2,0.3-0.3,0.6-0.4c0.5,0.8,0.8,1.1,0.8,1.2c0.4,0.5,0.7,0.8,1,0.9
	c-0.1-1.2-0.3-2-0.5-2.4c0.2-0.3,0.4-0.5,0.6-0.5c0.1,0,0.4,0.2,1,0.5c0.5,0.3,0.9,0.5,1.2,0.5l0.1,0c-0.7-1.1-1.1-1.8-1-1.9
	l0.1-0.3c0.5,0.1,1.3,0.2,2.2,0.3c-0.1-0.2-0.4-0.5-0.9-0.8c-0.5-0.3-0.7-0.5-0.9-0.8l0-0.3c0-0.3,0.2-0.5,0.5-0.4
	c0.2,0,0.4,0.1,0.7,0.2c0.3,0.1,0.6,0.2,0.8,0.2l0.4,0l0.1-0.4c-1.1-0.1-1.9-0.7-2.6-2c0-0.1-0.4-1.2-1.1-3.3c0.3-0.6,0.9-1.2,2-1.8
	l0.2,0.2c-0.3,0.6-0.5,1.3-0.6,1.9c-0.1,1.3,0.1,2.2,0.6,2.7c0.4,0.5,1.3,0.7,2.6,0.8c0.3,0,0.6-0.3,1-0.8
	C161.4,177.3,161.6,176.9,161.6,176.6z M153.8,177.9c0.1-1.2-0.2-2-0.9-2.6c-0.3-0.9-1-1.4-2-1.5c-0.3,0-0.8,0-1.5,0.1
	c-0.7,0.1-1.2,0.1-1.5,0.1c-0.3,0-0.6-0.1-0.9-0.2l-0.4,0.2c0.4,2.4,0.5,3.8,0.5,4.3c0,0.3-0.1,0.6-0.1,0.8c0,0.2,0,0.5-0.1,0.9
	c-0.1,0.4-0.2,0.7-0.2,0.8c0,0.3,0.1,0.6,0.4,0.8l0.8,0c1.8,0.1,3.2,0.1,4.2-0.1c0.8-0.6,1.3-1.1,1.5-1.4
	C153.6,179.8,153.7,179.1,153.8,177.9z M142.9,167.7c0-0.3-0.1-0.5-0.3-0.8c-0.5-0.2-0.9-0.3-1.1-0.3c-0.9-0.1-1.9,0.3-2.9,1
	c-1,0.8-1.5,1.6-1.5,2.6l0,0.3c0.6,0.2,1,0.3,1.3,0.3c1,0.1,2.2-0.3,3.5-1.1c0-0.2,0.2-0.5,0.6-1
	C142.7,168.3,142.9,167.9,142.9,167.7z M143.9,179.7c-0.1-0.1-0.7-0.4-1.6-0.7c-0.9-0.3-1.5-0.8-1.8-1.3c0.2-0.2,0.4-0.2,0.7-0.3
	c0.2,0,0.4,0,0.8,0.1c0.4,0.1,0.6,0.1,0.7,0.1c0.4,0,0.5-0.1,0.5-0.3c0-0.1,0-0.1-0.1-0.2c-1.6-0.2-2.5-0.6-2.9-1.2
	c0.3-0.2,0.7-0.3,1.3-0.4c0.7,0,1.2-0.1,1.4-0.2c-0.2-0.2-0.7-0.3-1.6-0.4c-0.8-0.1-1.4-0.2-1.5-0.5l0-0.1c0-0.4,0.3-0.6,0.9-0.6
	c0.6-0.1,1-0.2,1.1-0.4c-0.1,0.1-0.7,0.2-1.7,0.3l-0.6-0.3c-0.1-0.1-0.1-0.2-0.1-0.4c0-0.3,0.2-0.5,0.5-0.6c0.3,0,0.6,0,0.8,0
	c0.3,0,0.5-0.1,0.5-0.4l-0.3-0.2c-1.5-0.1-2.4,0.3-2.7,1c0.2,0.5,0.4,1.2,0.9,2.2c0.2,1.8,0.2,4.2,0,7.2c-0.1,1.4-0.2,3.5-0.5,6.3
	c-0.2,2.8-0.4,4.9-0.5,6.3c-0.1,2-0.1,3.2-0.1,3.7c0.2,1.6,0.8,2.4,1.9,2.5c0.1,0,0.3,0,0.7-0.1c-1-0.4-1.5-0.8-1.5-1.1
	c0-0.3,0.2-0.4,0.5-0.4c0.4,0.2,0.8,0.3,1.1,0.3c0.1,0,0.2,0,0.3-0.1c-0.5-0.2-1.1-0.7-1.9-1.4c-0.1-0.2-0.1-0.3,0-0.4l0-0.2
	l0.3-0.2c0.6,0.2,1,0.3,1.2,0.3c0.2,0,0.4,0,0.6-0.2c-0.6-0.3-1.3-0.8-2.1-1.4c0.1-0.5,0.7-0.6,1.9-0.4l0.5-0.1
	c-1.6-0.9-2.3-1.6-2.3-2.1l0-0.1c0.1-0.1,0.4-0.2,0.7-0.2c0.2,0,0.4,0.1,0.8,0.2c0.4,0.1,0.6,0.2,0.8,0.2c0.1-0.1,0.2-0.2,0.3-0.4
	c-0.4,0-1.2-0.5-2.5-1.4c0-0.5,0.2-0.7,0.5-0.7c0.2,0,0.4,0.1,0.7,0.2c0.3,0.1,0.6,0.2,0.7,0.2l0.4-0.1l0,0c0-0.2-0.4-0.5-1.3-0.9
	c-0.2-0.1-0.6-0.5-1.1-1.2c0.4-0.1,1.4-0.1,2.9,0l0-0.2l-2.7-1.7c0.2-0.4,0.6-0.5,1.2-0.5c0.2,0,0.5,0.1,0.8,0.1
	c0.4,0.1,0.7,0.1,0.7,0.1c-0.3-0.2-1.1-0.5-2.1-1.2c-0.1-0.2-0.1-0.4-0.1-0.6c0.3-0.1,0.7-0.1,1.2-0.1c0.7,0.1,1.1,0.2,1.2,0.2
	l0.3,0l0-0.2c-1.3-0.5-2.3-1.1-3-1.9c0.2-0.1,0.4-0.2,0.7-0.1c0.2,0,0.5,0.1,1,0.2c0.4,0.1,0.8,0.2,1,0.2c0.3,0,0.5,0,0.7-0.2
	c-0.3-0.2-0.7-0.4-1.4-0.7c-0.7-0.3-1.2-0.5-1.4-0.8c0.2-0.4,0.5-0.6,1-0.7c-0.2,0,0.2,0.1,1.3,0.1c0.1,0,0.3,0,0.6-0.1
	c-0.3-0.3-0.8-0.5-1.6-0.6c-0.2-0.1-0.5-0.3-0.7-0.4c-0.2-0.2-0.4-0.4-0.4-0.7c0.3-0.2,0.7-0.2,1.2-0.1c0.9,0.1,1.3,0.2,1.2,0.2
	C143.4,179.9,143.6,179.8,143.9,179.7z M161,175.8c0,0.4-0.2,0.9-0.4,1.3l0,0.2c0,0.5-0.2,0.8-0.7,0.9c-0.6-0.2-1.1-0.7-1.5-1.5
	c-0.3-0.7-0.5-1.4-0.5-2.1c0-0.7,0.3-1.2,0.9-1.5c0-0.2,0-0.3,0.1-0.5c0.2-0.1,0.4-0.2,0.6-0.2l0.4,0.1
	C160.7,173.8,161,174.9,161,175.8z M141.7,167.9l-0.2,0.8c-0.8,1-1.8,1.4-2.8,1.3l-0.3,0l-0.3-0.3l0-0.3c0.4-0.2,0.8-0.4,1.3-0.5
	c0.4-0.2,0.6-0.5,0.6-0.9c0-0.1,0-0.3-0.1-0.5c0.3-0.2,0.7-0.3,1.1-0.3c-0.1,0,0.1,0,0.6,0.1L141.7,167.9z M160.5,176.7
	c-0.2-0.2-0.4-0.7-0.6-1.5c-0.2-0.8-0.4-1.3-0.6-1.5l-0.3,0.1c0,0-0.1,0-0.1,0.1c0,0,0,0,0,0l0,0.2c0,0.3,0.1,0.5,0.3,0.6
	c0,0.1,0.1,0.2,0.1,0.2c0,0.1-0.1,0.2-0.3,0.3c-0.2,0.1-0.3,0.2-0.4,0.4c0.1,0.1,0.4,0.3,0.8,0.7c0.4,0.3,0.6,0.5,0.8,0.5
	L160.5,176.7z M198.2,197.5c0,0.4-0.6,1.3-1.8,2.5l-0.4,0c-0.2,0-0.5,0-0.8-0.1c-0.4-0.1-0.7-0.2-0.8-0.2c-0.5,0-0.9,0.2-1.1,0.6
	c0,0.3,0,0.7,0,1.3c0,0.6,0.1,1,0,1.3c-0.1,1.9-1.5,2.8-4.1,2.6c-1.1-0.1-2.3-0.8-3.6-2.3c0-0.2,0-0.5,0-0.8l0-0.8
	c0-0.9,0-1.5-0.2-2c-0.5-0.2-2.2-0.4-5.1-0.6c-1.6-0.1-2.7,0.2-3.5,0.8c-0.6,0.1-1.2,0.1-1.6,0.1c-0.4,0-1-0.9-1.6-2.7
	c-0.6-1.6-0.9-2.8-0.8-3.8c0.2-0.2,0.3-0.5,0.5-1.1c0.2-0.6,0.3-0.9,0.3-1c1.8-1.8,3.2-3.3,4-4.5c1.2-1.7,2-3.5,2.5-5.5
	c0.3-1.3,1.2-2.8,2.6-4.5c1.6-1.8,2.5-3.2,2.9-4.1c0.8-2.1,1.7-3.7,2.7-4.9c0.7-0.1,1.4-0.1,2.1-0.1c1.4,0.1,2.6,0.5,3.4,1.3
	c0.9,0.9,1.3,2,1.3,3.4c-3.2,5.3-7.2,11.9-11.8,19.7c0.1,0.2,0.5,0.4,1.1,0.5c0.4,0.1,0.9,0.1,1.3,0.2c0.3-0.1,0.5-0.5,0.5-1.1
	c0-0.1,0-0.4,0-0.7c0-0.3,0-0.6,0-0.7c-0.1-0.5-0.2-0.9-0.2-1.1c0-0.8,0.7-1.4,2.1-1.8c1.1-0.3,2.1-0.5,3-0.4c0.5,0,1.1,0.4,1.6,1
	l1.2,1.6c0,0.5,0.1,0.7,0.1,0.7c0,0.2-0.1,0.6-0.2,1.1c-0.1,0.5-0.1,0.8-0.1,1.1c0,0.6,0.2,1,0.6,1.2c0.2,0.1,0.7,0.2,1.5,0.2
	c0.8,0,1.4,0.5,1.8,1.4C198.1,195.9,198.3,196.6,198.2,197.5z M194.2,171.5c-0.2-1.9-1.3-2.9-3.3-3c-1.5-0.1-2.3,0.3-2.3,1.1
	c0.4,1.1,1,1.8,1.6,2c1.3,0.4,2.1,0.7,2.3,0.7C193.2,172.3,193.7,172,194.2,171.5z M190.5,174.2c-0.5-0.3-1-0.9-1.5-1.8
	c-0.3-0.7-0.7-1.4-1-2.1c-0.6,1-2,3.1-4.1,6.4c0.7-0.4,1.2-0.6,1.4-0.5c-0.1-0.2-0.2-0.4-0.2-0.6l0.1-0.3c0.2,0,0.9,0.5,2,1.3
	c-0.6-0.9-0.8-1.6-0.8-2.1l0.1-0.4c0.8,0.4,1.6,1,2.3,1.6c-0.3-0.4-0.5-0.9-0.8-1.3c-0.3-0.6-0.5-1.1-0.4-1.4l0-0.1l2.8,1.7
	L190.5,174.2z M185.1,180.4c-0.1-0.7-0.1-1.1-0.1-1.2l-0.2,0.1c-0.1,0.3-0.2,0.5-0.3,0.8c0,0.2,0.1,0.4,0.2,0.5
	C184.9,180.6,185,180.5,185.1,180.4z M186.9,178.7c-0.4-0.9-0.8-1.4-1.3-1.4l-0.4,0c-1.6,1.5-2.4,2.7-2.5,3.7c0,0.5,0.1,0.9,0.4,1.1
	c0.2-0.2,0.3-0.4,0.3-0.6c0-0.1-0.1-0.4-0.2-0.7c0.7-2,1.5-3,2.3-2.9c0.2,0,0.4,0.1,0.6,0.3c0.2,0.2,0.3,0.4,0.3,0.5
	c-0.1,2.6-1.1,3.8-2.8,3.6c-0.2,0.1-0.3,0.2-0.3,0.4c0.1,0.2,0.4,0.3,0.7,0.4C185.7,183.1,186.8,181.7,186.9,178.7z M196.9,195.9
	c0-0.2-0.2-0.3-0.5-0.3l-0.1,0.1l0.3,0.6C196.8,196.1,196.9,196,196.9,195.9z M192.3,189.2c0-0.7-0.7-1.1-2.2-1.2
	c-1.4-0.1-2.4,0.3-3,1.1c0,0.4,0.1,0.7,0.4,1c0.3,0.3,0.6,0.5,0.8,0.8c1.4,0.2,2,0.4,2,0.4C191.6,191.3,192.3,190.6,192.3,189.2z
	 M197.2,197.4c0-0.3-0.2-0.5-0.4-0.6l-0.3,0.8c-0.3,0-0.4-0.2-0.5-0.5c0-0.3,0-0.6,0-0.9c-0.2,0.2-0.3,0.4-0.3,0.8l-0.1,0.9l0.2,0.4
	l0.4,0.4C196.6,198.7,196.9,198.3,197.2,197.4z M188.5,193.2c-0.6-0.2-0.9-0.5-0.9-0.7c0-0.1,0-0.2,0.1-0.3c0.1-0.2,0.1-0.3,0.2-0.4
	c0-0.3-0.2-0.5-0.6-0.5c-0.3,0-0.4,0.1-0.4,0.5c-0.1,1.1,0.3,1.6,1.2,1.7C188.2,193.4,188.4,193.4,188.5,193.2z M185.2,184.8
	c0-0.3-0.3-0.4-0.7-0.4c-0.3,0-0.6,0.1-0.9,0.1c-0.7-0.5-1.2-1-1.4-1.3c-0.3-0.4-0.4-1.1-0.3-1.9c0.1-1.2,0.7-2.5,1.8-3.9l0-0.4
	c-0.7,0.3-1.8,2.1-3.1,5.4c-0.8,2.1-1.8,4-2.9,5.5c-0.8,0.9-1.6,1.9-2.3,2.8c-1,1.3-1.6,2.3-1.6,3c0,0.4,0,0.9,0.2,1.5
	c0.2,0.8,0.4,1.1,0.7,1.1l0-0.1c0-0.3-0.1-0.7-0.3-1.3c-0.2-0.6-0.3-1.1-0.3-1.4l0-0.1c0.3,0,0.6,0.3,0.9,0.7
	c0.4,0.6,0.6,0.9,0.7,0.9l0-0.2c0-0.3,0-0.8-0.3-1.3c-0.2-0.6-0.3-1-0.3-1.2l0-0.1c0.1-0.1,0.2-0.1,0.3-0.1c0.1,0,0.6,0.4,1.5,1.2
	c0-0.8-0.1-1.7-0.3-2.6c0.2,0.1,0.6,0.4,1.1,0.9c0.5,0.5,0.9,0.8,1.2,0.9c0-0.4-0.2-0.9-0.6-1.6c-0.4-0.7-0.6-1.3-0.5-1.6
	c0.1,0,0.2,0,0.3,0c0.2,0,0.5,0.3,0.9,0.8c0.4,0.5,0.7,0.8,1,0.8l0.2,0c-0.2-0.5-0.4-0.9-0.6-1.4c-0.2-0.6-0.3-1.1-0.3-1.5
	c0-0.2,0-0.3,0.1-0.5c0.3,0.4,0.6,0.7,0.9,1.1c0.4,0.5,0.7,0.8,1,0.8c-0.6-1.4-0.9-2.4-0.8-3l0.1-0.4c0.3,0.3,0.7,0.8,1.3,1.4
	l0.4,0.2c0.2-0.1,0.2-0.2,0.2-0.3c-0.2-0.2-0.3-0.5-0.5-0.9c-0.1-0.4-0.2-0.7-0.4-0.9c-0.1-0.3-0.2-0.7-0.3-1
	c0.1-0.2,0.2-0.3,0.3-0.4c0.2,0.1,0.6,0.5,1.2,1.2c0.8,0.1,1.2,0.2,1.1,0.1C184.3,185.3,184.8,185.1,185.2,184.8z M195.5,194.4
	c-0.8,0-2,0-3.7,0c-1.6,0-2.8,0-3.6,0c-0.5,0-1.2-0.2-2.3-0.4c-1-0.3-1.8-0.4-2.4-0.4c-1.4-0.1-2.4,0.1-3.1,0.5
	c-0.6,0.4-1.1,1.3-1.4,2.6l0.1,0c0.2,0,0.5-0.3,0.9-1.1c0.4-0.7,0.8-1.1,1.1-1.2c0,0.3,0,0.6,0,0.9c-0.1,0.5-0.1,0.8-0.1,0.9l0,0.4
	c0.1-0.1,0.4-0.5,0.8-1.2c0.3-0.5,0.6-0.9,0.9-0.9c0.2,0.1,0.3,0.2,0.3,0.4c-0.3,0.4-0.5,0.8-0.5,1.2c0,0.4,0,0.7,0.2,0.9
	c0.1-0.1,0.6-0.7,1.3-1.8c0.5-0.8,1.2-1.1,2-1.1c1.4,0.1,2.2,0.4,2.5,1c0,0.4,0,0.8,0.2,1c0,0,0.4-0.5,1.1-1.4
	c0.3,0.1,0.4,0.3,0.4,0.7c0-0.6,0-0.3-0.1,0.9c0.2-0.3,0.6-0.8,1.2-1.4l0.3,0.2l0,0.7c0,0.1-0.1,0.4-0.2,0.7
	c-0.1,0.3-0.2,0.5-0.3,0.7l0.3,0.2c0.6-0.9,1.1-1.7,1.5-2.5c0.2,0.2,0.3,0.4,0.3,0.7c0,0.1-0.1,0.3-0.2,0.6
	c-0.1,0.3-0.1,0.5-0.1,0.6c0,0.1,0,0.3,0,0.3c0.4-0.7,0.9-1.5,1.5-2.2c0.1,0.1,0.2,0.2,0.3,0.4c0,0.2-0.1,0.6-0.3,1.2l0.1,0.3
	L195.5,194.4z M186.2,196.4l-0.4,0.1c0.1,0.1,0.2,0.2,0.3,0.2c0.1,0,0.1-0.1,0.1-0.2L186.2,196.4L186.2,196.4z M187.7,197.1l0-0.2
	c0.1-0.9-0.4-1.4-1.7-1.5c-1-0.1-1.5,0.3-1.6,1c0,0.6,0.2,0.9,0.6,1.1c0.7,0.3,1.1,0.5,1.2,0.6c0.2,0,0.4,0,0.7,0
	c0.2-0.1,0.2-0.1,0.2-0.3l0-0.1c-0.2,0-0.6,0-1-0.1c-0.8-0.5-1.1-1-1.1-1.4l0-0.2c0.1-0.1,0.3-0.1,0.6-0.1c0.3,0,0.5,0,0.6-0.1
	c0.4,0.1,0.7,0.5,0.9,1.3C187.4,197.1,187.6,197.1,187.7,197.1z M190.1,204.7c-0.1-0.3-0.5-0.6-1.2-1c-0.7-0.4-1.1-0.8-1.2-1.1
	c0.2-0.2,0.6-0.3,1.1-0.2c-0.1-0.2-0.3-0.4-0.7-0.7c-0.4-0.3-0.5-0.5-0.5-0.8c0-0.1,0.2-0.2,0.7-0.3s0.7-0.3,0.8-0.4
	c-0.4-0.2-0.9-0.4-1.6-0.4c-0.2,0-0.5,0-0.7,0c-0.1,0.3-0.2,0.6-0.2,0.9c0,0.1,0,0.9,0,2.2C187.1,204,188.2,204.6,190.1,204.7z
	 M193.3,170.6c-0.1,0-0.1-0.1-0.2-0.1c-0.2,0-0.4,0.1-0.6,0.4c-0.2,0.3-0.4,0.4-0.6,0.4l-0.1-0.1c-0.2-0.5-0.9-0.8-2.3-1.2
	c0.5,0,0.7-0.1,0.8-0.3c0,0,0-0.3,0-0.9l0.1,0c0.4,0,0.8,0.3,1.4,0.9l0.4,0C193,169.8,193.3,170,193.3,170.6z M191.6,189.2
	c-0.3,0-0.5,0.1-0.6,0.3c0.1,0.2,0.3,0.5,0.3,0.8c-0.1,0.2-0.3,0.3-0.5,0.3c-0.4,0-0.8-0.1-1-0.3c-0.5,0-0.7,0.1-0.6,0.1
	c-0.4,0-0.8-0.2-1.1-0.4l0,0c0-0.2,0.1-0.4,0.4-0.6c0.3-0.3,0.4-0.5,0.4-0.6c1.2,0,1.7,0,1.5,0C190.9,188.7,191.3,188.8,191.6,189.2
	z"/>
<path class="st0" d="M96.5,74.7c0,1.2,0,2.4-0.5,3.4c-0.7,1.3-2.1,2-3.6,2.2c-1.4,0.2-2.9,0-4.4-0.2c-11.2-1.7-22.6-2-33.9-1.1
	c-3.1,0.3-6.3,0.6-9.4-0.1c-3.1-0.7-6-2.7-7-5.6c-0.6-1.9-0.3-3.9-0.1-5.9c0.4-2.6,0.9-5.4,2.9-7.1c2.1-1.8,5.1-1.7,7.8-1.5
	c13.8,0.8,27.7,1.5,41.5,2.3c1.5,0.1,3.1,0.2,4.5,0.6c1.4,0.4,2,0.7,2,2.1C96.5,67.4,96.5,71.1,96.5,74.7z"/>
<g>
	<g>
		<path class="st3" d="M39.5,74.9c-0.6,0-1.3-0.2-1.9-0.3c-0.6-0.2-1.2-0.4-1.7-0.7c-0.5-0.3-0.8-0.6-1-0.9l1.3-2
			c0.5,0.5,1,0.8,1.6,1.1c0.6,0.3,1.2,0.4,1.9,0.5c0.7,0,1.3-0.1,1.7-0.3s0.6-0.6,0.7-1.2l0,0c0-0.4-0.1-0.7-0.2-0.9
			c-0.2-0.2-0.4-0.4-0.7-0.5c-0.3-0.1-0.7-0.2-1-0.3c-0.5-0.1-1-0.2-1.4-0.4c-0.5-0.2-0.9-0.4-1.3-0.7c-0.4-0.3-0.7-0.7-0.9-1.2
			c-0.2-0.5-0.3-1.2-0.3-2l0,0c0.1-1.3,0.5-2.3,1.4-3c0.8-0.7,2-1,3.5-0.9c0.7,0,1.3,0.2,2,0.5c0.7,0.3,1.3,0.7,1.9,1.2l-1.2,2.1
			c-0.4-0.4-0.9-0.7-1.4-0.9c-0.5-0.2-1-0.3-1.4-0.4c-0.7,0-1.2,0.1-1.6,0.3c-0.4,0.2-0.6,0.6-0.6,1l0,0c0,0.4,0.1,0.8,0.3,1
			c0.2,0.2,0.5,0.4,0.8,0.5c0.3,0.1,0.7,0.2,1.1,0.4c0.5,0.1,0.9,0.3,1.4,0.4c0.5,0.2,0.9,0.4,1.2,0.7c0.4,0.3,0.7,0.7,0.9,1.2
			c0.2,0.5,0.3,1.1,0.2,1.9l0,0c-0.1,1.3-0.5,2.3-1.4,2.9C42.2,74.7,41,75,39.5,74.9z M38.4,76.4l0.1-2.2l2.5,0.1L41,76.5L38.4,76.4
			z M39.2,61.7l0.1-2.1l2.5,0.1l-0.1,2.1L39.2,61.7z"/>
		<path class="st3" d="M50.8,75.6c-0.6,0-1.3-0.1-1.9-0.3c-0.6-0.2-1.2-0.4-1.7-0.7c-0.5-0.3-1-0.6-1.4-1l1.3-2
			c0.5,0.5,1.1,0.8,1.7,1.1c0.7,0.3,1.4,0.4,2.1,0.5c0.8,0,1.5-0.1,2-0.3c0.5-0.3,0.7-0.6,0.8-1.2l0,0c0-0.4-0.1-0.7-0.3-0.9
			s-0.5-0.4-0.9-0.5c-0.4-0.1-0.8-0.2-1.2-0.3c-0.5-0.1-1-0.2-1.6-0.4c-0.5-0.2-1-0.4-1.4-0.7s-0.8-0.7-1-1.2
			c-0.2-0.5-0.3-1.2-0.3-2l0,0c0.1-1.3,0.6-2.3,1.5-3c0.9-0.7,2.1-1,3.7-0.9c0.7,0,1.5,0.2,2.2,0.5c0.7,0.3,1.4,0.7,2,1.2l-1.2,2.1
			c-0.5-0.4-1-0.7-1.6-0.9c-0.6-0.2-1.1-0.4-1.6-0.4c-0.8,0-1.4,0.1-1.8,0.3s-0.7,0.6-0.7,1l0,0c0,0.4,0.1,0.8,0.3,1
			c0.2,0.2,0.6,0.4,1,0.6c0.4,0.1,0.8,0.3,1.3,0.4c0.5,0.1,1,0.3,1.5,0.5c0.5,0.2,1,0.4,1.4,0.7c0.4,0.3,0.7,0.7,1,1.2
			c0.2,0.5,0.3,1.1,0.3,1.9l0,0c-0.1,1.3-0.6,2.3-1.5,2.9C53.7,75.4,52.4,75.7,50.8,75.6z"/>
		<path class="st3" d="M61.2,66.4l-0.3,5.8c0,0.5,0.1,0.8,0.3,1.1s0.6,0.4,1.1,0.4c0.5,0,0.8-0.1,1.1-0.3s0.4-0.6,0.4-1.1l0,2.1
			c-0.2,0.5-0.5,0.9-0.9,1.2c-0.4,0.4-1,0.5-1.6,0.5c-1-0.1-1.8-0.4-2.3-1.1c-0.5-0.7-0.8-1.7-0.7-2.9l0.3-5.9L61.2,66.4z
			 M63.6,76.1l0.5-9.6l2.5,0.1l-0.5,9.6L63.6,76.1z"/>
		<path class="st3" d="M71.8,80.5c-0.8,0-1.4-0.2-2-0.5c-0.6-0.3-1-0.7-1.3-1.2l1.8-1.5c0.2,0.2,0.5,0.4,0.7,0.6
			c0.3,0.1,0.6,0.2,0.9,0.2c0.5,0,0.9-0.1,1.3-0.4c0.4-0.3,0.6-0.7,0.6-1.2l0.5-9.5l2.5,0.1l-0.5,9.3c-0.1,1.3-0.5,2.3-1.3,3
			C74.3,80.3,73.2,80.6,71.8,80.5z M71.6,76.7c-1-0.1-1.8-0.5-2.3-1.2c-0.5-0.8-0.7-1.8-0.7-3.1l0.1-1.5c0.1-1.3,0.4-2.4,1-3.1
			c0.6-0.7,1.4-1,2.4-1c0.5,0,1,0.2,1.4,0.5c0.4,0.3,0.7,0.8,1,1.4l-0.3,2.1c0-0.3,0-0.6-0.1-0.8s-0.3-0.4-0.5-0.6
			c-0.2-0.1-0.5-0.2-0.8-0.2c-0.5,0-0.9,0.1-1.1,0.4c-0.3,0.3-0.4,0.8-0.5,1.3l-0.1,1.5c0,0.6,0.1,1,0.3,1.4
			c0.2,0.3,0.6,0.5,1.1,0.5c0.3,0,0.6,0,0.8-0.1c0.2-0.1,0.4-0.3,0.5-0.5c0.1-0.2,0.2-0.5,0.2-0.8l0,2.2c-0.2,0.5-0.5,0.9-1,1.2
			C72.6,76.6,72.1,76.8,71.6,76.7z"/>
		<path class="st3" d="M81.5,77.3c-1-0.1-1.8-0.3-2.3-0.9c-0.5-0.5-0.7-1.3-0.6-2.3c0.1-1,0.4-1.7,1-2.1s1.5-0.6,2.6-0.6l2.4,0.1
			l0,1.9L82,73.4c-0.4,0-0.7,0-0.9,0.2c-0.2,0.1-0.3,0.4-0.3,0.7c0,0.3,0.1,0.6,0.3,0.7c0.2,0.2,0.6,0.3,1.1,0.3
			c0.7,0,1.2,0,1.5-0.1c0.3-0.1,0.5-0.4,0.5-0.7l0.1,1.4c-0.1,0.4-0.2,0.7-0.5,0.9c-0.3,0.2-0.7,0.4-1.1,0.5
			C82.4,77.3,81.9,77.3,81.5,77.3z M84.1,77.3l0.3-6.1c0-0.4-0.1-0.8-0.4-1.1c-0.3-0.3-0.7-0.4-1.2-0.4c-0.4,0-0.7,0-1.1,0.1
			c-0.4,0.1-0.7,0.2-1,0.4l-1.5-1.6c0.4-0.4,0.9-0.7,1.6-0.9c0.6-0.2,1.3-0.3,2.1-0.2c1.3,0.1,2.2,0.4,2.9,1.1
			c0.7,0.7,1,1.6,0.9,2.7l-0.3,6.2L84.1,77.3z"/>
		<path class="st3" d="M89,77.6l0.5-9.6l2.7,0.2l-0.5,9.6L89,77.6z M94.8,70.9c-0.1-0.1-0.3-0.2-0.4-0.3c-0.2-0.1-0.4-0.1-0.6-0.1
			c-0.5,0-0.9,0.1-1.2,0.4c-0.3,0.3-0.5,0.8-0.5,1.4l-0.1-2.5c0.3-0.6,0.7-1,1.1-1.3c0.4-0.3,0.9-0.4,1.4-0.4c0.4,0,0.8,0.1,1.1,0.3
			c0.3,0.1,0.6,0.3,0.8,0.6L94.8,70.9z"/>
	</g>
</g>
</svg>
